G04 EAGLE Gerber RS-274X export*
G75*
%MOMM*%
%FSLAX34Y34*%
%LPD*%
%INTop Copper*%
%IPPOS*%
%AMOC8*
5,1,8,0,0,1.08239X$1,22.5*%
G01*
%ADD10C,1.960000*%
%ADD11C,4.445000*%
%ADD12C,1.400000*%
%ADD13R,1.778000X1.778000*%
%ADD14C,1.778000*%
%ADD15C,3.500000*%
%ADD16R,1.244600X1.244600*%
%ADD17R,1.524000X1.524000*%
%ADD18P,1.649562X8X202.500000*%
%ADD19C,1.016000*%
%ADD20C,0.254000*%


D10*
X964200Y-241700D03*
X964200Y-291700D03*
X839200Y-291700D03*
X839200Y-241700D03*
X1116600Y-241700D03*
X1116600Y-291700D03*
X991600Y-291700D03*
X991600Y-241700D03*
X1269000Y-241700D03*
X1269000Y-291700D03*
X1144000Y-291700D03*
X1144000Y-241700D03*
X1269000Y-76600D03*
X1269000Y-126600D03*
X1144000Y-126600D03*
X1144000Y-76600D03*
X1269000Y228200D03*
X1269000Y178200D03*
X1144000Y178200D03*
X1144000Y228200D03*
X1269000Y63100D03*
X1269000Y13100D03*
X1144000Y13100D03*
X1144000Y63100D03*
D11*
X1320800Y292100D03*
X1320800Y-342900D03*
X254000Y292100D03*
X254000Y-342900D03*
D10*
X405400Y-38500D03*
X405400Y-88500D03*
X280400Y-88500D03*
X280400Y-38500D03*
D12*
X317900Y-330200D03*
X342900Y-330200D03*
X367900Y-330200D03*
X457600Y-330200D03*
X482600Y-330200D03*
X507600Y-330200D03*
X597300Y-330200D03*
X622300Y-330200D03*
X647300Y-330200D03*
X737000Y-330200D03*
X762000Y-330200D03*
X787000Y-330200D03*
D13*
X470100Y190500D03*
D14*
X470100Y165100D03*
X470100Y139700D03*
X470100Y114300D03*
X470100Y88900D03*
X470100Y63500D03*
X470100Y38100D03*
X470100Y12700D03*
X470100Y-12700D03*
X470100Y-38100D03*
D15*
X469900Y254000D03*
X1079500Y-101600D03*
X1079500Y254000D03*
X469900Y-101600D03*
D16*
X342900Y254000D03*
X342900Y220980D03*
X342900Y187960D03*
X342900Y154940D03*
X342900Y121920D03*
X342900Y88900D03*
X342900Y55880D03*
D17*
X1007700Y-66300D03*
D18*
X1007700Y-40900D03*
X982300Y-66300D03*
X982300Y-40900D03*
X956900Y-66300D03*
X956900Y-40900D03*
X931500Y-66300D03*
X931500Y-40900D03*
X906100Y-66300D03*
X906100Y-40900D03*
X880700Y-66300D03*
X880700Y-40900D03*
X855300Y-66300D03*
X855300Y-40900D03*
X829900Y-66300D03*
X829900Y-40900D03*
X804500Y-66300D03*
X804500Y-40900D03*
X779100Y-66300D03*
X779100Y-40900D03*
X753700Y-66300D03*
X753700Y-40900D03*
X728300Y-66300D03*
X728300Y-40900D03*
X702900Y-66300D03*
X702900Y-40900D03*
X677500Y-66300D03*
X677500Y-40900D03*
X652100Y-66300D03*
X652100Y-40900D03*
X626700Y-66300D03*
X626700Y-40900D03*
X601300Y-66300D03*
X601300Y-40900D03*
X575900Y-66300D03*
X575900Y-40900D03*
D17*
X1007700Y187700D03*
D18*
X1007700Y213100D03*
X982300Y187700D03*
X982300Y213100D03*
X956900Y187700D03*
X956900Y213100D03*
X931500Y187700D03*
X931500Y213100D03*
X906100Y187700D03*
X906100Y213100D03*
X880700Y187700D03*
X880700Y213100D03*
X855300Y187700D03*
X855300Y213100D03*
X829900Y187700D03*
X829900Y213100D03*
X804500Y187700D03*
X804500Y213100D03*
X779100Y187700D03*
X779100Y213100D03*
X753700Y187700D03*
X753700Y213100D03*
X728300Y187700D03*
X728300Y213100D03*
X702900Y187700D03*
X702900Y213100D03*
X677500Y187700D03*
X677500Y213100D03*
X652100Y187700D03*
X652100Y213100D03*
X626700Y187700D03*
X626700Y213100D03*
X601300Y187700D03*
X601300Y213100D03*
X575900Y187700D03*
X575900Y213100D03*
D19*
X254000Y5080D03*
X773430Y307340D03*
X1319530Y-7620D03*
D20*
X622300Y-71120D02*
X622300Y-330200D01*
X622300Y-71120D02*
X624840Y-68580D01*
X626700Y-66300D01*
X482600Y-185420D02*
X482600Y-330200D01*
X482600Y-185420D02*
X599440Y-68580D01*
X601300Y-66300D01*
X347980Y-330200D02*
X342900Y-330200D01*
X347980Y-330200D02*
X414020Y-264160D01*
X414020Y-228600D01*
X574040Y-68580D01*
X575900Y-66300D01*
X342900Y175260D02*
X342900Y187960D01*
X342900Y175260D02*
X457200Y60960D01*
X457200Y7620D01*
X464820Y0D01*
X660400Y0D01*
X701040Y-40640D01*
X702900Y-40900D01*
X383540Y55880D02*
X342900Y55880D01*
X383540Y55880D02*
X464820Y-25400D01*
X584200Y-25400D01*
X599440Y-40640D01*
X601300Y-40900D01*
X762000Y-177800D02*
X762000Y-330200D01*
X762000Y-177800D02*
X652780Y-68580D01*
X652100Y-66300D01*
X650240Y185420D02*
X645160Y185420D01*
X472440Y12700D01*
X650240Y185420D02*
X652100Y187700D01*
X472440Y12700D02*
X470100Y12700D01*
X617220Y185420D02*
X624840Y185420D01*
X617220Y185420D02*
X520700Y88900D01*
X470100Y88900D01*
X624840Y185420D02*
X626700Y187700D01*
X878840Y-43180D02*
X878840Y-50800D01*
X868680Y-60960D01*
X868680Y-261620D01*
X840740Y-289560D01*
X878840Y-43180D02*
X880700Y-40900D01*
X840740Y-289560D02*
X839200Y-291700D01*
X906780Y-50800D02*
X906780Y-43180D01*
X906780Y-50800D02*
X919480Y-63500D01*
X919480Y-218440D01*
X990600Y-289560D01*
X906780Y-43180D02*
X906100Y-40900D01*
X990600Y-289560D02*
X991600Y-291700D01*
X932180Y-50800D02*
X932180Y-43180D01*
X932180Y-50800D02*
X944880Y-63500D01*
X944880Y-91440D01*
X1143000Y-289560D01*
X932180Y-43180D02*
X931500Y-40900D01*
X1143000Y-289560D02*
X1144000Y-291700D01*
X967740Y-43180D02*
X957580Y-43180D01*
X967740Y-43180D02*
X977900Y-53340D01*
X1071880Y-53340D01*
X1143000Y-124460D01*
X957580Y-43180D02*
X956900Y-40900D01*
X1143000Y-124460D02*
X1144000Y-126600D01*
X982980Y-40640D02*
X982980Y17780D01*
X1143000Y177800D01*
X982980Y-40640D02*
X982300Y-40900D01*
X1143000Y177800D02*
X1144000Y178200D01*
X1089660Y-40640D02*
X1008380Y-40640D01*
X1089660Y-40640D02*
X1143000Y12700D01*
X1008380Y-40640D02*
X1007700Y-40900D01*
X1143000Y12700D02*
X1144000Y13100D01*
X574040Y-43180D02*
X485140Y-43180D01*
X454660Y-73660D01*
X307340Y-73660D01*
X574040Y-43180D02*
X575900Y-40900D01*
X286718Y-88500D02*
X280400Y-88500D01*
X286718Y-88500D02*
X307340Y-73660D01*
M02*
