G04 EAGLE Gerber RS-274X export*
G75*
%MOMM*%
%FSLAX34Y34*%
%LPD*%
%INCopper Layer 2*%
%IPPOS*%
%AMOC8*
5,1,8,0,0,1.08239X$1,22.5*%
G01*
%ADD10C,1.960000*%
%ADD11C,4.191000*%
%ADD12C,1.400000*%
%ADD13C,3.500000*%
%ADD14C,1.244600*%

G36*
X1355418Y-378456D02*
X1355418Y-378456D01*
X1355437Y-378458D01*
X1355539Y-378436D01*
X1355641Y-378420D01*
X1355658Y-378410D01*
X1355678Y-378406D01*
X1355767Y-378353D01*
X1355858Y-378304D01*
X1355872Y-378290D01*
X1355889Y-378280D01*
X1355956Y-378201D01*
X1356028Y-378126D01*
X1356036Y-378108D01*
X1356049Y-378093D01*
X1356088Y-377997D01*
X1356131Y-377903D01*
X1356133Y-377883D01*
X1356141Y-377865D01*
X1356159Y-377698D01*
X1356159Y323598D01*
X1356156Y323618D01*
X1356158Y323637D01*
X1356136Y323739D01*
X1356120Y323841D01*
X1356110Y323858D01*
X1356106Y323878D01*
X1356053Y323967D01*
X1356004Y324058D01*
X1355990Y324072D01*
X1355980Y324089D01*
X1355901Y324156D01*
X1355826Y324228D01*
X1355808Y324236D01*
X1355793Y324249D01*
X1355697Y324288D01*
X1355603Y324331D01*
X1355583Y324333D01*
X1355565Y324341D01*
X1355398Y324359D01*
X219202Y324359D01*
X219182Y324356D01*
X219163Y324358D01*
X219061Y324336D01*
X218959Y324320D01*
X218942Y324310D01*
X218922Y324306D01*
X218833Y324253D01*
X218742Y324204D01*
X218728Y324190D01*
X218711Y324180D01*
X218644Y324101D01*
X218572Y324026D01*
X218564Y324008D01*
X218551Y323993D01*
X218512Y323897D01*
X218469Y323803D01*
X218467Y323783D01*
X218459Y323765D01*
X218441Y323598D01*
X218441Y-377698D01*
X218444Y-377718D01*
X218442Y-377737D01*
X218464Y-377839D01*
X218480Y-377941D01*
X218490Y-377958D01*
X218494Y-377978D01*
X218547Y-378067D01*
X218596Y-378158D01*
X218610Y-378172D01*
X218620Y-378189D01*
X218699Y-378256D01*
X218774Y-378328D01*
X218792Y-378336D01*
X218807Y-378349D01*
X218903Y-378388D01*
X218997Y-378431D01*
X219017Y-378433D01*
X219035Y-378441D01*
X219202Y-378459D01*
X1355398Y-378459D01*
X1355418Y-378456D01*
G37*
%LPC*%
G36*
X1316126Y268604D02*
X1316126Y268604D01*
X1307491Y272181D01*
X1300881Y278791D01*
X1297304Y287426D01*
X1297304Y296774D01*
X1300881Y305409D01*
X1307491Y312019D01*
X1316126Y315596D01*
X1325474Y315596D01*
X1334109Y312019D01*
X1340719Y305409D01*
X1344296Y296774D01*
X1344296Y287426D01*
X1340719Y278791D01*
X1334109Y272181D01*
X1325474Y268604D01*
X1316126Y268604D01*
G37*
%LPD*%
%LPC*%
G36*
X249326Y268604D02*
X249326Y268604D01*
X240691Y272181D01*
X234081Y278791D01*
X230504Y287426D01*
X230504Y296774D01*
X234081Y305409D01*
X240691Y312019D01*
X249326Y315596D01*
X258674Y315596D01*
X267309Y312019D01*
X273919Y305409D01*
X277496Y296774D01*
X277496Y287426D01*
X273919Y278791D01*
X267309Y272181D01*
X258674Y268604D01*
X249326Y268604D01*
G37*
%LPD*%
%LPC*%
G36*
X249326Y-366396D02*
X249326Y-366396D01*
X240691Y-362819D01*
X234081Y-356209D01*
X230504Y-347574D01*
X230504Y-338226D01*
X234081Y-329591D01*
X240691Y-322981D01*
X249326Y-319404D01*
X258674Y-319404D01*
X267309Y-322981D01*
X273919Y-329591D01*
X277496Y-338226D01*
X277496Y-347574D01*
X273919Y-356209D01*
X267309Y-362819D01*
X258674Y-366396D01*
X249326Y-366396D01*
G37*
%LPD*%
%LPC*%
G36*
X1316126Y-366396D02*
X1316126Y-366396D01*
X1307491Y-362819D01*
X1300881Y-356209D01*
X1297304Y-347574D01*
X1297304Y-338226D01*
X1300881Y-329591D01*
X1307491Y-322981D01*
X1316126Y-319404D01*
X1325474Y-319404D01*
X1334109Y-322981D01*
X1340719Y-329591D01*
X1344296Y-338226D01*
X1344296Y-347574D01*
X1340719Y-356209D01*
X1334109Y-362819D01*
X1325474Y-366396D01*
X1316126Y-366396D01*
G37*
%LPD*%
%LPC*%
G36*
X1075514Y233959D02*
X1075514Y233959D01*
X1068148Y237010D01*
X1062510Y242648D01*
X1059459Y250014D01*
X1059459Y257986D01*
X1062510Y265352D01*
X1068148Y270990D01*
X1075514Y274041D01*
X1083486Y274041D01*
X1090852Y270990D01*
X1096490Y265352D01*
X1099541Y257986D01*
X1099541Y250014D01*
X1096490Y242648D01*
X1090852Y237010D01*
X1083486Y233959D01*
X1075514Y233959D01*
G37*
%LPD*%
%LPC*%
G36*
X465914Y233959D02*
X465914Y233959D01*
X458548Y237010D01*
X452910Y242648D01*
X449859Y250014D01*
X449859Y257986D01*
X452910Y265352D01*
X458548Y270990D01*
X465914Y274041D01*
X473886Y274041D01*
X481252Y270990D01*
X486890Y265352D01*
X489941Y257986D01*
X489941Y250014D01*
X486890Y242648D01*
X481252Y237010D01*
X473886Y233959D01*
X465914Y233959D01*
G37*
%LPD*%
%LPC*%
G36*
X1075514Y-121641D02*
X1075514Y-121641D01*
X1068148Y-118590D01*
X1062510Y-112952D01*
X1059459Y-105586D01*
X1059459Y-97614D01*
X1062510Y-90248D01*
X1068148Y-84610D01*
X1075514Y-81559D01*
X1083486Y-81559D01*
X1090852Y-84610D01*
X1096490Y-90248D01*
X1099541Y-97614D01*
X1099541Y-105586D01*
X1096490Y-112952D01*
X1090852Y-118590D01*
X1083486Y-121641D01*
X1075514Y-121641D01*
G37*
%LPD*%
%LPC*%
G36*
X465914Y-121641D02*
X465914Y-121641D01*
X458548Y-118590D01*
X452910Y-112952D01*
X449859Y-105586D01*
X449859Y-97614D01*
X452910Y-90248D01*
X458548Y-84610D01*
X465914Y-81559D01*
X473886Y-81559D01*
X481252Y-84610D01*
X486890Y-90248D01*
X489941Y-97614D01*
X489941Y-105586D01*
X486890Y-112952D01*
X481252Y-118590D01*
X473886Y-121641D01*
X465914Y-121641D01*
G37*
%LPD*%
%LPC*%
G36*
X761561Y73966D02*
X761561Y73966D01*
X761434Y74156D01*
X761406Y74186D01*
X761389Y74214D01*
X761386Y74218D01*
X761378Y74230D01*
X761319Y74280D01*
X761266Y74336D01*
X761225Y74359D01*
X761189Y74389D01*
X761118Y74417D01*
X761050Y74453D01*
X761004Y74461D01*
X760960Y74478D01*
X760883Y74482D01*
X760807Y74495D01*
X760761Y74488D01*
X760715Y74491D01*
X760640Y74470D01*
X760564Y74458D01*
X760523Y74436D01*
X760478Y74424D01*
X760414Y74380D01*
X760346Y74345D01*
X760313Y74311D01*
X760275Y74285D01*
X760189Y74183D01*
X760175Y74168D01*
X760172Y74163D01*
X760167Y74156D01*
X760040Y73966D01*
X757564Y73471D01*
X755395Y74917D01*
X755382Y74932D01*
X755354Y74982D01*
X755305Y75027D01*
X755263Y75078D01*
X755214Y75109D01*
X755172Y75148D01*
X755111Y75174D01*
X755055Y75210D01*
X754999Y75223D01*
X754947Y75246D01*
X754880Y75252D01*
X754816Y75267D01*
X754759Y75262D01*
X754702Y75267D01*
X754637Y75252D01*
X754571Y75246D01*
X754518Y75223D01*
X754462Y75210D01*
X754374Y75160D01*
X754345Y75148D01*
X754335Y75139D01*
X754316Y75128D01*
X752260Y73659D01*
X748767Y73659D01*
X745924Y75690D01*
X745580Y76694D01*
X745547Y76755D01*
X745523Y76820D01*
X745489Y76863D01*
X745464Y76911D01*
X745413Y76958D01*
X745369Y77012D01*
X745324Y77042D01*
X745284Y77079D01*
X745221Y77108D01*
X745162Y77145D01*
X745110Y77159D01*
X745061Y77181D01*
X744991Y77189D01*
X744924Y77206D01*
X744870Y77201D01*
X744816Y77207D01*
X744748Y77192D01*
X744679Y77186D01*
X744629Y77165D01*
X744576Y77153D01*
X744516Y77117D01*
X744452Y77090D01*
X744393Y77043D01*
X744365Y77026D01*
X744351Y77009D01*
X744321Y76985D01*
X743653Y76317D01*
X743600Y76243D01*
X743541Y76174D01*
X743529Y76144D01*
X743510Y76117D01*
X743483Y76030D01*
X743449Y75946D01*
X743444Y75905D01*
X743438Y75882D01*
X743438Y75850D01*
X743430Y75779D01*
X743430Y75445D01*
X741645Y73659D01*
X739119Y73659D01*
X737317Y75461D01*
X737312Y75530D01*
X737299Y75562D01*
X737293Y75596D01*
X737252Y75675D01*
X737217Y75757D01*
X737194Y75783D01*
X737178Y75814D01*
X737114Y75875D01*
X737055Y75942D01*
X737025Y75959D01*
X737000Y75983D01*
X736919Y76021D01*
X736842Y76065D01*
X736808Y76072D01*
X736777Y76087D01*
X736688Y76097D01*
X736601Y76114D01*
X736567Y76110D01*
X736532Y76114D01*
X736445Y76095D01*
X736357Y76084D01*
X736316Y76067D01*
X736292Y76062D01*
X736265Y76045D01*
X736217Y76025D01*
X735513Y76226D01*
X735492Y76229D01*
X735471Y76237D01*
X735304Y76256D01*
X734709Y76256D01*
X734689Y76252D01*
X734670Y76255D01*
X734568Y76233D01*
X734466Y76216D01*
X734449Y76207D01*
X734429Y76202D01*
X734340Y76149D01*
X734249Y76101D01*
X734235Y76086D01*
X734218Y76076D01*
X734151Y75998D01*
X734080Y75923D01*
X734071Y75904D01*
X734058Y75889D01*
X734019Y75793D01*
X733976Y75699D01*
X733974Y75680D01*
X733966Y75661D01*
X733948Y75494D01*
X733948Y75445D01*
X732162Y73659D01*
X724562Y73659D01*
X724540Y73656D01*
X724501Y73657D01*
X723363Y73565D01*
X723344Y73572D01*
X723290Y73605D01*
X723231Y73618D01*
X723174Y73641D01*
X723162Y73642D01*
X722361Y74443D01*
X722343Y74456D01*
X722316Y74485D01*
X721447Y75224D01*
X721438Y75243D01*
X721423Y75304D01*
X721391Y75356D01*
X721367Y75412D01*
X721359Y75421D01*
X721359Y76554D01*
X721356Y76576D01*
X721357Y76615D01*
X721265Y77753D01*
X721272Y77772D01*
X721305Y77826D01*
X721318Y77885D01*
X721341Y77942D01*
X721342Y77954D01*
X722143Y78755D01*
X722157Y78773D01*
X722185Y78800D01*
X724455Y81470D01*
X724478Y81509D01*
X724509Y81543D01*
X724541Y81614D01*
X724582Y81681D01*
X724592Y81725D01*
X724610Y81767D01*
X724618Y81845D01*
X724635Y81921D01*
X724630Y81966D01*
X724634Y82012D01*
X724617Y82088D01*
X724609Y82166D01*
X724590Y82207D01*
X724580Y82251D01*
X724538Y82318D01*
X724506Y82389D01*
X724475Y82422D01*
X724451Y82461D01*
X724391Y82511D01*
X724337Y82568D01*
X724297Y82590D01*
X724262Y82619D01*
X724136Y82676D01*
X724120Y82684D01*
X724116Y82685D01*
X724109Y82688D01*
X722267Y83284D01*
X721118Y85533D01*
X721508Y86735D01*
X722189Y88839D01*
X725766Y91441D01*
X729578Y91441D01*
X732348Y89841D01*
X733678Y87539D01*
X733719Y87488D01*
X733752Y87432D01*
X733797Y87393D01*
X733833Y87348D01*
X733889Y87313D01*
X733938Y87271D01*
X733992Y87249D01*
X734042Y87217D01*
X734105Y87202D01*
X734166Y87177D01*
X734224Y87174D01*
X734281Y87160D01*
X734346Y87166D01*
X734411Y87162D01*
X734468Y87177D01*
X734526Y87182D01*
X734586Y87208D01*
X734649Y87225D01*
X734698Y87257D01*
X734751Y87281D01*
X734800Y87325D01*
X734854Y87361D01*
X734890Y87407D01*
X734933Y87446D01*
X734965Y87503D01*
X735005Y87555D01*
X735037Y87632D01*
X735053Y87661D01*
X735056Y87680D01*
X735069Y87710D01*
X735850Y90444D01*
X738058Y91670D01*
X740486Y90977D01*
X741713Y88769D01*
X740899Y85920D01*
X740899Y85918D01*
X740898Y85916D01*
X740885Y85797D01*
X740870Y85676D01*
X740871Y85674D01*
X740871Y85671D01*
X740896Y85554D01*
X740921Y85435D01*
X740922Y85433D01*
X740923Y85431D01*
X740986Y85325D01*
X741046Y85223D01*
X741048Y85222D01*
X741049Y85220D01*
X741142Y85140D01*
X741232Y85062D01*
X741234Y85061D01*
X741236Y85060D01*
X741351Y85014D01*
X741460Y84969D01*
X741462Y84969D01*
X741464Y84968D01*
X741631Y84950D01*
X741645Y84950D01*
X742920Y83674D01*
X742978Y83633D01*
X743030Y83583D01*
X743077Y83561D01*
X743119Y83531D01*
X743188Y83510D01*
X743253Y83480D01*
X743305Y83474D01*
X743354Y83459D01*
X743426Y83460D01*
X743497Y83453D01*
X743548Y83464D01*
X743600Y83465D01*
X743668Y83490D01*
X743738Y83505D01*
X743782Y83532D01*
X743831Y83549D01*
X743887Y83594D01*
X743949Y83631D01*
X743983Y83671D01*
X744023Y83703D01*
X744062Y83763D01*
X744109Y83818D01*
X744128Y83866D01*
X744156Y83910D01*
X744174Y83979D01*
X744201Y84046D01*
X744209Y84117D01*
X744216Y84149D01*
X744215Y84172D01*
X744219Y84213D01*
X744219Y85475D01*
X745398Y87893D01*
X745407Y87923D01*
X745434Y87980D01*
X745924Y89410D01*
X748767Y91441D01*
X752260Y91441D01*
X755103Y89410D01*
X755593Y87980D01*
X755608Y87953D01*
X755629Y87894D01*
X755721Y87705D01*
X755770Y87636D01*
X755811Y87563D01*
X755847Y87526D01*
X755863Y87504D01*
X755887Y87486D01*
X755930Y87444D01*
X756040Y87356D01*
X756062Y87343D01*
X756081Y87325D01*
X756169Y87283D01*
X756254Y87235D01*
X756280Y87231D01*
X756304Y87219D01*
X756400Y87208D01*
X756496Y87189D01*
X756522Y87193D01*
X756548Y87190D01*
X756643Y87210D01*
X756739Y87223D01*
X756763Y87235D01*
X756789Y87240D01*
X756938Y87317D01*
X757564Y87734D01*
X760040Y87239D01*
X760167Y87049D01*
X760199Y87015D01*
X760223Y86975D01*
X760282Y86925D01*
X760335Y86869D01*
X760376Y86847D01*
X760412Y86817D01*
X760483Y86789D01*
X760551Y86752D01*
X760597Y86744D01*
X760641Y86727D01*
X760718Y86723D01*
X760793Y86710D01*
X760840Y86717D01*
X760886Y86715D01*
X760960Y86736D01*
X761037Y86747D01*
X761078Y86769D01*
X761123Y86782D01*
X761187Y86825D01*
X761255Y86861D01*
X761287Y86894D01*
X761326Y86920D01*
X761412Y87023D01*
X761426Y87037D01*
X761428Y87042D01*
X761434Y87049D01*
X761561Y87239D01*
X764181Y87763D01*
X764245Y87787D01*
X764312Y87802D01*
X764359Y87830D01*
X764411Y87850D01*
X764464Y87893D01*
X764523Y87928D01*
X764559Y87970D01*
X764602Y88005D01*
X764638Y88063D01*
X764683Y88115D01*
X764704Y88166D01*
X764733Y88213D01*
X764749Y88280D01*
X764775Y88343D01*
X764783Y88421D01*
X764791Y88452D01*
X764789Y88474D01*
X764793Y88510D01*
X764793Y89655D01*
X766579Y91441D01*
X773571Y91441D01*
X776655Y89200D01*
X776676Y89189D01*
X776694Y89173D01*
X776785Y89134D01*
X776874Y89090D01*
X776898Y89086D01*
X776920Y89077D01*
X777019Y89069D01*
X777118Y89055D01*
X777142Y89059D01*
X777166Y89057D01*
X777262Y89082D01*
X777360Y89100D01*
X777381Y89111D01*
X777404Y89117D01*
X777550Y89200D01*
X780630Y91441D01*
X784442Y91441D01*
X787212Y89841D01*
X787815Y88798D01*
X787843Y88762D01*
X787865Y88722D01*
X787921Y88668D01*
X787970Y88607D01*
X788009Y88583D01*
X788042Y88551D01*
X788113Y88518D01*
X788179Y88477D01*
X788223Y88466D01*
X788265Y88446D01*
X788342Y88437D01*
X788418Y88419D01*
X788463Y88423D01*
X788509Y88418D01*
X788585Y88434D01*
X788663Y88441D01*
X788705Y88459D01*
X788749Y88469D01*
X788817Y88508D01*
X788888Y88540D01*
X788922Y88571D01*
X788961Y88594D01*
X789012Y88653D01*
X789070Y88705D01*
X789092Y88745D01*
X789122Y88780D01*
X789181Y88904D01*
X789190Y88920D01*
X789191Y88925D01*
X789194Y88931D01*
X789358Y89410D01*
X792201Y91441D01*
X795694Y91441D01*
X798537Y89410D01*
X799027Y87980D01*
X799041Y87953D01*
X799063Y87894D01*
X799155Y87705D01*
X799204Y87636D01*
X799245Y87563D01*
X799281Y87526D01*
X799297Y87504D01*
X799321Y87486D01*
X799364Y87444D01*
X799434Y87387D01*
X799457Y87187D01*
X799469Y87142D01*
X799473Y87095D01*
X799518Y86969D01*
X799523Y86950D01*
X799526Y86945D01*
X799529Y86937D01*
X800242Y85476D01*
X800242Y79625D01*
X799063Y77206D01*
X799054Y77176D01*
X799027Y77119D01*
X798537Y75690D01*
X795694Y73659D01*
X792201Y73659D01*
X789707Y75441D01*
X789635Y75476D01*
X789567Y75520D01*
X789525Y75530D01*
X789486Y75549D01*
X789406Y75560D01*
X789329Y75580D01*
X789285Y75576D01*
X789242Y75582D01*
X789163Y75567D01*
X789083Y75561D01*
X789043Y75544D01*
X789001Y75535D01*
X788931Y75496D01*
X788857Y75464D01*
X788812Y75429D01*
X788787Y75414D01*
X788768Y75393D01*
X788726Y75359D01*
X787026Y73659D01*
X779426Y73659D01*
X779404Y73656D01*
X779364Y73657D01*
X778227Y73565D01*
X778208Y73572D01*
X778154Y73605D01*
X778095Y73618D01*
X778038Y73641D01*
X778026Y73642D01*
X777225Y74443D01*
X777207Y74456D01*
X777180Y74485D01*
X776295Y75237D01*
X776249Y75265D01*
X776210Y75300D01*
X776145Y75328D01*
X776084Y75364D01*
X776032Y75376D01*
X775984Y75397D01*
X775913Y75402D01*
X775844Y75418D01*
X775791Y75412D01*
X775738Y75416D01*
X775670Y75399D01*
X775599Y75391D01*
X775551Y75369D01*
X775500Y75356D01*
X775401Y75300D01*
X775376Y75288D01*
X775368Y75281D01*
X775354Y75273D01*
X773133Y73659D01*
X766579Y73659D01*
X766117Y74122D01*
X766061Y74161D01*
X766012Y74209D01*
X765962Y74233D01*
X765917Y74265D01*
X765852Y74285D01*
X765790Y74315D01*
X765735Y74321D01*
X765682Y74338D01*
X765614Y74336D01*
X765546Y74344D01*
X765492Y74333D01*
X765436Y74331D01*
X765372Y74308D01*
X765305Y74294D01*
X765236Y74258D01*
X765205Y74247D01*
X765188Y74233D01*
X765156Y74217D01*
X764037Y73471D01*
X761561Y73966D01*
G37*
%LPD*%
%LPC*%
G36*
X709008Y-275241D02*
X709008Y-275241D01*
X703480Y-272951D01*
X699249Y-268720D01*
X696959Y-263192D01*
X696959Y-257208D01*
X699249Y-251680D01*
X703480Y-247449D01*
X709008Y-245159D01*
X714992Y-245159D01*
X720520Y-247449D01*
X724751Y-251680D01*
X727041Y-257208D01*
X727041Y-263192D01*
X724751Y-268720D01*
X720520Y-272951D01*
X714992Y-275241D01*
X709008Y-275241D01*
G37*
%LPD*%
%LPC*%
G36*
X289908Y-275241D02*
X289908Y-275241D01*
X284380Y-272951D01*
X280149Y-268720D01*
X277859Y-263192D01*
X277859Y-257208D01*
X280149Y-251680D01*
X284380Y-247449D01*
X289908Y-245159D01*
X295892Y-245159D01*
X301420Y-247449D01*
X305651Y-251680D01*
X307941Y-257208D01*
X307941Y-263192D01*
X305651Y-268720D01*
X301420Y-272951D01*
X295892Y-275241D01*
X289908Y-275241D01*
G37*
%LPD*%
%LPC*%
G36*
X389908Y-275241D02*
X389908Y-275241D01*
X384380Y-272951D01*
X380149Y-268720D01*
X377859Y-263192D01*
X377859Y-257208D01*
X380149Y-251680D01*
X384380Y-247449D01*
X389908Y-245159D01*
X395892Y-245159D01*
X401420Y-247449D01*
X405651Y-251680D01*
X407941Y-257208D01*
X407941Y-263192D01*
X405651Y-268720D01*
X401420Y-272951D01*
X395892Y-275241D01*
X389908Y-275241D01*
G37*
%LPD*%
%LPC*%
G36*
X809008Y-275241D02*
X809008Y-275241D01*
X803480Y-272951D01*
X799249Y-268720D01*
X796959Y-263192D01*
X796959Y-257208D01*
X799249Y-251680D01*
X803480Y-247449D01*
X809008Y-245159D01*
X814992Y-245159D01*
X820520Y-247449D01*
X824751Y-251680D01*
X827041Y-257208D01*
X827041Y-263192D01*
X824751Y-268720D01*
X820520Y-272951D01*
X814992Y-275241D01*
X809008Y-275241D01*
G37*
%LPD*%
%LPC*%
G36*
X569308Y-275241D02*
X569308Y-275241D01*
X563780Y-272951D01*
X559549Y-268720D01*
X557259Y-263192D01*
X557259Y-257208D01*
X559549Y-251680D01*
X563780Y-247449D01*
X569308Y-245159D01*
X575292Y-245159D01*
X580820Y-247449D01*
X585051Y-251680D01*
X587341Y-257208D01*
X587341Y-263192D01*
X585051Y-268720D01*
X580820Y-272951D01*
X575292Y-275241D01*
X569308Y-275241D01*
G37*
%LPD*%
%LPC*%
G36*
X669308Y-275241D02*
X669308Y-275241D01*
X663780Y-272951D01*
X659549Y-268720D01*
X657259Y-263192D01*
X657259Y-257208D01*
X659549Y-251680D01*
X663780Y-247449D01*
X669308Y-245159D01*
X675292Y-245159D01*
X680820Y-247449D01*
X685051Y-251680D01*
X687341Y-257208D01*
X687341Y-263192D01*
X685051Y-268720D01*
X680820Y-272951D01*
X675292Y-275241D01*
X669308Y-275241D01*
G37*
%LPD*%
%LPC*%
G36*
X429608Y-275241D02*
X429608Y-275241D01*
X424080Y-272951D01*
X419849Y-268720D01*
X417559Y-263192D01*
X417559Y-257208D01*
X419849Y-251680D01*
X424080Y-247449D01*
X429608Y-245159D01*
X435592Y-245159D01*
X441120Y-247449D01*
X445351Y-251680D01*
X447641Y-257208D01*
X447641Y-263192D01*
X445351Y-268720D01*
X441120Y-272951D01*
X435592Y-275241D01*
X429608Y-275241D01*
G37*
%LPD*%
%LPC*%
G36*
X529608Y-275241D02*
X529608Y-275241D01*
X524080Y-272951D01*
X519849Y-268720D01*
X517559Y-263192D01*
X517559Y-257208D01*
X519849Y-251680D01*
X524080Y-247449D01*
X529608Y-245159D01*
X535592Y-245159D01*
X541120Y-247449D01*
X545351Y-251680D01*
X547641Y-257208D01*
X547641Y-263192D01*
X545351Y-268720D01*
X541120Y-272951D01*
X535592Y-275241D01*
X529608Y-275241D01*
G37*
%LPD*%
%LPC*%
G36*
X867099Y73659D02*
X867099Y73659D01*
X862591Y73659D01*
X862019Y74231D01*
X862003Y74243D01*
X861990Y74258D01*
X861903Y74315D01*
X861819Y74375D01*
X861800Y74381D01*
X861783Y74391D01*
X861683Y74417D01*
X861584Y74447D01*
X861564Y74447D01*
X861545Y74452D01*
X861442Y74444D01*
X861338Y74441D01*
X861319Y74434D01*
X861300Y74432D01*
X861205Y74392D01*
X861107Y74356D01*
X861092Y74344D01*
X861073Y74336D01*
X860942Y74231D01*
X860370Y73659D01*
X854998Y73659D01*
X852907Y74867D01*
X852866Y74882D01*
X852829Y74906D01*
X852751Y74926D01*
X852677Y74954D01*
X852633Y74956D01*
X852590Y74966D01*
X852511Y74960D01*
X852431Y74963D01*
X852389Y74950D01*
X852345Y74947D01*
X852272Y74916D01*
X852195Y74893D01*
X852159Y74868D01*
X852119Y74851D01*
X852005Y74760D01*
X851994Y74752D01*
X851992Y74749D01*
X851988Y74746D01*
X850901Y73659D01*
X843182Y73659D01*
X841397Y75445D01*
X841397Y89655D01*
X843182Y91441D01*
X845708Y91441D01*
X847494Y89655D01*
X847494Y80518D01*
X847497Y80498D01*
X847495Y80479D01*
X847517Y80377D01*
X847534Y80275D01*
X847543Y80258D01*
X847547Y80238D01*
X847601Y80149D01*
X847649Y80058D01*
X847663Y80044D01*
X847674Y80027D01*
X847752Y79960D01*
X847827Y79888D01*
X847845Y79880D01*
X847860Y79867D01*
X847957Y79828D01*
X848050Y79785D01*
X848070Y79783D01*
X848089Y79775D01*
X848255Y79757D01*
X850105Y79757D01*
X850124Y79760D01*
X850144Y79758D01*
X850245Y79780D01*
X850347Y79796D01*
X850365Y79806D01*
X850384Y79810D01*
X850473Y79863D01*
X850565Y79912D01*
X850578Y79926D01*
X850596Y79936D01*
X850663Y80015D01*
X850734Y80090D01*
X850742Y80108D01*
X850755Y80123D01*
X850794Y80219D01*
X850838Y80313D01*
X850840Y80333D01*
X850847Y80351D01*
X850866Y80518D01*
X850866Y87308D01*
X852378Y89928D01*
X854998Y91441D01*
X856655Y91441D01*
X858089Y91441D01*
X860370Y91441D01*
X860942Y90869D01*
X860958Y90857D01*
X860971Y90842D01*
X861058Y90785D01*
X861142Y90725D01*
X861161Y90719D01*
X861178Y90709D01*
X861278Y90683D01*
X861377Y90653D01*
X861397Y90653D01*
X861416Y90648D01*
X861519Y90656D01*
X861623Y90659D01*
X861642Y90666D01*
X861662Y90668D01*
X861756Y90708D01*
X861854Y90744D01*
X861870Y90756D01*
X861888Y90764D01*
X862019Y90869D01*
X862591Y91441D01*
X868786Y91441D01*
X871707Y89754D01*
X873394Y86833D01*
X873394Y78267D01*
X871707Y75346D01*
X868786Y73659D01*
X867099Y73659D01*
G37*
%LPD*%
%LPC*%
G36*
X1141545Y165859D02*
X1141545Y165859D01*
X1137010Y167738D01*
X1133538Y171210D01*
X1131659Y175745D01*
X1131659Y180655D01*
X1133538Y185190D01*
X1137010Y188662D01*
X1141545Y190541D01*
X1146455Y190541D01*
X1150990Y188662D01*
X1154462Y185190D01*
X1156341Y180655D01*
X1156341Y175745D01*
X1154462Y171210D01*
X1150990Y167738D01*
X1146455Y165859D01*
X1141545Y165859D01*
G37*
%LPD*%
%LPC*%
G36*
X277945Y-100841D02*
X277945Y-100841D01*
X273410Y-98962D01*
X269938Y-95490D01*
X268059Y-90955D01*
X268059Y-86045D01*
X269938Y-81510D01*
X273410Y-78038D01*
X277945Y-76159D01*
X282855Y-76159D01*
X287390Y-78038D01*
X290862Y-81510D01*
X292741Y-86045D01*
X292741Y-90955D01*
X290862Y-95490D01*
X287390Y-98962D01*
X282855Y-100841D01*
X277945Y-100841D01*
G37*
%LPD*%
%LPC*%
G36*
X402945Y-50841D02*
X402945Y-50841D01*
X398410Y-48962D01*
X394938Y-45490D01*
X393059Y-40955D01*
X393059Y-36045D01*
X394938Y-31510D01*
X398410Y-28038D01*
X402945Y-26159D01*
X407855Y-26159D01*
X412390Y-28038D01*
X415862Y-31510D01*
X417741Y-36045D01*
X417741Y-40955D01*
X415862Y-45490D01*
X412390Y-48962D01*
X407855Y-50841D01*
X402945Y-50841D01*
G37*
%LPD*%
%LPC*%
G36*
X277945Y-50841D02*
X277945Y-50841D01*
X273410Y-48962D01*
X269938Y-45490D01*
X268059Y-40955D01*
X268059Y-36045D01*
X269938Y-31510D01*
X273410Y-28038D01*
X277945Y-26159D01*
X282855Y-26159D01*
X287390Y-28038D01*
X290862Y-31510D01*
X292741Y-36045D01*
X292741Y-40955D01*
X290862Y-45490D01*
X287390Y-48962D01*
X282855Y-50841D01*
X277945Y-50841D01*
G37*
%LPD*%
%LPC*%
G36*
X1141545Y-88941D02*
X1141545Y-88941D01*
X1137010Y-87062D01*
X1133538Y-83590D01*
X1131659Y-79055D01*
X1131659Y-74145D01*
X1133538Y-69610D01*
X1137010Y-66138D01*
X1141545Y-64259D01*
X1146455Y-64259D01*
X1150990Y-66138D01*
X1154462Y-69610D01*
X1156341Y-74145D01*
X1156341Y-79055D01*
X1154462Y-83590D01*
X1150990Y-87062D01*
X1146455Y-88941D01*
X1141545Y-88941D01*
G37*
%LPD*%
%LPC*%
G36*
X836745Y-254041D02*
X836745Y-254041D01*
X832210Y-252162D01*
X828738Y-248690D01*
X826859Y-244155D01*
X826859Y-239245D01*
X828738Y-234710D01*
X832210Y-231238D01*
X836745Y-229359D01*
X841655Y-229359D01*
X846190Y-231238D01*
X849662Y-234710D01*
X851541Y-239245D01*
X851541Y-244155D01*
X849662Y-248690D01*
X846190Y-252162D01*
X841655Y-254041D01*
X836745Y-254041D01*
G37*
%LPD*%
%LPC*%
G36*
X961745Y-254041D02*
X961745Y-254041D01*
X957210Y-252162D01*
X953738Y-248690D01*
X951859Y-244155D01*
X951859Y-239245D01*
X953738Y-234710D01*
X957210Y-231238D01*
X961745Y-229359D01*
X966655Y-229359D01*
X971190Y-231238D01*
X974662Y-234710D01*
X976541Y-239245D01*
X976541Y-244155D01*
X974662Y-248690D01*
X971190Y-252162D01*
X966655Y-254041D01*
X961745Y-254041D01*
G37*
%LPD*%
%LPC*%
G36*
X989145Y-254041D02*
X989145Y-254041D01*
X984610Y-252162D01*
X981138Y-248690D01*
X979259Y-244155D01*
X979259Y-239245D01*
X981138Y-234710D01*
X984610Y-231238D01*
X989145Y-229359D01*
X994055Y-229359D01*
X998590Y-231238D01*
X1002062Y-234710D01*
X1003941Y-239245D01*
X1003941Y-244155D01*
X1002062Y-248690D01*
X998590Y-252162D01*
X994055Y-254041D01*
X989145Y-254041D01*
G37*
%LPD*%
%LPC*%
G36*
X1266545Y50759D02*
X1266545Y50759D01*
X1262010Y52638D01*
X1258538Y56110D01*
X1256659Y60645D01*
X1256659Y65555D01*
X1258538Y70090D01*
X1262010Y73562D01*
X1266545Y75441D01*
X1271455Y75441D01*
X1275990Y73562D01*
X1279462Y70090D01*
X1281341Y65555D01*
X1281341Y60645D01*
X1279462Y56110D01*
X1275990Y52638D01*
X1271455Y50759D01*
X1266545Y50759D01*
G37*
%LPD*%
%LPC*%
G36*
X836745Y-304041D02*
X836745Y-304041D01*
X832210Y-302162D01*
X828738Y-298690D01*
X826859Y-294155D01*
X826859Y-289245D01*
X828738Y-284710D01*
X832210Y-281238D01*
X836745Y-279359D01*
X841655Y-279359D01*
X846190Y-281238D01*
X849662Y-284710D01*
X851541Y-289245D01*
X851541Y-294155D01*
X849662Y-298690D01*
X846190Y-302162D01*
X841655Y-304041D01*
X836745Y-304041D01*
G37*
%LPD*%
%LPC*%
G36*
X989145Y-304041D02*
X989145Y-304041D01*
X984610Y-302162D01*
X981138Y-298690D01*
X979259Y-294155D01*
X979259Y-289245D01*
X981138Y-284710D01*
X984610Y-281238D01*
X989145Y-279359D01*
X994055Y-279359D01*
X998590Y-281238D01*
X1002062Y-284710D01*
X1003941Y-289245D01*
X1003941Y-294155D01*
X1002062Y-298690D01*
X998590Y-302162D01*
X994055Y-304041D01*
X989145Y-304041D01*
G37*
%LPD*%
%LPC*%
G36*
X1114145Y-254041D02*
X1114145Y-254041D01*
X1109610Y-252162D01*
X1106138Y-248690D01*
X1104259Y-244155D01*
X1104259Y-239245D01*
X1106138Y-234710D01*
X1109610Y-231238D01*
X1114145Y-229359D01*
X1119055Y-229359D01*
X1123590Y-231238D01*
X1127062Y-234710D01*
X1128941Y-239245D01*
X1128941Y-244155D01*
X1127062Y-248690D01*
X1123590Y-252162D01*
X1119055Y-254041D01*
X1114145Y-254041D01*
G37*
%LPD*%
%LPC*%
G36*
X1141545Y-304041D02*
X1141545Y-304041D01*
X1137010Y-302162D01*
X1133538Y-298690D01*
X1131659Y-294155D01*
X1131659Y-289245D01*
X1133538Y-284710D01*
X1137010Y-281238D01*
X1141545Y-279359D01*
X1146455Y-279359D01*
X1150990Y-281238D01*
X1154462Y-284710D01*
X1156341Y-289245D01*
X1156341Y-294155D01*
X1154462Y-298690D01*
X1150990Y-302162D01*
X1146455Y-304041D01*
X1141545Y-304041D01*
G37*
%LPD*%
%LPC*%
G36*
X1141545Y-254041D02*
X1141545Y-254041D01*
X1137010Y-252162D01*
X1133538Y-248690D01*
X1131659Y-244155D01*
X1131659Y-239245D01*
X1133538Y-234710D01*
X1137010Y-231238D01*
X1141545Y-229359D01*
X1146455Y-229359D01*
X1150990Y-231238D01*
X1154462Y-234710D01*
X1156341Y-239245D01*
X1156341Y-244155D01*
X1154462Y-248690D01*
X1150990Y-252162D01*
X1146455Y-254041D01*
X1141545Y-254041D01*
G37*
%LPD*%
%LPC*%
G36*
X1266545Y215859D02*
X1266545Y215859D01*
X1262010Y217738D01*
X1258538Y221210D01*
X1256659Y225745D01*
X1256659Y230655D01*
X1258538Y235190D01*
X1262010Y238662D01*
X1266545Y240541D01*
X1271455Y240541D01*
X1275990Y238662D01*
X1279462Y235190D01*
X1281341Y230655D01*
X1281341Y225745D01*
X1279462Y221210D01*
X1275990Y217738D01*
X1271455Y215859D01*
X1266545Y215859D01*
G37*
%LPD*%
%LPC*%
G36*
X1266545Y-254041D02*
X1266545Y-254041D01*
X1262010Y-252162D01*
X1258538Y-248690D01*
X1256659Y-244155D01*
X1256659Y-239245D01*
X1258538Y-234710D01*
X1262010Y-231238D01*
X1266545Y-229359D01*
X1271455Y-229359D01*
X1275990Y-231238D01*
X1279462Y-234710D01*
X1281341Y-239245D01*
X1281341Y-244155D01*
X1279462Y-248690D01*
X1275990Y-252162D01*
X1271455Y-254041D01*
X1266545Y-254041D01*
G37*
%LPD*%
%LPC*%
G36*
X1141545Y-138941D02*
X1141545Y-138941D01*
X1137010Y-137062D01*
X1133538Y-133590D01*
X1131659Y-129055D01*
X1131659Y-124145D01*
X1133538Y-119610D01*
X1137010Y-116138D01*
X1141545Y-114259D01*
X1146455Y-114259D01*
X1150990Y-116138D01*
X1154462Y-119610D01*
X1156341Y-124145D01*
X1156341Y-129055D01*
X1154462Y-133590D01*
X1150990Y-137062D01*
X1146455Y-138941D01*
X1141545Y-138941D01*
G37*
%LPD*%
%LPC*%
G36*
X1141545Y215859D02*
X1141545Y215859D01*
X1137010Y217738D01*
X1133538Y221210D01*
X1131659Y225745D01*
X1131659Y230655D01*
X1133538Y235190D01*
X1137010Y238662D01*
X1141545Y240541D01*
X1146455Y240541D01*
X1150990Y238662D01*
X1154462Y235190D01*
X1156341Y230655D01*
X1156341Y225745D01*
X1154462Y221210D01*
X1150990Y217738D01*
X1146455Y215859D01*
X1141545Y215859D01*
G37*
%LPD*%
%LPC*%
G36*
X1141545Y50759D02*
X1141545Y50759D01*
X1137010Y52638D01*
X1133538Y56110D01*
X1131659Y60645D01*
X1131659Y65555D01*
X1133538Y70090D01*
X1137010Y73562D01*
X1141545Y75441D01*
X1146455Y75441D01*
X1150990Y73562D01*
X1154462Y70090D01*
X1156341Y65555D01*
X1156341Y60645D01*
X1154462Y56110D01*
X1150990Y52638D01*
X1146455Y50759D01*
X1141545Y50759D01*
G37*
%LPD*%
%LPC*%
G36*
X1266545Y-88941D02*
X1266545Y-88941D01*
X1262010Y-87062D01*
X1258538Y-83590D01*
X1256659Y-79055D01*
X1256659Y-74145D01*
X1258538Y-69610D01*
X1262010Y-66138D01*
X1266545Y-64259D01*
X1271455Y-64259D01*
X1275990Y-66138D01*
X1279462Y-69610D01*
X1281341Y-74145D01*
X1281341Y-79055D01*
X1279462Y-83590D01*
X1275990Y-87062D01*
X1271455Y-88941D01*
X1266545Y-88941D01*
G37*
%LPD*%
%LPC*%
G36*
X1141545Y759D02*
X1141545Y759D01*
X1137010Y2638D01*
X1133538Y6110D01*
X1131659Y10645D01*
X1131659Y15555D01*
X1133538Y20090D01*
X1137010Y23562D01*
X1141545Y25441D01*
X1146455Y25441D01*
X1150990Y23562D01*
X1154462Y20090D01*
X1156341Y15555D01*
X1156341Y10645D01*
X1154462Y6110D01*
X1150990Y2638D01*
X1146455Y759D01*
X1141545Y759D01*
G37*
%LPD*%
%LPC*%
G36*
X809448Y73659D02*
X809448Y73659D01*
X807663Y75445D01*
X807663Y84582D01*
X807659Y84602D01*
X807662Y84621D01*
X807640Y84723D01*
X807623Y84825D01*
X807614Y84842D01*
X807609Y84862D01*
X807556Y84951D01*
X807508Y85042D01*
X807493Y85056D01*
X807483Y85073D01*
X807404Y85140D01*
X807329Y85212D01*
X807311Y85220D01*
X807296Y85233D01*
X807200Y85272D01*
X807106Y85315D01*
X807087Y85317D01*
X807068Y85325D01*
X806901Y85343D01*
X806203Y85343D01*
X804417Y87129D01*
X804417Y89655D01*
X806203Y91441D01*
X815220Y91441D01*
X815709Y90952D01*
X815725Y90940D01*
X815737Y90924D01*
X815825Y90868D01*
X815909Y90808D01*
X815928Y90802D01*
X815944Y90791D01*
X816045Y90766D01*
X816144Y90736D01*
X816164Y90736D01*
X816183Y90731D01*
X816286Y90739D01*
X816390Y90742D01*
X816408Y90749D01*
X816428Y90750D01*
X816523Y90791D01*
X816621Y90827D01*
X816636Y90839D01*
X816654Y90847D01*
X816785Y90952D01*
X817275Y91441D01*
X824995Y91441D01*
X825081Y91385D01*
X825165Y91325D01*
X825185Y91319D01*
X825201Y91308D01*
X825301Y91283D01*
X825400Y91252D01*
X825421Y91253D01*
X825440Y91248D01*
X825543Y91256D01*
X825646Y91259D01*
X825665Y91265D01*
X825685Y91267D01*
X825780Y91308D01*
X825877Y91343D01*
X825893Y91355D01*
X825911Y91363D01*
X826008Y91441D01*
X835032Y91441D01*
X836818Y89655D01*
X836818Y87129D01*
X835032Y85343D01*
X834333Y85343D01*
X834314Y85340D01*
X834294Y85342D01*
X834193Y85320D01*
X834091Y85304D01*
X834073Y85294D01*
X834053Y85290D01*
X833964Y85237D01*
X833873Y85188D01*
X833859Y85174D01*
X833842Y85164D01*
X833775Y85085D01*
X833704Y85010D01*
X833695Y84992D01*
X833682Y84977D01*
X833644Y84881D01*
X833600Y84787D01*
X833598Y84767D01*
X833591Y84749D01*
X833572Y84582D01*
X833572Y75445D01*
X831786Y73659D01*
X829260Y73659D01*
X827475Y75445D01*
X827475Y80794D01*
X827463Y80865D01*
X827461Y80936D01*
X827443Y80985D01*
X827435Y81037D01*
X827401Y81100D01*
X827377Y81167D01*
X827344Y81208D01*
X827320Y81254D01*
X827268Y81304D01*
X827223Y81360D01*
X827179Y81388D01*
X827141Y81424D01*
X827076Y81454D01*
X827016Y81493D01*
X826966Y81505D01*
X826918Y81527D01*
X826847Y81535D01*
X826778Y81553D01*
X826726Y81549D01*
X826674Y81554D01*
X826604Y81539D01*
X826532Y81533D01*
X826484Y81513D01*
X826434Y81502D01*
X826372Y81465D01*
X826306Y81437D01*
X826250Y81392D01*
X826222Y81376D01*
X826207Y81358D01*
X826175Y81332D01*
X824993Y80150D01*
X822347Y80150D01*
X822328Y80147D01*
X822308Y80149D01*
X822207Y80127D01*
X822105Y80111D01*
X822087Y80101D01*
X822068Y80097D01*
X821979Y80044D01*
X821887Y79996D01*
X821874Y79981D01*
X821856Y79971D01*
X821789Y79892D01*
X821718Y79817D01*
X821709Y79799D01*
X821697Y79784D01*
X821658Y79688D01*
X821614Y79594D01*
X821612Y79574D01*
X821605Y79556D01*
X821586Y79389D01*
X821586Y75445D01*
X819800Y73659D01*
X817275Y73659D01*
X815489Y75445D01*
X815489Y84582D01*
X815485Y84602D01*
X815488Y84621D01*
X815466Y84723D01*
X815449Y84825D01*
X815440Y84842D01*
X815435Y84862D01*
X815382Y84951D01*
X815334Y85042D01*
X815319Y85056D01*
X815309Y85073D01*
X815230Y85140D01*
X815155Y85212D01*
X815137Y85220D01*
X815122Y85233D01*
X815026Y85272D01*
X814932Y85315D01*
X814913Y85317D01*
X814894Y85325D01*
X814727Y85343D01*
X814521Y85343D01*
X814502Y85340D01*
X814482Y85342D01*
X814381Y85320D01*
X814279Y85304D01*
X814261Y85294D01*
X814242Y85290D01*
X814152Y85237D01*
X814061Y85188D01*
X814048Y85174D01*
X814030Y85164D01*
X813963Y85085D01*
X813892Y85010D01*
X813883Y84992D01*
X813870Y84977D01*
X813832Y84881D01*
X813788Y84787D01*
X813786Y84767D01*
X813779Y84749D01*
X813760Y84582D01*
X813760Y75445D01*
X811974Y73659D01*
X809448Y73659D01*
G37*
%LPD*%
%LPC*%
G36*
X455702Y-339741D02*
X455702Y-339741D01*
X452196Y-338288D01*
X449512Y-335604D01*
X448059Y-332098D01*
X448059Y-328302D01*
X449512Y-324796D01*
X452196Y-322112D01*
X455702Y-320659D01*
X459498Y-320659D01*
X463004Y-322112D01*
X465688Y-324796D01*
X467141Y-328302D01*
X467141Y-332098D01*
X465688Y-335604D01*
X463004Y-338288D01*
X459498Y-339741D01*
X455702Y-339741D01*
G37*
%LPD*%
%LPC*%
G36*
X468202Y53959D02*
X468202Y53959D01*
X464696Y55412D01*
X462012Y58096D01*
X460559Y61602D01*
X460559Y65398D01*
X462012Y68904D01*
X464696Y71588D01*
X468202Y73041D01*
X471998Y73041D01*
X475504Y71588D01*
X478188Y68904D01*
X479641Y65398D01*
X479641Y61602D01*
X478188Y58096D01*
X475504Y55412D01*
X471998Y53959D01*
X468202Y53959D01*
G37*
%LPD*%
%LPC*%
G36*
X341002Y-339741D02*
X341002Y-339741D01*
X337496Y-338288D01*
X334812Y-335604D01*
X333359Y-332098D01*
X333359Y-328302D01*
X334812Y-324796D01*
X337496Y-322112D01*
X341002Y-320659D01*
X344798Y-320659D01*
X348304Y-322112D01*
X350988Y-324796D01*
X352441Y-328302D01*
X352441Y-332098D01*
X350988Y-335604D01*
X348304Y-338288D01*
X344798Y-339741D01*
X341002Y-339741D01*
G37*
%LPD*%
%LPC*%
G36*
X316002Y-339741D02*
X316002Y-339741D01*
X312496Y-338288D01*
X309812Y-335604D01*
X308359Y-332098D01*
X308359Y-328302D01*
X309812Y-324796D01*
X312496Y-322112D01*
X316002Y-320659D01*
X319798Y-320659D01*
X323304Y-322112D01*
X325988Y-324796D01*
X327441Y-328302D01*
X327441Y-332098D01*
X325988Y-335604D01*
X323304Y-338288D01*
X319798Y-339741D01*
X316002Y-339741D01*
G37*
%LPD*%
%LPC*%
G36*
X468202Y155559D02*
X468202Y155559D01*
X464696Y157012D01*
X462012Y159696D01*
X460559Y163202D01*
X460559Y166998D01*
X462012Y170504D01*
X464696Y173188D01*
X468202Y174641D01*
X471998Y174641D01*
X475504Y173188D01*
X478188Y170504D01*
X479641Y166998D01*
X479641Y163202D01*
X478188Y159696D01*
X475504Y157012D01*
X471998Y155559D01*
X468202Y155559D01*
G37*
%LPD*%
%LPC*%
G36*
X468202Y130159D02*
X468202Y130159D01*
X464696Y131612D01*
X462012Y134296D01*
X460559Y137802D01*
X460559Y141598D01*
X462012Y145104D01*
X464696Y147788D01*
X468202Y149241D01*
X471998Y149241D01*
X475504Y147788D01*
X478188Y145104D01*
X479641Y141598D01*
X479641Y137802D01*
X478188Y134296D01*
X475504Y131612D01*
X471998Y130159D01*
X468202Y130159D01*
G37*
%LPD*%
%LPC*%
G36*
X468202Y104759D02*
X468202Y104759D01*
X464696Y106212D01*
X462012Y108896D01*
X460559Y112402D01*
X460559Y116198D01*
X462012Y119704D01*
X464696Y122388D01*
X468202Y123841D01*
X471998Y123841D01*
X475504Y122388D01*
X478188Y119704D01*
X479641Y116198D01*
X479641Y112402D01*
X478188Y108896D01*
X475504Y106212D01*
X471998Y104759D01*
X468202Y104759D01*
G37*
%LPD*%
%LPC*%
G36*
X468202Y79359D02*
X468202Y79359D01*
X464696Y80812D01*
X462012Y83496D01*
X460559Y87002D01*
X460559Y90798D01*
X462012Y94304D01*
X464696Y96988D01*
X468202Y98441D01*
X471998Y98441D01*
X475504Y96988D01*
X478188Y94304D01*
X479641Y90798D01*
X479641Y87002D01*
X478188Y83496D01*
X475504Y80812D01*
X471998Y79359D01*
X468202Y79359D01*
G37*
%LPD*%
%LPC*%
G36*
X468202Y28559D02*
X468202Y28559D01*
X464696Y30012D01*
X462012Y32696D01*
X460559Y36202D01*
X460559Y39998D01*
X462012Y43504D01*
X464696Y46188D01*
X468202Y47641D01*
X471998Y47641D01*
X475504Y46188D01*
X478188Y43504D01*
X479641Y39998D01*
X479641Y36202D01*
X478188Y32696D01*
X475504Y30012D01*
X471998Y28559D01*
X468202Y28559D01*
G37*
%LPD*%
%LPC*%
G36*
X468202Y3159D02*
X468202Y3159D01*
X464696Y4612D01*
X462012Y7296D01*
X460559Y10802D01*
X460559Y14598D01*
X462012Y18104D01*
X464696Y20788D01*
X468202Y22241D01*
X471998Y22241D01*
X475504Y20788D01*
X478188Y18104D01*
X479641Y14598D01*
X479641Y10802D01*
X478188Y7296D01*
X475504Y4612D01*
X471998Y3159D01*
X468202Y3159D01*
G37*
%LPD*%
%LPC*%
G36*
X468202Y-22241D02*
X468202Y-22241D01*
X464696Y-20788D01*
X462012Y-18104D01*
X460559Y-14598D01*
X460559Y-10802D01*
X462012Y-7296D01*
X464696Y-4612D01*
X468202Y-3159D01*
X471998Y-3159D01*
X475504Y-4612D01*
X478188Y-7296D01*
X479641Y-10802D01*
X479641Y-14598D01*
X478188Y-18104D01*
X475504Y-20788D01*
X471998Y-22241D01*
X468202Y-22241D01*
G37*
%LPD*%
%LPC*%
G36*
X468202Y-47641D02*
X468202Y-47641D01*
X464696Y-46188D01*
X462012Y-43504D01*
X460559Y-39998D01*
X460559Y-36202D01*
X462012Y-32696D01*
X464696Y-30012D01*
X468202Y-28559D01*
X471998Y-28559D01*
X475504Y-30012D01*
X478188Y-32696D01*
X479641Y-36202D01*
X479641Y-39998D01*
X478188Y-43504D01*
X475504Y-46188D01*
X471998Y-47641D01*
X468202Y-47641D01*
G37*
%LPD*%
%LPC*%
G36*
X620402Y-339741D02*
X620402Y-339741D01*
X616896Y-338288D01*
X614212Y-335604D01*
X612759Y-332098D01*
X612759Y-328302D01*
X614212Y-324796D01*
X616896Y-322112D01*
X620402Y-320659D01*
X624198Y-320659D01*
X627704Y-322112D01*
X630388Y-324796D01*
X631841Y-328302D01*
X631841Y-332098D01*
X630388Y-335604D01*
X627704Y-338288D01*
X624198Y-339741D01*
X620402Y-339741D01*
G37*
%LPD*%
%LPC*%
G36*
X760102Y-339741D02*
X760102Y-339741D01*
X756596Y-338288D01*
X753912Y-335604D01*
X752459Y-332098D01*
X752459Y-328302D01*
X753912Y-324796D01*
X756596Y-322112D01*
X760102Y-320659D01*
X763898Y-320659D01*
X767404Y-322112D01*
X770088Y-324796D01*
X771541Y-328302D01*
X771541Y-332098D01*
X770088Y-335604D01*
X767404Y-338288D01*
X763898Y-339741D01*
X760102Y-339741D01*
G37*
%LPD*%
%LPC*%
G36*
X735102Y-339741D02*
X735102Y-339741D01*
X731596Y-338288D01*
X728912Y-335604D01*
X727459Y-332098D01*
X727459Y-328302D01*
X728912Y-324796D01*
X731596Y-322112D01*
X735102Y-320659D01*
X738898Y-320659D01*
X742404Y-322112D01*
X745088Y-324796D01*
X746541Y-328302D01*
X746541Y-332098D01*
X745088Y-335604D01*
X742404Y-338288D01*
X738898Y-339741D01*
X735102Y-339741D01*
G37*
%LPD*%
%LPC*%
G36*
X595402Y-339741D02*
X595402Y-339741D01*
X591896Y-338288D01*
X589212Y-335604D01*
X587759Y-332098D01*
X587759Y-328302D01*
X589212Y-324796D01*
X591896Y-322112D01*
X595402Y-320659D01*
X599198Y-320659D01*
X602704Y-322112D01*
X605388Y-324796D01*
X606841Y-328302D01*
X606841Y-332098D01*
X605388Y-335604D01*
X602704Y-338288D01*
X599198Y-339741D01*
X595402Y-339741D01*
G37*
%LPD*%
%LPC*%
G36*
X480702Y-339741D02*
X480702Y-339741D01*
X477196Y-338288D01*
X474512Y-335604D01*
X473059Y-332098D01*
X473059Y-328302D01*
X474512Y-324796D01*
X477196Y-322112D01*
X480702Y-320659D01*
X484498Y-320659D01*
X488004Y-322112D01*
X490688Y-324796D01*
X492141Y-328302D01*
X492141Y-332098D01*
X490688Y-335604D01*
X488004Y-338288D01*
X484498Y-339741D01*
X480702Y-339741D01*
G37*
%LPD*%
%LPC*%
G36*
X341157Y245236D02*
X341157Y245236D01*
X337936Y246570D01*
X335470Y249036D01*
X334136Y252257D01*
X334136Y255743D01*
X335470Y258964D01*
X337936Y261430D01*
X341157Y262764D01*
X344643Y262764D01*
X347864Y261430D01*
X350330Y258964D01*
X351664Y255743D01*
X351664Y252257D01*
X350330Y249036D01*
X347864Y246570D01*
X344643Y245236D01*
X341157Y245236D01*
G37*
%LPD*%
%LPC*%
G36*
X980557Y-49664D02*
X980557Y-49664D01*
X977336Y-48330D01*
X974870Y-45864D01*
X973536Y-42643D01*
X973536Y-39157D01*
X974870Y-35936D01*
X977336Y-33470D01*
X980557Y-32136D01*
X984043Y-32136D01*
X987264Y-33470D01*
X989730Y-35936D01*
X991064Y-39157D01*
X991064Y-42643D01*
X989730Y-45864D01*
X987264Y-48330D01*
X984043Y-49664D01*
X980557Y-49664D01*
G37*
%LPD*%
%LPC*%
G36*
X955157Y-49664D02*
X955157Y-49664D01*
X951936Y-48330D01*
X949470Y-45864D01*
X948136Y-42643D01*
X948136Y-39157D01*
X949470Y-35936D01*
X951936Y-33470D01*
X955157Y-32136D01*
X958643Y-32136D01*
X961864Y-33470D01*
X964330Y-35936D01*
X965664Y-39157D01*
X965664Y-42643D01*
X964330Y-45864D01*
X961864Y-48330D01*
X958643Y-49664D01*
X955157Y-49664D01*
G37*
%LPD*%
%LPC*%
G36*
X955157Y204336D02*
X955157Y204336D01*
X951936Y205670D01*
X949470Y208136D01*
X948136Y211357D01*
X948136Y214843D01*
X949470Y218064D01*
X951936Y220530D01*
X955157Y221864D01*
X958643Y221864D01*
X961864Y220530D01*
X964330Y218064D01*
X965664Y214843D01*
X965664Y211357D01*
X964330Y208136D01*
X961864Y205670D01*
X958643Y204336D01*
X955157Y204336D01*
G37*
%LPD*%
%LPC*%
G36*
X929757Y204336D02*
X929757Y204336D01*
X926536Y205670D01*
X924070Y208136D01*
X922736Y211357D01*
X922736Y214843D01*
X924070Y218064D01*
X926536Y220530D01*
X929757Y221864D01*
X933243Y221864D01*
X936464Y220530D01*
X938930Y218064D01*
X940264Y214843D01*
X940264Y211357D01*
X938930Y208136D01*
X936464Y205670D01*
X933243Y204336D01*
X929757Y204336D01*
G37*
%LPD*%
%LPC*%
G36*
X1005957Y204336D02*
X1005957Y204336D01*
X1002736Y205670D01*
X1000270Y208136D01*
X998936Y211357D01*
X998936Y214843D01*
X1000270Y218064D01*
X1002736Y220530D01*
X1005957Y221864D01*
X1009443Y221864D01*
X1012664Y220530D01*
X1015130Y218064D01*
X1016464Y214843D01*
X1016464Y211357D01*
X1015130Y208136D01*
X1012664Y205670D01*
X1009443Y204336D01*
X1005957Y204336D01*
G37*
%LPD*%
%LPC*%
G36*
X980557Y204336D02*
X980557Y204336D01*
X977336Y205670D01*
X974870Y208136D01*
X973536Y211357D01*
X973536Y214843D01*
X974870Y218064D01*
X977336Y220530D01*
X980557Y221864D01*
X984043Y221864D01*
X987264Y220530D01*
X989730Y218064D01*
X991064Y214843D01*
X991064Y211357D01*
X989730Y208136D01*
X987264Y205670D01*
X984043Y204336D01*
X980557Y204336D01*
G37*
%LPD*%
%LPC*%
G36*
X904357Y204336D02*
X904357Y204336D01*
X901136Y205670D01*
X898670Y208136D01*
X897336Y211357D01*
X897336Y214843D01*
X898670Y218064D01*
X901136Y220530D01*
X904357Y221864D01*
X907843Y221864D01*
X911064Y220530D01*
X913530Y218064D01*
X914864Y214843D01*
X914864Y211357D01*
X913530Y208136D01*
X911064Y205670D01*
X907843Y204336D01*
X904357Y204336D01*
G37*
%LPD*%
%LPC*%
G36*
X878957Y204336D02*
X878957Y204336D01*
X875736Y205670D01*
X873270Y208136D01*
X871936Y211357D01*
X871936Y214843D01*
X873270Y218064D01*
X875736Y220530D01*
X878957Y221864D01*
X882443Y221864D01*
X885664Y220530D01*
X888130Y218064D01*
X889464Y214843D01*
X889464Y211357D01*
X888130Y208136D01*
X885664Y205670D01*
X882443Y204336D01*
X878957Y204336D01*
G37*
%LPD*%
%LPC*%
G36*
X853557Y204336D02*
X853557Y204336D01*
X850336Y205670D01*
X847870Y208136D01*
X846536Y211357D01*
X846536Y214843D01*
X847870Y218064D01*
X850336Y220530D01*
X853557Y221864D01*
X857043Y221864D01*
X860264Y220530D01*
X862730Y218064D01*
X864064Y214843D01*
X864064Y211357D01*
X862730Y208136D01*
X860264Y205670D01*
X857043Y204336D01*
X853557Y204336D01*
G37*
%LPD*%
%LPC*%
G36*
X828157Y204336D02*
X828157Y204336D01*
X824936Y205670D01*
X822470Y208136D01*
X821136Y211357D01*
X821136Y214843D01*
X822470Y218064D01*
X824936Y220530D01*
X828157Y221864D01*
X831643Y221864D01*
X834864Y220530D01*
X837330Y218064D01*
X838664Y214843D01*
X838664Y211357D01*
X837330Y208136D01*
X834864Y205670D01*
X831643Y204336D01*
X828157Y204336D01*
G37*
%LPD*%
%LPC*%
G36*
X802757Y204336D02*
X802757Y204336D01*
X799536Y205670D01*
X797070Y208136D01*
X795736Y211357D01*
X795736Y214843D01*
X797070Y218064D01*
X799536Y220530D01*
X802757Y221864D01*
X806243Y221864D01*
X809464Y220530D01*
X811930Y218064D01*
X813264Y214843D01*
X813264Y211357D01*
X811930Y208136D01*
X809464Y205670D01*
X806243Y204336D01*
X802757Y204336D01*
G37*
%LPD*%
%LPC*%
G36*
X777357Y204336D02*
X777357Y204336D01*
X774136Y205670D01*
X771670Y208136D01*
X770336Y211357D01*
X770336Y214843D01*
X771670Y218064D01*
X774136Y220530D01*
X777357Y221864D01*
X780843Y221864D01*
X784064Y220530D01*
X786530Y218064D01*
X787864Y214843D01*
X787864Y211357D01*
X786530Y208136D01*
X784064Y205670D01*
X780843Y204336D01*
X777357Y204336D01*
G37*
%LPD*%
%LPC*%
G36*
X751957Y204336D02*
X751957Y204336D01*
X748736Y205670D01*
X746270Y208136D01*
X744936Y211357D01*
X744936Y214843D01*
X746270Y218064D01*
X748736Y220530D01*
X751957Y221864D01*
X755443Y221864D01*
X758664Y220530D01*
X761130Y218064D01*
X762464Y214843D01*
X762464Y211357D01*
X761130Y208136D01*
X758664Y205670D01*
X755443Y204336D01*
X751957Y204336D01*
G37*
%LPD*%
%LPC*%
G36*
X726557Y204336D02*
X726557Y204336D01*
X723336Y205670D01*
X720870Y208136D01*
X719536Y211357D01*
X719536Y214843D01*
X720870Y218064D01*
X723336Y220530D01*
X726557Y221864D01*
X730043Y221864D01*
X733264Y220530D01*
X735730Y218064D01*
X737064Y214843D01*
X737064Y211357D01*
X735730Y208136D01*
X733264Y205670D01*
X730043Y204336D01*
X726557Y204336D01*
G37*
%LPD*%
%LPC*%
G36*
X701157Y204336D02*
X701157Y204336D01*
X697936Y205670D01*
X695470Y208136D01*
X694136Y211357D01*
X694136Y214843D01*
X695470Y218064D01*
X697936Y220530D01*
X701157Y221864D01*
X704643Y221864D01*
X707864Y220530D01*
X710330Y218064D01*
X711664Y214843D01*
X711664Y211357D01*
X710330Y208136D01*
X707864Y205670D01*
X704643Y204336D01*
X701157Y204336D01*
G37*
%LPD*%
%LPC*%
G36*
X675757Y204336D02*
X675757Y204336D01*
X672536Y205670D01*
X670070Y208136D01*
X668736Y211357D01*
X668736Y214843D01*
X670070Y218064D01*
X672536Y220530D01*
X675757Y221864D01*
X679243Y221864D01*
X682464Y220530D01*
X684930Y218064D01*
X686264Y214843D01*
X686264Y211357D01*
X684930Y208136D01*
X682464Y205670D01*
X679243Y204336D01*
X675757Y204336D01*
G37*
%LPD*%
%LPC*%
G36*
X650357Y204336D02*
X650357Y204336D01*
X647136Y205670D01*
X644670Y208136D01*
X643336Y211357D01*
X643336Y214843D01*
X644670Y218064D01*
X647136Y220530D01*
X650357Y221864D01*
X653843Y221864D01*
X657064Y220530D01*
X659530Y218064D01*
X660864Y214843D01*
X660864Y211357D01*
X659530Y208136D01*
X657064Y205670D01*
X653843Y204336D01*
X650357Y204336D01*
G37*
%LPD*%
%LPC*%
G36*
X599557Y204336D02*
X599557Y204336D01*
X596336Y205670D01*
X593870Y208136D01*
X592536Y211357D01*
X592536Y214843D01*
X593870Y218064D01*
X596336Y220530D01*
X599557Y221864D01*
X603043Y221864D01*
X606264Y220530D01*
X608730Y218064D01*
X610064Y214843D01*
X610064Y211357D01*
X608730Y208136D01*
X606264Y205670D01*
X603043Y204336D01*
X599557Y204336D01*
G37*
%LPD*%
%LPC*%
G36*
X574157Y204336D02*
X574157Y204336D01*
X570936Y205670D01*
X568470Y208136D01*
X567136Y211357D01*
X567136Y214843D01*
X568470Y218064D01*
X570936Y220530D01*
X574157Y221864D01*
X577643Y221864D01*
X580864Y220530D01*
X583330Y218064D01*
X584664Y214843D01*
X584664Y211357D01*
X583330Y208136D01*
X580864Y205670D01*
X577643Y204336D01*
X574157Y204336D01*
G37*
%LPD*%
%LPC*%
G36*
X1005957Y-49664D02*
X1005957Y-49664D01*
X1002736Y-48330D01*
X1000270Y-45864D01*
X998936Y-42643D01*
X998936Y-39157D01*
X1000270Y-35936D01*
X1002736Y-33470D01*
X1005957Y-32136D01*
X1009443Y-32136D01*
X1012664Y-33470D01*
X1015130Y-35936D01*
X1016464Y-39157D01*
X1016464Y-42643D01*
X1015130Y-45864D01*
X1012664Y-48330D01*
X1009443Y-49664D01*
X1005957Y-49664D01*
G37*
%LPD*%
%LPC*%
G36*
X599557Y-49664D02*
X599557Y-49664D01*
X596336Y-48330D01*
X593870Y-45864D01*
X592536Y-42643D01*
X592536Y-39157D01*
X593870Y-35936D01*
X596336Y-33470D01*
X599557Y-32136D01*
X603043Y-32136D01*
X606264Y-33470D01*
X608730Y-35936D01*
X610064Y-39157D01*
X610064Y-42643D01*
X608730Y-45864D01*
X606264Y-48330D01*
X603043Y-49664D01*
X599557Y-49664D01*
G37*
%LPD*%
%LPC*%
G36*
X574157Y-49664D02*
X574157Y-49664D01*
X570936Y-48330D01*
X568470Y-45864D01*
X567136Y-42643D01*
X567136Y-39157D01*
X568470Y-35936D01*
X570936Y-33470D01*
X574157Y-32136D01*
X577643Y-32136D01*
X580864Y-33470D01*
X583330Y-35936D01*
X584664Y-39157D01*
X584664Y-42643D01*
X583330Y-45864D01*
X580864Y-48330D01*
X577643Y-49664D01*
X574157Y-49664D01*
G37*
%LPD*%
%LPC*%
G36*
X929757Y-49664D02*
X929757Y-49664D01*
X926536Y-48330D01*
X924070Y-45864D01*
X922736Y-42643D01*
X922736Y-39157D01*
X924070Y-35936D01*
X926536Y-33470D01*
X929757Y-32136D01*
X933243Y-32136D01*
X936464Y-33470D01*
X938930Y-35936D01*
X940264Y-39157D01*
X940264Y-42643D01*
X938930Y-45864D01*
X936464Y-48330D01*
X933243Y-49664D01*
X929757Y-49664D01*
G37*
%LPD*%
%LPC*%
G36*
X726557Y-49664D02*
X726557Y-49664D01*
X723336Y-48330D01*
X720870Y-45864D01*
X719536Y-42643D01*
X719536Y-39157D01*
X720870Y-35936D01*
X723336Y-33470D01*
X726557Y-32136D01*
X730043Y-32136D01*
X733264Y-33470D01*
X735730Y-35936D01*
X737064Y-39157D01*
X737064Y-42643D01*
X735730Y-45864D01*
X733264Y-48330D01*
X730043Y-49664D01*
X726557Y-49664D01*
G37*
%LPD*%
%LPC*%
G36*
X341157Y179196D02*
X341157Y179196D01*
X337936Y180530D01*
X335470Y182996D01*
X334136Y186217D01*
X334136Y189703D01*
X335470Y192924D01*
X337936Y195390D01*
X341157Y196724D01*
X344643Y196724D01*
X347864Y195390D01*
X350330Y192924D01*
X351664Y189703D01*
X351664Y186217D01*
X350330Y182996D01*
X347864Y180530D01*
X344643Y179196D01*
X341157Y179196D01*
G37*
%LPD*%
%LPC*%
G36*
X1005957Y178936D02*
X1005957Y178936D01*
X1002736Y180270D01*
X1000270Y182736D01*
X998936Y185957D01*
X998936Y189443D01*
X1000270Y192664D01*
X1002736Y195130D01*
X1005957Y196464D01*
X1009443Y196464D01*
X1012664Y195130D01*
X1015130Y192664D01*
X1016464Y189443D01*
X1016464Y185957D01*
X1015130Y182736D01*
X1012664Y180270D01*
X1009443Y178936D01*
X1005957Y178936D01*
G37*
%LPD*%
%LPC*%
G36*
X980557Y178936D02*
X980557Y178936D01*
X977336Y180270D01*
X974870Y182736D01*
X973536Y185957D01*
X973536Y189443D01*
X974870Y192664D01*
X977336Y195130D01*
X980557Y196464D01*
X984043Y196464D01*
X987264Y195130D01*
X989730Y192664D01*
X991064Y189443D01*
X991064Y185957D01*
X989730Y182736D01*
X987264Y180270D01*
X984043Y178936D01*
X980557Y178936D01*
G37*
%LPD*%
%LPC*%
G36*
X955157Y178936D02*
X955157Y178936D01*
X951936Y180270D01*
X949470Y182736D01*
X948136Y185957D01*
X948136Y189443D01*
X949470Y192664D01*
X951936Y195130D01*
X955157Y196464D01*
X958643Y196464D01*
X961864Y195130D01*
X964330Y192664D01*
X965664Y189443D01*
X965664Y185957D01*
X964330Y182736D01*
X961864Y180270D01*
X958643Y178936D01*
X955157Y178936D01*
G37*
%LPD*%
%LPC*%
G36*
X929757Y178936D02*
X929757Y178936D01*
X926536Y180270D01*
X924070Y182736D01*
X922736Y185957D01*
X922736Y189443D01*
X924070Y192664D01*
X926536Y195130D01*
X929757Y196464D01*
X933243Y196464D01*
X936464Y195130D01*
X938930Y192664D01*
X940264Y189443D01*
X940264Y185957D01*
X938930Y182736D01*
X936464Y180270D01*
X933243Y178936D01*
X929757Y178936D01*
G37*
%LPD*%
%LPC*%
G36*
X904357Y178936D02*
X904357Y178936D01*
X901136Y180270D01*
X898670Y182736D01*
X897336Y185957D01*
X897336Y189443D01*
X898670Y192664D01*
X901136Y195130D01*
X904357Y196464D01*
X907843Y196464D01*
X911064Y195130D01*
X913530Y192664D01*
X914864Y189443D01*
X914864Y185957D01*
X913530Y182736D01*
X911064Y180270D01*
X907843Y178936D01*
X904357Y178936D01*
G37*
%LPD*%
%LPC*%
G36*
X878957Y178936D02*
X878957Y178936D01*
X875736Y180270D01*
X873270Y182736D01*
X871936Y185957D01*
X871936Y189443D01*
X873270Y192664D01*
X875736Y195130D01*
X878957Y196464D01*
X882443Y196464D01*
X885664Y195130D01*
X888130Y192664D01*
X889464Y189443D01*
X889464Y185957D01*
X888130Y182736D01*
X885664Y180270D01*
X882443Y178936D01*
X878957Y178936D01*
G37*
%LPD*%
%LPC*%
G36*
X853557Y178936D02*
X853557Y178936D01*
X850336Y180270D01*
X847870Y182736D01*
X846536Y185957D01*
X846536Y189443D01*
X847870Y192664D01*
X850336Y195130D01*
X853557Y196464D01*
X857043Y196464D01*
X860264Y195130D01*
X862730Y192664D01*
X864064Y189443D01*
X864064Y185957D01*
X862730Y182736D01*
X860264Y180270D01*
X857043Y178936D01*
X853557Y178936D01*
G37*
%LPD*%
%LPC*%
G36*
X802757Y178936D02*
X802757Y178936D01*
X799536Y180270D01*
X797070Y182736D01*
X795736Y185957D01*
X795736Y189443D01*
X797070Y192664D01*
X799536Y195130D01*
X802757Y196464D01*
X806243Y196464D01*
X809464Y195130D01*
X811930Y192664D01*
X813264Y189443D01*
X813264Y185957D01*
X811930Y182736D01*
X809464Y180270D01*
X806243Y178936D01*
X802757Y178936D01*
G37*
%LPD*%
%LPC*%
G36*
X777357Y178936D02*
X777357Y178936D01*
X774136Y180270D01*
X771670Y182736D01*
X770336Y185957D01*
X770336Y189443D01*
X771670Y192664D01*
X774136Y195130D01*
X777357Y196464D01*
X780843Y196464D01*
X784064Y195130D01*
X786530Y192664D01*
X787864Y189443D01*
X787864Y185957D01*
X786530Y182736D01*
X784064Y180270D01*
X780843Y178936D01*
X777357Y178936D01*
G37*
%LPD*%
%LPC*%
G36*
X751957Y178936D02*
X751957Y178936D01*
X748736Y180270D01*
X746270Y182736D01*
X744936Y185957D01*
X744936Y189443D01*
X746270Y192664D01*
X748736Y195130D01*
X751957Y196464D01*
X755443Y196464D01*
X758664Y195130D01*
X761130Y192664D01*
X762464Y189443D01*
X762464Y185957D01*
X761130Y182736D01*
X758664Y180270D01*
X755443Y178936D01*
X751957Y178936D01*
G37*
%LPD*%
%LPC*%
G36*
X726557Y178936D02*
X726557Y178936D01*
X723336Y180270D01*
X720870Y182736D01*
X719536Y185957D01*
X719536Y189443D01*
X720870Y192664D01*
X723336Y195130D01*
X726557Y196464D01*
X730043Y196464D01*
X733264Y195130D01*
X735730Y192664D01*
X737064Y189443D01*
X737064Y185957D01*
X735730Y182736D01*
X733264Y180270D01*
X730043Y178936D01*
X726557Y178936D01*
G37*
%LPD*%
%LPC*%
G36*
X701157Y178936D02*
X701157Y178936D01*
X697936Y180270D01*
X695470Y182736D01*
X694136Y185957D01*
X694136Y189443D01*
X695470Y192664D01*
X697936Y195130D01*
X701157Y196464D01*
X704643Y196464D01*
X707864Y195130D01*
X710330Y192664D01*
X711664Y189443D01*
X711664Y185957D01*
X710330Y182736D01*
X707864Y180270D01*
X704643Y178936D01*
X701157Y178936D01*
G37*
%LPD*%
%LPC*%
G36*
X675757Y178936D02*
X675757Y178936D01*
X672536Y180270D01*
X670070Y182736D01*
X668736Y185957D01*
X668736Y189443D01*
X670070Y192664D01*
X672536Y195130D01*
X675757Y196464D01*
X679243Y196464D01*
X682464Y195130D01*
X684930Y192664D01*
X686264Y189443D01*
X686264Y185957D01*
X684930Y182736D01*
X682464Y180270D01*
X679243Y178936D01*
X675757Y178936D01*
G37*
%LPD*%
%LPC*%
G36*
X650357Y178936D02*
X650357Y178936D01*
X647136Y180270D01*
X644670Y182736D01*
X643336Y185957D01*
X643336Y189443D01*
X644670Y192664D01*
X647136Y195130D01*
X650357Y196464D01*
X653843Y196464D01*
X657064Y195130D01*
X659530Y192664D01*
X660864Y189443D01*
X660864Y185957D01*
X659530Y182736D01*
X657064Y180270D01*
X653843Y178936D01*
X650357Y178936D01*
G37*
%LPD*%
%LPC*%
G36*
X624957Y178936D02*
X624957Y178936D01*
X621736Y180270D01*
X619270Y182736D01*
X617936Y185957D01*
X617936Y189443D01*
X619270Y192664D01*
X621736Y195130D01*
X624957Y196464D01*
X628443Y196464D01*
X631664Y195130D01*
X634130Y192664D01*
X635464Y189443D01*
X635464Y185957D01*
X634130Y182736D01*
X631664Y180270D01*
X628443Y178936D01*
X624957Y178936D01*
G37*
%LPD*%
%LPC*%
G36*
X599557Y178936D02*
X599557Y178936D01*
X596336Y180270D01*
X593870Y182736D01*
X592536Y185957D01*
X592536Y189443D01*
X593870Y192664D01*
X596336Y195130D01*
X599557Y196464D01*
X603043Y196464D01*
X606264Y195130D01*
X608730Y192664D01*
X610064Y189443D01*
X610064Y185957D01*
X608730Y182736D01*
X606264Y180270D01*
X603043Y178936D01*
X599557Y178936D01*
G37*
%LPD*%
%LPC*%
G36*
X574157Y178936D02*
X574157Y178936D01*
X570936Y180270D01*
X568470Y182736D01*
X567136Y185957D01*
X567136Y189443D01*
X568470Y192664D01*
X570936Y195130D01*
X574157Y196464D01*
X577643Y196464D01*
X580864Y195130D01*
X583330Y192664D01*
X584664Y189443D01*
X584664Y185957D01*
X583330Y182736D01*
X580864Y180270D01*
X577643Y178936D01*
X574157Y178936D01*
G37*
%LPD*%
%LPC*%
G36*
X624957Y204336D02*
X624957Y204336D01*
X621736Y205670D01*
X619270Y208136D01*
X617936Y211357D01*
X617936Y214843D01*
X619270Y218064D01*
X621736Y220530D01*
X624957Y221864D01*
X628443Y221864D01*
X631664Y220530D01*
X634130Y218064D01*
X635464Y214843D01*
X635464Y211357D01*
X634130Y208136D01*
X631664Y205670D01*
X628443Y204336D01*
X624957Y204336D01*
G37*
%LPD*%
%LPC*%
G36*
X701157Y-49664D02*
X701157Y-49664D01*
X697936Y-48330D01*
X695470Y-45864D01*
X694136Y-42643D01*
X694136Y-39157D01*
X695470Y-35936D01*
X697936Y-33470D01*
X701157Y-32136D01*
X704643Y-32136D01*
X707864Y-33470D01*
X710330Y-35936D01*
X711664Y-39157D01*
X711664Y-42643D01*
X710330Y-45864D01*
X707864Y-48330D01*
X704643Y-49664D01*
X701157Y-49664D01*
G37*
%LPD*%
%LPC*%
G36*
X904357Y-49664D02*
X904357Y-49664D01*
X901136Y-48330D01*
X898670Y-45864D01*
X897336Y-42643D01*
X897336Y-39157D01*
X898670Y-35936D01*
X901136Y-33470D01*
X904357Y-32136D01*
X907843Y-32136D01*
X911064Y-33470D01*
X913530Y-35936D01*
X914864Y-39157D01*
X914864Y-42643D01*
X913530Y-45864D01*
X911064Y-48330D01*
X907843Y-49664D01*
X904357Y-49664D01*
G37*
%LPD*%
%LPC*%
G36*
X675757Y-49664D02*
X675757Y-49664D01*
X672536Y-48330D01*
X670070Y-45864D01*
X668736Y-42643D01*
X668736Y-39157D01*
X670070Y-35936D01*
X672536Y-33470D01*
X675757Y-32136D01*
X679243Y-32136D01*
X682464Y-33470D01*
X684930Y-35936D01*
X686264Y-39157D01*
X686264Y-42643D01*
X684930Y-45864D01*
X682464Y-48330D01*
X679243Y-49664D01*
X675757Y-49664D01*
G37*
%LPD*%
%LPC*%
G36*
X650357Y-49664D02*
X650357Y-49664D01*
X647136Y-48330D01*
X644670Y-45864D01*
X643336Y-42643D01*
X643336Y-39157D01*
X644670Y-35936D01*
X647136Y-33470D01*
X650357Y-32136D01*
X653843Y-32136D01*
X657064Y-33470D01*
X659530Y-35936D01*
X660864Y-39157D01*
X660864Y-42643D01*
X659530Y-45864D01*
X657064Y-48330D01*
X653843Y-49664D01*
X650357Y-49664D01*
G37*
%LPD*%
%LPC*%
G36*
X624957Y-49664D02*
X624957Y-49664D01*
X621736Y-48330D01*
X619270Y-45864D01*
X617936Y-42643D01*
X617936Y-39157D01*
X619270Y-35936D01*
X621736Y-33470D01*
X624957Y-32136D01*
X628443Y-32136D01*
X631664Y-33470D01*
X634130Y-35936D01*
X635464Y-39157D01*
X635464Y-42643D01*
X634130Y-45864D01*
X631664Y-48330D01*
X628443Y-49664D01*
X624957Y-49664D01*
G37*
%LPD*%
%LPC*%
G36*
X751957Y-75064D02*
X751957Y-75064D01*
X748736Y-73730D01*
X746270Y-71264D01*
X744936Y-68043D01*
X744936Y-64557D01*
X746270Y-61336D01*
X748736Y-58870D01*
X751957Y-57536D01*
X755443Y-57536D01*
X758664Y-58870D01*
X761130Y-61336D01*
X762464Y-64557D01*
X762464Y-68043D01*
X761130Y-71264D01*
X758664Y-73730D01*
X755443Y-75064D01*
X751957Y-75064D01*
G37*
%LPD*%
%LPC*%
G36*
X878957Y-49664D02*
X878957Y-49664D01*
X875736Y-48330D01*
X873270Y-45864D01*
X871936Y-42643D01*
X871936Y-39157D01*
X873270Y-35936D01*
X875736Y-33470D01*
X878957Y-32136D01*
X882443Y-32136D01*
X885664Y-33470D01*
X888130Y-35936D01*
X889464Y-39157D01*
X889464Y-42643D01*
X888130Y-45864D01*
X885664Y-48330D01*
X882443Y-49664D01*
X878957Y-49664D01*
G37*
%LPD*%
%LPC*%
G36*
X853557Y-49664D02*
X853557Y-49664D01*
X850336Y-48330D01*
X847870Y-45864D01*
X846536Y-42643D01*
X846536Y-39157D01*
X847870Y-35936D01*
X850336Y-33470D01*
X853557Y-32136D01*
X857043Y-32136D01*
X860264Y-33470D01*
X862730Y-35936D01*
X864064Y-39157D01*
X864064Y-42643D01*
X862730Y-45864D01*
X860264Y-48330D01*
X857043Y-49664D01*
X853557Y-49664D01*
G37*
%LPD*%
%LPC*%
G36*
X980557Y-75064D02*
X980557Y-75064D01*
X977336Y-73730D01*
X974870Y-71264D01*
X973536Y-68043D01*
X973536Y-64557D01*
X974870Y-61336D01*
X977336Y-58870D01*
X980557Y-57536D01*
X984043Y-57536D01*
X987264Y-58870D01*
X989730Y-61336D01*
X991064Y-64557D01*
X991064Y-68043D01*
X989730Y-71264D01*
X987264Y-73730D01*
X984043Y-75064D01*
X980557Y-75064D01*
G37*
%LPD*%
%LPC*%
G36*
X955157Y-75064D02*
X955157Y-75064D01*
X951936Y-73730D01*
X949470Y-71264D01*
X948136Y-68043D01*
X948136Y-64557D01*
X949470Y-61336D01*
X951936Y-58870D01*
X955157Y-57536D01*
X958643Y-57536D01*
X961864Y-58870D01*
X964330Y-61336D01*
X965664Y-64557D01*
X965664Y-68043D01*
X964330Y-71264D01*
X961864Y-73730D01*
X958643Y-75064D01*
X955157Y-75064D01*
G37*
%LPD*%
%LPC*%
G36*
X929757Y-75064D02*
X929757Y-75064D01*
X926536Y-73730D01*
X924070Y-71264D01*
X922736Y-68043D01*
X922736Y-64557D01*
X924070Y-61336D01*
X926536Y-58870D01*
X929757Y-57536D01*
X933243Y-57536D01*
X936464Y-58870D01*
X938930Y-61336D01*
X940264Y-64557D01*
X940264Y-68043D01*
X938930Y-71264D01*
X936464Y-73730D01*
X933243Y-75064D01*
X929757Y-75064D01*
G37*
%LPD*%
%LPC*%
G36*
X904357Y-75064D02*
X904357Y-75064D01*
X901136Y-73730D01*
X898670Y-71264D01*
X897336Y-68043D01*
X897336Y-64557D01*
X898670Y-61336D01*
X901136Y-58870D01*
X904357Y-57536D01*
X907843Y-57536D01*
X911064Y-58870D01*
X913530Y-61336D01*
X914864Y-64557D01*
X914864Y-68043D01*
X913530Y-71264D01*
X911064Y-73730D01*
X907843Y-75064D01*
X904357Y-75064D01*
G37*
%LPD*%
%LPC*%
G36*
X878957Y-75064D02*
X878957Y-75064D01*
X875736Y-73730D01*
X873270Y-71264D01*
X871936Y-68043D01*
X871936Y-64557D01*
X873270Y-61336D01*
X875736Y-58870D01*
X878957Y-57536D01*
X882443Y-57536D01*
X885664Y-58870D01*
X888130Y-61336D01*
X889464Y-64557D01*
X889464Y-68043D01*
X888130Y-71264D01*
X885664Y-73730D01*
X882443Y-75064D01*
X878957Y-75064D01*
G37*
%LPD*%
%LPC*%
G36*
X853557Y-75064D02*
X853557Y-75064D01*
X850336Y-73730D01*
X847870Y-71264D01*
X846536Y-68043D01*
X846536Y-64557D01*
X847870Y-61336D01*
X850336Y-58870D01*
X853557Y-57536D01*
X857043Y-57536D01*
X860264Y-58870D01*
X862730Y-61336D01*
X864064Y-64557D01*
X864064Y-68043D01*
X862730Y-71264D01*
X860264Y-73730D01*
X857043Y-75064D01*
X853557Y-75064D01*
G37*
%LPD*%
%LPC*%
G36*
X828157Y-75064D02*
X828157Y-75064D01*
X824936Y-73730D01*
X822470Y-71264D01*
X821136Y-68043D01*
X821136Y-64557D01*
X822470Y-61336D01*
X824936Y-58870D01*
X828157Y-57536D01*
X831643Y-57536D01*
X834864Y-58870D01*
X837330Y-61336D01*
X838664Y-64557D01*
X838664Y-68043D01*
X837330Y-71264D01*
X834864Y-73730D01*
X831643Y-75064D01*
X828157Y-75064D01*
G37*
%LPD*%
%LPC*%
G36*
X802757Y-75064D02*
X802757Y-75064D01*
X799536Y-73730D01*
X797070Y-71264D01*
X795736Y-68043D01*
X795736Y-64557D01*
X797070Y-61336D01*
X799536Y-58870D01*
X802757Y-57536D01*
X806243Y-57536D01*
X809464Y-58870D01*
X811930Y-61336D01*
X813264Y-64557D01*
X813264Y-68043D01*
X811930Y-71264D01*
X809464Y-73730D01*
X806243Y-75064D01*
X802757Y-75064D01*
G37*
%LPD*%
%LPC*%
G36*
X777357Y-75064D02*
X777357Y-75064D01*
X774136Y-73730D01*
X771670Y-71264D01*
X770336Y-68043D01*
X770336Y-64557D01*
X771670Y-61336D01*
X774136Y-58870D01*
X777357Y-57536D01*
X780843Y-57536D01*
X784064Y-58870D01*
X786530Y-61336D01*
X787864Y-64557D01*
X787864Y-68043D01*
X786530Y-71264D01*
X784064Y-73730D01*
X780843Y-75064D01*
X777357Y-75064D01*
G37*
%LPD*%
%LPC*%
G36*
X726557Y-75064D02*
X726557Y-75064D01*
X723336Y-73730D01*
X720870Y-71264D01*
X719536Y-68043D01*
X719536Y-64557D01*
X720870Y-61336D01*
X723336Y-58870D01*
X726557Y-57536D01*
X730043Y-57536D01*
X733264Y-58870D01*
X735730Y-61336D01*
X737064Y-64557D01*
X737064Y-68043D01*
X735730Y-71264D01*
X733264Y-73730D01*
X730043Y-75064D01*
X726557Y-75064D01*
G37*
%LPD*%
%LPC*%
G36*
X701157Y-75064D02*
X701157Y-75064D01*
X697936Y-73730D01*
X695470Y-71264D01*
X694136Y-68043D01*
X694136Y-64557D01*
X695470Y-61336D01*
X697936Y-58870D01*
X701157Y-57536D01*
X704643Y-57536D01*
X707864Y-58870D01*
X710330Y-61336D01*
X711664Y-64557D01*
X711664Y-68043D01*
X710330Y-71264D01*
X707864Y-73730D01*
X704643Y-75064D01*
X701157Y-75064D01*
G37*
%LPD*%
%LPC*%
G36*
X675757Y-75064D02*
X675757Y-75064D01*
X672536Y-73730D01*
X670070Y-71264D01*
X668736Y-68043D01*
X668736Y-64557D01*
X670070Y-61336D01*
X672536Y-58870D01*
X675757Y-57536D01*
X679243Y-57536D01*
X682464Y-58870D01*
X684930Y-61336D01*
X686264Y-64557D01*
X686264Y-68043D01*
X684930Y-71264D01*
X682464Y-73730D01*
X679243Y-75064D01*
X675757Y-75064D01*
G37*
%LPD*%
%LPC*%
G36*
X650357Y-75064D02*
X650357Y-75064D01*
X647136Y-73730D01*
X644670Y-71264D01*
X643336Y-68043D01*
X643336Y-64557D01*
X644670Y-61336D01*
X647136Y-58870D01*
X650357Y-57536D01*
X653843Y-57536D01*
X657064Y-58870D01*
X659530Y-61336D01*
X660864Y-64557D01*
X660864Y-68043D01*
X659530Y-71264D01*
X657064Y-73730D01*
X653843Y-75064D01*
X650357Y-75064D01*
G37*
%LPD*%
%LPC*%
G36*
X624957Y-75064D02*
X624957Y-75064D01*
X621736Y-73730D01*
X619270Y-71264D01*
X617936Y-68043D01*
X617936Y-64557D01*
X619270Y-61336D01*
X621736Y-58870D01*
X624957Y-57536D01*
X628443Y-57536D01*
X631664Y-58870D01*
X634130Y-61336D01*
X635464Y-64557D01*
X635464Y-68043D01*
X634130Y-71264D01*
X631664Y-73730D01*
X628443Y-75064D01*
X624957Y-75064D01*
G37*
%LPD*%
%LPC*%
G36*
X599557Y-75064D02*
X599557Y-75064D01*
X596336Y-73730D01*
X593870Y-71264D01*
X592536Y-68043D01*
X592536Y-64557D01*
X593870Y-61336D01*
X596336Y-58870D01*
X599557Y-57536D01*
X603043Y-57536D01*
X606264Y-58870D01*
X608730Y-61336D01*
X610064Y-64557D01*
X610064Y-68043D01*
X608730Y-71264D01*
X606264Y-73730D01*
X603043Y-75064D01*
X599557Y-75064D01*
G37*
%LPD*%
%LPC*%
G36*
X574157Y-75064D02*
X574157Y-75064D01*
X570936Y-73730D01*
X568470Y-71264D01*
X567136Y-68043D01*
X567136Y-64557D01*
X568470Y-61336D01*
X570936Y-58870D01*
X574157Y-57536D01*
X577643Y-57536D01*
X580864Y-58870D01*
X583330Y-61336D01*
X584664Y-64557D01*
X584664Y-68043D01*
X583330Y-71264D01*
X580864Y-73730D01*
X577643Y-75064D01*
X574157Y-75064D01*
G37*
%LPD*%
%LPC*%
G36*
X777357Y-49664D02*
X777357Y-49664D01*
X774136Y-48330D01*
X771670Y-45864D01*
X770336Y-42643D01*
X770336Y-39157D01*
X771670Y-35936D01*
X774136Y-33470D01*
X777357Y-32136D01*
X780843Y-32136D01*
X784064Y-33470D01*
X786530Y-35936D01*
X787864Y-39157D01*
X787864Y-42643D01*
X786530Y-45864D01*
X784064Y-48330D01*
X780843Y-49664D01*
X777357Y-49664D01*
G37*
%LPD*%
%LPC*%
G36*
X802757Y-49664D02*
X802757Y-49664D01*
X799536Y-48330D01*
X797070Y-45864D01*
X795736Y-42643D01*
X795736Y-39157D01*
X797070Y-35936D01*
X799536Y-33470D01*
X802757Y-32136D01*
X806243Y-32136D01*
X809464Y-33470D01*
X811930Y-35936D01*
X813264Y-39157D01*
X813264Y-42643D01*
X811930Y-45864D01*
X809464Y-48330D01*
X806243Y-49664D01*
X802757Y-49664D01*
G37*
%LPD*%
%LPC*%
G36*
X828157Y-49664D02*
X828157Y-49664D01*
X824936Y-48330D01*
X822470Y-45864D01*
X821136Y-42643D01*
X821136Y-39157D01*
X822470Y-35936D01*
X824936Y-33470D01*
X828157Y-32136D01*
X831643Y-32136D01*
X834864Y-33470D01*
X837330Y-35936D01*
X838664Y-39157D01*
X838664Y-42643D01*
X837330Y-45864D01*
X834864Y-48330D01*
X831643Y-49664D01*
X828157Y-49664D01*
G37*
%LPD*%
%LPC*%
G36*
X1005957Y-75064D02*
X1005957Y-75064D01*
X1002736Y-73730D01*
X1000270Y-71264D01*
X998936Y-68043D01*
X998936Y-64557D01*
X1000270Y-61336D01*
X1002736Y-58870D01*
X1005957Y-57536D01*
X1009443Y-57536D01*
X1012664Y-58870D01*
X1015130Y-61336D01*
X1016464Y-64557D01*
X1016464Y-68043D01*
X1015130Y-71264D01*
X1012664Y-73730D01*
X1009443Y-75064D01*
X1005957Y-75064D01*
G37*
%LPD*%
%LPC*%
G36*
X341157Y47116D02*
X341157Y47116D01*
X337936Y48450D01*
X335470Y50916D01*
X334136Y54137D01*
X334136Y57623D01*
X335470Y60844D01*
X337936Y63310D01*
X341157Y64644D01*
X344643Y64644D01*
X347864Y63310D01*
X350330Y60844D01*
X351664Y57623D01*
X351664Y54137D01*
X350330Y50916D01*
X347864Y48450D01*
X344643Y47116D01*
X341157Y47116D01*
G37*
%LPD*%
%LPC*%
G36*
X341157Y80136D02*
X341157Y80136D01*
X337936Y81470D01*
X335470Y83936D01*
X334136Y87157D01*
X334136Y90643D01*
X335470Y93864D01*
X337936Y96330D01*
X341157Y97664D01*
X344643Y97664D01*
X347864Y96330D01*
X350330Y93864D01*
X351664Y90643D01*
X351664Y87157D01*
X350330Y83936D01*
X347864Y81470D01*
X344643Y80136D01*
X341157Y80136D01*
G37*
%LPD*%
%LPC*%
G36*
X341157Y113156D02*
X341157Y113156D01*
X337936Y114490D01*
X335470Y116956D01*
X334136Y120177D01*
X334136Y123663D01*
X335470Y126884D01*
X337936Y129350D01*
X341157Y130684D01*
X344643Y130684D01*
X347864Y129350D01*
X350330Y126884D01*
X351664Y123663D01*
X351664Y120177D01*
X350330Y116956D01*
X347864Y114490D01*
X344643Y113156D01*
X341157Y113156D01*
G37*
%LPD*%
%LPC*%
G36*
X341157Y146176D02*
X341157Y146176D01*
X337936Y147510D01*
X335470Y149976D01*
X334136Y153197D01*
X334136Y156683D01*
X335470Y159904D01*
X337936Y162370D01*
X341157Y163704D01*
X344643Y163704D01*
X347864Y162370D01*
X350330Y159904D01*
X351664Y156683D01*
X351664Y153197D01*
X350330Y149976D01*
X347864Y147510D01*
X344643Y146176D01*
X341157Y146176D01*
G37*
%LPD*%
%LPC*%
G36*
X751957Y-49664D02*
X751957Y-49664D01*
X748736Y-48330D01*
X746270Y-45864D01*
X744936Y-42643D01*
X744936Y-39157D01*
X746270Y-35936D01*
X748736Y-33470D01*
X751957Y-32136D01*
X755443Y-32136D01*
X758664Y-33470D01*
X761130Y-35936D01*
X762464Y-39157D01*
X762464Y-42643D01*
X761130Y-45864D01*
X758664Y-48330D01*
X755443Y-49664D01*
X751957Y-49664D01*
G37*
%LPD*%
%LPC*%
G36*
X1270523Y-128123D02*
X1270523Y-128123D01*
X1281253Y-128123D01*
X1281037Y-129490D01*
X1280437Y-131337D01*
X1279555Y-133068D01*
X1278413Y-134639D01*
X1277039Y-136013D01*
X1275468Y-137155D01*
X1273737Y-138037D01*
X1271890Y-138637D01*
X1270523Y-138853D01*
X1270523Y-128123D01*
G37*
%LPD*%
%LPC*%
G36*
X1270523Y179723D02*
X1270523Y179723D01*
X1270523Y190453D01*
X1271890Y190237D01*
X1273737Y189637D01*
X1275468Y188755D01*
X1277039Y187613D01*
X1278413Y186239D01*
X1279555Y184668D01*
X1280437Y182937D01*
X1281037Y181090D01*
X1281253Y179723D01*
X1270523Y179723D01*
G37*
%LPD*%
%LPC*%
G36*
X965723Y-293223D02*
X965723Y-293223D01*
X976453Y-293223D01*
X976237Y-294590D01*
X975637Y-296437D01*
X974755Y-298168D01*
X973613Y-299739D01*
X972239Y-301113D01*
X970668Y-302255D01*
X968937Y-303137D01*
X967090Y-303737D01*
X965723Y-303953D01*
X965723Y-293223D01*
G37*
%LPD*%
%LPC*%
G36*
X1270523Y-293223D02*
X1270523Y-293223D01*
X1281253Y-293223D01*
X1281037Y-294590D01*
X1280437Y-296437D01*
X1279555Y-298168D01*
X1278413Y-299739D01*
X1277039Y-301113D01*
X1275468Y-302255D01*
X1273737Y-303137D01*
X1271890Y-303737D01*
X1270523Y-303953D01*
X1270523Y-293223D01*
G37*
%LPD*%
%LPC*%
G36*
X1118123Y-293223D02*
X1118123Y-293223D01*
X1128853Y-293223D01*
X1128637Y-294590D01*
X1128037Y-296437D01*
X1127155Y-298168D01*
X1126013Y-299739D01*
X1124639Y-301113D01*
X1123068Y-302255D01*
X1121337Y-303137D01*
X1119490Y-303737D01*
X1118123Y-303953D01*
X1118123Y-293223D01*
G37*
%LPD*%
%LPC*%
G36*
X406923Y-90023D02*
X406923Y-90023D01*
X417653Y-90023D01*
X417437Y-91390D01*
X416837Y-93237D01*
X415955Y-94968D01*
X414813Y-96539D01*
X413439Y-97913D01*
X411868Y-99055D01*
X410137Y-99937D01*
X408290Y-100537D01*
X406923Y-100753D01*
X406923Y-90023D01*
G37*
%LPD*%
%LPC*%
G36*
X1270523Y14623D02*
X1270523Y14623D01*
X1270523Y25353D01*
X1271890Y25137D01*
X1273737Y24537D01*
X1275468Y23655D01*
X1277039Y22513D01*
X1278413Y21139D01*
X1279555Y19568D01*
X1280437Y17837D01*
X1281037Y15990D01*
X1281253Y14623D01*
X1270523Y14623D01*
G37*
%LPD*%
%LPC*%
G36*
X1266110Y-138637D02*
X1266110Y-138637D01*
X1264263Y-138037D01*
X1262532Y-137155D01*
X1260961Y-136013D01*
X1259587Y-134639D01*
X1258445Y-133068D01*
X1257563Y-131337D01*
X1256963Y-129490D01*
X1256747Y-128123D01*
X1267477Y-128123D01*
X1267477Y-138853D01*
X1266110Y-138637D01*
G37*
%LPD*%
%LPC*%
G36*
X1270523Y-125077D02*
X1270523Y-125077D01*
X1270523Y-114347D01*
X1271890Y-114563D01*
X1273737Y-115163D01*
X1275468Y-116045D01*
X1277039Y-117187D01*
X1278413Y-118561D01*
X1279555Y-120132D01*
X1280437Y-121863D01*
X1281037Y-123710D01*
X1281253Y-125077D01*
X1270523Y-125077D01*
G37*
%LPD*%
%LPC*%
G36*
X1256747Y179723D02*
X1256747Y179723D01*
X1256963Y181090D01*
X1257563Y182937D01*
X1258445Y184668D01*
X1259587Y186239D01*
X1260961Y187613D01*
X1262532Y188755D01*
X1264263Y189637D01*
X1266110Y190237D01*
X1267477Y190453D01*
X1267477Y179723D01*
X1256747Y179723D01*
G37*
%LPD*%
%LPC*%
G36*
X402510Y-100537D02*
X402510Y-100537D01*
X400663Y-99937D01*
X398932Y-99055D01*
X397361Y-97913D01*
X395987Y-96539D01*
X394845Y-94968D01*
X393963Y-93237D01*
X393363Y-91390D01*
X393147Y-90023D01*
X403877Y-90023D01*
X403877Y-100753D01*
X402510Y-100537D01*
G37*
%LPD*%
%LPC*%
G36*
X1270523Y-290177D02*
X1270523Y-290177D01*
X1270523Y-279447D01*
X1271890Y-279663D01*
X1273737Y-280263D01*
X1275468Y-281145D01*
X1277039Y-282287D01*
X1278413Y-283661D01*
X1279555Y-285232D01*
X1280437Y-286963D01*
X1281037Y-288810D01*
X1281253Y-290177D01*
X1270523Y-290177D01*
G37*
%LPD*%
%LPC*%
G36*
X961310Y-303737D02*
X961310Y-303737D01*
X959463Y-303137D01*
X957732Y-302255D01*
X956161Y-301113D01*
X954787Y-299739D01*
X953645Y-298168D01*
X952763Y-296437D01*
X952163Y-294590D01*
X951947Y-293223D01*
X962677Y-293223D01*
X962677Y-303953D01*
X961310Y-303737D01*
G37*
%LPD*%
%LPC*%
G36*
X1266110Y-303737D02*
X1266110Y-303737D01*
X1264263Y-303137D01*
X1262532Y-302255D01*
X1260961Y-301113D01*
X1259587Y-299739D01*
X1258445Y-298168D01*
X1257563Y-296437D01*
X1256963Y-294590D01*
X1256747Y-293223D01*
X1267477Y-293223D01*
X1267477Y-303953D01*
X1266110Y-303737D01*
G37*
%LPD*%
%LPC*%
G36*
X1113710Y-303737D02*
X1113710Y-303737D01*
X1111863Y-303137D01*
X1110132Y-302255D01*
X1108561Y-301113D01*
X1107187Y-299739D01*
X1106045Y-298168D01*
X1105163Y-296437D01*
X1104563Y-294590D01*
X1104347Y-293223D01*
X1115077Y-293223D01*
X1115077Y-303953D01*
X1113710Y-303737D01*
G37*
%LPD*%
%LPC*%
G36*
X406923Y-86977D02*
X406923Y-86977D01*
X406923Y-76247D01*
X408290Y-76463D01*
X410137Y-77063D01*
X411868Y-77945D01*
X413439Y-79087D01*
X414813Y-80461D01*
X415955Y-82032D01*
X416837Y-83763D01*
X417437Y-85610D01*
X417653Y-86977D01*
X406923Y-86977D01*
G37*
%LPD*%
%LPC*%
G36*
X1256747Y14623D02*
X1256747Y14623D01*
X1256963Y15990D01*
X1257563Y17837D01*
X1258445Y19568D01*
X1259587Y21139D01*
X1260961Y22513D01*
X1262532Y23655D01*
X1264263Y24537D01*
X1266110Y25137D01*
X1267477Y25353D01*
X1267477Y14623D01*
X1256747Y14623D01*
G37*
%LPD*%
%LPC*%
G36*
X1270523Y176677D02*
X1270523Y176677D01*
X1281253Y176677D01*
X1281037Y175310D01*
X1280437Y173463D01*
X1279555Y171732D01*
X1278413Y170161D01*
X1277039Y168787D01*
X1275468Y167645D01*
X1273737Y166763D01*
X1271890Y166163D01*
X1270523Y165947D01*
X1270523Y176677D01*
G37*
%LPD*%
%LPC*%
G36*
X965723Y-290177D02*
X965723Y-290177D01*
X965723Y-279447D01*
X967090Y-279663D01*
X968937Y-280263D01*
X970668Y-281145D01*
X972239Y-282287D01*
X973613Y-283661D01*
X974755Y-285232D01*
X975637Y-286963D01*
X976237Y-288810D01*
X976453Y-290177D01*
X965723Y-290177D01*
G37*
%LPD*%
%LPC*%
G36*
X1118123Y-290177D02*
X1118123Y-290177D01*
X1118123Y-279447D01*
X1119490Y-279663D01*
X1121337Y-280263D01*
X1123068Y-281145D01*
X1124639Y-282287D01*
X1126013Y-283661D01*
X1127155Y-285232D01*
X1128037Y-286963D01*
X1128637Y-288810D01*
X1128853Y-290177D01*
X1118123Y-290177D01*
G37*
%LPD*%
%LPC*%
G36*
X1270523Y11577D02*
X1270523Y11577D01*
X1281253Y11577D01*
X1281037Y10210D01*
X1280437Y8363D01*
X1279555Y6632D01*
X1278413Y5061D01*
X1277039Y3687D01*
X1275468Y2545D01*
X1273737Y1663D01*
X1271890Y1063D01*
X1270523Y847D01*
X1270523Y11577D01*
G37*
%LPD*%
%LPC*%
G36*
X1256747Y-125077D02*
X1256747Y-125077D01*
X1256963Y-123710D01*
X1257563Y-121863D01*
X1258445Y-120132D01*
X1259587Y-118561D01*
X1260961Y-117187D01*
X1262532Y-116045D01*
X1264263Y-115163D01*
X1266110Y-114563D01*
X1267477Y-114347D01*
X1267477Y-125077D01*
X1256747Y-125077D01*
G37*
%LPD*%
%LPC*%
G36*
X1266110Y1063D02*
X1266110Y1063D01*
X1264263Y1663D01*
X1262532Y2545D01*
X1260961Y3687D01*
X1259587Y5061D01*
X1258445Y6632D01*
X1257563Y8363D01*
X1256963Y10210D01*
X1256747Y11577D01*
X1267477Y11577D01*
X1267477Y847D01*
X1266110Y1063D01*
G37*
%LPD*%
%LPC*%
G36*
X393147Y-86977D02*
X393147Y-86977D01*
X393363Y-85610D01*
X393963Y-83763D01*
X394845Y-82032D01*
X395987Y-80461D01*
X397361Y-79087D01*
X398932Y-77945D01*
X400663Y-77063D01*
X402510Y-76463D01*
X403877Y-76247D01*
X403877Y-86977D01*
X393147Y-86977D01*
G37*
%LPD*%
%LPC*%
G36*
X1266110Y166163D02*
X1266110Y166163D01*
X1264263Y166763D01*
X1262532Y167645D01*
X1260961Y168787D01*
X1259587Y170161D01*
X1258445Y171732D01*
X1257563Y173463D01*
X1256963Y175310D01*
X1256747Y176677D01*
X1267477Y176677D01*
X1267477Y165947D01*
X1266110Y166163D01*
G37*
%LPD*%
%LPC*%
G36*
X951947Y-290177D02*
X951947Y-290177D01*
X952163Y-288810D01*
X952763Y-286963D01*
X953645Y-285232D01*
X954787Y-283661D01*
X956161Y-282287D01*
X957732Y-281145D01*
X959463Y-280263D01*
X961310Y-279663D01*
X962677Y-279447D01*
X962677Y-290177D01*
X951947Y-290177D01*
G37*
%LPD*%
%LPC*%
G36*
X1104347Y-290177D02*
X1104347Y-290177D01*
X1104563Y-288810D01*
X1105163Y-286963D01*
X1106045Y-285232D01*
X1107187Y-283661D01*
X1108561Y-282287D01*
X1110132Y-281145D01*
X1111863Y-280263D01*
X1113710Y-279663D01*
X1115077Y-279447D01*
X1115077Y-290177D01*
X1104347Y-290177D01*
G37*
%LPD*%
%LPC*%
G36*
X1256747Y-290177D02*
X1256747Y-290177D01*
X1256963Y-288810D01*
X1257563Y-286963D01*
X1258445Y-285232D01*
X1259587Y-283661D01*
X1260961Y-282287D01*
X1262532Y-281145D01*
X1264263Y-280263D01*
X1266110Y-279663D01*
X1267477Y-279447D01*
X1267477Y-290177D01*
X1256747Y-290177D01*
G37*
%LPD*%
%LPC*%
G36*
X788523Y-331723D02*
X788523Y-331723D01*
X796425Y-331723D01*
X796174Y-332983D01*
X795455Y-334719D01*
X794411Y-336282D01*
X793082Y-337611D01*
X791519Y-338655D01*
X789783Y-339374D01*
X788523Y-339625D01*
X788523Y-331723D01*
G37*
%LPD*%
%LPC*%
G36*
X648823Y-331723D02*
X648823Y-331723D01*
X656725Y-331723D01*
X656474Y-332983D01*
X655755Y-334719D01*
X654711Y-336282D01*
X653382Y-337611D01*
X651819Y-338655D01*
X650083Y-339374D01*
X648823Y-339625D01*
X648823Y-331723D01*
G37*
%LPD*%
%LPC*%
G36*
X471623Y192023D02*
X471623Y192023D01*
X471623Y199925D01*
X472883Y199674D01*
X474619Y198955D01*
X476182Y197911D01*
X477511Y196582D01*
X478555Y195019D01*
X479274Y193283D01*
X479525Y192023D01*
X471623Y192023D01*
G37*
%LPD*%
%LPC*%
G36*
X509123Y-331723D02*
X509123Y-331723D01*
X517025Y-331723D01*
X516774Y-332983D01*
X516055Y-334719D01*
X515011Y-336282D01*
X513682Y-337611D01*
X512119Y-338655D01*
X510383Y-339374D01*
X509123Y-339625D01*
X509123Y-331723D01*
G37*
%LPD*%
%LPC*%
G36*
X369423Y-331723D02*
X369423Y-331723D01*
X377325Y-331723D01*
X377074Y-332983D01*
X376355Y-334719D01*
X375311Y-336282D01*
X373982Y-337611D01*
X372419Y-338655D01*
X370683Y-339374D01*
X369423Y-339625D01*
X369423Y-331723D01*
G37*
%LPD*%
%LPC*%
G36*
X509123Y-328677D02*
X509123Y-328677D01*
X509123Y-320775D01*
X510383Y-321026D01*
X512119Y-321745D01*
X513682Y-322789D01*
X515011Y-324118D01*
X516055Y-325681D01*
X516774Y-327417D01*
X517025Y-328677D01*
X509123Y-328677D01*
G37*
%LPD*%
%LPC*%
G36*
X460675Y192023D02*
X460675Y192023D01*
X460926Y193283D01*
X461645Y195019D01*
X462689Y196582D01*
X464018Y197911D01*
X465581Y198955D01*
X467317Y199674D01*
X468577Y199925D01*
X468577Y192023D01*
X460675Y192023D01*
G37*
%LPD*%
%LPC*%
G36*
X784217Y-339374D02*
X784217Y-339374D01*
X782481Y-338655D01*
X780918Y-337611D01*
X779589Y-336282D01*
X778545Y-334719D01*
X777826Y-332983D01*
X777575Y-331723D01*
X785477Y-331723D01*
X785477Y-339625D01*
X784217Y-339374D01*
G37*
%LPD*%
%LPC*%
G36*
X471623Y188977D02*
X471623Y188977D01*
X479525Y188977D01*
X479274Y187717D01*
X478555Y185981D01*
X477511Y184418D01*
X476182Y183089D01*
X474619Y182045D01*
X472883Y181326D01*
X471623Y181075D01*
X471623Y188977D01*
G37*
%LPD*%
%LPC*%
G36*
X788523Y-328677D02*
X788523Y-328677D01*
X788523Y-320775D01*
X789783Y-321026D01*
X791519Y-321745D01*
X793082Y-322789D01*
X794411Y-324118D01*
X795455Y-325681D01*
X796174Y-327417D01*
X796425Y-328677D01*
X788523Y-328677D01*
G37*
%LPD*%
%LPC*%
G36*
X648823Y-328677D02*
X648823Y-328677D01*
X648823Y-320775D01*
X650083Y-321026D01*
X651819Y-321745D01*
X653382Y-322789D01*
X654711Y-324118D01*
X655755Y-325681D01*
X656474Y-327417D01*
X656725Y-328677D01*
X648823Y-328677D01*
G37*
%LPD*%
%LPC*%
G36*
X365117Y-339374D02*
X365117Y-339374D01*
X363381Y-338655D01*
X361818Y-337611D01*
X360489Y-336282D01*
X359445Y-334719D01*
X358726Y-332983D01*
X358475Y-331723D01*
X366377Y-331723D01*
X366377Y-339625D01*
X365117Y-339374D01*
G37*
%LPD*%
%LPC*%
G36*
X369423Y-328677D02*
X369423Y-328677D01*
X369423Y-320775D01*
X370683Y-321026D01*
X372419Y-321745D01*
X373982Y-322789D01*
X375311Y-324118D01*
X376355Y-325681D01*
X377074Y-327417D01*
X377325Y-328677D01*
X369423Y-328677D01*
G37*
%LPD*%
%LPC*%
G36*
X644517Y-339374D02*
X644517Y-339374D01*
X642781Y-338655D01*
X641218Y-337611D01*
X639889Y-336282D01*
X638845Y-334719D01*
X638126Y-332983D01*
X637875Y-331723D01*
X645777Y-331723D01*
X645777Y-339625D01*
X644517Y-339374D01*
G37*
%LPD*%
%LPC*%
G36*
X504817Y-339374D02*
X504817Y-339374D01*
X503081Y-338655D01*
X501518Y-337611D01*
X500189Y-336282D01*
X499145Y-334719D01*
X498426Y-332983D01*
X498175Y-331723D01*
X506077Y-331723D01*
X506077Y-339625D01*
X504817Y-339374D01*
G37*
%LPD*%
%LPC*%
G36*
X777575Y-328677D02*
X777575Y-328677D01*
X777826Y-327417D01*
X778545Y-325681D01*
X779589Y-324118D01*
X780918Y-322789D01*
X782481Y-321745D01*
X784217Y-321026D01*
X785477Y-320775D01*
X785477Y-328677D01*
X777575Y-328677D01*
G37*
%LPD*%
%LPC*%
G36*
X637875Y-328677D02*
X637875Y-328677D01*
X638126Y-327417D01*
X638845Y-325681D01*
X639889Y-324118D01*
X641218Y-322789D01*
X642781Y-321745D01*
X644517Y-321026D01*
X645777Y-320775D01*
X645777Y-328677D01*
X637875Y-328677D01*
G37*
%LPD*%
%LPC*%
G36*
X467317Y181326D02*
X467317Y181326D01*
X465581Y182045D01*
X464018Y183089D01*
X462689Y184418D01*
X461645Y185981D01*
X460926Y187717D01*
X460675Y188977D01*
X468577Y188977D01*
X468577Y181075D01*
X467317Y181326D01*
G37*
%LPD*%
%LPC*%
G36*
X498175Y-328677D02*
X498175Y-328677D01*
X498426Y-327417D01*
X499145Y-325681D01*
X500189Y-324118D01*
X501518Y-322789D01*
X503081Y-321745D01*
X504817Y-321026D01*
X506077Y-320775D01*
X506077Y-328677D01*
X498175Y-328677D01*
G37*
%LPD*%
%LPC*%
G36*
X358475Y-328677D02*
X358475Y-328677D01*
X358726Y-327417D01*
X359445Y-325681D01*
X360489Y-324118D01*
X361818Y-322789D01*
X363381Y-321745D01*
X365117Y-321026D01*
X366377Y-320775D01*
X366377Y-328677D01*
X358475Y-328677D01*
G37*
%LPD*%
%LPC*%
G36*
X344423Y222503D02*
X344423Y222503D01*
X344423Y229612D01*
X345456Y229407D01*
X347051Y228746D01*
X348487Y227787D01*
X349707Y226567D01*
X350666Y225131D01*
X351327Y223536D01*
X351532Y222503D01*
X344423Y222503D01*
G37*
%LPD*%
%LPC*%
G36*
X831423Y189223D02*
X831423Y189223D01*
X831423Y196332D01*
X832456Y196127D01*
X834051Y195466D01*
X835487Y194507D01*
X836707Y193287D01*
X837666Y191851D01*
X838327Y190256D01*
X838532Y189223D01*
X831423Y189223D01*
G37*
%LPD*%
%LPC*%
G36*
X334268Y222503D02*
X334268Y222503D01*
X334473Y223536D01*
X335134Y225131D01*
X336093Y226567D01*
X337313Y227787D01*
X338749Y228746D01*
X340344Y229407D01*
X341377Y229612D01*
X341377Y222503D01*
X334268Y222503D01*
G37*
%LPD*%
%LPC*%
G36*
X821268Y189223D02*
X821268Y189223D01*
X821473Y190256D01*
X822134Y191851D01*
X823093Y193287D01*
X824313Y194507D01*
X825749Y195466D01*
X827344Y196127D01*
X828377Y196332D01*
X828377Y189223D01*
X821268Y189223D01*
G37*
%LPD*%
%LPC*%
G36*
X831423Y186177D02*
X831423Y186177D01*
X838532Y186177D01*
X838327Y185144D01*
X837666Y183549D01*
X836707Y182113D01*
X835487Y180893D01*
X834051Y179934D01*
X832456Y179273D01*
X831423Y179068D01*
X831423Y186177D01*
G37*
%LPD*%
%LPC*%
G36*
X344423Y219457D02*
X344423Y219457D01*
X351532Y219457D01*
X351327Y218424D01*
X350666Y216829D01*
X349707Y215393D01*
X348487Y214173D01*
X347051Y213214D01*
X345456Y212553D01*
X344423Y212348D01*
X344423Y219457D01*
G37*
%LPD*%
%LPC*%
G36*
X340344Y212553D02*
X340344Y212553D01*
X338749Y213214D01*
X337313Y214173D01*
X336093Y215393D01*
X335134Y216829D01*
X334473Y218424D01*
X334268Y219457D01*
X341377Y219457D01*
X341377Y212348D01*
X340344Y212553D01*
G37*
%LPD*%
%LPC*%
G36*
X827344Y179273D02*
X827344Y179273D01*
X825749Y179934D01*
X824313Y180893D01*
X823093Y182113D01*
X822134Y183549D01*
X821473Y185144D01*
X821268Y186177D01*
X828377Y186177D01*
X828377Y179068D01*
X827344Y179273D01*
G37*
%LPD*%
%LPC*%
G36*
X1268999Y-126601D02*
X1268999Y-126601D01*
X1268999Y-126599D01*
X1269001Y-126599D01*
X1269001Y-126601D01*
X1268999Y-126601D01*
G37*
%LPD*%
%LPC*%
G36*
X342899Y220979D02*
X342899Y220979D01*
X342899Y220981D01*
X342901Y220981D01*
X342901Y220979D01*
X342899Y220979D01*
G37*
%LPD*%
%LPC*%
G36*
X1268999Y13099D02*
X1268999Y13099D01*
X1268999Y13101D01*
X1269001Y13101D01*
X1269001Y13099D01*
X1268999Y13099D01*
G37*
%LPD*%
%LPC*%
G36*
X405399Y-88501D02*
X405399Y-88501D01*
X405399Y-88499D01*
X405401Y-88499D01*
X405401Y-88501D01*
X405399Y-88501D01*
G37*
%LPD*%
%LPC*%
G36*
X786999Y-330201D02*
X786999Y-330201D01*
X786999Y-330199D01*
X787001Y-330199D01*
X787001Y-330201D01*
X786999Y-330201D01*
G37*
%LPD*%
%LPC*%
G36*
X829899Y187699D02*
X829899Y187699D01*
X829899Y187701D01*
X829901Y187701D01*
X829901Y187699D01*
X829899Y187699D01*
G37*
%LPD*%
%LPC*%
G36*
X507599Y-330201D02*
X507599Y-330201D01*
X507599Y-330199D01*
X507601Y-330199D01*
X507601Y-330201D01*
X507599Y-330201D01*
G37*
%LPD*%
%LPC*%
G36*
X367899Y-330201D02*
X367899Y-330201D01*
X367899Y-330199D01*
X367901Y-330199D01*
X367901Y-330201D01*
X367899Y-330201D01*
G37*
%LPD*%
%LPC*%
G36*
X964199Y-291701D02*
X964199Y-291701D01*
X964199Y-291699D01*
X964201Y-291699D01*
X964201Y-291701D01*
X964199Y-291701D01*
G37*
%LPD*%
%LPC*%
G36*
X1116599Y-291701D02*
X1116599Y-291701D01*
X1116599Y-291699D01*
X1116601Y-291699D01*
X1116601Y-291701D01*
X1116599Y-291701D01*
G37*
%LPD*%
%LPC*%
G36*
X647299Y-330201D02*
X647299Y-330201D01*
X647299Y-330199D01*
X647301Y-330199D01*
X647301Y-330201D01*
X647299Y-330201D01*
G37*
%LPD*%
%LPC*%
G36*
X1268999Y178199D02*
X1268999Y178199D01*
X1268999Y178201D01*
X1269001Y178201D01*
X1269001Y178199D01*
X1268999Y178199D01*
G37*
%LPD*%
%LPC*%
G36*
X470099Y190499D02*
X470099Y190499D01*
X470099Y190501D01*
X470101Y190501D01*
X470101Y190499D01*
X470099Y190499D01*
G37*
%LPD*%
%LPC*%
G36*
X1268999Y-291701D02*
X1268999Y-291701D01*
X1268999Y-291699D01*
X1269001Y-291699D01*
X1269001Y-291701D01*
X1268999Y-291701D01*
G37*
%LPD*%
D10*
X964200Y-241700D03*
X964200Y-291700D03*
X839200Y-291700D03*
X839200Y-241700D03*
X1116600Y-241700D03*
X1116600Y-291700D03*
X991600Y-291700D03*
X991600Y-241700D03*
X1269000Y-241700D03*
X1269000Y-291700D03*
X1144000Y-291700D03*
X1144000Y-241700D03*
X1269000Y-76600D03*
X1269000Y-126600D03*
X1144000Y-126600D03*
X1144000Y-76600D03*
X1269000Y228200D03*
X1269000Y178200D03*
X1144000Y178200D03*
X1144000Y228200D03*
X1269000Y63100D03*
X1269000Y13100D03*
X1144000Y13100D03*
X1144000Y63100D03*
D11*
X1320800Y292100D03*
X1320800Y-342900D03*
X254000Y292100D03*
X254000Y-342900D03*
D10*
X405400Y-38500D03*
X405400Y-88500D03*
X280400Y-88500D03*
X280400Y-38500D03*
D12*
X317900Y-330200D03*
X342900Y-330200D03*
X367900Y-330200D03*
X457600Y-330200D03*
X482600Y-330200D03*
X507600Y-330200D03*
X597300Y-330200D03*
X622300Y-330200D03*
X647300Y-330200D03*
X737000Y-330200D03*
X762000Y-330200D03*
X787000Y-330200D03*
X470100Y190500D03*
X470100Y165100D03*
X470100Y139700D03*
X470100Y114300D03*
X470100Y88900D03*
X470100Y63500D03*
X470100Y38100D03*
X470100Y12700D03*
X470100Y-12700D03*
X470100Y-38100D03*
D13*
X469900Y254000D03*
X1079500Y-101600D03*
X1079500Y254000D03*
X469900Y-101600D03*
D14*
X342900Y254000D03*
X342900Y220980D03*
X342900Y187960D03*
X342900Y154940D03*
X342900Y121920D03*
X342900Y88900D03*
X342900Y55880D03*
X1007700Y-66300D03*
X1007700Y-40900D03*
X982300Y-66300D03*
X982300Y-40900D03*
X956900Y-66300D03*
X956900Y-40900D03*
X931500Y-66300D03*
X931500Y-40900D03*
X906100Y-66300D03*
X906100Y-40900D03*
X880700Y-66300D03*
X880700Y-40900D03*
X855300Y-66300D03*
X855300Y-40900D03*
X829900Y-66300D03*
X829900Y-40900D03*
X804500Y-66300D03*
X804500Y-40900D03*
X779100Y-66300D03*
X779100Y-40900D03*
X753700Y-66300D03*
X753700Y-40900D03*
X728300Y-66300D03*
X728300Y-40900D03*
X702900Y-66300D03*
X702900Y-40900D03*
X677500Y-66300D03*
X677500Y-40900D03*
X652100Y-66300D03*
X652100Y-40900D03*
X626700Y-66300D03*
X626700Y-40900D03*
X601300Y-66300D03*
X601300Y-40900D03*
X575900Y-66300D03*
X575900Y-40900D03*
X1007700Y187700D03*
X1007700Y213100D03*
X982300Y187700D03*
X982300Y213100D03*
X956900Y187700D03*
X956900Y213100D03*
X931500Y187700D03*
X931500Y213100D03*
X906100Y187700D03*
X906100Y213100D03*
X880700Y187700D03*
X880700Y213100D03*
X855300Y187700D03*
X855300Y213100D03*
X829900Y187700D03*
X829900Y213100D03*
X804500Y187700D03*
X804500Y213100D03*
X779100Y187700D03*
X779100Y213100D03*
X753700Y187700D03*
X753700Y213100D03*
X728300Y187700D03*
X728300Y213100D03*
X702900Y187700D03*
X702900Y213100D03*
X677500Y187700D03*
X677500Y213100D03*
X652100Y187700D03*
X652100Y213100D03*
X626700Y187700D03*
X626700Y213100D03*
X601300Y187700D03*
X601300Y213100D03*
X575900Y187700D03*
X575900Y213100D03*
M02*
