G04 EAGLE Gerber RS-274X export*
G75*
%MOMM*%
%FSLAX34Y34*%
%LPD*%
%INSilkscreen Top*%
%IPPOS*%
%AMOC8*
5,1,8,0,0,1.08239X$1,22.5*%
G01*
%ADD10R,0.101600X0.025400*%
%ADD11R,0.203200X0.025400*%
%ADD12R,0.304800X0.025400*%
%ADD13R,0.330200X0.025400*%
%ADD14R,0.355600X0.025400*%
%ADD15R,0.406400X0.025400*%
%ADD16R,0.431800X0.025400*%
%ADD17R,0.457200X0.025400*%
%ADD18R,0.381000X0.025400*%
%ADD19R,0.482600X0.025400*%
%ADD20R,0.533400X0.025400*%
%ADD21R,0.584200X0.025400*%
%ADD22R,0.635000X0.025400*%
%ADD23R,0.228600X0.025400*%
%ADD24R,0.076200X0.025400*%
%ADD25R,0.254000X0.025400*%
%ADD26R,0.279400X0.025400*%
%ADD27R,0.025400X0.025400*%
%ADD28R,0.127000X0.025400*%
%ADD29R,0.177800X0.025400*%
%ADD30R,0.152400X0.025400*%
%ADD31R,0.609600X0.025400*%
%ADD32R,0.685800X0.025400*%
%ADD33R,0.762000X0.025400*%
%ADD34R,0.787400X0.025400*%
%ADD35R,0.863600X0.025400*%
%ADD36R,0.914400X0.025400*%
%ADD37R,0.660400X0.025400*%
%ADD38R,1.016000X0.025400*%
%ADD39R,1.295400X0.025400*%
%ADD40R,1.473200X0.025400*%
%ADD41R,1.600200X0.025400*%
%ADD42R,1.676400X0.025400*%
%ADD43R,0.050800X0.025400*%
%ADD44R,1.778000X0.025400*%
%ADD45R,1.854200X0.025400*%
%ADD46R,0.558800X0.025400*%
%ADD47R,0.508000X0.025400*%
%ADD48R,0.736600X0.025400*%
%ADD49R,0.939800X0.025400*%
%ADD50R,0.812800X0.025400*%
%ADD51R,2.260600X0.025400*%
%ADD52R,2.108200X0.025400*%
%ADD53R,1.981200X0.025400*%
%ADD54R,1.574800X0.025400*%
%ADD55R,1.371600X0.025400*%
%ADD56R,1.193800X0.025400*%
%ADD57R,0.965200X0.025400*%
%ADD58R,1.320800X0.025400*%
%ADD59R,1.930400X0.025400*%
%ADD60R,1.955800X0.025400*%
%ADD61R,1.803400X0.025400*%
%ADD62R,1.270000X0.025400*%
%ADD63R,1.117600X0.025400*%
%ADD64R,0.889000X0.025400*%
%ADD65R,1.244600X0.025400*%
%ADD66R,1.168400X0.025400*%
%ADD67R,1.143000X0.025400*%
%ADD68R,1.092200X0.025400*%
%ADD69C,0.000000*%
%ADD70C,0.254000*%
%ADD71C,0.127000*%
%ADD72C,0.203200*%
%ADD73C,0.076200*%
%ADD74C,0.025400*%


D10*
X716661Y-195834D03*
D11*
X716661Y-195580D03*
D12*
X716915Y-195326D03*
D13*
X717042Y-195072D03*
D14*
X717169Y-194818D03*
D15*
X717423Y-194564D03*
D16*
X717550Y-194310D03*
D17*
X717931Y-194056D03*
D16*
X718566Y-193802D03*
D15*
X718947Y-193548D03*
D18*
X719582Y-193294D03*
D15*
X719963Y-193040D03*
D18*
X720344Y-192786D03*
D16*
X720598Y-192532D03*
D19*
X720852Y-192278D03*
D20*
X721106Y-192024D03*
D21*
X721360Y-191770D03*
X721614Y-191516D03*
D22*
X721868Y-191262D03*
D23*
X719836Y-191008D03*
D15*
X723265Y-191008D03*
D23*
X719836Y-190754D03*
D18*
X723646Y-190754D03*
D11*
X719963Y-190500D03*
D18*
X724154Y-190500D03*
D11*
X719963Y-190246D03*
D14*
X724535Y-190246D03*
D11*
X719963Y-189992D03*
D14*
X725043Y-189992D03*
D23*
X720090Y-189738D03*
D18*
X725424Y-189738D03*
D23*
X720090Y-189484D03*
D18*
X725678Y-189484D03*
D11*
X720217Y-189230D03*
D18*
X726186Y-189230D03*
D11*
X720217Y-188976D03*
D18*
X726440Y-188976D03*
D23*
X720344Y-188722D03*
D15*
X727075Y-188722D03*
D23*
X720344Y-188468D03*
D16*
X727456Y-188468D03*
D23*
X720344Y-188214D03*
D15*
X727837Y-188214D03*
D23*
X720344Y-187960D03*
D16*
X728472Y-187960D03*
D23*
X720344Y-187706D03*
D17*
X728853Y-187706D03*
D23*
X720344Y-187452D03*
D16*
X729234Y-187452D03*
D23*
X720344Y-187198D03*
D17*
X729615Y-187198D03*
D23*
X720344Y-186944D03*
D16*
X729996Y-186944D03*
D23*
X720344Y-186690D03*
D17*
X730885Y-186690D03*
D11*
X720471Y-186436D03*
D19*
X731266Y-186436D03*
D23*
X720598Y-186182D03*
D17*
X731647Y-186182D03*
D23*
X720598Y-185928D03*
D16*
X732282Y-185928D03*
D11*
X720725Y-185674D03*
D16*
X732536Y-185674D03*
D23*
X720852Y-185420D03*
D16*
X733044Y-185420D03*
D11*
X720979Y-185166D03*
D16*
X733298Y-185166D03*
D11*
X720979Y-184912D03*
D18*
X733806Y-184912D03*
D11*
X720979Y-184658D03*
D14*
X734441Y-184658D03*
D11*
X720979Y-184404D03*
D14*
X734695Y-184404D03*
D24*
X762254Y-184404D03*
D11*
X720979Y-184150D03*
D13*
X735076Y-184150D03*
D11*
X762381Y-184150D03*
X720979Y-183896D03*
D14*
X735457Y-183896D03*
D25*
X762381Y-183896D03*
D11*
X720979Y-183642D03*
D13*
X735838Y-183642D03*
D26*
X762508Y-183642D03*
D11*
X720979Y-183388D03*
D14*
X736219Y-183388D03*
D13*
X762762Y-183388D03*
D11*
X720979Y-183134D03*
D14*
X736473Y-183134D03*
D18*
X762762Y-183134D03*
D11*
X720979Y-182880D03*
D14*
X736981Y-182880D03*
D15*
X762889Y-182880D03*
D11*
X720979Y-182626D03*
D14*
X737235Y-182626D03*
D17*
X763143Y-182626D03*
D11*
X720979Y-182372D03*
D14*
X737489Y-182372D03*
D19*
X763270Y-182372D03*
D11*
X720979Y-182118D03*
D14*
X737997Y-182118D03*
D20*
X763524Y-182118D03*
D23*
X721106Y-181864D03*
D14*
X738251Y-181864D03*
D21*
X763778Y-181864D03*
D11*
X721233Y-181610D03*
D13*
X738632Y-181610D03*
D22*
X764032Y-181610D03*
D11*
X721233Y-181356D03*
D14*
X739013Y-181356D03*
D23*
X762000Y-181356D03*
D15*
X765683Y-181356D03*
D11*
X721233Y-181102D03*
D14*
X739267Y-181102D03*
D23*
X762000Y-181102D03*
D15*
X765937Y-181102D03*
D11*
X721233Y-180848D03*
D13*
X739648Y-180848D03*
D23*
X762000Y-180848D03*
D15*
X766445Y-180848D03*
D27*
X785622Y-180848D03*
D24*
X855980Y-180848D03*
D11*
X721233Y-180594D03*
D14*
X740029Y-180594D03*
D23*
X762000Y-180594D03*
D15*
X766699Y-180594D03*
D28*
X785622Y-180594D03*
X855980Y-180594D03*
D11*
X721233Y-180340D03*
D13*
X740410Y-180340D03*
D23*
X762000Y-180340D03*
D18*
X767080Y-180340D03*
D29*
X785622Y-180340D03*
X855980Y-180340D03*
D11*
X721233Y-180086D03*
D14*
X740791Y-180086D03*
D23*
X762000Y-180086D03*
D14*
X767461Y-180086D03*
D29*
X785622Y-180086D03*
D11*
X856107Y-180086D03*
X721233Y-179832D03*
D14*
X741045Y-179832D03*
D23*
X762000Y-179832D03*
D13*
X767842Y-179832D03*
D11*
X785749Y-179832D03*
X856107Y-179832D03*
X721233Y-179578D03*
D14*
X741553Y-179578D03*
D23*
X762000Y-179578D03*
D13*
X768350Y-179578D03*
D23*
X785622Y-179578D03*
X856234Y-179578D03*
D11*
X721233Y-179324D03*
D14*
X741807Y-179324D03*
D23*
X762000Y-179324D03*
D14*
X768731Y-179324D03*
D23*
X785622Y-179324D03*
X856234Y-179324D03*
D11*
X721233Y-179070D03*
D14*
X742061Y-179070D03*
D23*
X762000Y-179070D03*
D18*
X769112Y-179070D03*
D11*
X785749Y-179070D03*
D23*
X856234Y-179070D03*
D11*
X721487Y-178816D03*
D13*
X742442Y-178816D03*
D23*
X762000Y-178816D03*
D18*
X769620Y-178816D03*
D23*
X785876Y-178816D03*
D24*
X832866Y-178816D03*
D11*
X856361Y-178816D03*
X721487Y-178562D03*
D13*
X742696Y-178562D03*
D23*
X762000Y-178562D03*
D15*
X770001Y-178562D03*
D23*
X785876Y-178562D03*
D30*
X832739Y-178562D03*
D11*
X856361Y-178562D03*
X721487Y-178308D03*
D12*
X743077Y-178308D03*
D23*
X762000Y-178308D03*
D16*
X770382Y-178308D03*
D23*
X786130Y-178308D03*
D11*
X832739Y-178308D03*
D23*
X856488Y-178308D03*
D11*
X721487Y-178054D03*
D12*
X743331Y-178054D03*
D23*
X762000Y-178054D03*
D17*
X770763Y-178054D03*
D23*
X786130Y-178054D03*
D13*
X832358Y-178054D03*
D23*
X856488Y-178054D03*
D11*
X721487Y-177800D03*
D26*
X743712Y-177800D03*
D23*
X762000Y-177800D03*
D17*
X771271Y-177800D03*
D11*
X786257Y-177800D03*
D15*
X832231Y-177800D03*
D23*
X856488Y-177800D03*
X721614Y-177546D03*
D26*
X743966Y-177546D03*
D23*
X762000Y-177546D03*
D17*
X771779Y-177546D03*
D23*
X786384Y-177546D03*
D20*
X832612Y-177546D03*
D23*
X856488Y-177546D03*
D11*
X721741Y-177292D03*
D26*
X744220Y-177292D03*
D23*
X762000Y-177292D03*
D17*
X772287Y-177292D03*
D11*
X786511Y-177292D03*
D31*
X832739Y-177292D03*
D23*
X856488Y-177292D03*
D11*
X721741Y-177038D03*
D26*
X744474Y-177038D03*
D23*
X762000Y-177038D03*
D16*
X772668Y-177038D03*
D23*
X786638Y-177038D03*
D22*
X832866Y-177038D03*
D23*
X856488Y-177038D03*
D11*
X721741Y-176784D03*
D26*
X744728Y-176784D03*
D23*
X762000Y-176784D03*
D16*
X773176Y-176784D03*
D23*
X786638Y-176784D03*
D32*
X833120Y-176784D03*
D23*
X856488Y-176784D03*
D11*
X721741Y-176530D03*
D12*
X745109Y-176530D03*
D23*
X762000Y-176530D03*
D16*
X773684Y-176530D03*
D23*
X786892Y-176530D03*
D33*
X833247Y-176530D03*
D23*
X856488Y-176530D03*
D11*
X721995Y-176276D03*
D12*
X745363Y-176276D03*
D23*
X762000Y-176276D03*
D16*
X774192Y-176276D03*
D23*
X786892Y-176276D03*
D34*
X833374Y-176276D03*
D23*
X856488Y-176276D03*
D11*
X721995Y-176022D03*
D13*
X745744Y-176022D03*
D23*
X762000Y-176022D03*
D15*
X774573Y-176022D03*
D11*
X787019Y-176022D03*
D35*
X833755Y-176022D03*
D23*
X856488Y-176022D03*
D11*
X721995Y-175768D03*
D14*
X746125Y-175768D03*
D23*
X762000Y-175768D03*
D15*
X775081Y-175768D03*
D23*
X787146Y-175768D03*
D36*
X834009Y-175768D03*
D23*
X856488Y-175768D03*
D11*
X721995Y-175514D03*
D14*
X746379Y-175514D03*
D23*
X762000Y-175514D03*
D18*
X775462Y-175514D03*
D23*
X787146Y-175514D03*
X830580Y-175514D03*
D32*
X835406Y-175514D03*
D23*
X856488Y-175514D03*
D11*
X721995Y-175260D03*
D14*
X746633Y-175260D03*
D23*
X762000Y-175260D03*
D15*
X775843Y-175260D03*
D11*
X787273Y-175260D03*
D23*
X830580Y-175260D03*
D37*
X836041Y-175260D03*
D23*
X856488Y-175260D03*
D11*
X721995Y-175006D03*
D14*
X746887Y-175006D03*
D23*
X762000Y-175006D03*
D15*
X776351Y-175006D03*
D23*
X787400Y-175006D03*
X830580Y-175006D03*
D37*
X836803Y-175006D03*
D23*
X856488Y-175006D03*
D11*
X721995Y-174752D03*
D13*
X747268Y-174752D03*
D23*
X762000Y-174752D03*
D18*
X776732Y-174752D03*
D23*
X787400Y-174752D03*
X830580Y-174752D03*
D22*
X837438Y-174752D03*
D23*
X856488Y-174752D03*
D31*
X872871Y-174752D03*
D11*
X721995Y-174498D03*
D12*
X747649Y-174498D03*
D23*
X762000Y-174498D03*
D18*
X777240Y-174498D03*
D11*
X787527Y-174498D03*
D23*
X830580Y-174498D03*
D31*
X837819Y-174498D03*
D23*
X856488Y-174498D03*
D33*
X873125Y-174498D03*
D11*
X721995Y-174244D03*
D12*
X747903Y-174244D03*
D23*
X762000Y-174244D03*
D18*
X777494Y-174244D03*
D23*
X787654Y-174244D03*
X830580Y-174244D03*
D22*
X838454Y-174244D03*
D23*
X856488Y-174244D03*
D38*
X872617Y-174244D03*
D11*
X721995Y-173990D03*
D26*
X748284Y-173990D03*
D23*
X762000Y-173990D03*
D18*
X778002Y-173990D03*
D23*
X787654Y-173990D03*
X830580Y-173990D03*
D21*
X838962Y-173990D03*
D23*
X856488Y-173990D03*
D39*
X872998Y-173990D03*
D11*
X721995Y-173736D03*
D26*
X748538Y-173736D03*
D23*
X762000Y-173736D03*
D15*
X778383Y-173736D03*
D11*
X787781Y-173736D03*
D23*
X830580Y-173736D03*
D21*
X839216Y-173736D03*
D23*
X856488Y-173736D03*
D40*
X873125Y-173736D03*
D11*
X722249Y-173482D03*
D26*
X748792Y-173482D03*
D23*
X762000Y-173482D03*
D18*
X778764Y-173482D03*
D23*
X787908Y-173482D03*
X830580Y-173482D03*
D31*
X839851Y-173482D03*
D23*
X856488Y-173482D03*
D41*
X872998Y-173482D03*
D11*
X722249Y-173228D03*
D26*
X749046Y-173228D03*
D23*
X762000Y-173228D03*
D18*
X779272Y-173228D03*
D11*
X788035Y-173228D03*
D23*
X830580Y-173228D03*
D21*
X840486Y-173228D03*
D11*
X856361Y-173228D03*
D42*
X872871Y-173228D03*
D11*
X722249Y-172974D03*
D26*
X749300Y-172974D03*
D23*
X762000Y-172974D03*
D15*
X779653Y-172974D03*
D23*
X788162Y-172974D03*
D43*
X800481Y-172974D03*
D27*
X807974Y-172974D03*
D23*
X830580Y-172974D03*
D31*
X841121Y-172974D03*
D11*
X856361Y-172974D03*
D44*
X872617Y-172974D03*
D11*
X722249Y-172720D03*
D26*
X749554Y-172720D03*
D23*
X762000Y-172720D03*
D18*
X780034Y-172720D03*
D11*
X788289Y-172720D03*
D30*
X800481Y-172720D03*
D28*
X807974Y-172720D03*
D23*
X830580Y-172720D03*
D21*
X841756Y-172720D03*
D23*
X856234Y-172720D03*
D45*
X872744Y-172720D03*
D11*
X722249Y-172466D03*
D26*
X749808Y-172466D03*
D23*
X762000Y-172466D03*
D15*
X780415Y-172466D03*
D23*
X788416Y-172466D03*
D11*
X800481Y-172466D03*
D29*
X807974Y-172466D03*
D23*
X830580Y-172466D03*
D46*
X842137Y-172466D03*
D23*
X856234Y-172466D03*
D37*
X866521Y-172466D03*
D31*
X879221Y-172466D03*
D11*
X722249Y-172212D03*
D26*
X750062Y-172212D03*
D23*
X762000Y-172212D03*
D18*
X780796Y-172212D03*
D23*
X788416Y-172212D03*
D11*
X800481Y-172212D03*
X808101Y-172212D03*
D23*
X830580Y-172212D03*
D31*
X842899Y-172212D03*
D23*
X856234Y-172212D03*
D21*
X865886Y-172212D03*
X879602Y-172212D03*
D23*
X722376Y-171958D03*
D26*
X750316Y-171958D03*
D23*
X762000Y-171958D03*
D18*
X781304Y-171958D03*
D23*
X788670Y-171958D03*
X800608Y-171958D03*
D11*
X808101Y-171958D03*
D23*
X830580Y-171958D03*
D21*
X843534Y-171958D03*
D23*
X856234Y-171958D03*
D47*
X864997Y-171958D03*
D20*
X880110Y-171958D03*
D11*
X722503Y-171704D03*
D26*
X750570Y-171704D03*
D23*
X762000Y-171704D03*
D27*
X765556Y-171704D03*
D14*
X781685Y-171704D03*
D23*
X788670Y-171704D03*
X800354Y-171704D03*
X808228Y-171704D03*
X830580Y-171704D03*
D31*
X843915Y-171704D03*
D23*
X856234Y-171704D03*
D15*
X863981Y-171704D03*
D13*
X881126Y-171704D03*
D11*
X722503Y-171450D03*
D26*
X750824Y-171450D03*
D23*
X762000Y-171450D03*
D28*
X765556Y-171450D03*
D14*
X781939Y-171450D03*
D23*
X788924Y-171450D03*
X800354Y-171450D03*
D25*
X808355Y-171450D03*
D23*
X830580Y-171450D03*
D21*
X844296Y-171450D03*
D23*
X856234Y-171450D03*
D15*
X863727Y-171450D03*
D12*
X881507Y-171450D03*
D11*
X722503Y-171196D03*
D26*
X751078Y-171196D03*
D23*
X762000Y-171196D03*
D29*
X765556Y-171196D03*
D13*
X782320Y-171196D03*
D23*
X788924Y-171196D03*
X800100Y-171196D03*
D25*
X808355Y-171196D03*
D23*
X830580Y-171196D03*
D46*
X845185Y-171196D03*
D23*
X856234Y-171196D03*
D18*
X863092Y-171196D03*
D23*
X881634Y-171196D03*
D11*
X722503Y-170942D03*
D12*
X751205Y-170942D03*
D23*
X762000Y-170942D03*
D29*
X765556Y-170942D03*
D12*
X782701Y-170942D03*
D23*
X789178Y-170942D03*
X800100Y-170942D03*
D25*
X808609Y-170942D03*
D23*
X830580Y-170942D03*
D21*
X845820Y-170942D03*
D23*
X856234Y-170942D03*
D14*
X862711Y-170942D03*
D11*
X881761Y-170942D03*
X722503Y-170688D03*
D12*
X751459Y-170688D03*
D23*
X762000Y-170688D03*
D11*
X765683Y-170688D03*
D12*
X782955Y-170688D03*
D23*
X789178Y-170688D03*
X799846Y-170688D03*
D25*
X808609Y-170688D03*
D23*
X830580Y-170688D03*
D46*
X846455Y-170688D03*
D23*
X856234Y-170688D03*
D14*
X862457Y-170688D03*
D30*
X881761Y-170688D03*
D11*
X722757Y-170434D03*
D26*
X751840Y-170434D03*
D23*
X762000Y-170434D03*
X765556Y-170434D03*
D12*
X783209Y-170434D03*
D23*
X789432Y-170434D03*
D11*
X799719Y-170434D03*
D23*
X808736Y-170434D03*
X830580Y-170434D03*
D20*
X846836Y-170434D03*
D11*
X856107Y-170434D03*
D14*
X862203Y-170434D03*
D11*
X722757Y-170180D03*
D25*
X751967Y-170180D03*
D23*
X762000Y-170180D03*
X765556Y-170180D03*
D26*
X783590Y-170180D03*
D23*
X789432Y-170180D03*
D11*
X799719Y-170180D03*
D23*
X808990Y-170180D03*
X830580Y-170180D03*
D20*
X847598Y-170180D03*
D11*
X856107Y-170180D03*
D13*
X861822Y-170180D03*
D11*
X722757Y-169926D03*
D25*
X752221Y-169926D03*
D23*
X762000Y-169926D03*
X765810Y-169926D03*
D26*
X783844Y-169926D03*
D23*
X789686Y-169926D03*
X799592Y-169926D03*
X808990Y-169926D03*
X830580Y-169926D03*
D20*
X848360Y-169926D03*
D23*
X855980Y-169926D03*
D12*
X861441Y-169926D03*
D11*
X722757Y-169672D03*
D25*
X752475Y-169672D03*
D23*
X762000Y-169672D03*
D25*
X765937Y-169672D03*
D26*
X784098Y-169672D03*
D23*
X789686Y-169672D03*
D11*
X799465Y-169672D03*
D25*
X809117Y-169672D03*
D23*
X830580Y-169672D03*
D20*
X848868Y-169672D03*
D23*
X855980Y-169672D03*
D12*
X861187Y-169672D03*
D11*
X722757Y-169418D03*
D25*
X752729Y-169418D03*
D23*
X762000Y-169418D03*
D26*
X766064Y-169418D03*
X784352Y-169418D03*
D23*
X789940Y-169418D03*
D11*
X799465Y-169418D03*
D25*
X809371Y-169418D03*
D23*
X830580Y-169418D03*
D47*
X849249Y-169418D03*
D23*
X855980Y-169418D03*
D26*
X860806Y-169418D03*
D11*
X722757Y-169164D03*
D25*
X752729Y-169164D03*
D11*
X761873Y-169164D03*
D26*
X766318Y-169164D03*
X784606Y-169164D03*
D23*
X789940Y-169164D03*
X799338Y-169164D03*
D25*
X809371Y-169164D03*
D23*
X830580Y-169164D03*
D27*
X833628Y-169164D03*
D47*
X850011Y-169164D03*
D23*
X855980Y-169164D03*
D26*
X860552Y-169164D03*
D11*
X722757Y-168910D03*
D23*
X752856Y-168910D03*
D11*
X761873Y-168910D03*
D26*
X766572Y-168910D03*
X784860Y-168910D03*
D23*
X790194Y-168910D03*
D11*
X799211Y-168910D03*
D25*
X809625Y-168910D03*
D23*
X830580Y-168910D03*
D28*
X833628Y-168910D03*
D19*
X850646Y-168910D03*
D23*
X855980Y-168910D03*
D26*
X860298Y-168910D03*
D11*
X722757Y-168656D03*
D23*
X753110Y-168656D03*
D11*
X761873Y-168656D03*
D25*
X766699Y-168656D03*
X784987Y-168656D03*
D23*
X790194Y-168656D03*
D11*
X799211Y-168656D03*
D23*
X809752Y-168656D03*
X830580Y-168656D03*
D29*
X833628Y-168656D03*
D47*
X851027Y-168656D03*
D23*
X855980Y-168656D03*
D26*
X860044Y-168656D03*
D11*
X722757Y-168402D03*
D25*
X753237Y-168402D03*
D11*
X761873Y-168402D03*
D25*
X766953Y-168402D03*
D23*
X784860Y-168402D03*
X790448Y-168402D03*
D11*
X799211Y-168402D03*
X809879Y-168402D03*
X830453Y-168402D03*
X833755Y-168402D03*
D19*
X851408Y-168402D03*
D23*
X855980Y-168402D03*
D26*
X859790Y-168402D03*
D11*
X722757Y-168148D03*
D25*
X753491Y-168148D03*
D11*
X761873Y-168148D03*
D25*
X767207Y-168148D03*
D11*
X784987Y-168148D03*
D23*
X790448Y-168148D03*
X799084Y-168148D03*
X810006Y-168148D03*
X830326Y-168148D03*
X833882Y-168148D03*
D16*
X851916Y-168148D03*
D23*
X855980Y-168148D03*
D25*
X859663Y-168148D03*
D11*
X722757Y-167894D03*
D25*
X753491Y-167894D03*
D23*
X761746Y-167894D03*
D25*
X767461Y-167894D03*
D28*
X785114Y-167894D03*
D23*
X790702Y-167894D03*
D11*
X798957Y-167894D03*
D23*
X810006Y-167894D03*
X830326Y-167894D03*
D12*
X834263Y-167894D03*
D18*
X852170Y-167894D03*
D23*
X855980Y-167894D03*
D25*
X859409Y-167894D03*
D11*
X722757Y-167640D03*
D23*
X753618Y-167640D03*
X761746Y-167640D03*
D25*
X767461Y-167640D03*
D23*
X790702Y-167640D03*
X798830Y-167640D03*
D11*
X810133Y-167640D03*
D23*
X830326Y-167640D03*
D13*
X834390Y-167640D03*
D14*
X852551Y-167640D03*
D23*
X855980Y-167640D03*
D25*
X859155Y-167640D03*
D11*
X722757Y-167386D03*
D23*
X753872Y-167386D03*
X761746Y-167386D03*
D25*
X767715Y-167386D03*
D11*
X790829Y-167386D03*
D23*
X798830Y-167386D03*
X810260Y-167386D03*
X830326Y-167386D03*
D18*
X834644Y-167386D03*
D26*
X852678Y-167386D03*
D11*
X855853Y-167386D03*
D25*
X858901Y-167386D03*
D23*
X722884Y-167132D03*
X753872Y-167132D03*
X761746Y-167132D03*
D25*
X767969Y-167132D03*
D23*
X790956Y-167132D03*
D11*
X798703Y-167132D03*
D23*
X810260Y-167132D03*
X830326Y-167132D03*
D18*
X834898Y-167132D03*
D23*
X852932Y-167132D03*
D11*
X855853Y-167132D03*
D26*
X858774Y-167132D03*
D11*
X723011Y-166878D03*
X753999Y-166878D03*
D23*
X761746Y-166878D03*
D26*
X768096Y-166878D03*
D11*
X791083Y-166878D03*
D23*
X798576Y-166878D03*
D11*
X810387Y-166878D03*
D23*
X830326Y-166878D03*
D18*
X835152Y-166878D03*
D29*
X852932Y-166878D03*
D23*
X855726Y-166878D03*
D26*
X858520Y-166878D03*
D11*
X723011Y-166624D03*
D23*
X754126Y-166624D03*
X761746Y-166624D03*
D26*
X768350Y-166624D03*
D23*
X791210Y-166624D03*
D11*
X798449Y-166624D03*
D23*
X810514Y-166624D03*
X830326Y-166624D03*
D14*
X835533Y-166624D03*
D27*
X852932Y-166624D03*
D47*
X857123Y-166624D03*
D11*
X723011Y-166370D03*
D23*
X754126Y-166370D03*
X761746Y-166370D03*
D26*
X768604Y-166370D03*
D23*
X791210Y-166370D03*
D11*
X798449Y-166370D03*
D23*
X810514Y-166370D03*
X830326Y-166370D03*
D18*
X835914Y-166370D03*
D19*
X856996Y-166370D03*
D11*
X723011Y-166116D03*
D23*
X754126Y-166116D03*
X761746Y-166116D03*
D26*
X768858Y-166116D03*
D23*
X791464Y-166116D03*
D11*
X798449Y-166116D03*
X810641Y-166116D03*
D23*
X830072Y-166116D03*
D14*
X836295Y-166116D03*
D17*
X856869Y-166116D03*
D11*
X723011Y-165862D03*
D23*
X754126Y-165862D03*
X761746Y-165862D03*
D26*
X769112Y-165862D03*
D23*
X791464Y-165862D03*
X798322Y-165862D03*
X810768Y-165862D03*
X830072Y-165862D03*
D14*
X836803Y-165862D03*
D16*
X856742Y-165862D03*
D11*
X723011Y-165608D03*
D23*
X754126Y-165608D03*
X761746Y-165608D03*
D26*
X769366Y-165608D03*
D23*
X791718Y-165608D03*
X798322Y-165608D03*
D11*
X810895Y-165608D03*
D23*
X830072Y-165608D03*
D14*
X837057Y-165608D03*
D15*
X856615Y-165608D03*
D11*
X723011Y-165354D03*
D23*
X754126Y-165354D03*
X761746Y-165354D03*
D26*
X769620Y-165354D03*
D23*
X791718Y-165354D03*
X798322Y-165354D03*
X811022Y-165354D03*
X830072Y-165354D03*
D14*
X837565Y-165354D03*
D18*
X856488Y-165354D03*
D11*
X723011Y-165100D03*
D23*
X754126Y-165100D03*
X761746Y-165100D03*
D25*
X769747Y-165100D03*
D23*
X791972Y-165100D03*
X798068Y-165100D03*
X811022Y-165100D03*
X830072Y-165100D03*
D14*
X837819Y-165100D03*
X856361Y-165100D03*
D11*
X723011Y-164846D03*
D23*
X754126Y-164846D03*
X761746Y-164846D03*
D26*
X770128Y-164846D03*
D23*
X791972Y-164846D03*
X798068Y-164846D03*
D11*
X811149Y-164846D03*
D23*
X830072Y-164846D03*
D18*
X838200Y-164846D03*
X856234Y-164846D03*
D23*
X723138Y-164592D03*
X754126Y-164592D03*
X761746Y-164592D03*
D26*
X770382Y-164592D03*
D23*
X792226Y-164592D03*
D11*
X797941Y-164592D03*
D23*
X811276Y-164592D03*
X830072Y-164592D03*
D18*
X838708Y-164592D03*
D14*
X856107Y-164592D03*
D23*
X723138Y-164338D03*
X754126Y-164338D03*
X761746Y-164338D03*
D12*
X770509Y-164338D03*
D23*
X792226Y-164338D03*
X797814Y-164338D03*
X811276Y-164338D03*
X830072Y-164338D03*
D15*
X839089Y-164338D03*
D14*
X856107Y-164338D03*
D23*
X723138Y-164084D03*
D11*
X753999Y-164084D03*
D23*
X761746Y-164084D03*
D12*
X770763Y-164084D03*
D23*
X792480Y-164084D03*
X797814Y-164084D03*
D11*
X811403Y-164084D03*
D23*
X830072Y-164084D03*
D15*
X839597Y-164084D03*
D16*
X856488Y-164084D03*
D23*
X723138Y-163830D03*
D11*
X753999Y-163830D03*
D23*
X761746Y-163830D03*
D12*
X771017Y-163830D03*
D23*
X792480Y-163830D03*
X797814Y-163830D03*
X811530Y-163830D03*
X830072Y-163830D03*
D16*
X839978Y-163830D03*
D19*
X856742Y-163830D03*
D23*
X723138Y-163576D03*
X753872Y-163576D03*
X761746Y-163576D03*
D12*
X771271Y-163576D03*
D23*
X792734Y-163576D03*
X797560Y-163576D03*
X811530Y-163576D03*
X829818Y-163576D03*
D16*
X840486Y-163576D03*
D20*
X856996Y-163576D03*
D23*
X723138Y-163322D03*
X753872Y-163322D03*
X761746Y-163322D03*
D12*
X771525Y-163322D03*
D25*
X792861Y-163322D03*
D23*
X797560Y-163322D03*
D11*
X811657Y-163322D03*
D23*
X829818Y-163322D03*
D16*
X840994Y-163322D03*
D31*
X857377Y-163322D03*
D23*
X723138Y-163068D03*
X753872Y-163068D03*
X761746Y-163068D03*
D12*
X771779Y-163068D03*
D23*
X792988Y-163068D03*
X797306Y-163068D03*
X811784Y-163068D03*
X829818Y-163068D03*
D16*
X841248Y-163068D03*
D32*
X857758Y-163068D03*
D23*
X723138Y-162814D03*
D11*
X753745Y-162814D03*
D23*
X761746Y-162814D03*
D26*
X772160Y-162814D03*
D25*
X793115Y-162814D03*
X797179Y-162814D03*
D23*
X811784Y-162814D03*
X829818Y-162814D03*
D16*
X841756Y-162814D03*
D48*
X858012Y-162814D03*
D23*
X723138Y-162560D03*
D11*
X753745Y-162560D03*
D23*
X761746Y-162560D03*
D26*
X772414Y-162560D03*
D25*
X793369Y-162560D03*
D23*
X797052Y-162560D03*
D11*
X811911Y-162560D03*
D23*
X829818Y-162560D03*
D16*
X842264Y-162560D03*
D33*
X858139Y-162560D03*
D23*
X723138Y-162306D03*
D11*
X753745Y-162306D03*
D23*
X761746Y-162306D03*
D26*
X772668Y-162306D03*
D23*
X793496Y-162306D03*
D25*
X796925Y-162306D03*
D11*
X811911Y-162306D03*
D23*
X829818Y-162306D03*
D16*
X842772Y-162306D03*
D23*
X855472Y-162306D03*
D20*
X859790Y-162306D03*
D23*
X723138Y-162052D03*
D11*
X753745Y-162052D03*
D23*
X761746Y-162052D03*
D25*
X772795Y-162052D03*
X793623Y-162052D03*
D23*
X796798Y-162052D03*
X812038Y-162052D03*
X829818Y-162052D03*
D15*
X843153Y-162052D03*
D23*
X855472Y-162052D03*
D20*
X860552Y-162052D03*
D23*
X723138Y-161798D03*
X753618Y-161798D03*
X761746Y-161798D03*
D25*
X773049Y-161798D03*
D23*
X793750Y-161798D03*
X796544Y-161798D03*
D25*
X812165Y-161798D03*
D23*
X829818Y-161798D03*
D15*
X843661Y-161798D03*
D23*
X855472Y-161798D03*
D46*
X861187Y-161798D03*
D23*
X723138Y-161544D03*
D11*
X753491Y-161544D03*
D23*
X761746Y-161544D03*
D25*
X773303Y-161544D03*
D11*
X793877Y-161544D03*
D23*
X796544Y-161544D03*
D25*
X812419Y-161544D03*
D23*
X829818Y-161544D03*
D18*
X844042Y-161544D03*
D23*
X855472Y-161544D03*
D21*
X861568Y-161544D03*
D11*
X723265Y-161290D03*
X753491Y-161290D03*
D23*
X761746Y-161290D03*
D26*
X773430Y-161290D03*
D17*
X795147Y-161290D03*
D25*
X812419Y-161290D03*
D23*
X829818Y-161290D03*
D18*
X844550Y-161290D03*
D23*
X855472Y-161290D03*
D22*
X862584Y-161290D03*
D11*
X723265Y-161036D03*
D23*
X753364Y-161036D03*
X761746Y-161036D03*
D26*
X773684Y-161036D03*
D16*
X795274Y-161036D03*
D25*
X812673Y-161036D03*
D23*
X829818Y-161036D03*
D18*
X844804Y-161036D03*
D23*
X855472Y-161036D03*
D46*
X863219Y-161036D03*
D11*
X723265Y-160782D03*
X753237Y-160782D03*
D23*
X761746Y-160782D03*
D26*
X773938Y-160782D03*
D15*
X795147Y-160782D03*
D23*
X812800Y-160782D03*
X829818Y-160782D03*
D18*
X845312Y-160782D03*
D23*
X855472Y-160782D03*
D46*
X863727Y-160782D03*
D27*
X718566Y-160528D03*
D11*
X723265Y-160528D03*
X753237Y-160528D03*
D23*
X761746Y-160528D03*
D26*
X774192Y-160528D03*
D15*
X795147Y-160528D03*
D23*
X812800Y-160528D03*
X829818Y-160528D03*
D18*
X845820Y-160528D03*
D23*
X855472Y-160528D03*
D46*
X864235Y-160528D03*
D28*
X718566Y-160274D03*
D23*
X723392Y-160274D03*
X753110Y-160274D03*
X761746Y-160274D03*
D26*
X774446Y-160274D03*
D14*
X795147Y-160274D03*
D11*
X812927Y-160274D03*
D23*
X829564Y-160274D03*
D18*
X846074Y-160274D03*
D11*
X855345Y-160274D03*
D31*
X864743Y-160274D03*
D29*
X718566Y-160020D03*
D11*
X723519Y-160020D03*
D23*
X753110Y-160020D03*
X761746Y-160020D03*
D26*
X774700Y-160020D03*
D13*
X795020Y-160020D03*
D23*
X813054Y-160020D03*
X829564Y-160020D03*
D14*
X846455Y-160020D03*
D23*
X855218Y-160020D03*
D46*
X865251Y-160020D03*
D29*
X718566Y-159766D03*
D11*
X723519Y-159766D03*
D23*
X752856Y-159766D03*
X761746Y-159766D03*
D26*
X774954Y-159766D03*
D12*
X795147Y-159766D03*
D23*
X813054Y-159766D03*
X829564Y-159766D03*
D14*
X846709Y-159766D03*
D23*
X855218Y-159766D03*
D19*
X865886Y-159766D03*
D11*
X718693Y-159512D03*
X723519Y-159512D03*
D25*
X752729Y-159512D03*
D23*
X761746Y-159512D03*
D26*
X775208Y-159512D03*
X795020Y-159512D03*
D11*
X813181Y-159512D03*
D23*
X829564Y-159512D03*
D14*
X847217Y-159512D03*
D23*
X855218Y-159512D03*
D20*
X866648Y-159512D03*
D23*
X718566Y-159258D03*
D11*
X723519Y-159258D03*
D23*
X752602Y-159258D03*
X761746Y-159258D03*
D12*
X775589Y-159258D03*
D23*
X795020Y-159258D03*
X813308Y-159258D03*
D11*
X829437Y-159258D03*
D14*
X847471Y-159258D03*
D23*
X855218Y-159258D03*
D47*
X867283Y-159258D03*
D25*
X718947Y-159004D03*
D23*
X723646Y-159004D03*
D25*
X752475Y-159004D03*
D23*
X761746Y-159004D03*
D12*
X775843Y-159004D03*
D23*
X795020Y-159004D03*
X813308Y-159004D03*
X829310Y-159004D03*
D14*
X847979Y-159004D03*
D23*
X855218Y-159004D03*
D17*
X867791Y-159004D03*
D26*
X719074Y-158750D03*
D11*
X723773Y-158750D03*
D25*
X752221Y-158750D03*
D23*
X761746Y-158750D03*
D12*
X776097Y-158750D03*
D26*
X795020Y-158750D03*
D11*
X813435Y-158750D03*
D23*
X829310Y-158750D03*
D13*
X848360Y-158750D03*
D23*
X855218Y-158750D03*
D17*
X868045Y-158750D03*
D12*
X719201Y-158496D03*
D11*
X723773Y-158496D03*
D25*
X751967Y-158496D03*
D23*
X761746Y-158496D03*
D27*
X766064Y-158496D03*
D12*
X776351Y-158496D03*
D26*
X795020Y-158496D03*
D11*
X813435Y-158496D03*
X829183Y-158496D03*
D12*
X848487Y-158496D03*
D23*
X855218Y-158496D03*
D16*
X868680Y-158496D03*
D13*
X719582Y-158242D03*
D11*
X723773Y-158242D03*
D26*
X751840Y-158242D03*
D23*
X761746Y-158242D03*
D28*
X766064Y-158242D03*
D12*
X776605Y-158242D03*
D13*
X795020Y-158242D03*
D23*
X813562Y-158242D03*
D11*
X829183Y-158242D03*
D12*
X848741Y-158242D03*
D23*
X855218Y-158242D03*
D15*
X869061Y-158242D03*
D13*
X719836Y-157988D03*
D11*
X723773Y-157988D03*
D26*
X751586Y-157988D03*
D23*
X761746Y-157988D03*
D29*
X766064Y-157988D03*
D12*
X776859Y-157988D03*
D13*
X795020Y-157988D03*
D23*
X813562Y-157988D03*
X829056Y-157988D03*
D26*
X848868Y-157988D03*
D23*
X855218Y-157988D03*
D15*
X869315Y-157988D03*
D14*
X720217Y-157734D03*
D23*
X723900Y-157734D03*
D25*
X751459Y-157734D03*
D23*
X761746Y-157734D03*
D29*
X766064Y-157734D03*
D26*
X776986Y-157734D03*
D18*
X795020Y-157734D03*
D11*
X813689Y-157734D03*
D23*
X829056Y-157734D03*
X848868Y-157734D03*
X855218Y-157734D03*
D18*
X869696Y-157734D03*
X720598Y-157480D03*
D23*
X723900Y-157480D03*
D25*
X751205Y-157480D03*
D23*
X761746Y-157480D03*
D11*
X766191Y-157480D03*
D25*
X777367Y-157480D03*
D18*
X795020Y-157480D03*
D11*
X813689Y-157480D03*
X828929Y-157480D03*
X848995Y-157480D03*
D23*
X855218Y-157480D03*
D14*
X870331Y-157480D03*
D21*
X722122Y-157226D03*
D23*
X751078Y-157226D03*
X761746Y-157226D03*
D11*
X766191Y-157226D03*
D23*
X777494Y-157226D03*
D15*
X794893Y-157226D03*
D11*
X813689Y-157226D03*
X828929Y-157226D03*
D28*
X849122Y-157226D03*
D23*
X855218Y-157226D03*
D13*
X870712Y-157226D03*
D46*
X722249Y-156972D03*
D23*
X750824Y-156972D03*
X761746Y-156972D03*
X766318Y-156972D03*
D25*
X777621Y-156972D03*
D16*
X794766Y-156972D03*
D23*
X813816Y-156972D03*
X828802Y-156972D03*
X855218Y-156972D03*
D13*
X870966Y-156972D03*
D47*
X722249Y-156718D03*
D25*
X750697Y-156718D03*
D23*
X761746Y-156718D03*
D25*
X766445Y-156718D03*
X777621Y-156718D03*
D19*
X794766Y-156718D03*
D11*
X813943Y-156718D03*
D23*
X828802Y-156718D03*
D11*
X855091Y-156718D03*
D13*
X871220Y-156718D03*
D17*
X722503Y-156464D03*
D25*
X750443Y-156464D03*
D23*
X761746Y-156464D03*
D26*
X766572Y-156464D03*
D11*
X777621Y-156464D03*
D25*
X793623Y-156464D03*
D11*
X796163Y-156464D03*
X813943Y-156464D03*
D23*
X828802Y-156464D03*
D11*
X855091Y-156464D03*
D13*
X871474Y-156464D03*
D16*
X722884Y-156210D03*
D25*
X750443Y-156210D03*
D23*
X761746Y-156210D03*
D26*
X766826Y-156210D03*
D29*
X777748Y-156210D03*
D25*
X793369Y-156210D03*
D11*
X796163Y-156210D03*
X813943Y-156210D03*
X828675Y-156210D03*
X855091Y-156210D03*
D13*
X871982Y-156210D03*
D17*
X723265Y-155956D03*
D25*
X750189Y-155956D03*
D23*
X761746Y-155956D03*
D12*
X766953Y-155956D03*
D28*
X777748Y-155956D03*
D25*
X793115Y-155956D03*
D23*
X796290Y-155956D03*
X814070Y-155956D03*
D25*
X828929Y-155956D03*
D11*
X855091Y-155956D03*
D13*
X872236Y-155956D03*
D17*
X723773Y-155702D03*
D26*
X749808Y-155702D03*
D11*
X761873Y-155702D03*
D12*
X767207Y-155702D03*
D25*
X793115Y-155702D03*
D11*
X796417Y-155702D03*
D23*
X814070Y-155702D03*
D13*
X829310Y-155702D03*
D11*
X855091Y-155702D03*
D12*
X872617Y-155702D03*
D17*
X724281Y-155448D03*
D13*
X749554Y-155448D03*
D29*
X761746Y-155448D03*
D26*
X767588Y-155448D03*
D25*
X792861Y-155448D03*
D11*
X796417Y-155448D03*
X814197Y-155448D03*
D16*
X829564Y-155448D03*
D23*
X854964Y-155448D03*
D12*
X872871Y-155448D03*
D19*
X724916Y-155194D03*
D13*
X749300Y-155194D03*
D29*
X761746Y-155194D03*
D26*
X767842Y-155194D03*
D23*
X792734Y-155194D03*
X796544Y-155194D03*
D11*
X814197Y-155194D03*
D17*
X829691Y-155194D03*
D23*
X854964Y-155194D03*
D26*
X872998Y-155194D03*
D47*
X725551Y-154940D03*
D14*
X748919Y-154940D03*
D28*
X761746Y-154940D03*
D26*
X768096Y-154940D03*
D23*
X792480Y-154940D03*
X796544Y-154940D03*
D11*
X814197Y-154940D03*
D46*
X830199Y-154940D03*
D23*
X854964Y-154940D03*
D26*
X873252Y-154940D03*
D46*
X726313Y-154686D03*
D16*
X748284Y-154686D03*
D26*
X768350Y-154686D03*
D11*
X792353Y-154686D03*
D23*
X796798Y-154686D03*
X814324Y-154686D03*
D21*
X830326Y-154686D03*
D23*
X854964Y-154686D03*
D25*
X873379Y-154686D03*
D31*
X727075Y-154432D03*
D47*
X747649Y-154432D03*
D26*
X768604Y-154432D03*
D23*
X792226Y-154432D03*
X796798Y-154432D03*
D11*
X814451Y-154432D03*
D32*
X830834Y-154432D03*
D23*
X854964Y-154432D03*
D25*
X873633Y-154432D03*
D37*
X727837Y-154178D03*
D46*
X747141Y-154178D03*
D26*
X768858Y-154178D03*
D11*
X792099Y-154178D03*
D23*
X797052Y-154178D03*
D11*
X814451Y-154178D03*
D33*
X831215Y-154178D03*
D23*
X854964Y-154178D03*
X873760Y-154178D03*
D49*
X729742Y-153924D03*
D21*
X746506Y-153924D03*
D26*
X769112Y-153924D03*
D23*
X791972Y-153924D03*
X797052Y-153924D03*
D11*
X814451Y-153924D03*
D50*
X831469Y-153924D03*
D23*
X854964Y-153924D03*
X873760Y-153924D03*
D38*
X730631Y-153670D03*
D37*
X745617Y-153670D03*
D26*
X769366Y-153670D03*
D11*
X791845Y-153670D03*
D23*
X797306Y-153670D03*
D11*
X814451Y-153670D03*
D23*
X828548Y-153670D03*
D31*
X833247Y-153670D03*
D23*
X854964Y-153670D03*
X873760Y-153670D03*
D51*
X737362Y-153416D03*
D26*
X769620Y-153416D03*
D23*
X791718Y-153416D03*
X797306Y-153416D03*
D11*
X814451Y-153416D03*
D23*
X828548Y-153416D03*
D46*
X833755Y-153416D03*
D11*
X854837Y-153416D03*
D23*
X873760Y-153416D03*
D52*
X737616Y-153162D03*
D26*
X769874Y-153162D03*
D11*
X791591Y-153162D03*
D23*
X797560Y-153162D03*
D11*
X814451Y-153162D03*
D23*
X828548Y-153162D03*
D21*
X834390Y-153162D03*
D11*
X854837Y-153162D03*
D23*
X873760Y-153162D03*
D53*
X737743Y-152908D03*
D26*
X770128Y-152908D03*
D23*
X791464Y-152908D03*
X797560Y-152908D03*
D11*
X814451Y-152908D03*
D23*
X828548Y-152908D03*
D20*
X834898Y-152908D03*
D11*
X854837Y-152908D03*
D23*
X873760Y-152908D03*
D44*
X737743Y-152654D03*
D26*
X770382Y-152654D03*
D23*
X791464Y-152654D03*
D11*
X797687Y-152654D03*
X814451Y-152654D03*
D23*
X828548Y-152654D03*
D20*
X835406Y-152654D03*
D23*
X854710Y-152654D03*
X873760Y-152654D03*
D54*
X737743Y-152400D03*
D25*
X770509Y-152400D03*
D23*
X791210Y-152400D03*
X797814Y-152400D03*
X814578Y-152400D03*
X828548Y-152400D03*
D46*
X836295Y-152400D03*
D23*
X854710Y-152400D03*
X873506Y-152400D03*
D55*
X737743Y-152146D03*
D26*
X770890Y-152146D03*
D25*
X791083Y-152146D03*
D11*
X797941Y-152146D03*
X814705Y-152146D03*
X828675Y-152146D03*
D20*
X837184Y-152146D03*
D23*
X854710Y-152146D03*
X873506Y-152146D03*
D56*
X737870Y-151892D03*
D26*
X771144Y-151892D03*
D23*
X790956Y-151892D03*
D11*
X797941Y-151892D03*
X814705Y-151892D03*
D29*
X828548Y-151892D03*
D19*
X837692Y-151892D03*
D23*
X854710Y-151892D03*
D11*
X873379Y-151892D03*
D48*
X739140Y-151638D03*
D12*
X771271Y-151638D03*
D25*
X790829Y-151638D03*
D23*
X798068Y-151638D03*
D11*
X814705Y-151638D03*
D29*
X828548Y-151638D03*
D19*
X837946Y-151638D03*
D23*
X854710Y-151638D03*
X873252Y-151638D03*
D14*
X738759Y-151384D03*
D12*
X771525Y-151384D03*
D25*
X790575Y-151384D03*
D11*
X798195Y-151384D03*
D23*
X814832Y-151384D03*
D28*
X828548Y-151384D03*
D20*
X838708Y-151384D03*
D23*
X854710Y-151384D03*
X873252Y-151384D03*
D12*
X771779Y-151130D03*
D23*
X790448Y-151130D03*
X798322Y-151130D03*
X814832Y-151130D03*
D20*
X839216Y-151130D03*
D23*
X854710Y-151130D03*
D11*
X873125Y-151130D03*
D12*
X772033Y-150876D03*
D25*
X790321Y-150876D03*
D23*
X798322Y-150876D03*
D11*
X814959Y-150876D03*
D20*
X839724Y-150876D03*
D23*
X854710Y-150876D03*
X872998Y-150876D03*
D12*
X772287Y-150622D03*
D25*
X790067Y-150622D03*
D11*
X798449Y-150622D03*
X814959Y-150622D03*
D20*
X839978Y-150622D03*
D23*
X854710Y-150622D03*
X872744Y-150622D03*
D12*
X772541Y-150368D03*
D25*
X789813Y-150368D03*
D23*
X798576Y-150368D03*
D11*
X814959Y-150368D03*
D47*
X840613Y-150368D03*
D23*
X854710Y-150368D03*
X872744Y-150368D03*
D26*
X772922Y-150114D03*
X789686Y-150114D03*
D11*
X798703Y-150114D03*
D23*
X815086Y-150114D03*
D16*
X841248Y-150114D03*
D23*
X854710Y-150114D03*
X872490Y-150114D03*
D26*
X773176Y-149860D03*
D25*
X789559Y-149860D03*
D11*
X798703Y-149860D03*
X815213Y-149860D03*
D16*
X841502Y-149860D03*
D23*
X854710Y-149860D03*
D25*
X872363Y-149860D03*
D26*
X773430Y-149606D03*
D25*
X789305Y-149606D03*
D23*
X798830Y-149606D03*
D11*
X815213Y-149606D03*
D17*
X841883Y-149606D03*
D11*
X854583Y-149606D03*
D25*
X872109Y-149606D03*
X773557Y-149352D03*
X789051Y-149352D03*
D11*
X798957Y-149352D03*
X815213Y-149352D03*
D16*
X842518Y-149352D03*
D11*
X854583Y-149352D03*
D26*
X871982Y-149352D03*
X773938Y-149098D03*
D25*
X788797Y-149098D03*
D23*
X799084Y-149098D03*
D11*
X815213Y-149098D03*
D18*
X843026Y-149098D03*
D11*
X854583Y-149098D03*
D26*
X871728Y-149098D03*
X774192Y-148844D03*
D25*
X788797Y-148844D03*
D23*
X799084Y-148844D03*
X815340Y-148844D03*
D11*
X835533Y-148844D03*
D18*
X843280Y-148844D03*
D11*
X854583Y-148844D03*
D26*
X871474Y-148844D03*
D12*
X774319Y-148590D03*
D25*
X788543Y-148590D03*
D11*
X799211Y-148590D03*
D23*
X815340Y-148590D03*
D14*
X835279Y-148590D03*
X843407Y-148590D03*
D23*
X854456Y-148590D03*
D26*
X871220Y-148590D03*
D12*
X774573Y-148336D03*
D25*
X788289Y-148336D03*
D23*
X799338Y-148336D03*
X815340Y-148336D03*
D21*
X834390Y-148336D03*
D13*
X843788Y-148336D03*
D23*
X854456Y-148336D03*
D26*
X870966Y-148336D03*
D12*
X774827Y-148082D03*
D23*
X788162Y-148082D03*
D11*
X799465Y-148082D03*
D23*
X815340Y-148082D03*
D35*
X832993Y-148082D03*
D26*
X843788Y-148082D03*
D23*
X854456Y-148082D03*
D25*
X870839Y-148082D03*
D12*
X775081Y-147828D03*
D25*
X788035Y-147828D03*
D23*
X799592Y-147828D03*
X815340Y-147828D03*
D57*
X832739Y-147828D03*
D25*
X843915Y-147828D03*
D23*
X854456Y-147828D03*
D25*
X870585Y-147828D03*
D12*
X775335Y-147574D03*
D23*
X787908Y-147574D03*
X799592Y-147574D03*
X815340Y-147574D03*
D58*
X830707Y-147574D03*
D29*
X844042Y-147574D03*
D23*
X854456Y-147574D03*
D12*
X870077Y-147574D03*
X775589Y-147320D03*
D23*
X787654Y-147320D03*
D11*
X799719Y-147320D03*
D23*
X815340Y-147320D03*
D54*
X829437Y-147320D03*
D27*
X844042Y-147320D03*
D23*
X854456Y-147320D03*
D13*
X869696Y-147320D03*
D26*
X775970Y-147066D03*
D23*
X787654Y-147066D03*
X799846Y-147066D03*
D11*
X815467Y-147066D03*
D44*
X828167Y-147066D03*
D23*
X854456Y-147066D03*
D14*
X869569Y-147066D03*
D26*
X776224Y-146812D03*
D23*
X787400Y-146812D03*
X799846Y-146812D03*
D29*
X815340Y-146812D03*
D59*
X826643Y-146812D03*
D23*
X854456Y-146812D03*
D14*
X869315Y-146812D03*
D26*
X776478Y-146558D03*
D25*
X787273Y-146558D03*
D11*
X799973Y-146558D03*
D60*
X824230Y-146558D03*
D23*
X854456Y-146558D03*
D18*
X868934Y-146558D03*
D26*
X776732Y-146304D03*
D25*
X787019Y-146304D03*
D11*
X799973Y-146304D03*
D45*
X823214Y-146304D03*
D23*
X854456Y-146304D03*
D18*
X868680Y-146304D03*
D26*
X776986Y-146050D03*
X786892Y-146050D03*
D23*
X800100Y-146050D03*
D53*
X820801Y-146050D03*
D24*
X851662Y-146050D03*
D23*
X854456Y-146050D03*
D18*
X868426Y-146050D03*
D26*
X777240Y-145796D03*
X786638Y-145796D03*
D23*
X800100Y-145796D03*
D60*
X818388Y-145796D03*
D28*
X851662Y-145796D03*
D23*
X854456Y-145796D03*
D14*
X868045Y-145796D03*
D12*
X777621Y-145542D03*
D26*
X786384Y-145542D03*
D11*
X800227Y-145542D03*
D53*
X817499Y-145542D03*
D11*
X851789Y-145542D03*
D23*
X854456Y-145542D03*
D13*
X867410Y-145542D03*
X778002Y-145288D03*
D26*
X786130Y-145288D03*
D11*
X800227Y-145288D03*
D61*
X813054Y-145288D03*
D19*
X853186Y-145288D03*
D13*
X867156Y-145288D03*
X778256Y-145034D03*
D26*
X785876Y-145034D03*
D11*
X800227Y-145034D03*
D41*
X811784Y-145034D03*
D19*
X853186Y-145034D03*
D14*
X866775Y-145034D03*
D13*
X778510Y-144780D03*
D26*
X785622Y-144780D03*
D23*
X800354Y-144780D03*
D55*
X810387Y-144780D03*
D19*
X853186Y-144780D03*
D14*
X866267Y-144780D03*
D13*
X778764Y-144526D03*
D26*
X785368Y-144526D03*
D11*
X800481Y-144526D03*
D62*
X809625Y-144526D03*
D19*
X853186Y-144526D03*
D14*
X866013Y-144526D03*
D13*
X779018Y-144272D03*
D25*
X785241Y-144272D03*
D23*
X800608Y-144272D03*
D63*
X808863Y-144272D03*
D19*
X853440Y-144272D03*
D18*
X865632Y-144272D03*
D13*
X779272Y-144018D03*
D25*
X784987Y-144018D03*
D23*
X800608Y-144018D03*
D64*
X807720Y-144018D03*
D20*
X853694Y-144018D03*
D18*
X865378Y-144018D03*
D13*
X779780Y-143764D03*
D25*
X784733Y-143764D03*
D11*
X800735Y-143764D03*
D37*
X806577Y-143764D03*
D46*
X854075Y-143764D03*
D14*
X864997Y-143764D03*
D12*
X780161Y-143510D03*
D25*
X784733Y-143510D03*
D23*
X800862Y-143510D03*
D19*
X805688Y-143510D03*
D22*
X855218Y-143510D03*
D15*
X864489Y-143510D03*
D12*
X780415Y-143256D03*
D25*
X784479Y-143256D03*
D23*
X800862Y-143256D03*
D13*
X805180Y-143256D03*
D55*
X859155Y-143256D03*
D26*
X780542Y-143002D03*
D25*
X784225Y-143002D03*
D23*
X800862Y-143002D03*
D65*
X859282Y-143002D03*
D12*
X780923Y-142748D03*
D25*
X783971Y-142748D03*
D23*
X800862Y-142748D03*
D66*
X859409Y-142748D03*
D20*
X782320Y-142494D03*
D23*
X801116Y-142494D03*
D67*
X859282Y-142494D03*
D47*
X782447Y-142240D03*
D11*
X800989Y-142240D03*
D68*
X859282Y-142240D03*
D17*
X782447Y-141986D03*
D11*
X800989Y-141986D03*
D36*
X859663Y-141986D03*
D16*
X782574Y-141732D03*
D30*
X800989Y-141732D03*
D48*
X860044Y-141732D03*
D18*
X782574Y-141478D03*
D46*
X860171Y-141478D03*
D12*
X782447Y-141224D03*
D14*
X860171Y-141224D03*
D25*
X782701Y-140970D03*
D26*
X782828Y-140716D03*
D25*
X782955Y-140462D03*
D11*
X782955Y-140208D03*
D29*
X783082Y-139954D03*
D28*
X783082Y-139700D03*
D69*
X226Y-1270D02*
X113Y-1270D01*
X93Y-1268D01*
X74Y-1263D01*
X56Y-1255D01*
X40Y-1244D01*
X26Y-1230D01*
X15Y-1214D01*
X7Y-1196D01*
X2Y-1177D01*
X0Y-1157D01*
X0Y-875D01*
X2Y-855D01*
X7Y-836D01*
X15Y-819D01*
X26Y-802D01*
X40Y-788D01*
X56Y-777D01*
X74Y-769D01*
X93Y-764D01*
X113Y-762D01*
X226Y-762D01*
X387Y-1199D02*
X387Y-1228D01*
X387Y-1199D02*
X415Y-1199D01*
X415Y-1228D01*
X387Y-1228D01*
X387Y-1002D02*
X387Y-974D01*
X415Y-974D01*
X415Y-1002D01*
X387Y-1002D01*
X578Y-1326D02*
X803Y-706D01*
X976Y-762D02*
X976Y-1129D01*
X978Y-1151D01*
X983Y-1173D01*
X991Y-1193D01*
X1003Y-1212D01*
X1017Y-1229D01*
X1034Y-1243D01*
X1053Y-1255D01*
X1073Y-1263D01*
X1095Y-1268D01*
X1117Y-1270D01*
X1139Y-1268D01*
X1161Y-1263D01*
X1181Y-1255D01*
X1200Y-1243D01*
X1217Y-1229D01*
X1231Y-1212D01*
X1243Y-1193D01*
X1251Y-1173D01*
X1256Y-1151D01*
X1258Y-1129D01*
X1258Y-762D01*
X1488Y-1072D02*
X1630Y-1129D01*
X1489Y-1073D02*
X1474Y-1065D01*
X1461Y-1054D01*
X1452Y-1040D01*
X1446Y-1024D01*
X1443Y-1007D01*
X1444Y-991D01*
X1450Y-975D01*
X1458Y-960D01*
X1470Y-948D01*
X1484Y-939D01*
X1500Y-934D01*
X1517Y-932D01*
X1516Y-932D02*
X1549Y-934D01*
X1581Y-940D01*
X1613Y-948D01*
X1643Y-960D01*
X1629Y-1129D02*
X1644Y-1137D01*
X1657Y-1148D01*
X1666Y-1162D01*
X1672Y-1178D01*
X1675Y-1195D01*
X1674Y-1211D01*
X1668Y-1227D01*
X1660Y-1242D01*
X1648Y-1254D01*
X1634Y-1263D01*
X1618Y-1268D01*
X1601Y-1270D01*
X1562Y-1268D01*
X1522Y-1262D01*
X1484Y-1254D01*
X1446Y-1242D01*
X1927Y-1270D02*
X2068Y-1270D01*
X1927Y-1270D02*
X1910Y-1268D01*
X1894Y-1264D01*
X1880Y-1256D01*
X1867Y-1245D01*
X1856Y-1232D01*
X1848Y-1218D01*
X1844Y-1202D01*
X1842Y-1185D01*
X1842Y-1044D01*
X1844Y-1024D01*
X1849Y-1005D01*
X1857Y-987D01*
X1868Y-971D01*
X1882Y-957D01*
X1899Y-946D01*
X1916Y-938D01*
X1935Y-933D01*
X1955Y-931D01*
X1975Y-933D01*
X1994Y-938D01*
X2012Y-946D01*
X2028Y-957D01*
X2042Y-971D01*
X2053Y-988D01*
X2061Y-1005D01*
X2066Y-1024D01*
X2068Y-1044D01*
X2068Y-1101D01*
X1842Y-1101D01*
X2255Y-1270D02*
X2255Y-931D01*
X2424Y-931D01*
X2424Y-988D01*
X2601Y-1072D02*
X2742Y-1129D01*
X2601Y-1073D02*
X2586Y-1065D01*
X2573Y-1054D01*
X2564Y-1040D01*
X2558Y-1024D01*
X2555Y-1007D01*
X2556Y-991D01*
X2562Y-975D01*
X2570Y-960D01*
X2582Y-948D01*
X2596Y-939D01*
X2612Y-934D01*
X2629Y-932D01*
X2662Y-934D01*
X2694Y-940D01*
X2726Y-948D01*
X2756Y-960D01*
X2742Y-1129D02*
X2757Y-1137D01*
X2770Y-1148D01*
X2779Y-1162D01*
X2785Y-1178D01*
X2788Y-1195D01*
X2787Y-1211D01*
X2781Y-1227D01*
X2773Y-1242D01*
X2761Y-1254D01*
X2747Y-1263D01*
X2731Y-1268D01*
X2714Y-1270D01*
X2675Y-1268D01*
X2635Y-1262D01*
X2597Y-1254D01*
X2559Y-1242D01*
X2940Y-1326D02*
X3165Y-706D01*
X3339Y-762D02*
X3339Y-1270D01*
X3339Y-1101D02*
X3564Y-931D01*
X3437Y-1030D02*
X3564Y-1270D01*
X3723Y-1270D02*
X3723Y-931D01*
X3709Y-790D02*
X3709Y-762D01*
X3737Y-762D01*
X3737Y-790D01*
X3709Y-790D01*
X3916Y-931D02*
X3916Y-1270D01*
X3916Y-931D02*
X4086Y-931D01*
X4086Y-988D01*
X4317Y-1072D02*
X4444Y-1072D01*
X4317Y-1072D02*
X4299Y-1074D01*
X4281Y-1079D01*
X4265Y-1087D01*
X4250Y-1098D01*
X4238Y-1111D01*
X4228Y-1127D01*
X4222Y-1144D01*
X4218Y-1162D01*
X4218Y-1180D01*
X4222Y-1198D01*
X4228Y-1215D01*
X4238Y-1231D01*
X4250Y-1244D01*
X4265Y-1255D01*
X4281Y-1263D01*
X4299Y-1268D01*
X4317Y-1270D01*
X4444Y-1270D01*
X4444Y-1016D01*
X4445Y-1016D02*
X4443Y-999D01*
X4439Y-983D01*
X4431Y-969D01*
X4420Y-956D01*
X4407Y-945D01*
X4393Y-937D01*
X4377Y-933D01*
X4360Y-931D01*
X4247Y-931D01*
X4646Y-931D02*
X4646Y-1270D01*
X4646Y-931D02*
X4787Y-931D01*
X4804Y-933D01*
X4820Y-937D01*
X4834Y-945D01*
X4847Y-956D01*
X4858Y-969D01*
X4866Y-983D01*
X4870Y-999D01*
X4872Y-1016D01*
X4872Y-1270D01*
X5043Y-1326D02*
X5268Y-706D01*
X5441Y-762D02*
X5441Y-1270D01*
X5441Y-762D02*
X5582Y-762D01*
X5604Y-764D01*
X5626Y-769D01*
X5646Y-777D01*
X5665Y-789D01*
X5682Y-803D01*
X5696Y-820D01*
X5708Y-839D01*
X5716Y-859D01*
X5721Y-881D01*
X5723Y-903D01*
X5723Y-1129D01*
X5721Y-1151D01*
X5716Y-1173D01*
X5708Y-1193D01*
X5696Y-1212D01*
X5682Y-1229D01*
X5665Y-1243D01*
X5646Y-1255D01*
X5626Y-1263D01*
X5604Y-1268D01*
X5582Y-1270D01*
X5441Y-1270D01*
X5911Y-1157D02*
X5911Y-1044D01*
X5913Y-1024D01*
X5918Y-1005D01*
X5926Y-987D01*
X5937Y-971D01*
X5951Y-957D01*
X5968Y-946D01*
X5985Y-938D01*
X6004Y-933D01*
X6024Y-931D01*
X6044Y-933D01*
X6063Y-938D01*
X6081Y-946D01*
X6097Y-957D01*
X6111Y-971D01*
X6122Y-988D01*
X6130Y-1005D01*
X6135Y-1024D01*
X6137Y-1044D01*
X6137Y-1157D01*
X6135Y-1177D01*
X6130Y-1196D01*
X6122Y-1214D01*
X6111Y-1230D01*
X6097Y-1244D01*
X6081Y-1255D01*
X6063Y-1263D01*
X6044Y-1268D01*
X6024Y-1270D01*
X6004Y-1268D01*
X5985Y-1263D01*
X5968Y-1255D01*
X5951Y-1244D01*
X5937Y-1230D01*
X5926Y-1214D01*
X5918Y-1196D01*
X5913Y-1177D01*
X5911Y-1157D01*
X6297Y-931D02*
X6381Y-1270D01*
X6466Y-1044D01*
X6551Y-1270D01*
X6635Y-931D01*
X6810Y-931D02*
X6810Y-1270D01*
X6810Y-931D02*
X6951Y-931D01*
X6968Y-933D01*
X6984Y-937D01*
X6998Y-945D01*
X7011Y-956D01*
X7022Y-969D01*
X7030Y-983D01*
X7034Y-999D01*
X7036Y-1016D01*
X7036Y-1270D01*
X7232Y-1185D02*
X7232Y-762D01*
X7232Y-1185D02*
X7234Y-1202D01*
X7238Y-1218D01*
X7246Y-1232D01*
X7257Y-1245D01*
X7270Y-1256D01*
X7284Y-1264D01*
X7300Y-1268D01*
X7317Y-1270D01*
X7466Y-1157D02*
X7466Y-1044D01*
X7468Y-1024D01*
X7473Y-1005D01*
X7481Y-987D01*
X7492Y-971D01*
X7506Y-957D01*
X7523Y-946D01*
X7540Y-938D01*
X7559Y-933D01*
X7579Y-931D01*
X7599Y-933D01*
X7618Y-938D01*
X7636Y-946D01*
X7652Y-957D01*
X7666Y-971D01*
X7677Y-988D01*
X7685Y-1005D01*
X7690Y-1024D01*
X7692Y-1044D01*
X7691Y-1044D02*
X7691Y-1157D01*
X7692Y-1157D02*
X7690Y-1177D01*
X7685Y-1196D01*
X7677Y-1214D01*
X7666Y-1230D01*
X7652Y-1244D01*
X7636Y-1255D01*
X7618Y-1263D01*
X7599Y-1268D01*
X7579Y-1270D01*
X7559Y-1268D01*
X7540Y-1263D01*
X7523Y-1255D01*
X7506Y-1244D01*
X7492Y-1230D01*
X7481Y-1214D01*
X7473Y-1196D01*
X7468Y-1177D01*
X7466Y-1157D01*
X7959Y-1072D02*
X8086Y-1072D01*
X7959Y-1072D02*
X7941Y-1074D01*
X7923Y-1079D01*
X7907Y-1087D01*
X7892Y-1098D01*
X7880Y-1111D01*
X7870Y-1127D01*
X7864Y-1144D01*
X7860Y-1162D01*
X7860Y-1180D01*
X7864Y-1198D01*
X7870Y-1215D01*
X7880Y-1231D01*
X7892Y-1244D01*
X7907Y-1255D01*
X7923Y-1263D01*
X7941Y-1268D01*
X7959Y-1270D01*
X8086Y-1270D01*
X8086Y-1016D01*
X8087Y-1016D02*
X8085Y-999D01*
X8081Y-983D01*
X8073Y-969D01*
X8062Y-956D01*
X8049Y-945D01*
X8035Y-937D01*
X8019Y-933D01*
X8002Y-931D01*
X7889Y-931D01*
X8498Y-762D02*
X8498Y-1270D01*
X8357Y-1270D01*
X8340Y-1268D01*
X8324Y-1264D01*
X8310Y-1256D01*
X8297Y-1245D01*
X8286Y-1232D01*
X8278Y-1218D01*
X8274Y-1202D01*
X8272Y-1185D01*
X8272Y-1016D01*
X8274Y-999D01*
X8278Y-983D01*
X8286Y-969D01*
X8297Y-956D01*
X8310Y-945D01*
X8324Y-937D01*
X8340Y-933D01*
X8357Y-931D01*
X8498Y-931D01*
X8727Y-1072D02*
X8868Y-1129D01*
X8727Y-1073D02*
X8712Y-1065D01*
X8699Y-1054D01*
X8690Y-1040D01*
X8684Y-1024D01*
X8681Y-1007D01*
X8682Y-991D01*
X8688Y-975D01*
X8696Y-960D01*
X8708Y-948D01*
X8722Y-939D01*
X8738Y-934D01*
X8755Y-932D01*
X8788Y-934D01*
X8820Y-940D01*
X8852Y-948D01*
X8882Y-960D01*
X8868Y-1129D02*
X8883Y-1137D01*
X8896Y-1148D01*
X8905Y-1162D01*
X8911Y-1178D01*
X8914Y-1195D01*
X8913Y-1211D01*
X8907Y-1227D01*
X8899Y-1242D01*
X8887Y-1254D01*
X8873Y-1263D01*
X8857Y-1268D01*
X8840Y-1270D01*
X8801Y-1268D01*
X8761Y-1262D01*
X8723Y-1254D01*
X8685Y-1242D01*
X9066Y-1326D02*
X9292Y-706D01*
X9671Y-762D02*
X9671Y-1270D01*
X9530Y-1270D01*
X9513Y-1268D01*
X9497Y-1264D01*
X9483Y-1256D01*
X9470Y-1245D01*
X9459Y-1232D01*
X9451Y-1218D01*
X9447Y-1202D01*
X9445Y-1185D01*
X9446Y-1185D02*
X9446Y-1016D01*
X9445Y-1016D02*
X9447Y-999D01*
X9451Y-983D01*
X9459Y-969D01*
X9470Y-956D01*
X9483Y-945D01*
X9497Y-937D01*
X9513Y-933D01*
X9530Y-931D01*
X9671Y-931D01*
X9943Y-1270D02*
X10084Y-1270D01*
X9943Y-1270D02*
X9926Y-1268D01*
X9910Y-1264D01*
X9896Y-1256D01*
X9883Y-1245D01*
X9872Y-1232D01*
X9864Y-1218D01*
X9860Y-1202D01*
X9858Y-1185D01*
X9858Y-1044D01*
X9860Y-1024D01*
X9865Y-1005D01*
X9873Y-987D01*
X9884Y-971D01*
X9898Y-957D01*
X9915Y-946D01*
X9932Y-938D01*
X9951Y-933D01*
X9971Y-931D01*
X9991Y-933D01*
X10010Y-938D01*
X10028Y-946D01*
X10044Y-957D01*
X10058Y-971D01*
X10069Y-988D01*
X10077Y-1005D01*
X10082Y-1024D01*
X10084Y-1044D01*
X10084Y-1101D01*
X9858Y-1101D01*
X10239Y-1270D02*
X10465Y-931D01*
X10239Y-931D02*
X10465Y-1270D01*
X10586Y-931D02*
X10755Y-931D01*
X10642Y-762D02*
X10642Y-1185D01*
X10644Y-1202D01*
X10648Y-1218D01*
X10656Y-1232D01*
X10667Y-1245D01*
X10680Y-1256D01*
X10694Y-1264D01*
X10710Y-1268D01*
X10727Y-1270D01*
X10755Y-1270D01*
X10994Y-1270D02*
X11136Y-1270D01*
X10994Y-1270D02*
X10977Y-1268D01*
X10961Y-1264D01*
X10947Y-1256D01*
X10934Y-1245D01*
X10923Y-1232D01*
X10915Y-1218D01*
X10911Y-1202D01*
X10909Y-1185D01*
X10910Y-1185D02*
X10910Y-1044D01*
X10912Y-1024D01*
X10917Y-1005D01*
X10925Y-987D01*
X10936Y-971D01*
X10950Y-957D01*
X10967Y-946D01*
X10984Y-938D01*
X11003Y-933D01*
X11023Y-931D01*
X11043Y-933D01*
X11062Y-938D01*
X11080Y-946D01*
X11096Y-957D01*
X11110Y-971D01*
X11121Y-988D01*
X11129Y-1005D01*
X11134Y-1024D01*
X11136Y-1044D01*
X11136Y-1101D01*
X10910Y-1101D01*
X11323Y-1270D02*
X11323Y-931D01*
X11492Y-931D01*
X11492Y-988D01*
X11618Y-1242D02*
X11618Y-1270D01*
X11618Y-1242D02*
X11646Y-1242D01*
X11646Y-1270D01*
X11618Y-1270D01*
X11825Y-1270D02*
X11825Y-762D01*
X11825Y-1270D02*
X11966Y-1270D01*
X11983Y-1268D01*
X11999Y-1264D01*
X12013Y-1256D01*
X12026Y-1245D01*
X12037Y-1232D01*
X12045Y-1218D01*
X12049Y-1202D01*
X12051Y-1185D01*
X12051Y-1016D01*
X12049Y-999D01*
X12045Y-983D01*
X12037Y-969D01*
X12026Y-956D01*
X12013Y-945D01*
X11999Y-937D01*
X11983Y-933D01*
X11966Y-931D01*
X11825Y-931D01*
X12240Y-931D02*
X12240Y-1270D01*
X12240Y-931D02*
X12494Y-931D01*
X12511Y-933D01*
X12527Y-937D01*
X12541Y-945D01*
X12554Y-956D01*
X12565Y-969D01*
X12573Y-983D01*
X12577Y-999D01*
X12579Y-1016D01*
X12579Y-1270D01*
X12409Y-1270D02*
X12409Y-931D01*
X12785Y-931D02*
X12785Y-1439D01*
X12785Y-931D02*
X12926Y-931D01*
X12943Y-933D01*
X12959Y-937D01*
X12973Y-945D01*
X12986Y-956D01*
X12997Y-969D01*
X13005Y-983D01*
X13009Y-999D01*
X13011Y-1016D01*
X13011Y-1185D01*
X13009Y-1202D01*
X13005Y-1218D01*
X12997Y-1232D01*
X12986Y-1245D01*
X12973Y-1256D01*
X12959Y-1264D01*
X12943Y-1268D01*
X12926Y-1270D01*
X12785Y-1270D01*
D70*
X951700Y-326700D02*
X951942Y-326697D01*
X952183Y-326688D01*
X952424Y-326674D01*
X952665Y-326653D01*
X952905Y-326627D01*
X953145Y-326595D01*
X953384Y-326557D01*
X953621Y-326514D01*
X953858Y-326464D01*
X954093Y-326409D01*
X954327Y-326349D01*
X954559Y-326282D01*
X954790Y-326211D01*
X955019Y-326133D01*
X955246Y-326050D01*
X955471Y-325962D01*
X955694Y-325868D01*
X955914Y-325769D01*
X956132Y-325664D01*
X956347Y-325555D01*
X956560Y-325440D01*
X956770Y-325320D01*
X956976Y-325195D01*
X957180Y-325065D01*
X957381Y-324930D01*
X957578Y-324790D01*
X957772Y-324646D01*
X957962Y-324497D01*
X958148Y-324343D01*
X958331Y-324185D01*
X958510Y-324023D01*
X958685Y-323856D01*
X958856Y-323685D01*
X959023Y-323510D01*
X959185Y-323331D01*
X959343Y-323148D01*
X959497Y-322962D01*
X959646Y-322772D01*
X959790Y-322578D01*
X959930Y-322381D01*
X960065Y-322180D01*
X960195Y-321976D01*
X960320Y-321770D01*
X960440Y-321560D01*
X960555Y-321347D01*
X960664Y-321132D01*
X960769Y-320914D01*
X960868Y-320694D01*
X960962Y-320471D01*
X961050Y-320246D01*
X961133Y-320019D01*
X961211Y-319790D01*
X961282Y-319559D01*
X961349Y-319327D01*
X961409Y-319093D01*
X961464Y-318858D01*
X961514Y-318621D01*
X961557Y-318384D01*
X961595Y-318145D01*
X961627Y-317905D01*
X961653Y-317665D01*
X961674Y-317424D01*
X961688Y-317183D01*
X961697Y-316942D01*
X961700Y-316700D01*
X951700Y-326700D02*
X851700Y-326700D01*
X851458Y-326697D01*
X851217Y-326688D01*
X850976Y-326674D01*
X850735Y-326653D01*
X850495Y-326627D01*
X850255Y-326595D01*
X850016Y-326557D01*
X849779Y-326514D01*
X849542Y-326464D01*
X849307Y-326409D01*
X849073Y-326349D01*
X848841Y-326282D01*
X848610Y-326211D01*
X848381Y-326133D01*
X848154Y-326050D01*
X847929Y-325962D01*
X847706Y-325868D01*
X847486Y-325769D01*
X847268Y-325664D01*
X847053Y-325555D01*
X846840Y-325440D01*
X846630Y-325320D01*
X846424Y-325195D01*
X846220Y-325065D01*
X846019Y-324930D01*
X845822Y-324790D01*
X845628Y-324646D01*
X845438Y-324497D01*
X845252Y-324343D01*
X845069Y-324185D01*
X844890Y-324023D01*
X844715Y-323856D01*
X844544Y-323685D01*
X844377Y-323510D01*
X844215Y-323331D01*
X844057Y-323148D01*
X843903Y-322962D01*
X843754Y-322772D01*
X843610Y-322578D01*
X843470Y-322381D01*
X843335Y-322180D01*
X843205Y-321976D01*
X843080Y-321770D01*
X842960Y-321560D01*
X842845Y-321347D01*
X842736Y-321132D01*
X842631Y-320914D01*
X842532Y-320694D01*
X842438Y-320471D01*
X842350Y-320246D01*
X842267Y-320019D01*
X842189Y-319790D01*
X842118Y-319559D01*
X842051Y-319327D01*
X841991Y-319093D01*
X841936Y-318858D01*
X841886Y-318621D01*
X841843Y-318384D01*
X841805Y-318145D01*
X841773Y-317905D01*
X841747Y-317665D01*
X841726Y-317424D01*
X841712Y-317183D01*
X841703Y-316942D01*
X841700Y-316700D01*
X841700Y-216700D02*
X841703Y-216458D01*
X841712Y-216217D01*
X841726Y-215976D01*
X841747Y-215735D01*
X841773Y-215495D01*
X841805Y-215255D01*
X841843Y-215016D01*
X841886Y-214779D01*
X841936Y-214542D01*
X841991Y-214307D01*
X842051Y-214073D01*
X842118Y-213841D01*
X842189Y-213610D01*
X842267Y-213381D01*
X842350Y-213154D01*
X842438Y-212929D01*
X842532Y-212706D01*
X842631Y-212486D01*
X842736Y-212268D01*
X842845Y-212053D01*
X842960Y-211840D01*
X843080Y-211630D01*
X843205Y-211424D01*
X843335Y-211220D01*
X843470Y-211019D01*
X843610Y-210822D01*
X843754Y-210628D01*
X843903Y-210438D01*
X844057Y-210252D01*
X844215Y-210069D01*
X844377Y-209890D01*
X844544Y-209715D01*
X844715Y-209544D01*
X844890Y-209377D01*
X845069Y-209215D01*
X845252Y-209057D01*
X845438Y-208903D01*
X845628Y-208754D01*
X845822Y-208610D01*
X846019Y-208470D01*
X846220Y-208335D01*
X846424Y-208205D01*
X846630Y-208080D01*
X846840Y-207960D01*
X847053Y-207845D01*
X847268Y-207736D01*
X847486Y-207631D01*
X847706Y-207532D01*
X847929Y-207438D01*
X848154Y-207350D01*
X848381Y-207267D01*
X848610Y-207189D01*
X848841Y-207118D01*
X849073Y-207051D01*
X849307Y-206991D01*
X849542Y-206936D01*
X849779Y-206886D01*
X850016Y-206843D01*
X850255Y-206805D01*
X850495Y-206773D01*
X850735Y-206747D01*
X850976Y-206726D01*
X851217Y-206712D01*
X851458Y-206703D01*
X851700Y-206700D01*
X951700Y-206700D01*
X951942Y-206703D01*
X952183Y-206712D01*
X952424Y-206726D01*
X952665Y-206747D01*
X952905Y-206773D01*
X953145Y-206805D01*
X953384Y-206843D01*
X953621Y-206886D01*
X953858Y-206936D01*
X954093Y-206991D01*
X954327Y-207051D01*
X954559Y-207118D01*
X954790Y-207189D01*
X955019Y-207267D01*
X955246Y-207350D01*
X955471Y-207438D01*
X955694Y-207532D01*
X955914Y-207631D01*
X956132Y-207736D01*
X956347Y-207845D01*
X956560Y-207960D01*
X956770Y-208080D01*
X956976Y-208205D01*
X957180Y-208335D01*
X957381Y-208470D01*
X957578Y-208610D01*
X957772Y-208754D01*
X957962Y-208903D01*
X958148Y-209057D01*
X958331Y-209215D01*
X958510Y-209377D01*
X958685Y-209544D01*
X958856Y-209715D01*
X959023Y-209890D01*
X959185Y-210069D01*
X959343Y-210252D01*
X959497Y-210438D01*
X959646Y-210628D01*
X959790Y-210822D01*
X959930Y-211019D01*
X960065Y-211220D01*
X960195Y-211424D01*
X960320Y-211630D01*
X960440Y-211840D01*
X960555Y-212053D01*
X960664Y-212268D01*
X960769Y-212486D01*
X960868Y-212706D01*
X960962Y-212929D01*
X961050Y-213154D01*
X961133Y-213381D01*
X961211Y-213610D01*
X961282Y-213841D01*
X961349Y-214073D01*
X961409Y-214307D01*
X961464Y-214542D01*
X961514Y-214779D01*
X961557Y-215016D01*
X961595Y-215255D01*
X961627Y-215495D01*
X961653Y-215735D01*
X961674Y-215976D01*
X961688Y-216217D01*
X961697Y-216458D01*
X961700Y-216700D01*
X866345Y-266700D02*
X866356Y-265832D01*
X866388Y-264965D01*
X866441Y-264099D01*
X866515Y-263235D01*
X866611Y-262372D01*
X866728Y-261512D01*
X866866Y-260656D01*
X867024Y-259803D01*
X867204Y-258954D01*
X867405Y-258109D01*
X867626Y-257270D01*
X867867Y-256437D01*
X868129Y-255610D01*
X868412Y-254789D01*
X868714Y-253976D01*
X869036Y-253170D01*
X869378Y-252373D01*
X869739Y-251584D01*
X870120Y-250804D01*
X870520Y-250034D01*
X870938Y-249274D01*
X871375Y-248524D01*
X871830Y-247785D01*
X872303Y-247058D01*
X872794Y-246342D01*
X873303Y-245639D01*
X873828Y-244948D01*
X874370Y-244271D01*
X874929Y-243607D01*
X875504Y-242957D01*
X876094Y-242321D01*
X876700Y-241700D01*
X877321Y-241094D01*
X877957Y-240504D01*
X878607Y-239929D01*
X879271Y-239370D01*
X879948Y-238828D01*
X880639Y-238303D01*
X881342Y-237794D01*
X882058Y-237303D01*
X882785Y-236830D01*
X883524Y-236375D01*
X884274Y-235938D01*
X885034Y-235520D01*
X885804Y-235120D01*
X886584Y-234739D01*
X887373Y-234378D01*
X888170Y-234036D01*
X888976Y-233714D01*
X889789Y-233412D01*
X890610Y-233129D01*
X891437Y-232867D01*
X892270Y-232626D01*
X893109Y-232405D01*
X893954Y-232204D01*
X894803Y-232024D01*
X895656Y-231866D01*
X896512Y-231728D01*
X897372Y-231611D01*
X898235Y-231515D01*
X899099Y-231441D01*
X899965Y-231388D01*
X900832Y-231356D01*
X901700Y-231345D01*
X902568Y-231356D01*
X903435Y-231388D01*
X904301Y-231441D01*
X905165Y-231515D01*
X906028Y-231611D01*
X906888Y-231728D01*
X907744Y-231866D01*
X908597Y-232024D01*
X909446Y-232204D01*
X910291Y-232405D01*
X911130Y-232626D01*
X911963Y-232867D01*
X912790Y-233129D01*
X913611Y-233412D01*
X914424Y-233714D01*
X915230Y-234036D01*
X916027Y-234378D01*
X916816Y-234739D01*
X917596Y-235120D01*
X918366Y-235520D01*
X919126Y-235938D01*
X919876Y-236375D01*
X920615Y-236830D01*
X921342Y-237303D01*
X922058Y-237794D01*
X922761Y-238303D01*
X923452Y-238828D01*
X924129Y-239370D01*
X924793Y-239929D01*
X925443Y-240504D01*
X926079Y-241094D01*
X926700Y-241700D01*
X927306Y-242321D01*
X927896Y-242957D01*
X928471Y-243607D01*
X929030Y-244271D01*
X929572Y-244948D01*
X930097Y-245639D01*
X930606Y-246342D01*
X931097Y-247058D01*
X931570Y-247785D01*
X932025Y-248524D01*
X932462Y-249274D01*
X932880Y-250034D01*
X933280Y-250804D01*
X933661Y-251584D01*
X934022Y-252373D01*
X934364Y-253170D01*
X934686Y-253976D01*
X934988Y-254789D01*
X935271Y-255610D01*
X935533Y-256437D01*
X935774Y-257270D01*
X935995Y-258109D01*
X936196Y-258954D01*
X936376Y-259803D01*
X936534Y-260656D01*
X936672Y-261512D01*
X936789Y-262372D01*
X936885Y-263235D01*
X936959Y-264099D01*
X937012Y-264965D01*
X937044Y-265832D01*
X937055Y-266700D01*
X937044Y-267568D01*
X937012Y-268435D01*
X936959Y-269301D01*
X936885Y-270165D01*
X936789Y-271028D01*
X936672Y-271888D01*
X936534Y-272744D01*
X936376Y-273597D01*
X936196Y-274446D01*
X935995Y-275291D01*
X935774Y-276130D01*
X935533Y-276963D01*
X935271Y-277790D01*
X934988Y-278611D01*
X934686Y-279424D01*
X934364Y-280230D01*
X934022Y-281027D01*
X933661Y-281816D01*
X933280Y-282596D01*
X932880Y-283366D01*
X932462Y-284126D01*
X932025Y-284876D01*
X931570Y-285615D01*
X931097Y-286342D01*
X930606Y-287058D01*
X930097Y-287761D01*
X929572Y-288452D01*
X929030Y-289129D01*
X928471Y-289793D01*
X927896Y-290443D01*
X927306Y-291079D01*
X926700Y-291700D01*
X926079Y-292306D01*
X925443Y-292896D01*
X924793Y-293471D01*
X924129Y-294030D01*
X923452Y-294572D01*
X922761Y-295097D01*
X922058Y-295606D01*
X921342Y-296097D01*
X920615Y-296570D01*
X919876Y-297025D01*
X919126Y-297462D01*
X918366Y-297880D01*
X917596Y-298280D01*
X916816Y-298661D01*
X916027Y-299022D01*
X915230Y-299364D01*
X914424Y-299686D01*
X913611Y-299988D01*
X912790Y-300271D01*
X911963Y-300533D01*
X911130Y-300774D01*
X910291Y-300995D01*
X909446Y-301196D01*
X908597Y-301376D01*
X907744Y-301534D01*
X906888Y-301672D01*
X906028Y-301789D01*
X905165Y-301885D01*
X904301Y-301959D01*
X903435Y-302012D01*
X902568Y-302044D01*
X901700Y-302055D01*
X900832Y-302044D01*
X899965Y-302012D01*
X899099Y-301959D01*
X898235Y-301885D01*
X897372Y-301789D01*
X896512Y-301672D01*
X895656Y-301534D01*
X894803Y-301376D01*
X893954Y-301196D01*
X893109Y-300995D01*
X892270Y-300774D01*
X891437Y-300533D01*
X890610Y-300271D01*
X889789Y-299988D01*
X888976Y-299686D01*
X888170Y-299364D01*
X887373Y-299022D01*
X886584Y-298661D01*
X885804Y-298280D01*
X885034Y-297880D01*
X884274Y-297462D01*
X883524Y-297025D01*
X882785Y-296570D01*
X882058Y-296097D01*
X881342Y-295606D01*
X880639Y-295097D01*
X879948Y-294572D01*
X879271Y-294030D01*
X878607Y-293471D01*
X877957Y-292896D01*
X877321Y-292306D01*
X876700Y-291700D01*
X876094Y-291079D01*
X875504Y-290443D01*
X874929Y-289793D01*
X874370Y-289129D01*
X873828Y-288452D01*
X873303Y-287761D01*
X872794Y-287058D01*
X872303Y-286342D01*
X871830Y-285615D01*
X871375Y-284876D01*
X870938Y-284126D01*
X870520Y-283366D01*
X870120Y-282596D01*
X869739Y-281816D01*
X869378Y-281027D01*
X869036Y-280230D01*
X868714Y-279424D01*
X868412Y-278611D01*
X868129Y-277790D01*
X867867Y-276963D01*
X867626Y-276130D01*
X867405Y-275291D01*
X867204Y-274446D01*
X867024Y-273597D01*
X866866Y-272744D01*
X866728Y-271888D01*
X866611Y-271028D01*
X866515Y-270165D01*
X866441Y-269301D01*
X866388Y-268435D01*
X866356Y-267568D01*
X866345Y-266700D01*
X881700Y-246700D02*
X921700Y-246700D01*
X921700Y-286700D01*
X881700Y-286700D01*
X881700Y-246700D01*
X841700Y-229200D02*
X841700Y-216700D01*
X841700Y-254200D02*
X841700Y-279200D01*
X841700Y-304200D02*
X841700Y-316700D01*
X961700Y-229200D02*
X961700Y-216700D01*
X961700Y-254200D02*
X961700Y-279200D01*
X961700Y-304200D02*
X961700Y-316700D01*
X1104100Y-326700D02*
X1104342Y-326697D01*
X1104583Y-326688D01*
X1104824Y-326674D01*
X1105065Y-326653D01*
X1105305Y-326627D01*
X1105545Y-326595D01*
X1105784Y-326557D01*
X1106021Y-326514D01*
X1106258Y-326464D01*
X1106493Y-326409D01*
X1106727Y-326349D01*
X1106959Y-326282D01*
X1107190Y-326211D01*
X1107419Y-326133D01*
X1107646Y-326050D01*
X1107871Y-325962D01*
X1108094Y-325868D01*
X1108314Y-325769D01*
X1108532Y-325664D01*
X1108747Y-325555D01*
X1108960Y-325440D01*
X1109170Y-325320D01*
X1109376Y-325195D01*
X1109580Y-325065D01*
X1109781Y-324930D01*
X1109978Y-324790D01*
X1110172Y-324646D01*
X1110362Y-324497D01*
X1110548Y-324343D01*
X1110731Y-324185D01*
X1110910Y-324023D01*
X1111085Y-323856D01*
X1111256Y-323685D01*
X1111423Y-323510D01*
X1111585Y-323331D01*
X1111743Y-323148D01*
X1111897Y-322962D01*
X1112046Y-322772D01*
X1112190Y-322578D01*
X1112330Y-322381D01*
X1112465Y-322180D01*
X1112595Y-321976D01*
X1112720Y-321770D01*
X1112840Y-321560D01*
X1112955Y-321347D01*
X1113064Y-321132D01*
X1113169Y-320914D01*
X1113268Y-320694D01*
X1113362Y-320471D01*
X1113450Y-320246D01*
X1113533Y-320019D01*
X1113611Y-319790D01*
X1113682Y-319559D01*
X1113749Y-319327D01*
X1113809Y-319093D01*
X1113864Y-318858D01*
X1113914Y-318621D01*
X1113957Y-318384D01*
X1113995Y-318145D01*
X1114027Y-317905D01*
X1114053Y-317665D01*
X1114074Y-317424D01*
X1114088Y-317183D01*
X1114097Y-316942D01*
X1114100Y-316700D01*
X1104100Y-326700D02*
X1004100Y-326700D01*
X1003858Y-326697D01*
X1003617Y-326688D01*
X1003376Y-326674D01*
X1003135Y-326653D01*
X1002895Y-326627D01*
X1002655Y-326595D01*
X1002416Y-326557D01*
X1002179Y-326514D01*
X1001942Y-326464D01*
X1001707Y-326409D01*
X1001473Y-326349D01*
X1001241Y-326282D01*
X1001010Y-326211D01*
X1000781Y-326133D01*
X1000554Y-326050D01*
X1000329Y-325962D01*
X1000106Y-325868D01*
X999886Y-325769D01*
X999668Y-325664D01*
X999453Y-325555D01*
X999240Y-325440D01*
X999030Y-325320D01*
X998824Y-325195D01*
X998620Y-325065D01*
X998419Y-324930D01*
X998222Y-324790D01*
X998028Y-324646D01*
X997838Y-324497D01*
X997652Y-324343D01*
X997469Y-324185D01*
X997290Y-324023D01*
X997115Y-323856D01*
X996944Y-323685D01*
X996777Y-323510D01*
X996615Y-323331D01*
X996457Y-323148D01*
X996303Y-322962D01*
X996154Y-322772D01*
X996010Y-322578D01*
X995870Y-322381D01*
X995735Y-322180D01*
X995605Y-321976D01*
X995480Y-321770D01*
X995360Y-321560D01*
X995245Y-321347D01*
X995136Y-321132D01*
X995031Y-320914D01*
X994932Y-320694D01*
X994838Y-320471D01*
X994750Y-320246D01*
X994667Y-320019D01*
X994589Y-319790D01*
X994518Y-319559D01*
X994451Y-319327D01*
X994391Y-319093D01*
X994336Y-318858D01*
X994286Y-318621D01*
X994243Y-318384D01*
X994205Y-318145D01*
X994173Y-317905D01*
X994147Y-317665D01*
X994126Y-317424D01*
X994112Y-317183D01*
X994103Y-316942D01*
X994100Y-316700D01*
X994100Y-216700D02*
X994103Y-216458D01*
X994112Y-216217D01*
X994126Y-215976D01*
X994147Y-215735D01*
X994173Y-215495D01*
X994205Y-215255D01*
X994243Y-215016D01*
X994286Y-214779D01*
X994336Y-214542D01*
X994391Y-214307D01*
X994451Y-214073D01*
X994518Y-213841D01*
X994589Y-213610D01*
X994667Y-213381D01*
X994750Y-213154D01*
X994838Y-212929D01*
X994932Y-212706D01*
X995031Y-212486D01*
X995136Y-212268D01*
X995245Y-212053D01*
X995360Y-211840D01*
X995480Y-211630D01*
X995605Y-211424D01*
X995735Y-211220D01*
X995870Y-211019D01*
X996010Y-210822D01*
X996154Y-210628D01*
X996303Y-210438D01*
X996457Y-210252D01*
X996615Y-210069D01*
X996777Y-209890D01*
X996944Y-209715D01*
X997115Y-209544D01*
X997290Y-209377D01*
X997469Y-209215D01*
X997652Y-209057D01*
X997838Y-208903D01*
X998028Y-208754D01*
X998222Y-208610D01*
X998419Y-208470D01*
X998620Y-208335D01*
X998824Y-208205D01*
X999030Y-208080D01*
X999240Y-207960D01*
X999453Y-207845D01*
X999668Y-207736D01*
X999886Y-207631D01*
X1000106Y-207532D01*
X1000329Y-207438D01*
X1000554Y-207350D01*
X1000781Y-207267D01*
X1001010Y-207189D01*
X1001241Y-207118D01*
X1001473Y-207051D01*
X1001707Y-206991D01*
X1001942Y-206936D01*
X1002179Y-206886D01*
X1002416Y-206843D01*
X1002655Y-206805D01*
X1002895Y-206773D01*
X1003135Y-206747D01*
X1003376Y-206726D01*
X1003617Y-206712D01*
X1003858Y-206703D01*
X1004100Y-206700D01*
X1104100Y-206700D01*
X1104342Y-206703D01*
X1104583Y-206712D01*
X1104824Y-206726D01*
X1105065Y-206747D01*
X1105305Y-206773D01*
X1105545Y-206805D01*
X1105784Y-206843D01*
X1106021Y-206886D01*
X1106258Y-206936D01*
X1106493Y-206991D01*
X1106727Y-207051D01*
X1106959Y-207118D01*
X1107190Y-207189D01*
X1107419Y-207267D01*
X1107646Y-207350D01*
X1107871Y-207438D01*
X1108094Y-207532D01*
X1108314Y-207631D01*
X1108532Y-207736D01*
X1108747Y-207845D01*
X1108960Y-207960D01*
X1109170Y-208080D01*
X1109376Y-208205D01*
X1109580Y-208335D01*
X1109781Y-208470D01*
X1109978Y-208610D01*
X1110172Y-208754D01*
X1110362Y-208903D01*
X1110548Y-209057D01*
X1110731Y-209215D01*
X1110910Y-209377D01*
X1111085Y-209544D01*
X1111256Y-209715D01*
X1111423Y-209890D01*
X1111585Y-210069D01*
X1111743Y-210252D01*
X1111897Y-210438D01*
X1112046Y-210628D01*
X1112190Y-210822D01*
X1112330Y-211019D01*
X1112465Y-211220D01*
X1112595Y-211424D01*
X1112720Y-211630D01*
X1112840Y-211840D01*
X1112955Y-212053D01*
X1113064Y-212268D01*
X1113169Y-212486D01*
X1113268Y-212706D01*
X1113362Y-212929D01*
X1113450Y-213154D01*
X1113533Y-213381D01*
X1113611Y-213610D01*
X1113682Y-213841D01*
X1113749Y-214073D01*
X1113809Y-214307D01*
X1113864Y-214542D01*
X1113914Y-214779D01*
X1113957Y-215016D01*
X1113995Y-215255D01*
X1114027Y-215495D01*
X1114053Y-215735D01*
X1114074Y-215976D01*
X1114088Y-216217D01*
X1114097Y-216458D01*
X1114100Y-216700D01*
X1018745Y-266700D02*
X1018756Y-265832D01*
X1018788Y-264965D01*
X1018841Y-264099D01*
X1018915Y-263235D01*
X1019011Y-262372D01*
X1019128Y-261512D01*
X1019266Y-260656D01*
X1019424Y-259803D01*
X1019604Y-258954D01*
X1019805Y-258109D01*
X1020026Y-257270D01*
X1020267Y-256437D01*
X1020529Y-255610D01*
X1020812Y-254789D01*
X1021114Y-253976D01*
X1021436Y-253170D01*
X1021778Y-252373D01*
X1022139Y-251584D01*
X1022520Y-250804D01*
X1022920Y-250034D01*
X1023338Y-249274D01*
X1023775Y-248524D01*
X1024230Y-247785D01*
X1024703Y-247058D01*
X1025194Y-246342D01*
X1025703Y-245639D01*
X1026228Y-244948D01*
X1026770Y-244271D01*
X1027329Y-243607D01*
X1027904Y-242957D01*
X1028494Y-242321D01*
X1029100Y-241700D01*
X1029721Y-241094D01*
X1030357Y-240504D01*
X1031007Y-239929D01*
X1031671Y-239370D01*
X1032348Y-238828D01*
X1033039Y-238303D01*
X1033742Y-237794D01*
X1034458Y-237303D01*
X1035185Y-236830D01*
X1035924Y-236375D01*
X1036674Y-235938D01*
X1037434Y-235520D01*
X1038204Y-235120D01*
X1038984Y-234739D01*
X1039773Y-234378D01*
X1040570Y-234036D01*
X1041376Y-233714D01*
X1042189Y-233412D01*
X1043010Y-233129D01*
X1043837Y-232867D01*
X1044670Y-232626D01*
X1045509Y-232405D01*
X1046354Y-232204D01*
X1047203Y-232024D01*
X1048056Y-231866D01*
X1048912Y-231728D01*
X1049772Y-231611D01*
X1050635Y-231515D01*
X1051499Y-231441D01*
X1052365Y-231388D01*
X1053232Y-231356D01*
X1054100Y-231345D01*
X1054968Y-231356D01*
X1055835Y-231388D01*
X1056701Y-231441D01*
X1057565Y-231515D01*
X1058428Y-231611D01*
X1059288Y-231728D01*
X1060144Y-231866D01*
X1060997Y-232024D01*
X1061846Y-232204D01*
X1062691Y-232405D01*
X1063530Y-232626D01*
X1064363Y-232867D01*
X1065190Y-233129D01*
X1066011Y-233412D01*
X1066824Y-233714D01*
X1067630Y-234036D01*
X1068427Y-234378D01*
X1069216Y-234739D01*
X1069996Y-235120D01*
X1070766Y-235520D01*
X1071526Y-235938D01*
X1072276Y-236375D01*
X1073015Y-236830D01*
X1073742Y-237303D01*
X1074458Y-237794D01*
X1075161Y-238303D01*
X1075852Y-238828D01*
X1076529Y-239370D01*
X1077193Y-239929D01*
X1077843Y-240504D01*
X1078479Y-241094D01*
X1079100Y-241700D01*
X1079706Y-242321D01*
X1080296Y-242957D01*
X1080871Y-243607D01*
X1081430Y-244271D01*
X1081972Y-244948D01*
X1082497Y-245639D01*
X1083006Y-246342D01*
X1083497Y-247058D01*
X1083970Y-247785D01*
X1084425Y-248524D01*
X1084862Y-249274D01*
X1085280Y-250034D01*
X1085680Y-250804D01*
X1086061Y-251584D01*
X1086422Y-252373D01*
X1086764Y-253170D01*
X1087086Y-253976D01*
X1087388Y-254789D01*
X1087671Y-255610D01*
X1087933Y-256437D01*
X1088174Y-257270D01*
X1088395Y-258109D01*
X1088596Y-258954D01*
X1088776Y-259803D01*
X1088934Y-260656D01*
X1089072Y-261512D01*
X1089189Y-262372D01*
X1089285Y-263235D01*
X1089359Y-264099D01*
X1089412Y-264965D01*
X1089444Y-265832D01*
X1089455Y-266700D01*
X1089444Y-267568D01*
X1089412Y-268435D01*
X1089359Y-269301D01*
X1089285Y-270165D01*
X1089189Y-271028D01*
X1089072Y-271888D01*
X1088934Y-272744D01*
X1088776Y-273597D01*
X1088596Y-274446D01*
X1088395Y-275291D01*
X1088174Y-276130D01*
X1087933Y-276963D01*
X1087671Y-277790D01*
X1087388Y-278611D01*
X1087086Y-279424D01*
X1086764Y-280230D01*
X1086422Y-281027D01*
X1086061Y-281816D01*
X1085680Y-282596D01*
X1085280Y-283366D01*
X1084862Y-284126D01*
X1084425Y-284876D01*
X1083970Y-285615D01*
X1083497Y-286342D01*
X1083006Y-287058D01*
X1082497Y-287761D01*
X1081972Y-288452D01*
X1081430Y-289129D01*
X1080871Y-289793D01*
X1080296Y-290443D01*
X1079706Y-291079D01*
X1079100Y-291700D01*
X1078479Y-292306D01*
X1077843Y-292896D01*
X1077193Y-293471D01*
X1076529Y-294030D01*
X1075852Y-294572D01*
X1075161Y-295097D01*
X1074458Y-295606D01*
X1073742Y-296097D01*
X1073015Y-296570D01*
X1072276Y-297025D01*
X1071526Y-297462D01*
X1070766Y-297880D01*
X1069996Y-298280D01*
X1069216Y-298661D01*
X1068427Y-299022D01*
X1067630Y-299364D01*
X1066824Y-299686D01*
X1066011Y-299988D01*
X1065190Y-300271D01*
X1064363Y-300533D01*
X1063530Y-300774D01*
X1062691Y-300995D01*
X1061846Y-301196D01*
X1060997Y-301376D01*
X1060144Y-301534D01*
X1059288Y-301672D01*
X1058428Y-301789D01*
X1057565Y-301885D01*
X1056701Y-301959D01*
X1055835Y-302012D01*
X1054968Y-302044D01*
X1054100Y-302055D01*
X1053232Y-302044D01*
X1052365Y-302012D01*
X1051499Y-301959D01*
X1050635Y-301885D01*
X1049772Y-301789D01*
X1048912Y-301672D01*
X1048056Y-301534D01*
X1047203Y-301376D01*
X1046354Y-301196D01*
X1045509Y-300995D01*
X1044670Y-300774D01*
X1043837Y-300533D01*
X1043010Y-300271D01*
X1042189Y-299988D01*
X1041376Y-299686D01*
X1040570Y-299364D01*
X1039773Y-299022D01*
X1038984Y-298661D01*
X1038204Y-298280D01*
X1037434Y-297880D01*
X1036674Y-297462D01*
X1035924Y-297025D01*
X1035185Y-296570D01*
X1034458Y-296097D01*
X1033742Y-295606D01*
X1033039Y-295097D01*
X1032348Y-294572D01*
X1031671Y-294030D01*
X1031007Y-293471D01*
X1030357Y-292896D01*
X1029721Y-292306D01*
X1029100Y-291700D01*
X1028494Y-291079D01*
X1027904Y-290443D01*
X1027329Y-289793D01*
X1026770Y-289129D01*
X1026228Y-288452D01*
X1025703Y-287761D01*
X1025194Y-287058D01*
X1024703Y-286342D01*
X1024230Y-285615D01*
X1023775Y-284876D01*
X1023338Y-284126D01*
X1022920Y-283366D01*
X1022520Y-282596D01*
X1022139Y-281816D01*
X1021778Y-281027D01*
X1021436Y-280230D01*
X1021114Y-279424D01*
X1020812Y-278611D01*
X1020529Y-277790D01*
X1020267Y-276963D01*
X1020026Y-276130D01*
X1019805Y-275291D01*
X1019604Y-274446D01*
X1019424Y-273597D01*
X1019266Y-272744D01*
X1019128Y-271888D01*
X1019011Y-271028D01*
X1018915Y-270165D01*
X1018841Y-269301D01*
X1018788Y-268435D01*
X1018756Y-267568D01*
X1018745Y-266700D01*
X1034100Y-246700D02*
X1074100Y-246700D01*
X1074100Y-286700D01*
X1034100Y-286700D01*
X1034100Y-246700D01*
X994100Y-229200D02*
X994100Y-216700D01*
X994100Y-254200D02*
X994100Y-279200D01*
X994100Y-304200D02*
X994100Y-316700D01*
X1114100Y-229200D02*
X1114100Y-216700D01*
X1114100Y-254200D02*
X1114100Y-279200D01*
X1114100Y-304200D02*
X1114100Y-316700D01*
X1256500Y-326700D02*
X1256742Y-326697D01*
X1256983Y-326688D01*
X1257224Y-326674D01*
X1257465Y-326653D01*
X1257705Y-326627D01*
X1257945Y-326595D01*
X1258184Y-326557D01*
X1258421Y-326514D01*
X1258658Y-326464D01*
X1258893Y-326409D01*
X1259127Y-326349D01*
X1259359Y-326282D01*
X1259590Y-326211D01*
X1259819Y-326133D01*
X1260046Y-326050D01*
X1260271Y-325962D01*
X1260494Y-325868D01*
X1260714Y-325769D01*
X1260932Y-325664D01*
X1261147Y-325555D01*
X1261360Y-325440D01*
X1261570Y-325320D01*
X1261776Y-325195D01*
X1261980Y-325065D01*
X1262181Y-324930D01*
X1262378Y-324790D01*
X1262572Y-324646D01*
X1262762Y-324497D01*
X1262948Y-324343D01*
X1263131Y-324185D01*
X1263310Y-324023D01*
X1263485Y-323856D01*
X1263656Y-323685D01*
X1263823Y-323510D01*
X1263985Y-323331D01*
X1264143Y-323148D01*
X1264297Y-322962D01*
X1264446Y-322772D01*
X1264590Y-322578D01*
X1264730Y-322381D01*
X1264865Y-322180D01*
X1264995Y-321976D01*
X1265120Y-321770D01*
X1265240Y-321560D01*
X1265355Y-321347D01*
X1265464Y-321132D01*
X1265569Y-320914D01*
X1265668Y-320694D01*
X1265762Y-320471D01*
X1265850Y-320246D01*
X1265933Y-320019D01*
X1266011Y-319790D01*
X1266082Y-319559D01*
X1266149Y-319327D01*
X1266209Y-319093D01*
X1266264Y-318858D01*
X1266314Y-318621D01*
X1266357Y-318384D01*
X1266395Y-318145D01*
X1266427Y-317905D01*
X1266453Y-317665D01*
X1266474Y-317424D01*
X1266488Y-317183D01*
X1266497Y-316942D01*
X1266500Y-316700D01*
X1256500Y-326700D02*
X1156500Y-326700D01*
X1156258Y-326697D01*
X1156017Y-326688D01*
X1155776Y-326674D01*
X1155535Y-326653D01*
X1155295Y-326627D01*
X1155055Y-326595D01*
X1154816Y-326557D01*
X1154579Y-326514D01*
X1154342Y-326464D01*
X1154107Y-326409D01*
X1153873Y-326349D01*
X1153641Y-326282D01*
X1153410Y-326211D01*
X1153181Y-326133D01*
X1152954Y-326050D01*
X1152729Y-325962D01*
X1152506Y-325868D01*
X1152286Y-325769D01*
X1152068Y-325664D01*
X1151853Y-325555D01*
X1151640Y-325440D01*
X1151430Y-325320D01*
X1151224Y-325195D01*
X1151020Y-325065D01*
X1150819Y-324930D01*
X1150622Y-324790D01*
X1150428Y-324646D01*
X1150238Y-324497D01*
X1150052Y-324343D01*
X1149869Y-324185D01*
X1149690Y-324023D01*
X1149515Y-323856D01*
X1149344Y-323685D01*
X1149177Y-323510D01*
X1149015Y-323331D01*
X1148857Y-323148D01*
X1148703Y-322962D01*
X1148554Y-322772D01*
X1148410Y-322578D01*
X1148270Y-322381D01*
X1148135Y-322180D01*
X1148005Y-321976D01*
X1147880Y-321770D01*
X1147760Y-321560D01*
X1147645Y-321347D01*
X1147536Y-321132D01*
X1147431Y-320914D01*
X1147332Y-320694D01*
X1147238Y-320471D01*
X1147150Y-320246D01*
X1147067Y-320019D01*
X1146989Y-319790D01*
X1146918Y-319559D01*
X1146851Y-319327D01*
X1146791Y-319093D01*
X1146736Y-318858D01*
X1146686Y-318621D01*
X1146643Y-318384D01*
X1146605Y-318145D01*
X1146573Y-317905D01*
X1146547Y-317665D01*
X1146526Y-317424D01*
X1146512Y-317183D01*
X1146503Y-316942D01*
X1146500Y-316700D01*
X1146500Y-216700D02*
X1146503Y-216458D01*
X1146512Y-216217D01*
X1146526Y-215976D01*
X1146547Y-215735D01*
X1146573Y-215495D01*
X1146605Y-215255D01*
X1146643Y-215016D01*
X1146686Y-214779D01*
X1146736Y-214542D01*
X1146791Y-214307D01*
X1146851Y-214073D01*
X1146918Y-213841D01*
X1146989Y-213610D01*
X1147067Y-213381D01*
X1147150Y-213154D01*
X1147238Y-212929D01*
X1147332Y-212706D01*
X1147431Y-212486D01*
X1147536Y-212268D01*
X1147645Y-212053D01*
X1147760Y-211840D01*
X1147880Y-211630D01*
X1148005Y-211424D01*
X1148135Y-211220D01*
X1148270Y-211019D01*
X1148410Y-210822D01*
X1148554Y-210628D01*
X1148703Y-210438D01*
X1148857Y-210252D01*
X1149015Y-210069D01*
X1149177Y-209890D01*
X1149344Y-209715D01*
X1149515Y-209544D01*
X1149690Y-209377D01*
X1149869Y-209215D01*
X1150052Y-209057D01*
X1150238Y-208903D01*
X1150428Y-208754D01*
X1150622Y-208610D01*
X1150819Y-208470D01*
X1151020Y-208335D01*
X1151224Y-208205D01*
X1151430Y-208080D01*
X1151640Y-207960D01*
X1151853Y-207845D01*
X1152068Y-207736D01*
X1152286Y-207631D01*
X1152506Y-207532D01*
X1152729Y-207438D01*
X1152954Y-207350D01*
X1153181Y-207267D01*
X1153410Y-207189D01*
X1153641Y-207118D01*
X1153873Y-207051D01*
X1154107Y-206991D01*
X1154342Y-206936D01*
X1154579Y-206886D01*
X1154816Y-206843D01*
X1155055Y-206805D01*
X1155295Y-206773D01*
X1155535Y-206747D01*
X1155776Y-206726D01*
X1156017Y-206712D01*
X1156258Y-206703D01*
X1156500Y-206700D01*
X1256500Y-206700D01*
X1256742Y-206703D01*
X1256983Y-206712D01*
X1257224Y-206726D01*
X1257465Y-206747D01*
X1257705Y-206773D01*
X1257945Y-206805D01*
X1258184Y-206843D01*
X1258421Y-206886D01*
X1258658Y-206936D01*
X1258893Y-206991D01*
X1259127Y-207051D01*
X1259359Y-207118D01*
X1259590Y-207189D01*
X1259819Y-207267D01*
X1260046Y-207350D01*
X1260271Y-207438D01*
X1260494Y-207532D01*
X1260714Y-207631D01*
X1260932Y-207736D01*
X1261147Y-207845D01*
X1261360Y-207960D01*
X1261570Y-208080D01*
X1261776Y-208205D01*
X1261980Y-208335D01*
X1262181Y-208470D01*
X1262378Y-208610D01*
X1262572Y-208754D01*
X1262762Y-208903D01*
X1262948Y-209057D01*
X1263131Y-209215D01*
X1263310Y-209377D01*
X1263485Y-209544D01*
X1263656Y-209715D01*
X1263823Y-209890D01*
X1263985Y-210069D01*
X1264143Y-210252D01*
X1264297Y-210438D01*
X1264446Y-210628D01*
X1264590Y-210822D01*
X1264730Y-211019D01*
X1264865Y-211220D01*
X1264995Y-211424D01*
X1265120Y-211630D01*
X1265240Y-211840D01*
X1265355Y-212053D01*
X1265464Y-212268D01*
X1265569Y-212486D01*
X1265668Y-212706D01*
X1265762Y-212929D01*
X1265850Y-213154D01*
X1265933Y-213381D01*
X1266011Y-213610D01*
X1266082Y-213841D01*
X1266149Y-214073D01*
X1266209Y-214307D01*
X1266264Y-214542D01*
X1266314Y-214779D01*
X1266357Y-215016D01*
X1266395Y-215255D01*
X1266427Y-215495D01*
X1266453Y-215735D01*
X1266474Y-215976D01*
X1266488Y-216217D01*
X1266497Y-216458D01*
X1266500Y-216700D01*
X1171145Y-266700D02*
X1171156Y-265832D01*
X1171188Y-264965D01*
X1171241Y-264099D01*
X1171315Y-263235D01*
X1171411Y-262372D01*
X1171528Y-261512D01*
X1171666Y-260656D01*
X1171824Y-259803D01*
X1172004Y-258954D01*
X1172205Y-258109D01*
X1172426Y-257270D01*
X1172667Y-256437D01*
X1172929Y-255610D01*
X1173212Y-254789D01*
X1173514Y-253976D01*
X1173836Y-253170D01*
X1174178Y-252373D01*
X1174539Y-251584D01*
X1174920Y-250804D01*
X1175320Y-250034D01*
X1175738Y-249274D01*
X1176175Y-248524D01*
X1176630Y-247785D01*
X1177103Y-247058D01*
X1177594Y-246342D01*
X1178103Y-245639D01*
X1178628Y-244948D01*
X1179170Y-244271D01*
X1179729Y-243607D01*
X1180304Y-242957D01*
X1180894Y-242321D01*
X1181500Y-241700D01*
X1182121Y-241094D01*
X1182757Y-240504D01*
X1183407Y-239929D01*
X1184071Y-239370D01*
X1184748Y-238828D01*
X1185439Y-238303D01*
X1186142Y-237794D01*
X1186858Y-237303D01*
X1187585Y-236830D01*
X1188324Y-236375D01*
X1189074Y-235938D01*
X1189834Y-235520D01*
X1190604Y-235120D01*
X1191384Y-234739D01*
X1192173Y-234378D01*
X1192970Y-234036D01*
X1193776Y-233714D01*
X1194589Y-233412D01*
X1195410Y-233129D01*
X1196237Y-232867D01*
X1197070Y-232626D01*
X1197909Y-232405D01*
X1198754Y-232204D01*
X1199603Y-232024D01*
X1200456Y-231866D01*
X1201312Y-231728D01*
X1202172Y-231611D01*
X1203035Y-231515D01*
X1203899Y-231441D01*
X1204765Y-231388D01*
X1205632Y-231356D01*
X1206500Y-231345D01*
X1207368Y-231356D01*
X1208235Y-231388D01*
X1209101Y-231441D01*
X1209965Y-231515D01*
X1210828Y-231611D01*
X1211688Y-231728D01*
X1212544Y-231866D01*
X1213397Y-232024D01*
X1214246Y-232204D01*
X1215091Y-232405D01*
X1215930Y-232626D01*
X1216763Y-232867D01*
X1217590Y-233129D01*
X1218411Y-233412D01*
X1219224Y-233714D01*
X1220030Y-234036D01*
X1220827Y-234378D01*
X1221616Y-234739D01*
X1222396Y-235120D01*
X1223166Y-235520D01*
X1223926Y-235938D01*
X1224676Y-236375D01*
X1225415Y-236830D01*
X1226142Y-237303D01*
X1226858Y-237794D01*
X1227561Y-238303D01*
X1228252Y-238828D01*
X1228929Y-239370D01*
X1229593Y-239929D01*
X1230243Y-240504D01*
X1230879Y-241094D01*
X1231500Y-241700D01*
X1232106Y-242321D01*
X1232696Y-242957D01*
X1233271Y-243607D01*
X1233830Y-244271D01*
X1234372Y-244948D01*
X1234897Y-245639D01*
X1235406Y-246342D01*
X1235897Y-247058D01*
X1236370Y-247785D01*
X1236825Y-248524D01*
X1237262Y-249274D01*
X1237680Y-250034D01*
X1238080Y-250804D01*
X1238461Y-251584D01*
X1238822Y-252373D01*
X1239164Y-253170D01*
X1239486Y-253976D01*
X1239788Y-254789D01*
X1240071Y-255610D01*
X1240333Y-256437D01*
X1240574Y-257270D01*
X1240795Y-258109D01*
X1240996Y-258954D01*
X1241176Y-259803D01*
X1241334Y-260656D01*
X1241472Y-261512D01*
X1241589Y-262372D01*
X1241685Y-263235D01*
X1241759Y-264099D01*
X1241812Y-264965D01*
X1241844Y-265832D01*
X1241855Y-266700D01*
X1241844Y-267568D01*
X1241812Y-268435D01*
X1241759Y-269301D01*
X1241685Y-270165D01*
X1241589Y-271028D01*
X1241472Y-271888D01*
X1241334Y-272744D01*
X1241176Y-273597D01*
X1240996Y-274446D01*
X1240795Y-275291D01*
X1240574Y-276130D01*
X1240333Y-276963D01*
X1240071Y-277790D01*
X1239788Y-278611D01*
X1239486Y-279424D01*
X1239164Y-280230D01*
X1238822Y-281027D01*
X1238461Y-281816D01*
X1238080Y-282596D01*
X1237680Y-283366D01*
X1237262Y-284126D01*
X1236825Y-284876D01*
X1236370Y-285615D01*
X1235897Y-286342D01*
X1235406Y-287058D01*
X1234897Y-287761D01*
X1234372Y-288452D01*
X1233830Y-289129D01*
X1233271Y-289793D01*
X1232696Y-290443D01*
X1232106Y-291079D01*
X1231500Y-291700D01*
X1230879Y-292306D01*
X1230243Y-292896D01*
X1229593Y-293471D01*
X1228929Y-294030D01*
X1228252Y-294572D01*
X1227561Y-295097D01*
X1226858Y-295606D01*
X1226142Y-296097D01*
X1225415Y-296570D01*
X1224676Y-297025D01*
X1223926Y-297462D01*
X1223166Y-297880D01*
X1222396Y-298280D01*
X1221616Y-298661D01*
X1220827Y-299022D01*
X1220030Y-299364D01*
X1219224Y-299686D01*
X1218411Y-299988D01*
X1217590Y-300271D01*
X1216763Y-300533D01*
X1215930Y-300774D01*
X1215091Y-300995D01*
X1214246Y-301196D01*
X1213397Y-301376D01*
X1212544Y-301534D01*
X1211688Y-301672D01*
X1210828Y-301789D01*
X1209965Y-301885D01*
X1209101Y-301959D01*
X1208235Y-302012D01*
X1207368Y-302044D01*
X1206500Y-302055D01*
X1205632Y-302044D01*
X1204765Y-302012D01*
X1203899Y-301959D01*
X1203035Y-301885D01*
X1202172Y-301789D01*
X1201312Y-301672D01*
X1200456Y-301534D01*
X1199603Y-301376D01*
X1198754Y-301196D01*
X1197909Y-300995D01*
X1197070Y-300774D01*
X1196237Y-300533D01*
X1195410Y-300271D01*
X1194589Y-299988D01*
X1193776Y-299686D01*
X1192970Y-299364D01*
X1192173Y-299022D01*
X1191384Y-298661D01*
X1190604Y-298280D01*
X1189834Y-297880D01*
X1189074Y-297462D01*
X1188324Y-297025D01*
X1187585Y-296570D01*
X1186858Y-296097D01*
X1186142Y-295606D01*
X1185439Y-295097D01*
X1184748Y-294572D01*
X1184071Y-294030D01*
X1183407Y-293471D01*
X1182757Y-292896D01*
X1182121Y-292306D01*
X1181500Y-291700D01*
X1180894Y-291079D01*
X1180304Y-290443D01*
X1179729Y-289793D01*
X1179170Y-289129D01*
X1178628Y-288452D01*
X1178103Y-287761D01*
X1177594Y-287058D01*
X1177103Y-286342D01*
X1176630Y-285615D01*
X1176175Y-284876D01*
X1175738Y-284126D01*
X1175320Y-283366D01*
X1174920Y-282596D01*
X1174539Y-281816D01*
X1174178Y-281027D01*
X1173836Y-280230D01*
X1173514Y-279424D01*
X1173212Y-278611D01*
X1172929Y-277790D01*
X1172667Y-276963D01*
X1172426Y-276130D01*
X1172205Y-275291D01*
X1172004Y-274446D01*
X1171824Y-273597D01*
X1171666Y-272744D01*
X1171528Y-271888D01*
X1171411Y-271028D01*
X1171315Y-270165D01*
X1171241Y-269301D01*
X1171188Y-268435D01*
X1171156Y-267568D01*
X1171145Y-266700D01*
X1186500Y-246700D02*
X1226500Y-246700D01*
X1226500Y-286700D01*
X1186500Y-286700D01*
X1186500Y-246700D01*
X1146500Y-229200D02*
X1146500Y-216700D01*
X1146500Y-254200D02*
X1146500Y-279200D01*
X1146500Y-304200D02*
X1146500Y-316700D01*
X1266500Y-229200D02*
X1266500Y-216700D01*
X1266500Y-254200D02*
X1266500Y-279200D01*
X1266500Y-304200D02*
X1266500Y-316700D01*
X1256500Y-161600D02*
X1256742Y-161597D01*
X1256983Y-161588D01*
X1257224Y-161574D01*
X1257465Y-161553D01*
X1257705Y-161527D01*
X1257945Y-161495D01*
X1258184Y-161457D01*
X1258421Y-161414D01*
X1258658Y-161364D01*
X1258893Y-161309D01*
X1259127Y-161249D01*
X1259359Y-161182D01*
X1259590Y-161111D01*
X1259819Y-161033D01*
X1260046Y-160950D01*
X1260271Y-160862D01*
X1260494Y-160768D01*
X1260714Y-160669D01*
X1260932Y-160564D01*
X1261147Y-160455D01*
X1261360Y-160340D01*
X1261570Y-160220D01*
X1261776Y-160095D01*
X1261980Y-159965D01*
X1262181Y-159830D01*
X1262378Y-159690D01*
X1262572Y-159546D01*
X1262762Y-159397D01*
X1262948Y-159243D01*
X1263131Y-159085D01*
X1263310Y-158923D01*
X1263485Y-158756D01*
X1263656Y-158585D01*
X1263823Y-158410D01*
X1263985Y-158231D01*
X1264143Y-158048D01*
X1264297Y-157862D01*
X1264446Y-157672D01*
X1264590Y-157478D01*
X1264730Y-157281D01*
X1264865Y-157080D01*
X1264995Y-156876D01*
X1265120Y-156670D01*
X1265240Y-156460D01*
X1265355Y-156247D01*
X1265464Y-156032D01*
X1265569Y-155814D01*
X1265668Y-155594D01*
X1265762Y-155371D01*
X1265850Y-155146D01*
X1265933Y-154919D01*
X1266011Y-154690D01*
X1266082Y-154459D01*
X1266149Y-154227D01*
X1266209Y-153993D01*
X1266264Y-153758D01*
X1266314Y-153521D01*
X1266357Y-153284D01*
X1266395Y-153045D01*
X1266427Y-152805D01*
X1266453Y-152565D01*
X1266474Y-152324D01*
X1266488Y-152083D01*
X1266497Y-151842D01*
X1266500Y-151600D01*
X1256500Y-161600D02*
X1156500Y-161600D01*
X1156258Y-161597D01*
X1156017Y-161588D01*
X1155776Y-161574D01*
X1155535Y-161553D01*
X1155295Y-161527D01*
X1155055Y-161495D01*
X1154816Y-161457D01*
X1154579Y-161414D01*
X1154342Y-161364D01*
X1154107Y-161309D01*
X1153873Y-161249D01*
X1153641Y-161182D01*
X1153410Y-161111D01*
X1153181Y-161033D01*
X1152954Y-160950D01*
X1152729Y-160862D01*
X1152506Y-160768D01*
X1152286Y-160669D01*
X1152068Y-160564D01*
X1151853Y-160455D01*
X1151640Y-160340D01*
X1151430Y-160220D01*
X1151224Y-160095D01*
X1151020Y-159965D01*
X1150819Y-159830D01*
X1150622Y-159690D01*
X1150428Y-159546D01*
X1150238Y-159397D01*
X1150052Y-159243D01*
X1149869Y-159085D01*
X1149690Y-158923D01*
X1149515Y-158756D01*
X1149344Y-158585D01*
X1149177Y-158410D01*
X1149015Y-158231D01*
X1148857Y-158048D01*
X1148703Y-157862D01*
X1148554Y-157672D01*
X1148410Y-157478D01*
X1148270Y-157281D01*
X1148135Y-157080D01*
X1148005Y-156876D01*
X1147880Y-156670D01*
X1147760Y-156460D01*
X1147645Y-156247D01*
X1147536Y-156032D01*
X1147431Y-155814D01*
X1147332Y-155594D01*
X1147238Y-155371D01*
X1147150Y-155146D01*
X1147067Y-154919D01*
X1146989Y-154690D01*
X1146918Y-154459D01*
X1146851Y-154227D01*
X1146791Y-153993D01*
X1146736Y-153758D01*
X1146686Y-153521D01*
X1146643Y-153284D01*
X1146605Y-153045D01*
X1146573Y-152805D01*
X1146547Y-152565D01*
X1146526Y-152324D01*
X1146512Y-152083D01*
X1146503Y-151842D01*
X1146500Y-151600D01*
X1146500Y-51600D02*
X1146503Y-51358D01*
X1146512Y-51117D01*
X1146526Y-50876D01*
X1146547Y-50635D01*
X1146573Y-50395D01*
X1146605Y-50155D01*
X1146643Y-49916D01*
X1146686Y-49679D01*
X1146736Y-49442D01*
X1146791Y-49207D01*
X1146851Y-48973D01*
X1146918Y-48741D01*
X1146989Y-48510D01*
X1147067Y-48281D01*
X1147150Y-48054D01*
X1147238Y-47829D01*
X1147332Y-47606D01*
X1147431Y-47386D01*
X1147536Y-47168D01*
X1147645Y-46953D01*
X1147760Y-46740D01*
X1147880Y-46530D01*
X1148005Y-46324D01*
X1148135Y-46120D01*
X1148270Y-45919D01*
X1148410Y-45722D01*
X1148554Y-45528D01*
X1148703Y-45338D01*
X1148857Y-45152D01*
X1149015Y-44969D01*
X1149177Y-44790D01*
X1149344Y-44615D01*
X1149515Y-44444D01*
X1149690Y-44277D01*
X1149869Y-44115D01*
X1150052Y-43957D01*
X1150238Y-43803D01*
X1150428Y-43654D01*
X1150622Y-43510D01*
X1150819Y-43370D01*
X1151020Y-43235D01*
X1151224Y-43105D01*
X1151430Y-42980D01*
X1151640Y-42860D01*
X1151853Y-42745D01*
X1152068Y-42636D01*
X1152286Y-42531D01*
X1152506Y-42432D01*
X1152729Y-42338D01*
X1152954Y-42250D01*
X1153181Y-42167D01*
X1153410Y-42089D01*
X1153641Y-42018D01*
X1153873Y-41951D01*
X1154107Y-41891D01*
X1154342Y-41836D01*
X1154579Y-41786D01*
X1154816Y-41743D01*
X1155055Y-41705D01*
X1155295Y-41673D01*
X1155535Y-41647D01*
X1155776Y-41626D01*
X1156017Y-41612D01*
X1156258Y-41603D01*
X1156500Y-41600D01*
X1256500Y-41600D01*
X1256742Y-41603D01*
X1256983Y-41612D01*
X1257224Y-41626D01*
X1257465Y-41647D01*
X1257705Y-41673D01*
X1257945Y-41705D01*
X1258184Y-41743D01*
X1258421Y-41786D01*
X1258658Y-41836D01*
X1258893Y-41891D01*
X1259127Y-41951D01*
X1259359Y-42018D01*
X1259590Y-42089D01*
X1259819Y-42167D01*
X1260046Y-42250D01*
X1260271Y-42338D01*
X1260494Y-42432D01*
X1260714Y-42531D01*
X1260932Y-42636D01*
X1261147Y-42745D01*
X1261360Y-42860D01*
X1261570Y-42980D01*
X1261776Y-43105D01*
X1261980Y-43235D01*
X1262181Y-43370D01*
X1262378Y-43510D01*
X1262572Y-43654D01*
X1262762Y-43803D01*
X1262948Y-43957D01*
X1263131Y-44115D01*
X1263310Y-44277D01*
X1263485Y-44444D01*
X1263656Y-44615D01*
X1263823Y-44790D01*
X1263985Y-44969D01*
X1264143Y-45152D01*
X1264297Y-45338D01*
X1264446Y-45528D01*
X1264590Y-45722D01*
X1264730Y-45919D01*
X1264865Y-46120D01*
X1264995Y-46324D01*
X1265120Y-46530D01*
X1265240Y-46740D01*
X1265355Y-46953D01*
X1265464Y-47168D01*
X1265569Y-47386D01*
X1265668Y-47606D01*
X1265762Y-47829D01*
X1265850Y-48054D01*
X1265933Y-48281D01*
X1266011Y-48510D01*
X1266082Y-48741D01*
X1266149Y-48973D01*
X1266209Y-49207D01*
X1266264Y-49442D01*
X1266314Y-49679D01*
X1266357Y-49916D01*
X1266395Y-50155D01*
X1266427Y-50395D01*
X1266453Y-50635D01*
X1266474Y-50876D01*
X1266488Y-51117D01*
X1266497Y-51358D01*
X1266500Y-51600D01*
X1171145Y-101600D02*
X1171156Y-100732D01*
X1171188Y-99865D01*
X1171241Y-98999D01*
X1171315Y-98135D01*
X1171411Y-97272D01*
X1171528Y-96412D01*
X1171666Y-95556D01*
X1171824Y-94703D01*
X1172004Y-93854D01*
X1172205Y-93009D01*
X1172426Y-92170D01*
X1172667Y-91337D01*
X1172929Y-90510D01*
X1173212Y-89689D01*
X1173514Y-88876D01*
X1173836Y-88070D01*
X1174178Y-87273D01*
X1174539Y-86484D01*
X1174920Y-85704D01*
X1175320Y-84934D01*
X1175738Y-84174D01*
X1176175Y-83424D01*
X1176630Y-82685D01*
X1177103Y-81958D01*
X1177594Y-81242D01*
X1178103Y-80539D01*
X1178628Y-79848D01*
X1179170Y-79171D01*
X1179729Y-78507D01*
X1180304Y-77857D01*
X1180894Y-77221D01*
X1181500Y-76600D01*
X1182121Y-75994D01*
X1182757Y-75404D01*
X1183407Y-74829D01*
X1184071Y-74270D01*
X1184748Y-73728D01*
X1185439Y-73203D01*
X1186142Y-72694D01*
X1186858Y-72203D01*
X1187585Y-71730D01*
X1188324Y-71275D01*
X1189074Y-70838D01*
X1189834Y-70420D01*
X1190604Y-70020D01*
X1191384Y-69639D01*
X1192173Y-69278D01*
X1192970Y-68936D01*
X1193776Y-68614D01*
X1194589Y-68312D01*
X1195410Y-68029D01*
X1196237Y-67767D01*
X1197070Y-67526D01*
X1197909Y-67305D01*
X1198754Y-67104D01*
X1199603Y-66924D01*
X1200456Y-66766D01*
X1201312Y-66628D01*
X1202172Y-66511D01*
X1203035Y-66415D01*
X1203899Y-66341D01*
X1204765Y-66288D01*
X1205632Y-66256D01*
X1206500Y-66245D01*
X1207368Y-66256D01*
X1208235Y-66288D01*
X1209101Y-66341D01*
X1209965Y-66415D01*
X1210828Y-66511D01*
X1211688Y-66628D01*
X1212544Y-66766D01*
X1213397Y-66924D01*
X1214246Y-67104D01*
X1215091Y-67305D01*
X1215930Y-67526D01*
X1216763Y-67767D01*
X1217590Y-68029D01*
X1218411Y-68312D01*
X1219224Y-68614D01*
X1220030Y-68936D01*
X1220827Y-69278D01*
X1221616Y-69639D01*
X1222396Y-70020D01*
X1223166Y-70420D01*
X1223926Y-70838D01*
X1224676Y-71275D01*
X1225415Y-71730D01*
X1226142Y-72203D01*
X1226858Y-72694D01*
X1227561Y-73203D01*
X1228252Y-73728D01*
X1228929Y-74270D01*
X1229593Y-74829D01*
X1230243Y-75404D01*
X1230879Y-75994D01*
X1231500Y-76600D01*
X1232106Y-77221D01*
X1232696Y-77857D01*
X1233271Y-78507D01*
X1233830Y-79171D01*
X1234372Y-79848D01*
X1234897Y-80539D01*
X1235406Y-81242D01*
X1235897Y-81958D01*
X1236370Y-82685D01*
X1236825Y-83424D01*
X1237262Y-84174D01*
X1237680Y-84934D01*
X1238080Y-85704D01*
X1238461Y-86484D01*
X1238822Y-87273D01*
X1239164Y-88070D01*
X1239486Y-88876D01*
X1239788Y-89689D01*
X1240071Y-90510D01*
X1240333Y-91337D01*
X1240574Y-92170D01*
X1240795Y-93009D01*
X1240996Y-93854D01*
X1241176Y-94703D01*
X1241334Y-95556D01*
X1241472Y-96412D01*
X1241589Y-97272D01*
X1241685Y-98135D01*
X1241759Y-98999D01*
X1241812Y-99865D01*
X1241844Y-100732D01*
X1241855Y-101600D01*
X1241844Y-102468D01*
X1241812Y-103335D01*
X1241759Y-104201D01*
X1241685Y-105065D01*
X1241589Y-105928D01*
X1241472Y-106788D01*
X1241334Y-107644D01*
X1241176Y-108497D01*
X1240996Y-109346D01*
X1240795Y-110191D01*
X1240574Y-111030D01*
X1240333Y-111863D01*
X1240071Y-112690D01*
X1239788Y-113511D01*
X1239486Y-114324D01*
X1239164Y-115130D01*
X1238822Y-115927D01*
X1238461Y-116716D01*
X1238080Y-117496D01*
X1237680Y-118266D01*
X1237262Y-119026D01*
X1236825Y-119776D01*
X1236370Y-120515D01*
X1235897Y-121242D01*
X1235406Y-121958D01*
X1234897Y-122661D01*
X1234372Y-123352D01*
X1233830Y-124029D01*
X1233271Y-124693D01*
X1232696Y-125343D01*
X1232106Y-125979D01*
X1231500Y-126600D01*
X1230879Y-127206D01*
X1230243Y-127796D01*
X1229593Y-128371D01*
X1228929Y-128930D01*
X1228252Y-129472D01*
X1227561Y-129997D01*
X1226858Y-130506D01*
X1226142Y-130997D01*
X1225415Y-131470D01*
X1224676Y-131925D01*
X1223926Y-132362D01*
X1223166Y-132780D01*
X1222396Y-133180D01*
X1221616Y-133561D01*
X1220827Y-133922D01*
X1220030Y-134264D01*
X1219224Y-134586D01*
X1218411Y-134888D01*
X1217590Y-135171D01*
X1216763Y-135433D01*
X1215930Y-135674D01*
X1215091Y-135895D01*
X1214246Y-136096D01*
X1213397Y-136276D01*
X1212544Y-136434D01*
X1211688Y-136572D01*
X1210828Y-136689D01*
X1209965Y-136785D01*
X1209101Y-136859D01*
X1208235Y-136912D01*
X1207368Y-136944D01*
X1206500Y-136955D01*
X1205632Y-136944D01*
X1204765Y-136912D01*
X1203899Y-136859D01*
X1203035Y-136785D01*
X1202172Y-136689D01*
X1201312Y-136572D01*
X1200456Y-136434D01*
X1199603Y-136276D01*
X1198754Y-136096D01*
X1197909Y-135895D01*
X1197070Y-135674D01*
X1196237Y-135433D01*
X1195410Y-135171D01*
X1194589Y-134888D01*
X1193776Y-134586D01*
X1192970Y-134264D01*
X1192173Y-133922D01*
X1191384Y-133561D01*
X1190604Y-133180D01*
X1189834Y-132780D01*
X1189074Y-132362D01*
X1188324Y-131925D01*
X1187585Y-131470D01*
X1186858Y-130997D01*
X1186142Y-130506D01*
X1185439Y-129997D01*
X1184748Y-129472D01*
X1184071Y-128930D01*
X1183407Y-128371D01*
X1182757Y-127796D01*
X1182121Y-127206D01*
X1181500Y-126600D01*
X1180894Y-125979D01*
X1180304Y-125343D01*
X1179729Y-124693D01*
X1179170Y-124029D01*
X1178628Y-123352D01*
X1178103Y-122661D01*
X1177594Y-121958D01*
X1177103Y-121242D01*
X1176630Y-120515D01*
X1176175Y-119776D01*
X1175738Y-119026D01*
X1175320Y-118266D01*
X1174920Y-117496D01*
X1174539Y-116716D01*
X1174178Y-115927D01*
X1173836Y-115130D01*
X1173514Y-114324D01*
X1173212Y-113511D01*
X1172929Y-112690D01*
X1172667Y-111863D01*
X1172426Y-111030D01*
X1172205Y-110191D01*
X1172004Y-109346D01*
X1171824Y-108497D01*
X1171666Y-107644D01*
X1171528Y-106788D01*
X1171411Y-105928D01*
X1171315Y-105065D01*
X1171241Y-104201D01*
X1171188Y-103335D01*
X1171156Y-102468D01*
X1171145Y-101600D01*
X1186500Y-81600D02*
X1226500Y-81600D01*
X1226500Y-121600D01*
X1186500Y-121600D01*
X1186500Y-81600D01*
X1146500Y-64100D02*
X1146500Y-51600D01*
X1146500Y-89100D02*
X1146500Y-114100D01*
X1146500Y-139100D02*
X1146500Y-151600D01*
X1266500Y-64100D02*
X1266500Y-51600D01*
X1266500Y-89100D02*
X1266500Y-114100D01*
X1266500Y-139100D02*
X1266500Y-151600D01*
X1256500Y143200D02*
X1256742Y143203D01*
X1256983Y143212D01*
X1257224Y143226D01*
X1257465Y143247D01*
X1257705Y143273D01*
X1257945Y143305D01*
X1258184Y143343D01*
X1258421Y143386D01*
X1258658Y143436D01*
X1258893Y143491D01*
X1259127Y143551D01*
X1259359Y143618D01*
X1259590Y143689D01*
X1259819Y143767D01*
X1260046Y143850D01*
X1260271Y143938D01*
X1260494Y144032D01*
X1260714Y144131D01*
X1260932Y144236D01*
X1261147Y144345D01*
X1261360Y144460D01*
X1261570Y144580D01*
X1261776Y144705D01*
X1261980Y144835D01*
X1262181Y144970D01*
X1262378Y145110D01*
X1262572Y145254D01*
X1262762Y145403D01*
X1262948Y145557D01*
X1263131Y145715D01*
X1263310Y145877D01*
X1263485Y146044D01*
X1263656Y146215D01*
X1263823Y146390D01*
X1263985Y146569D01*
X1264143Y146752D01*
X1264297Y146938D01*
X1264446Y147128D01*
X1264590Y147322D01*
X1264730Y147519D01*
X1264865Y147720D01*
X1264995Y147924D01*
X1265120Y148130D01*
X1265240Y148340D01*
X1265355Y148553D01*
X1265464Y148768D01*
X1265569Y148986D01*
X1265668Y149206D01*
X1265762Y149429D01*
X1265850Y149654D01*
X1265933Y149881D01*
X1266011Y150110D01*
X1266082Y150341D01*
X1266149Y150573D01*
X1266209Y150807D01*
X1266264Y151042D01*
X1266314Y151279D01*
X1266357Y151516D01*
X1266395Y151755D01*
X1266427Y151995D01*
X1266453Y152235D01*
X1266474Y152476D01*
X1266488Y152717D01*
X1266497Y152958D01*
X1266500Y153200D01*
X1256500Y143200D02*
X1156500Y143200D01*
X1156258Y143203D01*
X1156017Y143212D01*
X1155776Y143226D01*
X1155535Y143247D01*
X1155295Y143273D01*
X1155055Y143305D01*
X1154816Y143343D01*
X1154579Y143386D01*
X1154342Y143436D01*
X1154107Y143491D01*
X1153873Y143551D01*
X1153641Y143618D01*
X1153410Y143689D01*
X1153181Y143767D01*
X1152954Y143850D01*
X1152729Y143938D01*
X1152506Y144032D01*
X1152286Y144131D01*
X1152068Y144236D01*
X1151853Y144345D01*
X1151640Y144460D01*
X1151430Y144580D01*
X1151224Y144705D01*
X1151020Y144835D01*
X1150819Y144970D01*
X1150622Y145110D01*
X1150428Y145254D01*
X1150238Y145403D01*
X1150052Y145557D01*
X1149869Y145715D01*
X1149690Y145877D01*
X1149515Y146044D01*
X1149344Y146215D01*
X1149177Y146390D01*
X1149015Y146569D01*
X1148857Y146752D01*
X1148703Y146938D01*
X1148554Y147128D01*
X1148410Y147322D01*
X1148270Y147519D01*
X1148135Y147720D01*
X1148005Y147924D01*
X1147880Y148130D01*
X1147760Y148340D01*
X1147645Y148553D01*
X1147536Y148768D01*
X1147431Y148986D01*
X1147332Y149206D01*
X1147238Y149429D01*
X1147150Y149654D01*
X1147067Y149881D01*
X1146989Y150110D01*
X1146918Y150341D01*
X1146851Y150573D01*
X1146791Y150807D01*
X1146736Y151042D01*
X1146686Y151279D01*
X1146643Y151516D01*
X1146605Y151755D01*
X1146573Y151995D01*
X1146547Y152235D01*
X1146526Y152476D01*
X1146512Y152717D01*
X1146503Y152958D01*
X1146500Y153200D01*
X1146500Y253200D02*
X1146503Y253442D01*
X1146512Y253683D01*
X1146526Y253924D01*
X1146547Y254165D01*
X1146573Y254405D01*
X1146605Y254645D01*
X1146643Y254884D01*
X1146686Y255121D01*
X1146736Y255358D01*
X1146791Y255593D01*
X1146851Y255827D01*
X1146918Y256059D01*
X1146989Y256290D01*
X1147067Y256519D01*
X1147150Y256746D01*
X1147238Y256971D01*
X1147332Y257194D01*
X1147431Y257414D01*
X1147536Y257632D01*
X1147645Y257847D01*
X1147760Y258060D01*
X1147880Y258270D01*
X1148005Y258476D01*
X1148135Y258680D01*
X1148270Y258881D01*
X1148410Y259078D01*
X1148554Y259272D01*
X1148703Y259462D01*
X1148857Y259648D01*
X1149015Y259831D01*
X1149177Y260010D01*
X1149344Y260185D01*
X1149515Y260356D01*
X1149690Y260523D01*
X1149869Y260685D01*
X1150052Y260843D01*
X1150238Y260997D01*
X1150428Y261146D01*
X1150622Y261290D01*
X1150819Y261430D01*
X1151020Y261565D01*
X1151224Y261695D01*
X1151430Y261820D01*
X1151640Y261940D01*
X1151853Y262055D01*
X1152068Y262164D01*
X1152286Y262269D01*
X1152506Y262368D01*
X1152729Y262462D01*
X1152954Y262550D01*
X1153181Y262633D01*
X1153410Y262711D01*
X1153641Y262782D01*
X1153873Y262849D01*
X1154107Y262909D01*
X1154342Y262964D01*
X1154579Y263014D01*
X1154816Y263057D01*
X1155055Y263095D01*
X1155295Y263127D01*
X1155535Y263153D01*
X1155776Y263174D01*
X1156017Y263188D01*
X1156258Y263197D01*
X1156500Y263200D01*
X1256500Y263200D01*
X1256742Y263197D01*
X1256983Y263188D01*
X1257224Y263174D01*
X1257465Y263153D01*
X1257705Y263127D01*
X1257945Y263095D01*
X1258184Y263057D01*
X1258421Y263014D01*
X1258658Y262964D01*
X1258893Y262909D01*
X1259127Y262849D01*
X1259359Y262782D01*
X1259590Y262711D01*
X1259819Y262633D01*
X1260046Y262550D01*
X1260271Y262462D01*
X1260494Y262368D01*
X1260714Y262269D01*
X1260932Y262164D01*
X1261147Y262055D01*
X1261360Y261940D01*
X1261570Y261820D01*
X1261776Y261695D01*
X1261980Y261565D01*
X1262181Y261430D01*
X1262378Y261290D01*
X1262572Y261146D01*
X1262762Y260997D01*
X1262948Y260843D01*
X1263131Y260685D01*
X1263310Y260523D01*
X1263485Y260356D01*
X1263656Y260185D01*
X1263823Y260010D01*
X1263985Y259831D01*
X1264143Y259648D01*
X1264297Y259462D01*
X1264446Y259272D01*
X1264590Y259078D01*
X1264730Y258881D01*
X1264865Y258680D01*
X1264995Y258476D01*
X1265120Y258270D01*
X1265240Y258060D01*
X1265355Y257847D01*
X1265464Y257632D01*
X1265569Y257414D01*
X1265668Y257194D01*
X1265762Y256971D01*
X1265850Y256746D01*
X1265933Y256519D01*
X1266011Y256290D01*
X1266082Y256059D01*
X1266149Y255827D01*
X1266209Y255593D01*
X1266264Y255358D01*
X1266314Y255121D01*
X1266357Y254884D01*
X1266395Y254645D01*
X1266427Y254405D01*
X1266453Y254165D01*
X1266474Y253924D01*
X1266488Y253683D01*
X1266497Y253442D01*
X1266500Y253200D01*
X1171145Y203200D02*
X1171156Y204068D01*
X1171188Y204935D01*
X1171241Y205801D01*
X1171315Y206665D01*
X1171411Y207528D01*
X1171528Y208388D01*
X1171666Y209244D01*
X1171824Y210097D01*
X1172004Y210946D01*
X1172205Y211791D01*
X1172426Y212630D01*
X1172667Y213463D01*
X1172929Y214290D01*
X1173212Y215111D01*
X1173514Y215924D01*
X1173836Y216730D01*
X1174178Y217527D01*
X1174539Y218316D01*
X1174920Y219096D01*
X1175320Y219866D01*
X1175738Y220626D01*
X1176175Y221376D01*
X1176630Y222115D01*
X1177103Y222842D01*
X1177594Y223558D01*
X1178103Y224261D01*
X1178628Y224952D01*
X1179170Y225629D01*
X1179729Y226293D01*
X1180304Y226943D01*
X1180894Y227579D01*
X1181500Y228200D01*
X1182121Y228806D01*
X1182757Y229396D01*
X1183407Y229971D01*
X1184071Y230530D01*
X1184748Y231072D01*
X1185439Y231597D01*
X1186142Y232106D01*
X1186858Y232597D01*
X1187585Y233070D01*
X1188324Y233525D01*
X1189074Y233962D01*
X1189834Y234380D01*
X1190604Y234780D01*
X1191384Y235161D01*
X1192173Y235522D01*
X1192970Y235864D01*
X1193776Y236186D01*
X1194589Y236488D01*
X1195410Y236771D01*
X1196237Y237033D01*
X1197070Y237274D01*
X1197909Y237495D01*
X1198754Y237696D01*
X1199603Y237876D01*
X1200456Y238034D01*
X1201312Y238172D01*
X1202172Y238289D01*
X1203035Y238385D01*
X1203899Y238459D01*
X1204765Y238512D01*
X1205632Y238544D01*
X1206500Y238555D01*
X1207368Y238544D01*
X1208235Y238512D01*
X1209101Y238459D01*
X1209965Y238385D01*
X1210828Y238289D01*
X1211688Y238172D01*
X1212544Y238034D01*
X1213397Y237876D01*
X1214246Y237696D01*
X1215091Y237495D01*
X1215930Y237274D01*
X1216763Y237033D01*
X1217590Y236771D01*
X1218411Y236488D01*
X1219224Y236186D01*
X1220030Y235864D01*
X1220827Y235522D01*
X1221616Y235161D01*
X1222396Y234780D01*
X1223166Y234380D01*
X1223926Y233962D01*
X1224676Y233525D01*
X1225415Y233070D01*
X1226142Y232597D01*
X1226858Y232106D01*
X1227561Y231597D01*
X1228252Y231072D01*
X1228929Y230530D01*
X1229593Y229971D01*
X1230243Y229396D01*
X1230879Y228806D01*
X1231500Y228200D01*
X1232106Y227579D01*
X1232696Y226943D01*
X1233271Y226293D01*
X1233830Y225629D01*
X1234372Y224952D01*
X1234897Y224261D01*
X1235406Y223558D01*
X1235897Y222842D01*
X1236370Y222115D01*
X1236825Y221376D01*
X1237262Y220626D01*
X1237680Y219866D01*
X1238080Y219096D01*
X1238461Y218316D01*
X1238822Y217527D01*
X1239164Y216730D01*
X1239486Y215924D01*
X1239788Y215111D01*
X1240071Y214290D01*
X1240333Y213463D01*
X1240574Y212630D01*
X1240795Y211791D01*
X1240996Y210946D01*
X1241176Y210097D01*
X1241334Y209244D01*
X1241472Y208388D01*
X1241589Y207528D01*
X1241685Y206665D01*
X1241759Y205801D01*
X1241812Y204935D01*
X1241844Y204068D01*
X1241855Y203200D01*
X1241844Y202332D01*
X1241812Y201465D01*
X1241759Y200599D01*
X1241685Y199735D01*
X1241589Y198872D01*
X1241472Y198012D01*
X1241334Y197156D01*
X1241176Y196303D01*
X1240996Y195454D01*
X1240795Y194609D01*
X1240574Y193770D01*
X1240333Y192937D01*
X1240071Y192110D01*
X1239788Y191289D01*
X1239486Y190476D01*
X1239164Y189670D01*
X1238822Y188873D01*
X1238461Y188084D01*
X1238080Y187304D01*
X1237680Y186534D01*
X1237262Y185774D01*
X1236825Y185024D01*
X1236370Y184285D01*
X1235897Y183558D01*
X1235406Y182842D01*
X1234897Y182139D01*
X1234372Y181448D01*
X1233830Y180771D01*
X1233271Y180107D01*
X1232696Y179457D01*
X1232106Y178821D01*
X1231500Y178200D01*
X1230879Y177594D01*
X1230243Y177004D01*
X1229593Y176429D01*
X1228929Y175870D01*
X1228252Y175328D01*
X1227561Y174803D01*
X1226858Y174294D01*
X1226142Y173803D01*
X1225415Y173330D01*
X1224676Y172875D01*
X1223926Y172438D01*
X1223166Y172020D01*
X1222396Y171620D01*
X1221616Y171239D01*
X1220827Y170878D01*
X1220030Y170536D01*
X1219224Y170214D01*
X1218411Y169912D01*
X1217590Y169629D01*
X1216763Y169367D01*
X1215930Y169126D01*
X1215091Y168905D01*
X1214246Y168704D01*
X1213397Y168524D01*
X1212544Y168366D01*
X1211688Y168228D01*
X1210828Y168111D01*
X1209965Y168015D01*
X1209101Y167941D01*
X1208235Y167888D01*
X1207368Y167856D01*
X1206500Y167845D01*
X1205632Y167856D01*
X1204765Y167888D01*
X1203899Y167941D01*
X1203035Y168015D01*
X1202172Y168111D01*
X1201312Y168228D01*
X1200456Y168366D01*
X1199603Y168524D01*
X1198754Y168704D01*
X1197909Y168905D01*
X1197070Y169126D01*
X1196237Y169367D01*
X1195410Y169629D01*
X1194589Y169912D01*
X1193776Y170214D01*
X1192970Y170536D01*
X1192173Y170878D01*
X1191384Y171239D01*
X1190604Y171620D01*
X1189834Y172020D01*
X1189074Y172438D01*
X1188324Y172875D01*
X1187585Y173330D01*
X1186858Y173803D01*
X1186142Y174294D01*
X1185439Y174803D01*
X1184748Y175328D01*
X1184071Y175870D01*
X1183407Y176429D01*
X1182757Y177004D01*
X1182121Y177594D01*
X1181500Y178200D01*
X1180894Y178821D01*
X1180304Y179457D01*
X1179729Y180107D01*
X1179170Y180771D01*
X1178628Y181448D01*
X1178103Y182139D01*
X1177594Y182842D01*
X1177103Y183558D01*
X1176630Y184285D01*
X1176175Y185024D01*
X1175738Y185774D01*
X1175320Y186534D01*
X1174920Y187304D01*
X1174539Y188084D01*
X1174178Y188873D01*
X1173836Y189670D01*
X1173514Y190476D01*
X1173212Y191289D01*
X1172929Y192110D01*
X1172667Y192937D01*
X1172426Y193770D01*
X1172205Y194609D01*
X1172004Y195454D01*
X1171824Y196303D01*
X1171666Y197156D01*
X1171528Y198012D01*
X1171411Y198872D01*
X1171315Y199735D01*
X1171241Y200599D01*
X1171188Y201465D01*
X1171156Y202332D01*
X1171145Y203200D01*
X1186500Y223200D02*
X1226500Y223200D01*
X1226500Y183200D01*
X1186500Y183200D01*
X1186500Y223200D01*
X1146500Y240700D02*
X1146500Y253200D01*
X1146500Y215700D02*
X1146500Y190700D01*
X1146500Y165700D02*
X1146500Y153200D01*
X1266500Y240700D02*
X1266500Y253200D01*
X1266500Y215700D02*
X1266500Y190700D01*
X1266500Y165700D02*
X1266500Y153200D01*
X1266500Y-11900D02*
X1266497Y-12142D01*
X1266488Y-12383D01*
X1266474Y-12624D01*
X1266453Y-12865D01*
X1266427Y-13105D01*
X1266395Y-13345D01*
X1266357Y-13584D01*
X1266314Y-13821D01*
X1266264Y-14058D01*
X1266209Y-14293D01*
X1266149Y-14527D01*
X1266082Y-14759D01*
X1266011Y-14990D01*
X1265933Y-15219D01*
X1265850Y-15446D01*
X1265762Y-15671D01*
X1265668Y-15894D01*
X1265569Y-16114D01*
X1265464Y-16332D01*
X1265355Y-16547D01*
X1265240Y-16760D01*
X1265120Y-16970D01*
X1264995Y-17176D01*
X1264865Y-17380D01*
X1264730Y-17581D01*
X1264590Y-17778D01*
X1264446Y-17972D01*
X1264297Y-18162D01*
X1264143Y-18348D01*
X1263985Y-18531D01*
X1263823Y-18710D01*
X1263656Y-18885D01*
X1263485Y-19056D01*
X1263310Y-19223D01*
X1263131Y-19385D01*
X1262948Y-19543D01*
X1262762Y-19697D01*
X1262572Y-19846D01*
X1262378Y-19990D01*
X1262181Y-20130D01*
X1261980Y-20265D01*
X1261776Y-20395D01*
X1261570Y-20520D01*
X1261360Y-20640D01*
X1261147Y-20755D01*
X1260932Y-20864D01*
X1260714Y-20969D01*
X1260494Y-21068D01*
X1260271Y-21162D01*
X1260046Y-21250D01*
X1259819Y-21333D01*
X1259590Y-21411D01*
X1259359Y-21482D01*
X1259127Y-21549D01*
X1258893Y-21609D01*
X1258658Y-21664D01*
X1258421Y-21714D01*
X1258184Y-21757D01*
X1257945Y-21795D01*
X1257705Y-21827D01*
X1257465Y-21853D01*
X1257224Y-21874D01*
X1256983Y-21888D01*
X1256742Y-21897D01*
X1256500Y-21900D01*
X1156500Y-21900D01*
X1156258Y-21897D01*
X1156017Y-21888D01*
X1155776Y-21874D01*
X1155535Y-21853D01*
X1155295Y-21827D01*
X1155055Y-21795D01*
X1154816Y-21757D01*
X1154579Y-21714D01*
X1154342Y-21664D01*
X1154107Y-21609D01*
X1153873Y-21549D01*
X1153641Y-21482D01*
X1153410Y-21411D01*
X1153181Y-21333D01*
X1152954Y-21250D01*
X1152729Y-21162D01*
X1152506Y-21068D01*
X1152286Y-20969D01*
X1152068Y-20864D01*
X1151853Y-20755D01*
X1151640Y-20640D01*
X1151430Y-20520D01*
X1151224Y-20395D01*
X1151020Y-20265D01*
X1150819Y-20130D01*
X1150622Y-19990D01*
X1150428Y-19846D01*
X1150238Y-19697D01*
X1150052Y-19543D01*
X1149869Y-19385D01*
X1149690Y-19223D01*
X1149515Y-19056D01*
X1149344Y-18885D01*
X1149177Y-18710D01*
X1149015Y-18531D01*
X1148857Y-18348D01*
X1148703Y-18162D01*
X1148554Y-17972D01*
X1148410Y-17778D01*
X1148270Y-17581D01*
X1148135Y-17380D01*
X1148005Y-17176D01*
X1147880Y-16970D01*
X1147760Y-16760D01*
X1147645Y-16547D01*
X1147536Y-16332D01*
X1147431Y-16114D01*
X1147332Y-15894D01*
X1147238Y-15671D01*
X1147150Y-15446D01*
X1147067Y-15219D01*
X1146989Y-14990D01*
X1146918Y-14759D01*
X1146851Y-14527D01*
X1146791Y-14293D01*
X1146736Y-14058D01*
X1146686Y-13821D01*
X1146643Y-13584D01*
X1146605Y-13345D01*
X1146573Y-13105D01*
X1146547Y-12865D01*
X1146526Y-12624D01*
X1146512Y-12383D01*
X1146503Y-12142D01*
X1146500Y-11900D01*
X1146500Y88100D02*
X1146503Y88342D01*
X1146512Y88583D01*
X1146526Y88824D01*
X1146547Y89065D01*
X1146573Y89305D01*
X1146605Y89545D01*
X1146643Y89784D01*
X1146686Y90021D01*
X1146736Y90258D01*
X1146791Y90493D01*
X1146851Y90727D01*
X1146918Y90959D01*
X1146989Y91190D01*
X1147067Y91419D01*
X1147150Y91646D01*
X1147238Y91871D01*
X1147332Y92094D01*
X1147431Y92314D01*
X1147536Y92532D01*
X1147645Y92747D01*
X1147760Y92960D01*
X1147880Y93170D01*
X1148005Y93376D01*
X1148135Y93580D01*
X1148270Y93781D01*
X1148410Y93978D01*
X1148554Y94172D01*
X1148703Y94362D01*
X1148857Y94548D01*
X1149015Y94731D01*
X1149177Y94910D01*
X1149344Y95085D01*
X1149515Y95256D01*
X1149690Y95423D01*
X1149869Y95585D01*
X1150052Y95743D01*
X1150238Y95897D01*
X1150428Y96046D01*
X1150622Y96190D01*
X1150819Y96330D01*
X1151020Y96465D01*
X1151224Y96595D01*
X1151430Y96720D01*
X1151640Y96840D01*
X1151853Y96955D01*
X1152068Y97064D01*
X1152286Y97169D01*
X1152506Y97268D01*
X1152729Y97362D01*
X1152954Y97450D01*
X1153181Y97533D01*
X1153410Y97611D01*
X1153641Y97682D01*
X1153873Y97749D01*
X1154107Y97809D01*
X1154342Y97864D01*
X1154579Y97914D01*
X1154816Y97957D01*
X1155055Y97995D01*
X1155295Y98027D01*
X1155535Y98053D01*
X1155776Y98074D01*
X1156017Y98088D01*
X1156258Y98097D01*
X1156500Y98100D01*
X1256500Y98100D01*
X1256742Y98097D01*
X1256983Y98088D01*
X1257224Y98074D01*
X1257465Y98053D01*
X1257705Y98027D01*
X1257945Y97995D01*
X1258184Y97957D01*
X1258421Y97914D01*
X1258658Y97864D01*
X1258893Y97809D01*
X1259127Y97749D01*
X1259359Y97682D01*
X1259590Y97611D01*
X1259819Y97533D01*
X1260046Y97450D01*
X1260271Y97362D01*
X1260494Y97268D01*
X1260714Y97169D01*
X1260932Y97064D01*
X1261147Y96955D01*
X1261360Y96840D01*
X1261570Y96720D01*
X1261776Y96595D01*
X1261980Y96465D01*
X1262181Y96330D01*
X1262378Y96190D01*
X1262572Y96046D01*
X1262762Y95897D01*
X1262948Y95743D01*
X1263131Y95585D01*
X1263310Y95423D01*
X1263485Y95256D01*
X1263656Y95085D01*
X1263823Y94910D01*
X1263985Y94731D01*
X1264143Y94548D01*
X1264297Y94362D01*
X1264446Y94172D01*
X1264590Y93978D01*
X1264730Y93781D01*
X1264865Y93580D01*
X1264995Y93376D01*
X1265120Y93170D01*
X1265240Y92960D01*
X1265355Y92747D01*
X1265464Y92532D01*
X1265569Y92314D01*
X1265668Y92094D01*
X1265762Y91871D01*
X1265850Y91646D01*
X1265933Y91419D01*
X1266011Y91190D01*
X1266082Y90959D01*
X1266149Y90727D01*
X1266209Y90493D01*
X1266264Y90258D01*
X1266314Y90021D01*
X1266357Y89784D01*
X1266395Y89545D01*
X1266427Y89305D01*
X1266453Y89065D01*
X1266474Y88824D01*
X1266488Y88583D01*
X1266497Y88342D01*
X1266500Y88100D01*
X1171145Y38100D02*
X1171156Y38968D01*
X1171188Y39835D01*
X1171241Y40701D01*
X1171315Y41565D01*
X1171411Y42428D01*
X1171528Y43288D01*
X1171666Y44144D01*
X1171824Y44997D01*
X1172004Y45846D01*
X1172205Y46691D01*
X1172426Y47530D01*
X1172667Y48363D01*
X1172929Y49190D01*
X1173212Y50011D01*
X1173514Y50824D01*
X1173836Y51630D01*
X1174178Y52427D01*
X1174539Y53216D01*
X1174920Y53996D01*
X1175320Y54766D01*
X1175738Y55526D01*
X1176175Y56276D01*
X1176630Y57015D01*
X1177103Y57742D01*
X1177594Y58458D01*
X1178103Y59161D01*
X1178628Y59852D01*
X1179170Y60529D01*
X1179729Y61193D01*
X1180304Y61843D01*
X1180894Y62479D01*
X1181500Y63100D01*
X1182121Y63706D01*
X1182757Y64296D01*
X1183407Y64871D01*
X1184071Y65430D01*
X1184748Y65972D01*
X1185439Y66497D01*
X1186142Y67006D01*
X1186858Y67497D01*
X1187585Y67970D01*
X1188324Y68425D01*
X1189074Y68862D01*
X1189834Y69280D01*
X1190604Y69680D01*
X1191384Y70061D01*
X1192173Y70422D01*
X1192970Y70764D01*
X1193776Y71086D01*
X1194589Y71388D01*
X1195410Y71671D01*
X1196237Y71933D01*
X1197070Y72174D01*
X1197909Y72395D01*
X1198754Y72596D01*
X1199603Y72776D01*
X1200456Y72934D01*
X1201312Y73072D01*
X1202172Y73189D01*
X1203035Y73285D01*
X1203899Y73359D01*
X1204765Y73412D01*
X1205632Y73444D01*
X1206500Y73455D01*
X1207368Y73444D01*
X1208235Y73412D01*
X1209101Y73359D01*
X1209965Y73285D01*
X1210828Y73189D01*
X1211688Y73072D01*
X1212544Y72934D01*
X1213397Y72776D01*
X1214246Y72596D01*
X1215091Y72395D01*
X1215930Y72174D01*
X1216763Y71933D01*
X1217590Y71671D01*
X1218411Y71388D01*
X1219224Y71086D01*
X1220030Y70764D01*
X1220827Y70422D01*
X1221616Y70061D01*
X1222396Y69680D01*
X1223166Y69280D01*
X1223926Y68862D01*
X1224676Y68425D01*
X1225415Y67970D01*
X1226142Y67497D01*
X1226858Y67006D01*
X1227561Y66497D01*
X1228252Y65972D01*
X1228929Y65430D01*
X1229593Y64871D01*
X1230243Y64296D01*
X1230879Y63706D01*
X1231500Y63100D01*
X1232106Y62479D01*
X1232696Y61843D01*
X1233271Y61193D01*
X1233830Y60529D01*
X1234372Y59852D01*
X1234897Y59161D01*
X1235406Y58458D01*
X1235897Y57742D01*
X1236370Y57015D01*
X1236825Y56276D01*
X1237262Y55526D01*
X1237680Y54766D01*
X1238080Y53996D01*
X1238461Y53216D01*
X1238822Y52427D01*
X1239164Y51630D01*
X1239486Y50824D01*
X1239788Y50011D01*
X1240071Y49190D01*
X1240333Y48363D01*
X1240574Y47530D01*
X1240795Y46691D01*
X1240996Y45846D01*
X1241176Y44997D01*
X1241334Y44144D01*
X1241472Y43288D01*
X1241589Y42428D01*
X1241685Y41565D01*
X1241759Y40701D01*
X1241812Y39835D01*
X1241844Y38968D01*
X1241855Y38100D01*
X1241844Y37232D01*
X1241812Y36365D01*
X1241759Y35499D01*
X1241685Y34635D01*
X1241589Y33772D01*
X1241472Y32912D01*
X1241334Y32056D01*
X1241176Y31203D01*
X1240996Y30354D01*
X1240795Y29509D01*
X1240574Y28670D01*
X1240333Y27837D01*
X1240071Y27010D01*
X1239788Y26189D01*
X1239486Y25376D01*
X1239164Y24570D01*
X1238822Y23773D01*
X1238461Y22984D01*
X1238080Y22204D01*
X1237680Y21434D01*
X1237262Y20674D01*
X1236825Y19924D01*
X1236370Y19185D01*
X1235897Y18458D01*
X1235406Y17742D01*
X1234897Y17039D01*
X1234372Y16348D01*
X1233830Y15671D01*
X1233271Y15007D01*
X1232696Y14357D01*
X1232106Y13721D01*
X1231500Y13100D01*
X1230879Y12494D01*
X1230243Y11904D01*
X1229593Y11329D01*
X1228929Y10770D01*
X1228252Y10228D01*
X1227561Y9703D01*
X1226858Y9194D01*
X1226142Y8703D01*
X1225415Y8230D01*
X1224676Y7775D01*
X1223926Y7338D01*
X1223166Y6920D01*
X1222396Y6520D01*
X1221616Y6139D01*
X1220827Y5778D01*
X1220030Y5436D01*
X1219224Y5114D01*
X1218411Y4812D01*
X1217590Y4529D01*
X1216763Y4267D01*
X1215930Y4026D01*
X1215091Y3805D01*
X1214246Y3604D01*
X1213397Y3424D01*
X1212544Y3266D01*
X1211688Y3128D01*
X1210828Y3011D01*
X1209965Y2915D01*
X1209101Y2841D01*
X1208235Y2788D01*
X1207368Y2756D01*
X1206500Y2745D01*
X1205632Y2756D01*
X1204765Y2788D01*
X1203899Y2841D01*
X1203035Y2915D01*
X1202172Y3011D01*
X1201312Y3128D01*
X1200456Y3266D01*
X1199603Y3424D01*
X1198754Y3604D01*
X1197909Y3805D01*
X1197070Y4026D01*
X1196237Y4267D01*
X1195410Y4529D01*
X1194589Y4812D01*
X1193776Y5114D01*
X1192970Y5436D01*
X1192173Y5778D01*
X1191384Y6139D01*
X1190604Y6520D01*
X1189834Y6920D01*
X1189074Y7338D01*
X1188324Y7775D01*
X1187585Y8230D01*
X1186858Y8703D01*
X1186142Y9194D01*
X1185439Y9703D01*
X1184748Y10228D01*
X1184071Y10770D01*
X1183407Y11329D01*
X1182757Y11904D01*
X1182121Y12494D01*
X1181500Y13100D01*
X1180894Y13721D01*
X1180304Y14357D01*
X1179729Y15007D01*
X1179170Y15671D01*
X1178628Y16348D01*
X1178103Y17039D01*
X1177594Y17742D01*
X1177103Y18458D01*
X1176630Y19185D01*
X1176175Y19924D01*
X1175738Y20674D01*
X1175320Y21434D01*
X1174920Y22204D01*
X1174539Y22984D01*
X1174178Y23773D01*
X1173836Y24570D01*
X1173514Y25376D01*
X1173212Y26189D01*
X1172929Y27010D01*
X1172667Y27837D01*
X1172426Y28670D01*
X1172205Y29509D01*
X1172004Y30354D01*
X1171824Y31203D01*
X1171666Y32056D01*
X1171528Y32912D01*
X1171411Y33772D01*
X1171315Y34635D01*
X1171241Y35499D01*
X1171188Y36365D01*
X1171156Y37232D01*
X1171145Y38100D01*
X1186500Y58100D02*
X1226500Y58100D01*
X1226500Y18100D01*
X1186500Y18100D01*
X1186500Y58100D01*
X1146500Y75600D02*
X1146500Y88100D01*
X1146500Y50600D02*
X1146500Y25600D01*
X1146500Y600D02*
X1146500Y-11900D01*
X1266500Y75600D02*
X1266500Y88100D01*
X1266500Y50600D02*
X1266500Y25600D01*
X1266500Y600D02*
X1266500Y-11900D01*
X402900Y-113500D02*
X402897Y-113742D01*
X402888Y-113983D01*
X402874Y-114224D01*
X402853Y-114465D01*
X402827Y-114705D01*
X402795Y-114945D01*
X402757Y-115184D01*
X402714Y-115421D01*
X402664Y-115658D01*
X402609Y-115893D01*
X402549Y-116127D01*
X402482Y-116359D01*
X402411Y-116590D01*
X402333Y-116819D01*
X402250Y-117046D01*
X402162Y-117271D01*
X402068Y-117494D01*
X401969Y-117714D01*
X401864Y-117932D01*
X401755Y-118147D01*
X401640Y-118360D01*
X401520Y-118570D01*
X401395Y-118776D01*
X401265Y-118980D01*
X401130Y-119181D01*
X400990Y-119378D01*
X400846Y-119572D01*
X400697Y-119762D01*
X400543Y-119948D01*
X400385Y-120131D01*
X400223Y-120310D01*
X400056Y-120485D01*
X399885Y-120656D01*
X399710Y-120823D01*
X399531Y-120985D01*
X399348Y-121143D01*
X399162Y-121297D01*
X398972Y-121446D01*
X398778Y-121590D01*
X398581Y-121730D01*
X398380Y-121865D01*
X398176Y-121995D01*
X397970Y-122120D01*
X397760Y-122240D01*
X397547Y-122355D01*
X397332Y-122464D01*
X397114Y-122569D01*
X396894Y-122668D01*
X396671Y-122762D01*
X396446Y-122850D01*
X396219Y-122933D01*
X395990Y-123011D01*
X395759Y-123082D01*
X395527Y-123149D01*
X395293Y-123209D01*
X395058Y-123264D01*
X394821Y-123314D01*
X394584Y-123357D01*
X394345Y-123395D01*
X394105Y-123427D01*
X393865Y-123453D01*
X393624Y-123474D01*
X393383Y-123488D01*
X393142Y-123497D01*
X392900Y-123500D01*
X292900Y-123500D01*
X292658Y-123497D01*
X292417Y-123488D01*
X292176Y-123474D01*
X291935Y-123453D01*
X291695Y-123427D01*
X291455Y-123395D01*
X291216Y-123357D01*
X290979Y-123314D01*
X290742Y-123264D01*
X290507Y-123209D01*
X290273Y-123149D01*
X290041Y-123082D01*
X289810Y-123011D01*
X289581Y-122933D01*
X289354Y-122850D01*
X289129Y-122762D01*
X288906Y-122668D01*
X288686Y-122569D01*
X288468Y-122464D01*
X288253Y-122355D01*
X288040Y-122240D01*
X287830Y-122120D01*
X287624Y-121995D01*
X287420Y-121865D01*
X287219Y-121730D01*
X287022Y-121590D01*
X286828Y-121446D01*
X286638Y-121297D01*
X286452Y-121143D01*
X286269Y-120985D01*
X286090Y-120823D01*
X285915Y-120656D01*
X285744Y-120485D01*
X285577Y-120310D01*
X285415Y-120131D01*
X285257Y-119948D01*
X285103Y-119762D01*
X284954Y-119572D01*
X284810Y-119378D01*
X284670Y-119181D01*
X284535Y-118980D01*
X284405Y-118776D01*
X284280Y-118570D01*
X284160Y-118360D01*
X284045Y-118147D01*
X283936Y-117932D01*
X283831Y-117714D01*
X283732Y-117494D01*
X283638Y-117271D01*
X283550Y-117046D01*
X283467Y-116819D01*
X283389Y-116590D01*
X283318Y-116359D01*
X283251Y-116127D01*
X283191Y-115893D01*
X283136Y-115658D01*
X283086Y-115421D01*
X283043Y-115184D01*
X283005Y-114945D01*
X282973Y-114705D01*
X282947Y-114465D01*
X282926Y-114224D01*
X282912Y-113983D01*
X282903Y-113742D01*
X282900Y-113500D01*
X282900Y-13500D02*
X282903Y-13258D01*
X282912Y-13017D01*
X282926Y-12776D01*
X282947Y-12535D01*
X282973Y-12295D01*
X283005Y-12055D01*
X283043Y-11816D01*
X283086Y-11579D01*
X283136Y-11342D01*
X283191Y-11107D01*
X283251Y-10873D01*
X283318Y-10641D01*
X283389Y-10410D01*
X283467Y-10181D01*
X283550Y-9954D01*
X283638Y-9729D01*
X283732Y-9506D01*
X283831Y-9286D01*
X283936Y-9068D01*
X284045Y-8853D01*
X284160Y-8640D01*
X284280Y-8430D01*
X284405Y-8224D01*
X284535Y-8020D01*
X284670Y-7819D01*
X284810Y-7622D01*
X284954Y-7428D01*
X285103Y-7238D01*
X285257Y-7052D01*
X285415Y-6869D01*
X285577Y-6690D01*
X285744Y-6515D01*
X285915Y-6344D01*
X286090Y-6177D01*
X286269Y-6015D01*
X286452Y-5857D01*
X286638Y-5703D01*
X286828Y-5554D01*
X287022Y-5410D01*
X287219Y-5270D01*
X287420Y-5135D01*
X287624Y-5005D01*
X287830Y-4880D01*
X288040Y-4760D01*
X288253Y-4645D01*
X288468Y-4536D01*
X288686Y-4431D01*
X288906Y-4332D01*
X289129Y-4238D01*
X289354Y-4150D01*
X289581Y-4067D01*
X289810Y-3989D01*
X290041Y-3918D01*
X290273Y-3851D01*
X290507Y-3791D01*
X290742Y-3736D01*
X290979Y-3686D01*
X291216Y-3643D01*
X291455Y-3605D01*
X291695Y-3573D01*
X291935Y-3547D01*
X292176Y-3526D01*
X292417Y-3512D01*
X292658Y-3503D01*
X292900Y-3500D01*
X392900Y-3500D01*
X393142Y-3503D01*
X393383Y-3512D01*
X393624Y-3526D01*
X393865Y-3547D01*
X394105Y-3573D01*
X394345Y-3605D01*
X394584Y-3643D01*
X394821Y-3686D01*
X395058Y-3736D01*
X395293Y-3791D01*
X395527Y-3851D01*
X395759Y-3918D01*
X395990Y-3989D01*
X396219Y-4067D01*
X396446Y-4150D01*
X396671Y-4238D01*
X396894Y-4332D01*
X397114Y-4431D01*
X397332Y-4536D01*
X397547Y-4645D01*
X397760Y-4760D01*
X397970Y-4880D01*
X398176Y-5005D01*
X398380Y-5135D01*
X398581Y-5270D01*
X398778Y-5410D01*
X398972Y-5554D01*
X399162Y-5703D01*
X399348Y-5857D01*
X399531Y-6015D01*
X399710Y-6177D01*
X399885Y-6344D01*
X400056Y-6515D01*
X400223Y-6690D01*
X400385Y-6869D01*
X400543Y-7052D01*
X400697Y-7238D01*
X400846Y-7428D01*
X400990Y-7622D01*
X401130Y-7819D01*
X401265Y-8020D01*
X401395Y-8224D01*
X401520Y-8430D01*
X401640Y-8640D01*
X401755Y-8853D01*
X401864Y-9068D01*
X401969Y-9286D01*
X402068Y-9506D01*
X402162Y-9729D01*
X402250Y-9954D01*
X402333Y-10181D01*
X402411Y-10410D01*
X402482Y-10641D01*
X402549Y-10873D01*
X402609Y-11107D01*
X402664Y-11342D01*
X402714Y-11579D01*
X402757Y-11816D01*
X402795Y-12055D01*
X402827Y-12295D01*
X402853Y-12535D01*
X402874Y-12776D01*
X402888Y-13017D01*
X402897Y-13258D01*
X402900Y-13500D01*
X307545Y-63500D02*
X307556Y-62632D01*
X307588Y-61765D01*
X307641Y-60899D01*
X307715Y-60035D01*
X307811Y-59172D01*
X307928Y-58312D01*
X308066Y-57456D01*
X308224Y-56603D01*
X308404Y-55754D01*
X308605Y-54909D01*
X308826Y-54070D01*
X309067Y-53237D01*
X309329Y-52410D01*
X309612Y-51589D01*
X309914Y-50776D01*
X310236Y-49970D01*
X310578Y-49173D01*
X310939Y-48384D01*
X311320Y-47604D01*
X311720Y-46834D01*
X312138Y-46074D01*
X312575Y-45324D01*
X313030Y-44585D01*
X313503Y-43858D01*
X313994Y-43142D01*
X314503Y-42439D01*
X315028Y-41748D01*
X315570Y-41071D01*
X316129Y-40407D01*
X316704Y-39757D01*
X317294Y-39121D01*
X317900Y-38500D01*
X318521Y-37894D01*
X319157Y-37304D01*
X319807Y-36729D01*
X320471Y-36170D01*
X321148Y-35628D01*
X321839Y-35103D01*
X322542Y-34594D01*
X323258Y-34103D01*
X323985Y-33630D01*
X324724Y-33175D01*
X325474Y-32738D01*
X326234Y-32320D01*
X327004Y-31920D01*
X327784Y-31539D01*
X328573Y-31178D01*
X329370Y-30836D01*
X330176Y-30514D01*
X330989Y-30212D01*
X331810Y-29929D01*
X332637Y-29667D01*
X333470Y-29426D01*
X334309Y-29205D01*
X335154Y-29004D01*
X336003Y-28824D01*
X336856Y-28666D01*
X337712Y-28528D01*
X338572Y-28411D01*
X339435Y-28315D01*
X340299Y-28241D01*
X341165Y-28188D01*
X342032Y-28156D01*
X342900Y-28145D01*
X343768Y-28156D01*
X344635Y-28188D01*
X345501Y-28241D01*
X346365Y-28315D01*
X347228Y-28411D01*
X348088Y-28528D01*
X348944Y-28666D01*
X349797Y-28824D01*
X350646Y-29004D01*
X351491Y-29205D01*
X352330Y-29426D01*
X353163Y-29667D01*
X353990Y-29929D01*
X354811Y-30212D01*
X355624Y-30514D01*
X356430Y-30836D01*
X357227Y-31178D01*
X358016Y-31539D01*
X358796Y-31920D01*
X359566Y-32320D01*
X360326Y-32738D01*
X361076Y-33175D01*
X361815Y-33630D01*
X362542Y-34103D01*
X363258Y-34594D01*
X363961Y-35103D01*
X364652Y-35628D01*
X365329Y-36170D01*
X365993Y-36729D01*
X366643Y-37304D01*
X367279Y-37894D01*
X367900Y-38500D01*
X368506Y-39121D01*
X369096Y-39757D01*
X369671Y-40407D01*
X370230Y-41071D01*
X370772Y-41748D01*
X371297Y-42439D01*
X371806Y-43142D01*
X372297Y-43858D01*
X372770Y-44585D01*
X373225Y-45324D01*
X373662Y-46074D01*
X374080Y-46834D01*
X374480Y-47604D01*
X374861Y-48384D01*
X375222Y-49173D01*
X375564Y-49970D01*
X375886Y-50776D01*
X376188Y-51589D01*
X376471Y-52410D01*
X376733Y-53237D01*
X376974Y-54070D01*
X377195Y-54909D01*
X377396Y-55754D01*
X377576Y-56603D01*
X377734Y-57456D01*
X377872Y-58312D01*
X377989Y-59172D01*
X378085Y-60035D01*
X378159Y-60899D01*
X378212Y-61765D01*
X378244Y-62632D01*
X378255Y-63500D01*
X378244Y-64368D01*
X378212Y-65235D01*
X378159Y-66101D01*
X378085Y-66965D01*
X377989Y-67828D01*
X377872Y-68688D01*
X377734Y-69544D01*
X377576Y-70397D01*
X377396Y-71246D01*
X377195Y-72091D01*
X376974Y-72930D01*
X376733Y-73763D01*
X376471Y-74590D01*
X376188Y-75411D01*
X375886Y-76224D01*
X375564Y-77030D01*
X375222Y-77827D01*
X374861Y-78616D01*
X374480Y-79396D01*
X374080Y-80166D01*
X373662Y-80926D01*
X373225Y-81676D01*
X372770Y-82415D01*
X372297Y-83142D01*
X371806Y-83858D01*
X371297Y-84561D01*
X370772Y-85252D01*
X370230Y-85929D01*
X369671Y-86593D01*
X369096Y-87243D01*
X368506Y-87879D01*
X367900Y-88500D01*
X367279Y-89106D01*
X366643Y-89696D01*
X365993Y-90271D01*
X365329Y-90830D01*
X364652Y-91372D01*
X363961Y-91897D01*
X363258Y-92406D01*
X362542Y-92897D01*
X361815Y-93370D01*
X361076Y-93825D01*
X360326Y-94262D01*
X359566Y-94680D01*
X358796Y-95080D01*
X358016Y-95461D01*
X357227Y-95822D01*
X356430Y-96164D01*
X355624Y-96486D01*
X354811Y-96788D01*
X353990Y-97071D01*
X353163Y-97333D01*
X352330Y-97574D01*
X351491Y-97795D01*
X350646Y-97996D01*
X349797Y-98176D01*
X348944Y-98334D01*
X348088Y-98472D01*
X347228Y-98589D01*
X346365Y-98685D01*
X345501Y-98759D01*
X344635Y-98812D01*
X343768Y-98844D01*
X342900Y-98855D01*
X342032Y-98844D01*
X341165Y-98812D01*
X340299Y-98759D01*
X339435Y-98685D01*
X338572Y-98589D01*
X337712Y-98472D01*
X336856Y-98334D01*
X336003Y-98176D01*
X335154Y-97996D01*
X334309Y-97795D01*
X333470Y-97574D01*
X332637Y-97333D01*
X331810Y-97071D01*
X330989Y-96788D01*
X330176Y-96486D01*
X329370Y-96164D01*
X328573Y-95822D01*
X327784Y-95461D01*
X327004Y-95080D01*
X326234Y-94680D01*
X325474Y-94262D01*
X324724Y-93825D01*
X323985Y-93370D01*
X323258Y-92897D01*
X322542Y-92406D01*
X321839Y-91897D01*
X321148Y-91372D01*
X320471Y-90830D01*
X319807Y-90271D01*
X319157Y-89696D01*
X318521Y-89106D01*
X317900Y-88500D01*
X317294Y-87879D01*
X316704Y-87243D01*
X316129Y-86593D01*
X315570Y-85929D01*
X315028Y-85252D01*
X314503Y-84561D01*
X313994Y-83858D01*
X313503Y-83142D01*
X313030Y-82415D01*
X312575Y-81676D01*
X312138Y-80926D01*
X311720Y-80166D01*
X311320Y-79396D01*
X310939Y-78616D01*
X310578Y-77827D01*
X310236Y-77030D01*
X309914Y-76224D01*
X309612Y-75411D01*
X309329Y-74590D01*
X309067Y-73763D01*
X308826Y-72930D01*
X308605Y-72091D01*
X308404Y-71246D01*
X308224Y-70397D01*
X308066Y-69544D01*
X307928Y-68688D01*
X307811Y-67828D01*
X307715Y-66965D01*
X307641Y-66101D01*
X307588Y-65235D01*
X307556Y-64368D01*
X307545Y-63500D01*
X322900Y-43500D02*
X362900Y-43500D01*
X362900Y-83500D01*
X322900Y-83500D01*
X322900Y-43500D01*
X282900Y-26000D02*
X282900Y-13500D01*
X282900Y-51000D02*
X282900Y-76000D01*
X282900Y-101000D02*
X282900Y-113500D01*
X402900Y-26000D02*
X402900Y-13500D01*
X402900Y-51000D02*
X402900Y-76000D01*
X402900Y-101000D02*
X402900Y-113500D01*
D71*
X292900Y-280200D02*
X292900Y-330200D01*
X292900Y-240200D02*
X292900Y-205200D01*
X392900Y-205200D01*
X392900Y-240200D01*
X392900Y-280200D02*
X392900Y-330200D01*
X382900Y-330200D01*
X302900Y-330200D02*
X292900Y-330200D01*
X312900Y-260200D02*
X312909Y-259464D01*
X312936Y-258728D01*
X312981Y-257993D01*
X313044Y-257259D01*
X313126Y-256528D01*
X313225Y-255798D01*
X313342Y-255071D01*
X313476Y-254347D01*
X313629Y-253627D01*
X313799Y-252911D01*
X313987Y-252199D01*
X314192Y-251491D01*
X314414Y-250790D01*
X314654Y-250093D01*
X314910Y-249403D01*
X315184Y-248719D01*
X315474Y-248043D01*
X315780Y-247373D01*
X316103Y-246712D01*
X316442Y-246058D01*
X316797Y-245413D01*
X317168Y-244777D01*
X317554Y-244150D01*
X317956Y-243533D01*
X318372Y-242926D01*
X318804Y-242329D01*
X319250Y-241743D01*
X319710Y-241168D01*
X320184Y-240605D01*
X320671Y-240053D01*
X321173Y-239514D01*
X321687Y-238987D01*
X322214Y-238473D01*
X322753Y-237971D01*
X323305Y-237484D01*
X323868Y-237010D01*
X324443Y-236550D01*
X325029Y-236104D01*
X325626Y-235672D01*
X326233Y-235256D01*
X326850Y-234854D01*
X327477Y-234468D01*
X328113Y-234097D01*
X328758Y-233742D01*
X329412Y-233403D01*
X330073Y-233080D01*
X330743Y-232774D01*
X331419Y-232484D01*
X332103Y-232210D01*
X332793Y-231954D01*
X333490Y-231714D01*
X334191Y-231492D01*
X334899Y-231287D01*
X335611Y-231099D01*
X336327Y-230929D01*
X337047Y-230776D01*
X337771Y-230642D01*
X338498Y-230525D01*
X339228Y-230426D01*
X339959Y-230344D01*
X340693Y-230281D01*
X341428Y-230236D01*
X342164Y-230209D01*
X342900Y-230200D01*
X343636Y-230209D01*
X344372Y-230236D01*
X345107Y-230281D01*
X345841Y-230344D01*
X346572Y-230426D01*
X347302Y-230525D01*
X348029Y-230642D01*
X348753Y-230776D01*
X349473Y-230929D01*
X350189Y-231099D01*
X350901Y-231287D01*
X351609Y-231492D01*
X352310Y-231714D01*
X353007Y-231954D01*
X353697Y-232210D01*
X354381Y-232484D01*
X355057Y-232774D01*
X355727Y-233080D01*
X356388Y-233403D01*
X357042Y-233742D01*
X357687Y-234097D01*
X358323Y-234468D01*
X358950Y-234854D01*
X359567Y-235256D01*
X360174Y-235672D01*
X360771Y-236104D01*
X361357Y-236550D01*
X361932Y-237010D01*
X362495Y-237484D01*
X363047Y-237971D01*
X363586Y-238473D01*
X364113Y-238987D01*
X364627Y-239514D01*
X365129Y-240053D01*
X365616Y-240605D01*
X366090Y-241168D01*
X366550Y-241743D01*
X366996Y-242329D01*
X367428Y-242926D01*
X367844Y-243533D01*
X368246Y-244150D01*
X368632Y-244777D01*
X369003Y-245413D01*
X369358Y-246058D01*
X369697Y-246712D01*
X370020Y-247373D01*
X370326Y-248043D01*
X370616Y-248719D01*
X370890Y-249403D01*
X371146Y-250093D01*
X371386Y-250790D01*
X371608Y-251491D01*
X371813Y-252199D01*
X372001Y-252911D01*
X372171Y-253627D01*
X372324Y-254347D01*
X372458Y-255071D01*
X372575Y-255798D01*
X372674Y-256528D01*
X372756Y-257259D01*
X372819Y-257993D01*
X372864Y-258728D01*
X372891Y-259464D01*
X372900Y-260200D01*
X372891Y-260936D01*
X372864Y-261672D01*
X372819Y-262407D01*
X372756Y-263141D01*
X372674Y-263872D01*
X372575Y-264602D01*
X372458Y-265329D01*
X372324Y-266053D01*
X372171Y-266773D01*
X372001Y-267489D01*
X371813Y-268201D01*
X371608Y-268909D01*
X371386Y-269610D01*
X371146Y-270307D01*
X370890Y-270997D01*
X370616Y-271681D01*
X370326Y-272357D01*
X370020Y-273027D01*
X369697Y-273688D01*
X369358Y-274342D01*
X369003Y-274987D01*
X368632Y-275623D01*
X368246Y-276250D01*
X367844Y-276867D01*
X367428Y-277474D01*
X366996Y-278071D01*
X366550Y-278657D01*
X366090Y-279232D01*
X365616Y-279795D01*
X365129Y-280347D01*
X364627Y-280886D01*
X364113Y-281413D01*
X363586Y-281927D01*
X363047Y-282429D01*
X362495Y-282916D01*
X361932Y-283390D01*
X361357Y-283850D01*
X360771Y-284296D01*
X360174Y-284728D01*
X359567Y-285144D01*
X358950Y-285546D01*
X358323Y-285932D01*
X357687Y-286303D01*
X357042Y-286658D01*
X356388Y-286997D01*
X355727Y-287320D01*
X355057Y-287626D01*
X354381Y-287916D01*
X353697Y-288190D01*
X353007Y-288446D01*
X352310Y-288686D01*
X351609Y-288908D01*
X350901Y-289113D01*
X350189Y-289301D01*
X349473Y-289471D01*
X348753Y-289624D01*
X348029Y-289758D01*
X347302Y-289875D01*
X346572Y-289974D01*
X345841Y-290056D01*
X345107Y-290119D01*
X344372Y-290164D01*
X343636Y-290191D01*
X342900Y-290200D01*
X342164Y-290191D01*
X341428Y-290164D01*
X340693Y-290119D01*
X339959Y-290056D01*
X339228Y-289974D01*
X338498Y-289875D01*
X337771Y-289758D01*
X337047Y-289624D01*
X336327Y-289471D01*
X335611Y-289301D01*
X334899Y-289113D01*
X334191Y-288908D01*
X333490Y-288686D01*
X332793Y-288446D01*
X332103Y-288190D01*
X331419Y-287916D01*
X330743Y-287626D01*
X330073Y-287320D01*
X329412Y-286997D01*
X328758Y-286658D01*
X328113Y-286303D01*
X327477Y-285932D01*
X326850Y-285546D01*
X326233Y-285144D01*
X325626Y-284728D01*
X325029Y-284296D01*
X324443Y-283850D01*
X323868Y-283390D01*
X323305Y-282916D01*
X322753Y-282429D01*
X322214Y-281927D01*
X321687Y-281413D01*
X321173Y-280886D01*
X320671Y-280347D01*
X320184Y-279795D01*
X319710Y-279232D01*
X319250Y-278657D01*
X318804Y-278071D01*
X318372Y-277474D01*
X317956Y-276867D01*
X317554Y-276250D01*
X317168Y-275623D01*
X316797Y-274987D01*
X316442Y-274342D01*
X316103Y-273688D01*
X315780Y-273027D01*
X315474Y-272357D01*
X315184Y-271681D01*
X314910Y-270997D01*
X314654Y-270307D01*
X314414Y-269610D01*
X314192Y-268909D01*
X313987Y-268201D01*
X313799Y-267489D01*
X313629Y-266773D01*
X313476Y-266053D01*
X313342Y-265329D01*
X313225Y-264602D01*
X313126Y-263872D01*
X313044Y-263141D01*
X312981Y-262407D01*
X312936Y-261672D01*
X312909Y-260936D01*
X312900Y-260200D01*
X432600Y-280200D02*
X432600Y-330200D01*
X432600Y-240200D02*
X432600Y-205200D01*
X532600Y-205200D01*
X532600Y-240200D01*
X532600Y-280200D02*
X532600Y-330200D01*
X522600Y-330200D01*
X442600Y-330200D02*
X432600Y-330200D01*
X452600Y-260200D02*
X452609Y-259464D01*
X452636Y-258728D01*
X452681Y-257993D01*
X452744Y-257259D01*
X452826Y-256528D01*
X452925Y-255798D01*
X453042Y-255071D01*
X453176Y-254347D01*
X453329Y-253627D01*
X453499Y-252911D01*
X453687Y-252199D01*
X453892Y-251491D01*
X454114Y-250790D01*
X454354Y-250093D01*
X454610Y-249403D01*
X454884Y-248719D01*
X455174Y-248043D01*
X455480Y-247373D01*
X455803Y-246712D01*
X456142Y-246058D01*
X456497Y-245413D01*
X456868Y-244777D01*
X457254Y-244150D01*
X457656Y-243533D01*
X458072Y-242926D01*
X458504Y-242329D01*
X458950Y-241743D01*
X459410Y-241168D01*
X459884Y-240605D01*
X460371Y-240053D01*
X460873Y-239514D01*
X461387Y-238987D01*
X461914Y-238473D01*
X462453Y-237971D01*
X463005Y-237484D01*
X463568Y-237010D01*
X464143Y-236550D01*
X464729Y-236104D01*
X465326Y-235672D01*
X465933Y-235256D01*
X466550Y-234854D01*
X467177Y-234468D01*
X467813Y-234097D01*
X468458Y-233742D01*
X469112Y-233403D01*
X469773Y-233080D01*
X470443Y-232774D01*
X471119Y-232484D01*
X471803Y-232210D01*
X472493Y-231954D01*
X473190Y-231714D01*
X473891Y-231492D01*
X474599Y-231287D01*
X475311Y-231099D01*
X476027Y-230929D01*
X476747Y-230776D01*
X477471Y-230642D01*
X478198Y-230525D01*
X478928Y-230426D01*
X479659Y-230344D01*
X480393Y-230281D01*
X481128Y-230236D01*
X481864Y-230209D01*
X482600Y-230200D01*
X483336Y-230209D01*
X484072Y-230236D01*
X484807Y-230281D01*
X485541Y-230344D01*
X486272Y-230426D01*
X487002Y-230525D01*
X487729Y-230642D01*
X488453Y-230776D01*
X489173Y-230929D01*
X489889Y-231099D01*
X490601Y-231287D01*
X491309Y-231492D01*
X492010Y-231714D01*
X492707Y-231954D01*
X493397Y-232210D01*
X494081Y-232484D01*
X494757Y-232774D01*
X495427Y-233080D01*
X496088Y-233403D01*
X496742Y-233742D01*
X497387Y-234097D01*
X498023Y-234468D01*
X498650Y-234854D01*
X499267Y-235256D01*
X499874Y-235672D01*
X500471Y-236104D01*
X501057Y-236550D01*
X501632Y-237010D01*
X502195Y-237484D01*
X502747Y-237971D01*
X503286Y-238473D01*
X503813Y-238987D01*
X504327Y-239514D01*
X504829Y-240053D01*
X505316Y-240605D01*
X505790Y-241168D01*
X506250Y-241743D01*
X506696Y-242329D01*
X507128Y-242926D01*
X507544Y-243533D01*
X507946Y-244150D01*
X508332Y-244777D01*
X508703Y-245413D01*
X509058Y-246058D01*
X509397Y-246712D01*
X509720Y-247373D01*
X510026Y-248043D01*
X510316Y-248719D01*
X510590Y-249403D01*
X510846Y-250093D01*
X511086Y-250790D01*
X511308Y-251491D01*
X511513Y-252199D01*
X511701Y-252911D01*
X511871Y-253627D01*
X512024Y-254347D01*
X512158Y-255071D01*
X512275Y-255798D01*
X512374Y-256528D01*
X512456Y-257259D01*
X512519Y-257993D01*
X512564Y-258728D01*
X512591Y-259464D01*
X512600Y-260200D01*
X512591Y-260936D01*
X512564Y-261672D01*
X512519Y-262407D01*
X512456Y-263141D01*
X512374Y-263872D01*
X512275Y-264602D01*
X512158Y-265329D01*
X512024Y-266053D01*
X511871Y-266773D01*
X511701Y-267489D01*
X511513Y-268201D01*
X511308Y-268909D01*
X511086Y-269610D01*
X510846Y-270307D01*
X510590Y-270997D01*
X510316Y-271681D01*
X510026Y-272357D01*
X509720Y-273027D01*
X509397Y-273688D01*
X509058Y-274342D01*
X508703Y-274987D01*
X508332Y-275623D01*
X507946Y-276250D01*
X507544Y-276867D01*
X507128Y-277474D01*
X506696Y-278071D01*
X506250Y-278657D01*
X505790Y-279232D01*
X505316Y-279795D01*
X504829Y-280347D01*
X504327Y-280886D01*
X503813Y-281413D01*
X503286Y-281927D01*
X502747Y-282429D01*
X502195Y-282916D01*
X501632Y-283390D01*
X501057Y-283850D01*
X500471Y-284296D01*
X499874Y-284728D01*
X499267Y-285144D01*
X498650Y-285546D01*
X498023Y-285932D01*
X497387Y-286303D01*
X496742Y-286658D01*
X496088Y-286997D01*
X495427Y-287320D01*
X494757Y-287626D01*
X494081Y-287916D01*
X493397Y-288190D01*
X492707Y-288446D01*
X492010Y-288686D01*
X491309Y-288908D01*
X490601Y-289113D01*
X489889Y-289301D01*
X489173Y-289471D01*
X488453Y-289624D01*
X487729Y-289758D01*
X487002Y-289875D01*
X486272Y-289974D01*
X485541Y-290056D01*
X484807Y-290119D01*
X484072Y-290164D01*
X483336Y-290191D01*
X482600Y-290200D01*
X481864Y-290191D01*
X481128Y-290164D01*
X480393Y-290119D01*
X479659Y-290056D01*
X478928Y-289974D01*
X478198Y-289875D01*
X477471Y-289758D01*
X476747Y-289624D01*
X476027Y-289471D01*
X475311Y-289301D01*
X474599Y-289113D01*
X473891Y-288908D01*
X473190Y-288686D01*
X472493Y-288446D01*
X471803Y-288190D01*
X471119Y-287916D01*
X470443Y-287626D01*
X469773Y-287320D01*
X469112Y-286997D01*
X468458Y-286658D01*
X467813Y-286303D01*
X467177Y-285932D01*
X466550Y-285546D01*
X465933Y-285144D01*
X465326Y-284728D01*
X464729Y-284296D01*
X464143Y-283850D01*
X463568Y-283390D01*
X463005Y-282916D01*
X462453Y-282429D01*
X461914Y-281927D01*
X461387Y-281413D01*
X460873Y-280886D01*
X460371Y-280347D01*
X459884Y-279795D01*
X459410Y-279232D01*
X458950Y-278657D01*
X458504Y-278071D01*
X458072Y-277474D01*
X457656Y-276867D01*
X457254Y-276250D01*
X456868Y-275623D01*
X456497Y-274987D01*
X456142Y-274342D01*
X455803Y-273688D01*
X455480Y-273027D01*
X455174Y-272357D01*
X454884Y-271681D01*
X454610Y-270997D01*
X454354Y-270307D01*
X454114Y-269610D01*
X453892Y-268909D01*
X453687Y-268201D01*
X453499Y-267489D01*
X453329Y-266773D01*
X453176Y-266053D01*
X453042Y-265329D01*
X452925Y-264602D01*
X452826Y-263872D01*
X452744Y-263141D01*
X452681Y-262407D01*
X452636Y-261672D01*
X452609Y-260936D01*
X452600Y-260200D01*
X572300Y-280200D02*
X572300Y-330200D01*
X572300Y-240200D02*
X572300Y-205200D01*
X672300Y-205200D01*
X672300Y-240200D01*
X672300Y-280200D02*
X672300Y-330200D01*
X662300Y-330200D01*
X582300Y-330200D02*
X572300Y-330200D01*
X592300Y-260200D02*
X592309Y-259464D01*
X592336Y-258728D01*
X592381Y-257993D01*
X592444Y-257259D01*
X592526Y-256528D01*
X592625Y-255798D01*
X592742Y-255071D01*
X592876Y-254347D01*
X593029Y-253627D01*
X593199Y-252911D01*
X593387Y-252199D01*
X593592Y-251491D01*
X593814Y-250790D01*
X594054Y-250093D01*
X594310Y-249403D01*
X594584Y-248719D01*
X594874Y-248043D01*
X595180Y-247373D01*
X595503Y-246712D01*
X595842Y-246058D01*
X596197Y-245413D01*
X596568Y-244777D01*
X596954Y-244150D01*
X597356Y-243533D01*
X597772Y-242926D01*
X598204Y-242329D01*
X598650Y-241743D01*
X599110Y-241168D01*
X599584Y-240605D01*
X600071Y-240053D01*
X600573Y-239514D01*
X601087Y-238987D01*
X601614Y-238473D01*
X602153Y-237971D01*
X602705Y-237484D01*
X603268Y-237010D01*
X603843Y-236550D01*
X604429Y-236104D01*
X605026Y-235672D01*
X605633Y-235256D01*
X606250Y-234854D01*
X606877Y-234468D01*
X607513Y-234097D01*
X608158Y-233742D01*
X608812Y-233403D01*
X609473Y-233080D01*
X610143Y-232774D01*
X610819Y-232484D01*
X611503Y-232210D01*
X612193Y-231954D01*
X612890Y-231714D01*
X613591Y-231492D01*
X614299Y-231287D01*
X615011Y-231099D01*
X615727Y-230929D01*
X616447Y-230776D01*
X617171Y-230642D01*
X617898Y-230525D01*
X618628Y-230426D01*
X619359Y-230344D01*
X620093Y-230281D01*
X620828Y-230236D01*
X621564Y-230209D01*
X622300Y-230200D01*
X623036Y-230209D01*
X623772Y-230236D01*
X624507Y-230281D01*
X625241Y-230344D01*
X625972Y-230426D01*
X626702Y-230525D01*
X627429Y-230642D01*
X628153Y-230776D01*
X628873Y-230929D01*
X629589Y-231099D01*
X630301Y-231287D01*
X631009Y-231492D01*
X631710Y-231714D01*
X632407Y-231954D01*
X633097Y-232210D01*
X633781Y-232484D01*
X634457Y-232774D01*
X635127Y-233080D01*
X635788Y-233403D01*
X636442Y-233742D01*
X637087Y-234097D01*
X637723Y-234468D01*
X638350Y-234854D01*
X638967Y-235256D01*
X639574Y-235672D01*
X640171Y-236104D01*
X640757Y-236550D01*
X641332Y-237010D01*
X641895Y-237484D01*
X642447Y-237971D01*
X642986Y-238473D01*
X643513Y-238987D01*
X644027Y-239514D01*
X644529Y-240053D01*
X645016Y-240605D01*
X645490Y-241168D01*
X645950Y-241743D01*
X646396Y-242329D01*
X646828Y-242926D01*
X647244Y-243533D01*
X647646Y-244150D01*
X648032Y-244777D01*
X648403Y-245413D01*
X648758Y-246058D01*
X649097Y-246712D01*
X649420Y-247373D01*
X649726Y-248043D01*
X650016Y-248719D01*
X650290Y-249403D01*
X650546Y-250093D01*
X650786Y-250790D01*
X651008Y-251491D01*
X651213Y-252199D01*
X651401Y-252911D01*
X651571Y-253627D01*
X651724Y-254347D01*
X651858Y-255071D01*
X651975Y-255798D01*
X652074Y-256528D01*
X652156Y-257259D01*
X652219Y-257993D01*
X652264Y-258728D01*
X652291Y-259464D01*
X652300Y-260200D01*
X652291Y-260936D01*
X652264Y-261672D01*
X652219Y-262407D01*
X652156Y-263141D01*
X652074Y-263872D01*
X651975Y-264602D01*
X651858Y-265329D01*
X651724Y-266053D01*
X651571Y-266773D01*
X651401Y-267489D01*
X651213Y-268201D01*
X651008Y-268909D01*
X650786Y-269610D01*
X650546Y-270307D01*
X650290Y-270997D01*
X650016Y-271681D01*
X649726Y-272357D01*
X649420Y-273027D01*
X649097Y-273688D01*
X648758Y-274342D01*
X648403Y-274987D01*
X648032Y-275623D01*
X647646Y-276250D01*
X647244Y-276867D01*
X646828Y-277474D01*
X646396Y-278071D01*
X645950Y-278657D01*
X645490Y-279232D01*
X645016Y-279795D01*
X644529Y-280347D01*
X644027Y-280886D01*
X643513Y-281413D01*
X642986Y-281927D01*
X642447Y-282429D01*
X641895Y-282916D01*
X641332Y-283390D01*
X640757Y-283850D01*
X640171Y-284296D01*
X639574Y-284728D01*
X638967Y-285144D01*
X638350Y-285546D01*
X637723Y-285932D01*
X637087Y-286303D01*
X636442Y-286658D01*
X635788Y-286997D01*
X635127Y-287320D01*
X634457Y-287626D01*
X633781Y-287916D01*
X633097Y-288190D01*
X632407Y-288446D01*
X631710Y-288686D01*
X631009Y-288908D01*
X630301Y-289113D01*
X629589Y-289301D01*
X628873Y-289471D01*
X628153Y-289624D01*
X627429Y-289758D01*
X626702Y-289875D01*
X625972Y-289974D01*
X625241Y-290056D01*
X624507Y-290119D01*
X623772Y-290164D01*
X623036Y-290191D01*
X622300Y-290200D01*
X621564Y-290191D01*
X620828Y-290164D01*
X620093Y-290119D01*
X619359Y-290056D01*
X618628Y-289974D01*
X617898Y-289875D01*
X617171Y-289758D01*
X616447Y-289624D01*
X615727Y-289471D01*
X615011Y-289301D01*
X614299Y-289113D01*
X613591Y-288908D01*
X612890Y-288686D01*
X612193Y-288446D01*
X611503Y-288190D01*
X610819Y-287916D01*
X610143Y-287626D01*
X609473Y-287320D01*
X608812Y-286997D01*
X608158Y-286658D01*
X607513Y-286303D01*
X606877Y-285932D01*
X606250Y-285546D01*
X605633Y-285144D01*
X605026Y-284728D01*
X604429Y-284296D01*
X603843Y-283850D01*
X603268Y-283390D01*
X602705Y-282916D01*
X602153Y-282429D01*
X601614Y-281927D01*
X601087Y-281413D01*
X600573Y-280886D01*
X600071Y-280347D01*
X599584Y-279795D01*
X599110Y-279232D01*
X598650Y-278657D01*
X598204Y-278071D01*
X597772Y-277474D01*
X597356Y-276867D01*
X596954Y-276250D01*
X596568Y-275623D01*
X596197Y-274987D01*
X595842Y-274342D01*
X595503Y-273688D01*
X595180Y-273027D01*
X594874Y-272357D01*
X594584Y-271681D01*
X594310Y-270997D01*
X594054Y-270307D01*
X593814Y-269610D01*
X593592Y-268909D01*
X593387Y-268201D01*
X593199Y-267489D01*
X593029Y-266773D01*
X592876Y-266053D01*
X592742Y-265329D01*
X592625Y-264602D01*
X592526Y-263872D01*
X592444Y-263141D01*
X592381Y-262407D01*
X592336Y-261672D01*
X592309Y-260936D01*
X592300Y-260200D01*
X712000Y-280200D02*
X712000Y-330200D01*
X712000Y-240200D02*
X712000Y-205200D01*
X812000Y-205200D01*
X812000Y-240200D01*
X812000Y-280200D02*
X812000Y-330200D01*
X802000Y-330200D01*
X722000Y-330200D02*
X712000Y-330200D01*
X732000Y-260200D02*
X732009Y-259464D01*
X732036Y-258728D01*
X732081Y-257993D01*
X732144Y-257259D01*
X732226Y-256528D01*
X732325Y-255798D01*
X732442Y-255071D01*
X732576Y-254347D01*
X732729Y-253627D01*
X732899Y-252911D01*
X733087Y-252199D01*
X733292Y-251491D01*
X733514Y-250790D01*
X733754Y-250093D01*
X734010Y-249403D01*
X734284Y-248719D01*
X734574Y-248043D01*
X734880Y-247373D01*
X735203Y-246712D01*
X735542Y-246058D01*
X735897Y-245413D01*
X736268Y-244777D01*
X736654Y-244150D01*
X737056Y-243533D01*
X737472Y-242926D01*
X737904Y-242329D01*
X738350Y-241743D01*
X738810Y-241168D01*
X739284Y-240605D01*
X739771Y-240053D01*
X740273Y-239514D01*
X740787Y-238987D01*
X741314Y-238473D01*
X741853Y-237971D01*
X742405Y-237484D01*
X742968Y-237010D01*
X743543Y-236550D01*
X744129Y-236104D01*
X744726Y-235672D01*
X745333Y-235256D01*
X745950Y-234854D01*
X746577Y-234468D01*
X747213Y-234097D01*
X747858Y-233742D01*
X748512Y-233403D01*
X749173Y-233080D01*
X749843Y-232774D01*
X750519Y-232484D01*
X751203Y-232210D01*
X751893Y-231954D01*
X752590Y-231714D01*
X753291Y-231492D01*
X753999Y-231287D01*
X754711Y-231099D01*
X755427Y-230929D01*
X756147Y-230776D01*
X756871Y-230642D01*
X757598Y-230525D01*
X758328Y-230426D01*
X759059Y-230344D01*
X759793Y-230281D01*
X760528Y-230236D01*
X761264Y-230209D01*
X762000Y-230200D01*
X762736Y-230209D01*
X763472Y-230236D01*
X764207Y-230281D01*
X764941Y-230344D01*
X765672Y-230426D01*
X766402Y-230525D01*
X767129Y-230642D01*
X767853Y-230776D01*
X768573Y-230929D01*
X769289Y-231099D01*
X770001Y-231287D01*
X770709Y-231492D01*
X771410Y-231714D01*
X772107Y-231954D01*
X772797Y-232210D01*
X773481Y-232484D01*
X774157Y-232774D01*
X774827Y-233080D01*
X775488Y-233403D01*
X776142Y-233742D01*
X776787Y-234097D01*
X777423Y-234468D01*
X778050Y-234854D01*
X778667Y-235256D01*
X779274Y-235672D01*
X779871Y-236104D01*
X780457Y-236550D01*
X781032Y-237010D01*
X781595Y-237484D01*
X782147Y-237971D01*
X782686Y-238473D01*
X783213Y-238987D01*
X783727Y-239514D01*
X784229Y-240053D01*
X784716Y-240605D01*
X785190Y-241168D01*
X785650Y-241743D01*
X786096Y-242329D01*
X786528Y-242926D01*
X786944Y-243533D01*
X787346Y-244150D01*
X787732Y-244777D01*
X788103Y-245413D01*
X788458Y-246058D01*
X788797Y-246712D01*
X789120Y-247373D01*
X789426Y-248043D01*
X789716Y-248719D01*
X789990Y-249403D01*
X790246Y-250093D01*
X790486Y-250790D01*
X790708Y-251491D01*
X790913Y-252199D01*
X791101Y-252911D01*
X791271Y-253627D01*
X791424Y-254347D01*
X791558Y-255071D01*
X791675Y-255798D01*
X791774Y-256528D01*
X791856Y-257259D01*
X791919Y-257993D01*
X791964Y-258728D01*
X791991Y-259464D01*
X792000Y-260200D01*
X791991Y-260936D01*
X791964Y-261672D01*
X791919Y-262407D01*
X791856Y-263141D01*
X791774Y-263872D01*
X791675Y-264602D01*
X791558Y-265329D01*
X791424Y-266053D01*
X791271Y-266773D01*
X791101Y-267489D01*
X790913Y-268201D01*
X790708Y-268909D01*
X790486Y-269610D01*
X790246Y-270307D01*
X789990Y-270997D01*
X789716Y-271681D01*
X789426Y-272357D01*
X789120Y-273027D01*
X788797Y-273688D01*
X788458Y-274342D01*
X788103Y-274987D01*
X787732Y-275623D01*
X787346Y-276250D01*
X786944Y-276867D01*
X786528Y-277474D01*
X786096Y-278071D01*
X785650Y-278657D01*
X785190Y-279232D01*
X784716Y-279795D01*
X784229Y-280347D01*
X783727Y-280886D01*
X783213Y-281413D01*
X782686Y-281927D01*
X782147Y-282429D01*
X781595Y-282916D01*
X781032Y-283390D01*
X780457Y-283850D01*
X779871Y-284296D01*
X779274Y-284728D01*
X778667Y-285144D01*
X778050Y-285546D01*
X777423Y-285932D01*
X776787Y-286303D01*
X776142Y-286658D01*
X775488Y-286997D01*
X774827Y-287320D01*
X774157Y-287626D01*
X773481Y-287916D01*
X772797Y-288190D01*
X772107Y-288446D01*
X771410Y-288686D01*
X770709Y-288908D01*
X770001Y-289113D01*
X769289Y-289301D01*
X768573Y-289471D01*
X767853Y-289624D01*
X767129Y-289758D01*
X766402Y-289875D01*
X765672Y-289974D01*
X764941Y-290056D01*
X764207Y-290119D01*
X763472Y-290164D01*
X762736Y-290191D01*
X762000Y-290200D01*
X761264Y-290191D01*
X760528Y-290164D01*
X759793Y-290119D01*
X759059Y-290056D01*
X758328Y-289974D01*
X757598Y-289875D01*
X756871Y-289758D01*
X756147Y-289624D01*
X755427Y-289471D01*
X754711Y-289301D01*
X753999Y-289113D01*
X753291Y-288908D01*
X752590Y-288686D01*
X751893Y-288446D01*
X751203Y-288190D01*
X750519Y-287916D01*
X749843Y-287626D01*
X749173Y-287320D01*
X748512Y-286997D01*
X747858Y-286658D01*
X747213Y-286303D01*
X746577Y-285932D01*
X745950Y-285546D01*
X745333Y-285144D01*
X744726Y-284728D01*
X744129Y-284296D01*
X743543Y-283850D01*
X742968Y-283390D01*
X742405Y-282916D01*
X741853Y-282429D01*
X741314Y-281927D01*
X740787Y-281413D01*
X740273Y-280886D01*
X739771Y-280347D01*
X739284Y-279795D01*
X738810Y-279232D01*
X738350Y-278657D01*
X737904Y-278071D01*
X737472Y-277474D01*
X737056Y-276867D01*
X736654Y-276250D01*
X736268Y-275623D01*
X735897Y-274987D01*
X735542Y-274342D01*
X735203Y-273688D01*
X734880Y-273027D01*
X734574Y-272357D01*
X734284Y-271681D01*
X734010Y-270997D01*
X733754Y-270307D01*
X733514Y-269610D01*
X733292Y-268909D01*
X733087Y-268201D01*
X732899Y-267489D01*
X732729Y-266773D01*
X732576Y-266053D01*
X732442Y-265329D01*
X732325Y-264602D01*
X732226Y-263872D01*
X732144Y-263141D01*
X732081Y-262407D01*
X732036Y-261672D01*
X732009Y-260936D01*
X732000Y-260200D01*
D72*
X449900Y254000D02*
X449906Y254491D01*
X449924Y254981D01*
X449954Y255471D01*
X449996Y255960D01*
X450050Y256448D01*
X450116Y256935D01*
X450194Y257419D01*
X450284Y257902D01*
X450386Y258382D01*
X450499Y258860D01*
X450624Y259334D01*
X450761Y259806D01*
X450909Y260274D01*
X451069Y260738D01*
X451240Y261198D01*
X451422Y261654D01*
X451616Y262105D01*
X451820Y262551D01*
X452036Y262992D01*
X452262Y263428D01*
X452498Y263858D01*
X452745Y264282D01*
X453003Y264700D01*
X453271Y265111D01*
X453548Y265516D01*
X453836Y265914D01*
X454133Y266305D01*
X454440Y266688D01*
X454756Y267063D01*
X455081Y267431D01*
X455415Y267791D01*
X455758Y268142D01*
X456109Y268485D01*
X456469Y268819D01*
X456837Y269144D01*
X457212Y269460D01*
X457595Y269767D01*
X457986Y270064D01*
X458384Y270352D01*
X458789Y270629D01*
X459200Y270897D01*
X459618Y271155D01*
X460042Y271402D01*
X460472Y271638D01*
X460908Y271864D01*
X461349Y272080D01*
X461795Y272284D01*
X462246Y272478D01*
X462702Y272660D01*
X463162Y272831D01*
X463626Y272991D01*
X464094Y273139D01*
X464566Y273276D01*
X465040Y273401D01*
X465518Y273514D01*
X465998Y273616D01*
X466481Y273706D01*
X466965Y273784D01*
X467452Y273850D01*
X467940Y273904D01*
X468429Y273946D01*
X468919Y273976D01*
X469409Y273994D01*
X469900Y274000D01*
X470391Y273994D01*
X470881Y273976D01*
X471371Y273946D01*
X471860Y273904D01*
X472348Y273850D01*
X472835Y273784D01*
X473319Y273706D01*
X473802Y273616D01*
X474282Y273514D01*
X474760Y273401D01*
X475234Y273276D01*
X475706Y273139D01*
X476174Y272991D01*
X476638Y272831D01*
X477098Y272660D01*
X477554Y272478D01*
X478005Y272284D01*
X478451Y272080D01*
X478892Y271864D01*
X479328Y271638D01*
X479758Y271402D01*
X480182Y271155D01*
X480600Y270897D01*
X481011Y270629D01*
X481416Y270352D01*
X481814Y270064D01*
X482205Y269767D01*
X482588Y269460D01*
X482963Y269144D01*
X483331Y268819D01*
X483691Y268485D01*
X484042Y268142D01*
X484385Y267791D01*
X484719Y267431D01*
X485044Y267063D01*
X485360Y266688D01*
X485667Y266305D01*
X485964Y265914D01*
X486252Y265516D01*
X486529Y265111D01*
X486797Y264700D01*
X487055Y264282D01*
X487302Y263858D01*
X487538Y263428D01*
X487764Y262992D01*
X487980Y262551D01*
X488184Y262105D01*
X488378Y261654D01*
X488560Y261198D01*
X488731Y260738D01*
X488891Y260274D01*
X489039Y259806D01*
X489176Y259334D01*
X489301Y258860D01*
X489414Y258382D01*
X489516Y257902D01*
X489606Y257419D01*
X489684Y256935D01*
X489750Y256448D01*
X489804Y255960D01*
X489846Y255471D01*
X489876Y254981D01*
X489894Y254491D01*
X489900Y254000D01*
X489894Y253509D01*
X489876Y253019D01*
X489846Y252529D01*
X489804Y252040D01*
X489750Y251552D01*
X489684Y251065D01*
X489606Y250581D01*
X489516Y250098D01*
X489414Y249618D01*
X489301Y249140D01*
X489176Y248666D01*
X489039Y248194D01*
X488891Y247726D01*
X488731Y247262D01*
X488560Y246802D01*
X488378Y246346D01*
X488184Y245895D01*
X487980Y245449D01*
X487764Y245008D01*
X487538Y244572D01*
X487302Y244142D01*
X487055Y243718D01*
X486797Y243300D01*
X486529Y242889D01*
X486252Y242484D01*
X485964Y242086D01*
X485667Y241695D01*
X485360Y241312D01*
X485044Y240937D01*
X484719Y240569D01*
X484385Y240209D01*
X484042Y239858D01*
X483691Y239515D01*
X483331Y239181D01*
X482963Y238856D01*
X482588Y238540D01*
X482205Y238233D01*
X481814Y237936D01*
X481416Y237648D01*
X481011Y237371D01*
X480600Y237103D01*
X480182Y236845D01*
X479758Y236598D01*
X479328Y236362D01*
X478892Y236136D01*
X478451Y235920D01*
X478005Y235716D01*
X477554Y235522D01*
X477098Y235340D01*
X476638Y235169D01*
X476174Y235009D01*
X475706Y234861D01*
X475234Y234724D01*
X474760Y234599D01*
X474282Y234486D01*
X473802Y234384D01*
X473319Y234294D01*
X472835Y234216D01*
X472348Y234150D01*
X471860Y234096D01*
X471371Y234054D01*
X470881Y234024D01*
X470391Y234006D01*
X469900Y234000D01*
X469409Y234006D01*
X468919Y234024D01*
X468429Y234054D01*
X467940Y234096D01*
X467452Y234150D01*
X466965Y234216D01*
X466481Y234294D01*
X465998Y234384D01*
X465518Y234486D01*
X465040Y234599D01*
X464566Y234724D01*
X464094Y234861D01*
X463626Y235009D01*
X463162Y235169D01*
X462702Y235340D01*
X462246Y235522D01*
X461795Y235716D01*
X461349Y235920D01*
X460908Y236136D01*
X460472Y236362D01*
X460042Y236598D01*
X459618Y236845D01*
X459200Y237103D01*
X458789Y237371D01*
X458384Y237648D01*
X457986Y237936D01*
X457595Y238233D01*
X457212Y238540D01*
X456837Y238856D01*
X456469Y239181D01*
X456109Y239515D01*
X455758Y239858D01*
X455415Y240209D01*
X455081Y240569D01*
X454756Y240937D01*
X454440Y241312D01*
X454133Y241695D01*
X453836Y242086D01*
X453548Y242484D01*
X453271Y242889D01*
X453003Y243300D01*
X452745Y243718D01*
X452498Y244142D01*
X452262Y244572D01*
X452036Y245008D01*
X451820Y245449D01*
X451616Y245895D01*
X451422Y246346D01*
X451240Y246802D01*
X451069Y247262D01*
X450909Y247726D01*
X450761Y248194D01*
X450624Y248666D01*
X450499Y249140D01*
X450386Y249618D01*
X450284Y250098D01*
X450194Y250581D01*
X450116Y251065D01*
X450050Y251552D01*
X449996Y252040D01*
X449954Y252529D01*
X449924Y253019D01*
X449906Y253509D01*
X449900Y254000D01*
X1059500Y-101600D02*
X1059506Y-101109D01*
X1059524Y-100619D01*
X1059554Y-100129D01*
X1059596Y-99640D01*
X1059650Y-99152D01*
X1059716Y-98665D01*
X1059794Y-98181D01*
X1059884Y-97698D01*
X1059986Y-97218D01*
X1060099Y-96740D01*
X1060224Y-96266D01*
X1060361Y-95794D01*
X1060509Y-95326D01*
X1060669Y-94862D01*
X1060840Y-94402D01*
X1061022Y-93946D01*
X1061216Y-93495D01*
X1061420Y-93049D01*
X1061636Y-92608D01*
X1061862Y-92172D01*
X1062098Y-91742D01*
X1062345Y-91318D01*
X1062603Y-90900D01*
X1062871Y-90489D01*
X1063148Y-90084D01*
X1063436Y-89686D01*
X1063733Y-89295D01*
X1064040Y-88912D01*
X1064356Y-88537D01*
X1064681Y-88169D01*
X1065015Y-87809D01*
X1065358Y-87458D01*
X1065709Y-87115D01*
X1066069Y-86781D01*
X1066437Y-86456D01*
X1066812Y-86140D01*
X1067195Y-85833D01*
X1067586Y-85536D01*
X1067984Y-85248D01*
X1068389Y-84971D01*
X1068800Y-84703D01*
X1069218Y-84445D01*
X1069642Y-84198D01*
X1070072Y-83962D01*
X1070508Y-83736D01*
X1070949Y-83520D01*
X1071395Y-83316D01*
X1071846Y-83122D01*
X1072302Y-82940D01*
X1072762Y-82769D01*
X1073226Y-82609D01*
X1073694Y-82461D01*
X1074166Y-82324D01*
X1074640Y-82199D01*
X1075118Y-82086D01*
X1075598Y-81984D01*
X1076081Y-81894D01*
X1076565Y-81816D01*
X1077052Y-81750D01*
X1077540Y-81696D01*
X1078029Y-81654D01*
X1078519Y-81624D01*
X1079009Y-81606D01*
X1079500Y-81600D01*
X1079991Y-81606D01*
X1080481Y-81624D01*
X1080971Y-81654D01*
X1081460Y-81696D01*
X1081948Y-81750D01*
X1082435Y-81816D01*
X1082919Y-81894D01*
X1083402Y-81984D01*
X1083882Y-82086D01*
X1084360Y-82199D01*
X1084834Y-82324D01*
X1085306Y-82461D01*
X1085774Y-82609D01*
X1086238Y-82769D01*
X1086698Y-82940D01*
X1087154Y-83122D01*
X1087605Y-83316D01*
X1088051Y-83520D01*
X1088492Y-83736D01*
X1088928Y-83962D01*
X1089358Y-84198D01*
X1089782Y-84445D01*
X1090200Y-84703D01*
X1090611Y-84971D01*
X1091016Y-85248D01*
X1091414Y-85536D01*
X1091805Y-85833D01*
X1092188Y-86140D01*
X1092563Y-86456D01*
X1092931Y-86781D01*
X1093291Y-87115D01*
X1093642Y-87458D01*
X1093985Y-87809D01*
X1094319Y-88169D01*
X1094644Y-88537D01*
X1094960Y-88912D01*
X1095267Y-89295D01*
X1095564Y-89686D01*
X1095852Y-90084D01*
X1096129Y-90489D01*
X1096397Y-90900D01*
X1096655Y-91318D01*
X1096902Y-91742D01*
X1097138Y-92172D01*
X1097364Y-92608D01*
X1097580Y-93049D01*
X1097784Y-93495D01*
X1097978Y-93946D01*
X1098160Y-94402D01*
X1098331Y-94862D01*
X1098491Y-95326D01*
X1098639Y-95794D01*
X1098776Y-96266D01*
X1098901Y-96740D01*
X1099014Y-97218D01*
X1099116Y-97698D01*
X1099206Y-98181D01*
X1099284Y-98665D01*
X1099350Y-99152D01*
X1099404Y-99640D01*
X1099446Y-100129D01*
X1099476Y-100619D01*
X1099494Y-101109D01*
X1099500Y-101600D01*
X1099494Y-102091D01*
X1099476Y-102581D01*
X1099446Y-103071D01*
X1099404Y-103560D01*
X1099350Y-104048D01*
X1099284Y-104535D01*
X1099206Y-105019D01*
X1099116Y-105502D01*
X1099014Y-105982D01*
X1098901Y-106460D01*
X1098776Y-106934D01*
X1098639Y-107406D01*
X1098491Y-107874D01*
X1098331Y-108338D01*
X1098160Y-108798D01*
X1097978Y-109254D01*
X1097784Y-109705D01*
X1097580Y-110151D01*
X1097364Y-110592D01*
X1097138Y-111028D01*
X1096902Y-111458D01*
X1096655Y-111882D01*
X1096397Y-112300D01*
X1096129Y-112711D01*
X1095852Y-113116D01*
X1095564Y-113514D01*
X1095267Y-113905D01*
X1094960Y-114288D01*
X1094644Y-114663D01*
X1094319Y-115031D01*
X1093985Y-115391D01*
X1093642Y-115742D01*
X1093291Y-116085D01*
X1092931Y-116419D01*
X1092563Y-116744D01*
X1092188Y-117060D01*
X1091805Y-117367D01*
X1091414Y-117664D01*
X1091016Y-117952D01*
X1090611Y-118229D01*
X1090200Y-118497D01*
X1089782Y-118755D01*
X1089358Y-119002D01*
X1088928Y-119238D01*
X1088492Y-119464D01*
X1088051Y-119680D01*
X1087605Y-119884D01*
X1087154Y-120078D01*
X1086698Y-120260D01*
X1086238Y-120431D01*
X1085774Y-120591D01*
X1085306Y-120739D01*
X1084834Y-120876D01*
X1084360Y-121001D01*
X1083882Y-121114D01*
X1083402Y-121216D01*
X1082919Y-121306D01*
X1082435Y-121384D01*
X1081948Y-121450D01*
X1081460Y-121504D01*
X1080971Y-121546D01*
X1080481Y-121576D01*
X1079991Y-121594D01*
X1079500Y-121600D01*
X1079009Y-121594D01*
X1078519Y-121576D01*
X1078029Y-121546D01*
X1077540Y-121504D01*
X1077052Y-121450D01*
X1076565Y-121384D01*
X1076081Y-121306D01*
X1075598Y-121216D01*
X1075118Y-121114D01*
X1074640Y-121001D01*
X1074166Y-120876D01*
X1073694Y-120739D01*
X1073226Y-120591D01*
X1072762Y-120431D01*
X1072302Y-120260D01*
X1071846Y-120078D01*
X1071395Y-119884D01*
X1070949Y-119680D01*
X1070508Y-119464D01*
X1070072Y-119238D01*
X1069642Y-119002D01*
X1069218Y-118755D01*
X1068800Y-118497D01*
X1068389Y-118229D01*
X1067984Y-117952D01*
X1067586Y-117664D01*
X1067195Y-117367D01*
X1066812Y-117060D01*
X1066437Y-116744D01*
X1066069Y-116419D01*
X1065709Y-116085D01*
X1065358Y-115742D01*
X1065015Y-115391D01*
X1064681Y-115031D01*
X1064356Y-114663D01*
X1064040Y-114288D01*
X1063733Y-113905D01*
X1063436Y-113514D01*
X1063148Y-113116D01*
X1062871Y-112711D01*
X1062603Y-112300D01*
X1062345Y-111882D01*
X1062098Y-111458D01*
X1061862Y-111028D01*
X1061636Y-110592D01*
X1061420Y-110151D01*
X1061216Y-109705D01*
X1061022Y-109254D01*
X1060840Y-108798D01*
X1060669Y-108338D01*
X1060509Y-107874D01*
X1060361Y-107406D01*
X1060224Y-106934D01*
X1060099Y-106460D01*
X1059986Y-105982D01*
X1059884Y-105502D01*
X1059794Y-105019D01*
X1059716Y-104535D01*
X1059650Y-104048D01*
X1059596Y-103560D01*
X1059554Y-103071D01*
X1059524Y-102581D01*
X1059506Y-102091D01*
X1059500Y-101600D01*
X1059500Y254000D02*
X1059506Y254491D01*
X1059524Y254981D01*
X1059554Y255471D01*
X1059596Y255960D01*
X1059650Y256448D01*
X1059716Y256935D01*
X1059794Y257419D01*
X1059884Y257902D01*
X1059986Y258382D01*
X1060099Y258860D01*
X1060224Y259334D01*
X1060361Y259806D01*
X1060509Y260274D01*
X1060669Y260738D01*
X1060840Y261198D01*
X1061022Y261654D01*
X1061216Y262105D01*
X1061420Y262551D01*
X1061636Y262992D01*
X1061862Y263428D01*
X1062098Y263858D01*
X1062345Y264282D01*
X1062603Y264700D01*
X1062871Y265111D01*
X1063148Y265516D01*
X1063436Y265914D01*
X1063733Y266305D01*
X1064040Y266688D01*
X1064356Y267063D01*
X1064681Y267431D01*
X1065015Y267791D01*
X1065358Y268142D01*
X1065709Y268485D01*
X1066069Y268819D01*
X1066437Y269144D01*
X1066812Y269460D01*
X1067195Y269767D01*
X1067586Y270064D01*
X1067984Y270352D01*
X1068389Y270629D01*
X1068800Y270897D01*
X1069218Y271155D01*
X1069642Y271402D01*
X1070072Y271638D01*
X1070508Y271864D01*
X1070949Y272080D01*
X1071395Y272284D01*
X1071846Y272478D01*
X1072302Y272660D01*
X1072762Y272831D01*
X1073226Y272991D01*
X1073694Y273139D01*
X1074166Y273276D01*
X1074640Y273401D01*
X1075118Y273514D01*
X1075598Y273616D01*
X1076081Y273706D01*
X1076565Y273784D01*
X1077052Y273850D01*
X1077540Y273904D01*
X1078029Y273946D01*
X1078519Y273976D01*
X1079009Y273994D01*
X1079500Y274000D01*
X1079991Y273994D01*
X1080481Y273976D01*
X1080971Y273946D01*
X1081460Y273904D01*
X1081948Y273850D01*
X1082435Y273784D01*
X1082919Y273706D01*
X1083402Y273616D01*
X1083882Y273514D01*
X1084360Y273401D01*
X1084834Y273276D01*
X1085306Y273139D01*
X1085774Y272991D01*
X1086238Y272831D01*
X1086698Y272660D01*
X1087154Y272478D01*
X1087605Y272284D01*
X1088051Y272080D01*
X1088492Y271864D01*
X1088928Y271638D01*
X1089358Y271402D01*
X1089782Y271155D01*
X1090200Y270897D01*
X1090611Y270629D01*
X1091016Y270352D01*
X1091414Y270064D01*
X1091805Y269767D01*
X1092188Y269460D01*
X1092563Y269144D01*
X1092931Y268819D01*
X1093291Y268485D01*
X1093642Y268142D01*
X1093985Y267791D01*
X1094319Y267431D01*
X1094644Y267063D01*
X1094960Y266688D01*
X1095267Y266305D01*
X1095564Y265914D01*
X1095852Y265516D01*
X1096129Y265111D01*
X1096397Y264700D01*
X1096655Y264282D01*
X1096902Y263858D01*
X1097138Y263428D01*
X1097364Y262992D01*
X1097580Y262551D01*
X1097784Y262105D01*
X1097978Y261654D01*
X1098160Y261198D01*
X1098331Y260738D01*
X1098491Y260274D01*
X1098639Y259806D01*
X1098776Y259334D01*
X1098901Y258860D01*
X1099014Y258382D01*
X1099116Y257902D01*
X1099206Y257419D01*
X1099284Y256935D01*
X1099350Y256448D01*
X1099404Y255960D01*
X1099446Y255471D01*
X1099476Y254981D01*
X1099494Y254491D01*
X1099500Y254000D01*
X1099494Y253509D01*
X1099476Y253019D01*
X1099446Y252529D01*
X1099404Y252040D01*
X1099350Y251552D01*
X1099284Y251065D01*
X1099206Y250581D01*
X1099116Y250098D01*
X1099014Y249618D01*
X1098901Y249140D01*
X1098776Y248666D01*
X1098639Y248194D01*
X1098491Y247726D01*
X1098331Y247262D01*
X1098160Y246802D01*
X1097978Y246346D01*
X1097784Y245895D01*
X1097580Y245449D01*
X1097364Y245008D01*
X1097138Y244572D01*
X1096902Y244142D01*
X1096655Y243718D01*
X1096397Y243300D01*
X1096129Y242889D01*
X1095852Y242484D01*
X1095564Y242086D01*
X1095267Y241695D01*
X1094960Y241312D01*
X1094644Y240937D01*
X1094319Y240569D01*
X1093985Y240209D01*
X1093642Y239858D01*
X1093291Y239515D01*
X1092931Y239181D01*
X1092563Y238856D01*
X1092188Y238540D01*
X1091805Y238233D01*
X1091414Y237936D01*
X1091016Y237648D01*
X1090611Y237371D01*
X1090200Y237103D01*
X1089782Y236845D01*
X1089358Y236598D01*
X1088928Y236362D01*
X1088492Y236136D01*
X1088051Y235920D01*
X1087605Y235716D01*
X1087154Y235522D01*
X1086698Y235340D01*
X1086238Y235169D01*
X1085774Y235009D01*
X1085306Y234861D01*
X1084834Y234724D01*
X1084360Y234599D01*
X1083882Y234486D01*
X1083402Y234384D01*
X1082919Y234294D01*
X1082435Y234216D01*
X1081948Y234150D01*
X1081460Y234096D01*
X1080971Y234054D01*
X1080481Y234024D01*
X1079991Y234006D01*
X1079500Y234000D01*
X1079009Y234006D01*
X1078519Y234024D01*
X1078029Y234054D01*
X1077540Y234096D01*
X1077052Y234150D01*
X1076565Y234216D01*
X1076081Y234294D01*
X1075598Y234384D01*
X1075118Y234486D01*
X1074640Y234599D01*
X1074166Y234724D01*
X1073694Y234861D01*
X1073226Y235009D01*
X1072762Y235169D01*
X1072302Y235340D01*
X1071846Y235522D01*
X1071395Y235716D01*
X1070949Y235920D01*
X1070508Y236136D01*
X1070072Y236362D01*
X1069642Y236598D01*
X1069218Y236845D01*
X1068800Y237103D01*
X1068389Y237371D01*
X1067984Y237648D01*
X1067586Y237936D01*
X1067195Y238233D01*
X1066812Y238540D01*
X1066437Y238856D01*
X1066069Y239181D01*
X1065709Y239515D01*
X1065358Y239858D01*
X1065015Y240209D01*
X1064681Y240569D01*
X1064356Y240937D01*
X1064040Y241312D01*
X1063733Y241695D01*
X1063436Y242086D01*
X1063148Y242484D01*
X1062871Y242889D01*
X1062603Y243300D01*
X1062345Y243718D01*
X1062098Y244142D01*
X1061862Y244572D01*
X1061636Y245008D01*
X1061420Y245449D01*
X1061216Y245895D01*
X1061022Y246346D01*
X1060840Y246802D01*
X1060669Y247262D01*
X1060509Y247726D01*
X1060361Y248194D01*
X1060224Y248666D01*
X1060099Y249140D01*
X1059986Y249618D01*
X1059884Y250098D01*
X1059794Y250581D01*
X1059716Y251065D01*
X1059650Y251552D01*
X1059596Y252040D01*
X1059554Y252529D01*
X1059524Y253019D01*
X1059506Y253509D01*
X1059500Y254000D01*
X449900Y-101600D02*
X449906Y-101109D01*
X449924Y-100619D01*
X449954Y-100129D01*
X449996Y-99640D01*
X450050Y-99152D01*
X450116Y-98665D01*
X450194Y-98181D01*
X450284Y-97698D01*
X450386Y-97218D01*
X450499Y-96740D01*
X450624Y-96266D01*
X450761Y-95794D01*
X450909Y-95326D01*
X451069Y-94862D01*
X451240Y-94402D01*
X451422Y-93946D01*
X451616Y-93495D01*
X451820Y-93049D01*
X452036Y-92608D01*
X452262Y-92172D01*
X452498Y-91742D01*
X452745Y-91318D01*
X453003Y-90900D01*
X453271Y-90489D01*
X453548Y-90084D01*
X453836Y-89686D01*
X454133Y-89295D01*
X454440Y-88912D01*
X454756Y-88537D01*
X455081Y-88169D01*
X455415Y-87809D01*
X455758Y-87458D01*
X456109Y-87115D01*
X456469Y-86781D01*
X456837Y-86456D01*
X457212Y-86140D01*
X457595Y-85833D01*
X457986Y-85536D01*
X458384Y-85248D01*
X458789Y-84971D01*
X459200Y-84703D01*
X459618Y-84445D01*
X460042Y-84198D01*
X460472Y-83962D01*
X460908Y-83736D01*
X461349Y-83520D01*
X461795Y-83316D01*
X462246Y-83122D01*
X462702Y-82940D01*
X463162Y-82769D01*
X463626Y-82609D01*
X464094Y-82461D01*
X464566Y-82324D01*
X465040Y-82199D01*
X465518Y-82086D01*
X465998Y-81984D01*
X466481Y-81894D01*
X466965Y-81816D01*
X467452Y-81750D01*
X467940Y-81696D01*
X468429Y-81654D01*
X468919Y-81624D01*
X469409Y-81606D01*
X469900Y-81600D01*
X470391Y-81606D01*
X470881Y-81624D01*
X471371Y-81654D01*
X471860Y-81696D01*
X472348Y-81750D01*
X472835Y-81816D01*
X473319Y-81894D01*
X473802Y-81984D01*
X474282Y-82086D01*
X474760Y-82199D01*
X475234Y-82324D01*
X475706Y-82461D01*
X476174Y-82609D01*
X476638Y-82769D01*
X477098Y-82940D01*
X477554Y-83122D01*
X478005Y-83316D01*
X478451Y-83520D01*
X478892Y-83736D01*
X479328Y-83962D01*
X479758Y-84198D01*
X480182Y-84445D01*
X480600Y-84703D01*
X481011Y-84971D01*
X481416Y-85248D01*
X481814Y-85536D01*
X482205Y-85833D01*
X482588Y-86140D01*
X482963Y-86456D01*
X483331Y-86781D01*
X483691Y-87115D01*
X484042Y-87458D01*
X484385Y-87809D01*
X484719Y-88169D01*
X485044Y-88537D01*
X485360Y-88912D01*
X485667Y-89295D01*
X485964Y-89686D01*
X486252Y-90084D01*
X486529Y-90489D01*
X486797Y-90900D01*
X487055Y-91318D01*
X487302Y-91742D01*
X487538Y-92172D01*
X487764Y-92608D01*
X487980Y-93049D01*
X488184Y-93495D01*
X488378Y-93946D01*
X488560Y-94402D01*
X488731Y-94862D01*
X488891Y-95326D01*
X489039Y-95794D01*
X489176Y-96266D01*
X489301Y-96740D01*
X489414Y-97218D01*
X489516Y-97698D01*
X489606Y-98181D01*
X489684Y-98665D01*
X489750Y-99152D01*
X489804Y-99640D01*
X489846Y-100129D01*
X489876Y-100619D01*
X489894Y-101109D01*
X489900Y-101600D01*
X489894Y-102091D01*
X489876Y-102581D01*
X489846Y-103071D01*
X489804Y-103560D01*
X489750Y-104048D01*
X489684Y-104535D01*
X489606Y-105019D01*
X489516Y-105502D01*
X489414Y-105982D01*
X489301Y-106460D01*
X489176Y-106934D01*
X489039Y-107406D01*
X488891Y-107874D01*
X488731Y-108338D01*
X488560Y-108798D01*
X488378Y-109254D01*
X488184Y-109705D01*
X487980Y-110151D01*
X487764Y-110592D01*
X487538Y-111028D01*
X487302Y-111458D01*
X487055Y-111882D01*
X486797Y-112300D01*
X486529Y-112711D01*
X486252Y-113116D01*
X485964Y-113514D01*
X485667Y-113905D01*
X485360Y-114288D01*
X485044Y-114663D01*
X484719Y-115031D01*
X484385Y-115391D01*
X484042Y-115742D01*
X483691Y-116085D01*
X483331Y-116419D01*
X482963Y-116744D01*
X482588Y-117060D01*
X482205Y-117367D01*
X481814Y-117664D01*
X481416Y-117952D01*
X481011Y-118229D01*
X480600Y-118497D01*
X480182Y-118755D01*
X479758Y-119002D01*
X479328Y-119238D01*
X478892Y-119464D01*
X478451Y-119680D01*
X478005Y-119884D01*
X477554Y-120078D01*
X477098Y-120260D01*
X476638Y-120431D01*
X476174Y-120591D01*
X475706Y-120739D01*
X475234Y-120876D01*
X474760Y-121001D01*
X474282Y-121114D01*
X473802Y-121216D01*
X473319Y-121306D01*
X472835Y-121384D01*
X472348Y-121450D01*
X471860Y-121504D01*
X471371Y-121546D01*
X470881Y-121576D01*
X470391Y-121594D01*
X469900Y-121600D01*
X469409Y-121594D01*
X468919Y-121576D01*
X468429Y-121546D01*
X467940Y-121504D01*
X467452Y-121450D01*
X466965Y-121384D01*
X466481Y-121306D01*
X465998Y-121216D01*
X465518Y-121114D01*
X465040Y-121001D01*
X464566Y-120876D01*
X464094Y-120739D01*
X463626Y-120591D01*
X463162Y-120431D01*
X462702Y-120260D01*
X462246Y-120078D01*
X461795Y-119884D01*
X461349Y-119680D01*
X460908Y-119464D01*
X460472Y-119238D01*
X460042Y-119002D01*
X459618Y-118755D01*
X459200Y-118497D01*
X458789Y-118229D01*
X458384Y-117952D01*
X457986Y-117664D01*
X457595Y-117367D01*
X457212Y-117060D01*
X456837Y-116744D01*
X456469Y-116419D01*
X456109Y-116085D01*
X455758Y-115742D01*
X455415Y-115391D01*
X455081Y-115031D01*
X454756Y-114663D01*
X454440Y-114288D01*
X454133Y-113905D01*
X453836Y-113514D01*
X453548Y-113116D01*
X453271Y-112711D01*
X453003Y-112300D01*
X452745Y-111882D01*
X452498Y-111458D01*
X452262Y-111028D01*
X452036Y-110592D01*
X451820Y-110151D01*
X451616Y-109705D01*
X451422Y-109254D01*
X451240Y-108798D01*
X451069Y-108338D01*
X450909Y-107874D01*
X450761Y-107406D01*
X450624Y-106934D01*
X450499Y-106460D01*
X450386Y-105982D01*
X450284Y-105502D01*
X450194Y-105019D01*
X450116Y-104535D01*
X450050Y-104048D01*
X449996Y-103560D01*
X449954Y-103071D01*
X449924Y-102581D01*
X449906Y-102091D01*
X449900Y-101600D01*
D69*
X469900Y-127000D02*
X1079500Y-127000D01*
X1080114Y-126993D01*
X1080727Y-126970D01*
X1081340Y-126933D01*
X1081951Y-126881D01*
X1082562Y-126815D01*
X1083170Y-126733D01*
X1083776Y-126637D01*
X1084380Y-126527D01*
X1084981Y-126402D01*
X1085579Y-126262D01*
X1086173Y-126108D01*
X1086763Y-125939D01*
X1087349Y-125757D01*
X1087930Y-125560D01*
X1088507Y-125349D01*
X1089078Y-125125D01*
X1089644Y-124887D01*
X1090204Y-124635D01*
X1090757Y-124369D01*
X1091304Y-124091D01*
X1091844Y-123799D01*
X1092377Y-123494D01*
X1092902Y-123176D01*
X1093420Y-122846D01*
X1093929Y-122504D01*
X1094430Y-122149D01*
X1094922Y-121782D01*
X1095405Y-121404D01*
X1095879Y-121014D01*
X1096343Y-120612D01*
X1096798Y-120200D01*
X1097242Y-119776D01*
X1097676Y-119342D01*
X1098100Y-118898D01*
X1098512Y-118443D01*
X1098914Y-117979D01*
X1099304Y-117505D01*
X1099682Y-117022D01*
X1100049Y-116530D01*
X1100404Y-116029D01*
X1100746Y-115520D01*
X1101076Y-115002D01*
X1101394Y-114477D01*
X1101699Y-113944D01*
X1101991Y-113404D01*
X1102269Y-112857D01*
X1102535Y-112304D01*
X1102787Y-111744D01*
X1103025Y-111178D01*
X1103249Y-110607D01*
X1103460Y-110030D01*
X1103657Y-109449D01*
X1103839Y-108863D01*
X1104008Y-108273D01*
X1104162Y-107679D01*
X1104302Y-107081D01*
X1104427Y-106480D01*
X1104537Y-105876D01*
X1104633Y-105270D01*
X1104715Y-104662D01*
X1104781Y-104051D01*
X1104833Y-103440D01*
X1104870Y-102827D01*
X1104893Y-102214D01*
X1104900Y-101600D01*
X1104900Y254000D01*
X1104893Y254614D01*
X1104870Y255227D01*
X1104833Y255840D01*
X1104781Y256451D01*
X1104715Y257062D01*
X1104633Y257670D01*
X1104537Y258276D01*
X1104427Y258880D01*
X1104302Y259481D01*
X1104162Y260079D01*
X1104008Y260673D01*
X1103839Y261263D01*
X1103657Y261849D01*
X1103460Y262430D01*
X1103249Y263007D01*
X1103025Y263578D01*
X1102787Y264144D01*
X1102535Y264704D01*
X1102269Y265257D01*
X1101991Y265804D01*
X1101699Y266344D01*
X1101394Y266877D01*
X1101076Y267402D01*
X1100746Y267920D01*
X1100404Y268429D01*
X1100049Y268930D01*
X1099682Y269422D01*
X1099304Y269905D01*
X1098914Y270379D01*
X1098512Y270843D01*
X1098100Y271298D01*
X1097676Y271742D01*
X1097242Y272176D01*
X1096798Y272600D01*
X1096343Y273012D01*
X1095879Y273414D01*
X1095405Y273804D01*
X1094922Y274182D01*
X1094430Y274549D01*
X1093929Y274904D01*
X1093420Y275246D01*
X1092902Y275576D01*
X1092377Y275894D01*
X1091844Y276199D01*
X1091304Y276491D01*
X1090757Y276769D01*
X1090204Y277035D01*
X1089644Y277287D01*
X1089078Y277525D01*
X1088507Y277749D01*
X1087930Y277960D01*
X1087349Y278157D01*
X1086763Y278339D01*
X1086173Y278508D01*
X1085579Y278662D01*
X1084981Y278802D01*
X1084380Y278927D01*
X1083776Y279037D01*
X1083170Y279133D01*
X1082562Y279215D01*
X1081951Y279281D01*
X1081340Y279333D01*
X1080727Y279370D01*
X1080114Y279393D01*
X1079500Y279400D01*
X469900Y279400D01*
X469286Y279393D01*
X468673Y279370D01*
X468060Y279333D01*
X467449Y279281D01*
X466838Y279215D01*
X466230Y279133D01*
X465624Y279037D01*
X465020Y278927D01*
X464419Y278802D01*
X463821Y278662D01*
X463227Y278508D01*
X462637Y278339D01*
X462051Y278157D01*
X461470Y277960D01*
X460893Y277749D01*
X460322Y277525D01*
X459756Y277287D01*
X459196Y277035D01*
X458643Y276769D01*
X458096Y276491D01*
X457556Y276199D01*
X457023Y275894D01*
X456498Y275576D01*
X455980Y275246D01*
X455471Y274904D01*
X454970Y274549D01*
X454478Y274182D01*
X453995Y273804D01*
X453521Y273414D01*
X453057Y273012D01*
X452602Y272600D01*
X452158Y272176D01*
X451724Y271742D01*
X451300Y271298D01*
X450888Y270843D01*
X450486Y270379D01*
X450096Y269905D01*
X449718Y269422D01*
X449351Y268930D01*
X448996Y268429D01*
X448654Y267920D01*
X448324Y267402D01*
X448006Y266877D01*
X447701Y266344D01*
X447409Y265804D01*
X447131Y265257D01*
X446865Y264704D01*
X446613Y264144D01*
X446375Y263578D01*
X446151Y263007D01*
X445940Y262430D01*
X445743Y261849D01*
X445561Y261263D01*
X445392Y260673D01*
X445238Y260079D01*
X445098Y259481D01*
X444973Y258880D01*
X444863Y258276D01*
X444767Y257670D01*
X444685Y257062D01*
X444619Y256451D01*
X444567Y255840D01*
X444530Y255227D01*
X444507Y254614D01*
X444500Y254000D01*
X444500Y-101600D01*
X444507Y-102214D01*
X444530Y-102827D01*
X444567Y-103440D01*
X444619Y-104051D01*
X444685Y-104662D01*
X444767Y-105270D01*
X444863Y-105876D01*
X444973Y-106480D01*
X445098Y-107081D01*
X445238Y-107679D01*
X445392Y-108273D01*
X445561Y-108863D01*
X445743Y-109449D01*
X445940Y-110030D01*
X446151Y-110607D01*
X446375Y-111178D01*
X446613Y-111744D01*
X446865Y-112304D01*
X447131Y-112857D01*
X447409Y-113404D01*
X447701Y-113944D01*
X448006Y-114477D01*
X448324Y-115002D01*
X448654Y-115520D01*
X448996Y-116029D01*
X449351Y-116530D01*
X449718Y-117022D01*
X450096Y-117505D01*
X450486Y-117979D01*
X450888Y-118443D01*
X451300Y-118898D01*
X451724Y-119342D01*
X452158Y-119776D01*
X452602Y-120200D01*
X453057Y-120612D01*
X453521Y-121014D01*
X453995Y-121404D01*
X454478Y-121782D01*
X454970Y-122149D01*
X455471Y-122504D01*
X455980Y-122846D01*
X456498Y-123176D01*
X457023Y-123494D01*
X457556Y-123799D01*
X458096Y-124091D01*
X458643Y-124369D01*
X459196Y-124635D01*
X459756Y-124887D01*
X460322Y-125125D01*
X460893Y-125349D01*
X461470Y-125560D01*
X462051Y-125757D01*
X462637Y-125939D01*
X463227Y-126108D01*
X463821Y-126262D01*
X464419Y-126402D01*
X465020Y-126527D01*
X465624Y-126637D01*
X466230Y-126733D01*
X466838Y-126815D01*
X467449Y-126881D01*
X468060Y-126933D01*
X468673Y-126970D01*
X469286Y-126993D01*
X469900Y-127000D01*
D73*
X326686Y29591D02*
X326764Y29593D01*
X326842Y29598D01*
X326919Y29608D01*
X326996Y29621D01*
X327072Y29637D01*
X327147Y29657D01*
X327221Y29681D01*
X327294Y29708D01*
X327366Y29739D01*
X327436Y29773D01*
X327505Y29810D01*
X327571Y29851D01*
X327636Y29895D01*
X327698Y29941D01*
X327758Y29991D01*
X327816Y30043D01*
X327871Y30098D01*
X327923Y30156D01*
X327973Y30216D01*
X328019Y30278D01*
X328063Y30343D01*
X328104Y30410D01*
X328141Y30478D01*
X328175Y30548D01*
X328206Y30620D01*
X328233Y30693D01*
X328257Y30767D01*
X328277Y30842D01*
X328293Y30918D01*
X328306Y30995D01*
X328316Y31072D01*
X328321Y31150D01*
X328323Y31228D01*
X326686Y29591D02*
X326572Y29593D01*
X326459Y29598D01*
X326345Y29608D01*
X326232Y29621D01*
X326120Y29638D01*
X326008Y29658D01*
X325897Y29682D01*
X325786Y29710D01*
X325677Y29741D01*
X325569Y29776D01*
X325462Y29815D01*
X325356Y29857D01*
X325252Y29902D01*
X325149Y29951D01*
X325048Y30004D01*
X324949Y30059D01*
X324851Y30118D01*
X324756Y30180D01*
X324663Y30245D01*
X324571Y30313D01*
X324483Y30384D01*
X324396Y30458D01*
X324312Y30535D01*
X324231Y30614D01*
X324435Y35320D02*
X324437Y35398D01*
X324442Y35476D01*
X324452Y35553D01*
X324465Y35630D01*
X324481Y35706D01*
X324501Y35781D01*
X324525Y35855D01*
X324552Y35928D01*
X324583Y36000D01*
X324617Y36070D01*
X324654Y36139D01*
X324695Y36205D01*
X324739Y36270D01*
X324785Y36332D01*
X324835Y36392D01*
X324887Y36450D01*
X324942Y36505D01*
X325000Y36557D01*
X325060Y36607D01*
X325122Y36653D01*
X325187Y36697D01*
X325254Y36738D01*
X325322Y36775D01*
X325392Y36809D01*
X325464Y36840D01*
X325537Y36867D01*
X325611Y36891D01*
X325686Y36911D01*
X325762Y36927D01*
X325839Y36940D01*
X325916Y36950D01*
X325994Y36955D01*
X326072Y36957D01*
X326182Y36955D01*
X326291Y36949D01*
X326401Y36939D01*
X326509Y36926D01*
X326618Y36908D01*
X326725Y36887D01*
X326832Y36861D01*
X326938Y36832D01*
X327043Y36800D01*
X327146Y36763D01*
X327248Y36723D01*
X327349Y36679D01*
X327448Y36631D01*
X327545Y36581D01*
X327640Y36526D01*
X327733Y36468D01*
X327824Y36407D01*
X327913Y36343D01*
X325254Y33887D02*
X325187Y33929D01*
X325122Y33973D01*
X325060Y34021D01*
X325000Y34071D01*
X324942Y34124D01*
X324887Y34180D01*
X324835Y34239D01*
X324785Y34299D01*
X324738Y34363D01*
X324695Y34428D01*
X324654Y34495D01*
X324617Y34564D01*
X324583Y34635D01*
X324552Y34707D01*
X324525Y34781D01*
X324501Y34855D01*
X324481Y34931D01*
X324465Y35008D01*
X324452Y35085D01*
X324442Y35163D01*
X324437Y35242D01*
X324435Y35320D01*
X327505Y32660D02*
X327571Y32618D01*
X327636Y32574D01*
X327698Y32527D01*
X327758Y32476D01*
X327816Y32423D01*
X327871Y32367D01*
X327924Y32309D01*
X327973Y32248D01*
X328020Y32185D01*
X328063Y32120D01*
X328104Y32053D01*
X328141Y31984D01*
X328175Y31913D01*
X328206Y31841D01*
X328233Y31767D01*
X328257Y31692D01*
X328277Y31617D01*
X328293Y31540D01*
X328306Y31463D01*
X328316Y31385D01*
X328321Y31306D01*
X328323Y31228D01*
X327505Y32660D02*
X325254Y33888D01*
X331137Y34502D02*
X332365Y29591D01*
X333592Y32865D01*
X334820Y29591D01*
X336048Y34502D01*
X338957Y34502D02*
X338957Y29591D01*
X338752Y36548D02*
X338752Y36957D01*
X339161Y36957D01*
X339161Y36548D01*
X338752Y36548D01*
X341322Y34502D02*
X343778Y34502D01*
X342141Y36957D02*
X342141Y30819D01*
X342143Y30750D01*
X342149Y30682D01*
X342158Y30613D01*
X342172Y30546D01*
X342189Y30479D01*
X342210Y30413D01*
X342234Y30349D01*
X342263Y30286D01*
X342294Y30225D01*
X342329Y30166D01*
X342367Y30108D01*
X342409Y30053D01*
X342453Y30001D01*
X342501Y29951D01*
X342551Y29903D01*
X342603Y29859D01*
X342658Y29817D01*
X342716Y29779D01*
X342775Y29744D01*
X342836Y29713D01*
X342899Y29684D01*
X342963Y29660D01*
X343029Y29639D01*
X343096Y29622D01*
X343163Y29608D01*
X343232Y29599D01*
X343300Y29593D01*
X343369Y29591D01*
X343778Y29591D01*
X347823Y29591D02*
X349459Y29591D01*
X347823Y29591D02*
X347754Y29593D01*
X347686Y29599D01*
X347617Y29608D01*
X347550Y29622D01*
X347483Y29639D01*
X347417Y29660D01*
X347353Y29684D01*
X347290Y29713D01*
X347229Y29744D01*
X347170Y29779D01*
X347112Y29817D01*
X347057Y29859D01*
X347005Y29903D01*
X346955Y29951D01*
X346907Y30001D01*
X346863Y30053D01*
X346821Y30108D01*
X346783Y30166D01*
X346748Y30225D01*
X346717Y30286D01*
X346688Y30349D01*
X346664Y30413D01*
X346643Y30479D01*
X346626Y30546D01*
X346612Y30613D01*
X346603Y30682D01*
X346597Y30750D01*
X346595Y30819D01*
X346595Y33274D01*
X346597Y33343D01*
X346603Y33411D01*
X346612Y33480D01*
X346626Y33547D01*
X346643Y33614D01*
X346664Y33680D01*
X346688Y33744D01*
X346717Y33807D01*
X346748Y33868D01*
X346783Y33927D01*
X346821Y33985D01*
X346863Y34040D01*
X346907Y34092D01*
X346955Y34142D01*
X347005Y34190D01*
X347057Y34234D01*
X347112Y34276D01*
X347170Y34314D01*
X347229Y34349D01*
X347290Y34380D01*
X347353Y34409D01*
X347417Y34433D01*
X347483Y34454D01*
X347550Y34471D01*
X347617Y34485D01*
X347686Y34494D01*
X347754Y34500D01*
X347823Y34502D01*
X349459Y34502D01*
X352438Y36957D02*
X352438Y29591D01*
X352438Y34502D02*
X354484Y34502D01*
X354553Y34500D01*
X354621Y34494D01*
X354690Y34485D01*
X354757Y34471D01*
X354824Y34454D01*
X354890Y34433D01*
X354954Y34409D01*
X355017Y34380D01*
X355078Y34349D01*
X355137Y34314D01*
X355195Y34276D01*
X355250Y34234D01*
X355302Y34190D01*
X355352Y34142D01*
X355400Y34092D01*
X355444Y34040D01*
X355486Y33985D01*
X355524Y33927D01*
X355559Y33868D01*
X355590Y33807D01*
X355619Y33744D01*
X355643Y33680D01*
X355664Y33614D01*
X355681Y33547D01*
X355695Y33480D01*
X355704Y33411D01*
X355710Y33343D01*
X355712Y33274D01*
X355712Y29591D01*
D74*
X373380Y271780D02*
X312420Y271780D01*
X373380Y271780D02*
X373380Y20320D01*
X312420Y20320D01*
X312420Y271780D01*
M02*
