G04 EAGLE Gerber RS-274X export*
G75*
%MOMM*%
%FSLAX34Y34*%
%LPD*%
%INSilkscreen Bottom*%
%IPPOS*%
%AMOC8*
5,1,8,0,0,1.08239X$1,22.5*%
G01*
%ADD10R,0.508000X0.508000*%
%ADD11C,0.254000*%
%ADD12C,0.101600*%
%ADD13C,0.076200*%


D10*
X1007700Y-66300D03*
X1007700Y-40900D03*
X982300Y-40900D03*
X982300Y-66300D03*
X956900Y-40900D03*
X956900Y-66300D03*
X931500Y-40900D03*
X906100Y-40900D03*
X880700Y-40900D03*
X931500Y-66300D03*
X906100Y-66300D03*
X880700Y-66300D03*
X855300Y-40900D03*
X855300Y-66300D03*
X829900Y-40900D03*
X829900Y-66300D03*
X804500Y-40900D03*
X804500Y-66300D03*
X779100Y-40900D03*
X779100Y-66300D03*
X753700Y-40900D03*
X753700Y-66300D03*
X728300Y-40900D03*
X728300Y-66300D03*
X702900Y-40900D03*
X702900Y-66300D03*
X677500Y-40900D03*
X677500Y-66300D03*
X652100Y-40900D03*
X652100Y-66300D03*
X626700Y-40900D03*
X626700Y-66300D03*
X601300Y-40900D03*
X601300Y-66300D03*
X575900Y-40900D03*
X575900Y-66300D03*
X1007700Y187700D03*
X1007700Y213100D03*
X982300Y213100D03*
X982300Y187700D03*
X956900Y213100D03*
X956900Y187700D03*
X931500Y213100D03*
X906100Y213100D03*
X880700Y213100D03*
X931500Y187700D03*
X906100Y187700D03*
X880700Y187700D03*
X855300Y213100D03*
X855300Y187700D03*
X829900Y213100D03*
X829900Y187700D03*
X804500Y213100D03*
X804500Y187700D03*
X779100Y213100D03*
X779100Y187700D03*
X753700Y213100D03*
X753700Y187700D03*
X728300Y213100D03*
X728300Y187700D03*
X702900Y213100D03*
X702900Y187700D03*
X677500Y213100D03*
X677500Y187700D03*
X652100Y213100D03*
X652100Y187700D03*
X626700Y213100D03*
X626700Y187700D03*
X601300Y213100D03*
X601300Y187700D03*
X575900Y213100D03*
X575900Y187700D03*
D11*
X616800Y248400D02*
X966800Y248400D01*
X969216Y248371D01*
X971631Y248283D01*
X974043Y248137D01*
X976451Y247933D01*
X978854Y247671D01*
X981249Y247351D01*
X983636Y246973D01*
X986013Y246537D01*
X988378Y246044D01*
X990732Y245494D01*
X993071Y244888D01*
X995395Y244225D01*
X997702Y243506D01*
X999991Y242731D01*
X1002260Y241902D01*
X1004509Y241017D01*
X1006736Y240079D01*
X1008940Y239087D01*
X1011119Y238043D01*
X1013272Y236946D01*
X1015398Y235797D01*
X1017496Y234597D01*
X1019564Y233347D01*
X1021601Y232047D01*
X1023606Y230698D01*
X1025579Y229302D01*
X1027516Y227858D01*
X1029419Y226367D01*
X1031284Y224832D01*
X1033112Y223251D01*
X1034902Y221627D01*
X1036651Y219960D01*
X1038360Y218251D01*
X1040027Y216502D01*
X1041651Y214712D01*
X1043232Y212884D01*
X1044767Y211019D01*
X1046258Y209116D01*
X1047702Y207179D01*
X1049098Y205206D01*
X1050447Y203201D01*
X1051747Y201164D01*
X1052997Y199096D01*
X1054197Y196998D01*
X1055346Y194872D01*
X1056443Y192719D01*
X1057487Y190540D01*
X1058479Y188336D01*
X1059417Y186109D01*
X1060302Y183860D01*
X1061131Y181591D01*
X1061906Y179302D01*
X1062625Y176995D01*
X1063288Y174671D01*
X1063894Y172332D01*
X1064444Y169978D01*
X1064937Y167613D01*
X1065373Y165236D01*
X1065751Y162849D01*
X1066071Y160454D01*
X1066333Y158051D01*
X1066537Y155643D01*
X1066683Y153231D01*
X1066771Y150816D01*
X1066800Y148400D01*
X1066800Y-1600D01*
X1066771Y-4016D01*
X1066683Y-6431D01*
X1066537Y-8843D01*
X1066333Y-11251D01*
X1066071Y-13654D01*
X1065751Y-16049D01*
X1065373Y-18436D01*
X1064937Y-20813D01*
X1064444Y-23178D01*
X1063894Y-25532D01*
X1063288Y-27871D01*
X1062625Y-30195D01*
X1061906Y-32502D01*
X1061131Y-34791D01*
X1060302Y-37060D01*
X1059417Y-39309D01*
X1058479Y-41536D01*
X1057487Y-43740D01*
X1056443Y-45919D01*
X1055346Y-48072D01*
X1054197Y-50198D01*
X1052997Y-52296D01*
X1051747Y-54364D01*
X1050447Y-56401D01*
X1049098Y-58406D01*
X1047702Y-60379D01*
X1046258Y-62316D01*
X1044767Y-64219D01*
X1043232Y-66084D01*
X1041651Y-67912D01*
X1040027Y-69702D01*
X1038360Y-71451D01*
X1036651Y-73160D01*
X1034902Y-74827D01*
X1033112Y-76451D01*
X1031284Y-78032D01*
X1029419Y-79567D01*
X1027516Y-81058D01*
X1025579Y-82502D01*
X1023606Y-83898D01*
X1021601Y-85247D01*
X1019564Y-86547D01*
X1017496Y-87797D01*
X1015398Y-88997D01*
X1013272Y-90146D01*
X1011119Y-91243D01*
X1008940Y-92287D01*
X1006736Y-93279D01*
X1004509Y-94217D01*
X1002260Y-95102D01*
X999991Y-95931D01*
X997702Y-96706D01*
X995395Y-97425D01*
X993071Y-98088D01*
X990732Y-98694D01*
X988378Y-99244D01*
X986013Y-99737D01*
X983636Y-100173D01*
X981249Y-100551D01*
X978854Y-100871D01*
X976451Y-101133D01*
X974043Y-101337D01*
X971631Y-101483D01*
X969216Y-101571D01*
X966800Y-101600D01*
X616800Y-101600D01*
X614384Y-101571D01*
X611969Y-101483D01*
X609557Y-101337D01*
X607149Y-101133D01*
X604746Y-100871D01*
X602351Y-100551D01*
X599964Y-100173D01*
X597587Y-99737D01*
X595222Y-99244D01*
X592868Y-98694D01*
X590529Y-98088D01*
X588205Y-97425D01*
X585898Y-96706D01*
X583609Y-95931D01*
X581340Y-95102D01*
X579091Y-94217D01*
X576864Y-93279D01*
X574660Y-92287D01*
X572481Y-91243D01*
X570328Y-90146D01*
X568202Y-88997D01*
X566104Y-87797D01*
X564036Y-86547D01*
X561999Y-85247D01*
X559994Y-83898D01*
X558021Y-82502D01*
X556084Y-81058D01*
X554181Y-79567D01*
X552316Y-78032D01*
X550488Y-76451D01*
X548698Y-74827D01*
X546949Y-73160D01*
X545240Y-71451D01*
X543573Y-69702D01*
X541949Y-67912D01*
X540368Y-66084D01*
X538833Y-64219D01*
X537342Y-62316D01*
X535898Y-60379D01*
X534502Y-58406D01*
X533153Y-56401D01*
X531853Y-54364D01*
X530603Y-52296D01*
X529403Y-50198D01*
X528254Y-48072D01*
X527157Y-45919D01*
X526113Y-43740D01*
X525121Y-41536D01*
X524183Y-39309D01*
X523298Y-37060D01*
X522469Y-34791D01*
X521694Y-32502D01*
X520975Y-30195D01*
X520312Y-27871D01*
X519706Y-25532D01*
X519156Y-23178D01*
X518663Y-20813D01*
X518227Y-18436D01*
X517849Y-16049D01*
X517529Y-13654D01*
X517267Y-11251D01*
X517063Y-8843D01*
X516917Y-6431D01*
X516829Y-4016D01*
X516800Y-1600D01*
X516800Y148400D01*
X516829Y150816D01*
X516917Y153231D01*
X517063Y155643D01*
X517267Y158051D01*
X517529Y160454D01*
X517849Y162849D01*
X518227Y165236D01*
X518663Y167613D01*
X519156Y169978D01*
X519706Y172332D01*
X520312Y174671D01*
X520975Y176995D01*
X521694Y179302D01*
X522469Y181591D01*
X523298Y183860D01*
X524183Y186109D01*
X525121Y188336D01*
X526113Y190540D01*
X527157Y192719D01*
X528254Y194872D01*
X529403Y196998D01*
X530603Y199096D01*
X531853Y201164D01*
X533153Y203201D01*
X534502Y205206D01*
X535898Y207179D01*
X537342Y209116D01*
X538833Y211019D01*
X540368Y212884D01*
X541949Y214712D01*
X543573Y216502D01*
X545240Y218251D01*
X546949Y219960D01*
X548698Y221627D01*
X550488Y223251D01*
X552316Y224832D01*
X554181Y226367D01*
X556084Y227858D01*
X558021Y229302D01*
X559994Y230698D01*
X561999Y232047D01*
X564036Y233347D01*
X566104Y234597D01*
X568202Y235797D01*
X570328Y236946D01*
X572481Y238043D01*
X574660Y239087D01*
X576864Y240079D01*
X579091Y241017D01*
X581340Y241902D01*
X583609Y242731D01*
X585898Y243506D01*
X588205Y244225D01*
X590529Y244888D01*
X592868Y245494D01*
X595222Y246044D01*
X597587Y246537D01*
X599964Y246973D01*
X602351Y247351D01*
X604746Y247671D01*
X607149Y247933D01*
X609557Y248137D01*
X611969Y248283D01*
X614384Y248371D01*
X616800Y248400D01*
D12*
X837692Y88392D02*
X837692Y76708D01*
X837692Y88392D02*
X834446Y88392D01*
X834333Y88390D01*
X834220Y88384D01*
X834107Y88374D01*
X833994Y88360D01*
X833882Y88343D01*
X833771Y88321D01*
X833661Y88296D01*
X833551Y88266D01*
X833443Y88233D01*
X833336Y88196D01*
X833230Y88156D01*
X833126Y88111D01*
X833023Y88063D01*
X832922Y88012D01*
X832823Y87957D01*
X832726Y87899D01*
X832631Y87837D01*
X832538Y87772D01*
X832448Y87704D01*
X832360Y87633D01*
X832274Y87558D01*
X832191Y87481D01*
X832111Y87401D01*
X832034Y87318D01*
X831959Y87232D01*
X831888Y87144D01*
X831820Y87054D01*
X831755Y86961D01*
X831693Y86866D01*
X831635Y86769D01*
X831580Y86670D01*
X831529Y86569D01*
X831481Y86466D01*
X831436Y86362D01*
X831396Y86256D01*
X831359Y86149D01*
X831326Y86041D01*
X831296Y85931D01*
X831271Y85821D01*
X831249Y85710D01*
X831232Y85598D01*
X831218Y85485D01*
X831208Y85372D01*
X831202Y85259D01*
X831200Y85146D01*
X831202Y85033D01*
X831208Y84920D01*
X831218Y84807D01*
X831232Y84694D01*
X831249Y84582D01*
X831271Y84471D01*
X831296Y84361D01*
X831326Y84251D01*
X831359Y84143D01*
X831396Y84036D01*
X831436Y83930D01*
X831481Y83826D01*
X831529Y83723D01*
X831580Y83622D01*
X831635Y83523D01*
X831693Y83426D01*
X831755Y83331D01*
X831820Y83238D01*
X831888Y83148D01*
X831959Y83060D01*
X832034Y82974D01*
X832111Y82891D01*
X832191Y82811D01*
X832274Y82734D01*
X832360Y82659D01*
X832448Y82588D01*
X832538Y82520D01*
X832631Y82455D01*
X832726Y82393D01*
X832823Y82335D01*
X832922Y82280D01*
X833023Y82229D01*
X833126Y82181D01*
X833230Y82136D01*
X833336Y82096D01*
X833443Y82059D01*
X833551Y82026D01*
X833661Y81996D01*
X833771Y81971D01*
X833882Y81949D01*
X833994Y81932D01*
X834107Y81918D01*
X834220Y81908D01*
X834333Y81902D01*
X834446Y81900D01*
X834446Y81901D02*
X837692Y81901D01*
X826925Y81901D02*
X826925Y79304D01*
X826925Y81901D02*
X826923Y82002D01*
X826917Y82102D01*
X826907Y82202D01*
X826894Y82302D01*
X826876Y82401D01*
X826855Y82500D01*
X826830Y82597D01*
X826801Y82694D01*
X826768Y82789D01*
X826732Y82883D01*
X826692Y82975D01*
X826649Y83066D01*
X826602Y83155D01*
X826552Y83242D01*
X826498Y83328D01*
X826441Y83411D01*
X826381Y83491D01*
X826318Y83570D01*
X826251Y83646D01*
X826182Y83719D01*
X826110Y83789D01*
X826036Y83857D01*
X825959Y83922D01*
X825879Y83983D01*
X825797Y84042D01*
X825713Y84097D01*
X825627Y84149D01*
X825539Y84198D01*
X825449Y84243D01*
X825357Y84285D01*
X825264Y84323D01*
X825169Y84357D01*
X825074Y84388D01*
X824977Y84415D01*
X824879Y84438D01*
X824780Y84458D01*
X824680Y84473D01*
X824580Y84485D01*
X824480Y84493D01*
X824379Y84497D01*
X824279Y84497D01*
X824178Y84493D01*
X824078Y84485D01*
X823978Y84473D01*
X823878Y84458D01*
X823779Y84438D01*
X823681Y84415D01*
X823584Y84388D01*
X823489Y84357D01*
X823394Y84323D01*
X823301Y84285D01*
X823209Y84243D01*
X823119Y84198D01*
X823031Y84149D01*
X822945Y84097D01*
X822861Y84042D01*
X822779Y83983D01*
X822699Y83922D01*
X822622Y83857D01*
X822548Y83789D01*
X822476Y83719D01*
X822407Y83646D01*
X822340Y83570D01*
X822277Y83491D01*
X822217Y83411D01*
X822160Y83328D01*
X822106Y83242D01*
X822056Y83155D01*
X822009Y83066D01*
X821966Y82975D01*
X821926Y82883D01*
X821890Y82789D01*
X821857Y82694D01*
X821828Y82597D01*
X821803Y82500D01*
X821782Y82401D01*
X821764Y82302D01*
X821751Y82202D01*
X821741Y82102D01*
X821735Y82002D01*
X821733Y81901D01*
X821732Y81901D02*
X821732Y79304D01*
X821733Y79304D02*
X821735Y79203D01*
X821741Y79103D01*
X821751Y79003D01*
X821764Y78903D01*
X821782Y78804D01*
X821803Y78705D01*
X821828Y78608D01*
X821857Y78511D01*
X821890Y78416D01*
X821926Y78322D01*
X821966Y78230D01*
X822009Y78139D01*
X822056Y78050D01*
X822106Y77963D01*
X822160Y77877D01*
X822217Y77794D01*
X822277Y77714D01*
X822340Y77635D01*
X822407Y77559D01*
X822476Y77486D01*
X822548Y77416D01*
X822622Y77348D01*
X822699Y77283D01*
X822779Y77222D01*
X822861Y77163D01*
X822945Y77108D01*
X823031Y77056D01*
X823119Y77007D01*
X823209Y76962D01*
X823301Y76920D01*
X823394Y76882D01*
X823489Y76848D01*
X823584Y76817D01*
X823681Y76790D01*
X823779Y76767D01*
X823878Y76747D01*
X823978Y76732D01*
X824078Y76720D01*
X824178Y76712D01*
X824279Y76708D01*
X824379Y76708D01*
X824480Y76712D01*
X824580Y76720D01*
X824680Y76732D01*
X824780Y76747D01*
X824879Y76767D01*
X824977Y76790D01*
X825074Y76817D01*
X825169Y76848D01*
X825264Y76882D01*
X825357Y76920D01*
X825449Y76962D01*
X825539Y77007D01*
X825627Y77056D01*
X825713Y77108D01*
X825797Y77163D01*
X825879Y77222D01*
X825959Y77283D01*
X826036Y77348D01*
X826110Y77416D01*
X826182Y77486D01*
X826251Y77559D01*
X826318Y77635D01*
X826381Y77714D01*
X826441Y77794D01*
X826498Y77877D01*
X826552Y77963D01*
X826602Y78050D01*
X826649Y78139D01*
X826692Y78230D01*
X826732Y78322D01*
X826768Y78416D01*
X826801Y78511D01*
X826830Y78608D01*
X826855Y78705D01*
X826876Y78804D01*
X826894Y78903D01*
X826907Y79003D01*
X826917Y79103D01*
X826923Y79203D01*
X826925Y79304D01*
X815059Y76708D02*
X812462Y76708D01*
X815059Y76708D02*
X815146Y76710D01*
X815234Y76716D01*
X815320Y76726D01*
X815407Y76739D01*
X815492Y76757D01*
X815577Y76778D01*
X815661Y76803D01*
X815743Y76832D01*
X815824Y76865D01*
X815904Y76901D01*
X815982Y76940D01*
X816058Y76984D01*
X816132Y77030D01*
X816203Y77080D01*
X816273Y77133D01*
X816340Y77189D01*
X816404Y77248D01*
X816466Y77310D01*
X816525Y77374D01*
X816581Y77441D01*
X816634Y77511D01*
X816684Y77582D01*
X816730Y77656D01*
X816774Y77732D01*
X816813Y77810D01*
X816849Y77890D01*
X816882Y77971D01*
X816911Y78053D01*
X816936Y78137D01*
X816957Y78222D01*
X816975Y78307D01*
X816988Y78394D01*
X816998Y78480D01*
X817004Y78568D01*
X817006Y78655D01*
X817006Y82550D01*
X817004Y82637D01*
X816998Y82725D01*
X816988Y82811D01*
X816975Y82898D01*
X816957Y82983D01*
X816936Y83068D01*
X816911Y83152D01*
X816882Y83234D01*
X816849Y83315D01*
X816813Y83395D01*
X816774Y83473D01*
X816730Y83549D01*
X816684Y83623D01*
X816634Y83694D01*
X816581Y83764D01*
X816525Y83831D01*
X816466Y83895D01*
X816404Y83957D01*
X816340Y84016D01*
X816273Y84072D01*
X816203Y84125D01*
X816132Y84175D01*
X816058Y84221D01*
X815982Y84265D01*
X815904Y84304D01*
X815824Y84340D01*
X815743Y84373D01*
X815661Y84402D01*
X815577Y84427D01*
X815492Y84448D01*
X815407Y84466D01*
X815320Y84479D01*
X815234Y84489D01*
X815146Y84495D01*
X815059Y84497D01*
X812462Y84497D01*
X807740Y88392D02*
X807740Y76708D01*
X807740Y80603D02*
X802547Y84497D01*
X805468Y82225D02*
X802547Y76708D01*
X796403Y76708D02*
X793157Y76708D01*
X796403Y76708D02*
X796490Y76710D01*
X796578Y76716D01*
X796664Y76726D01*
X796751Y76739D01*
X796836Y76757D01*
X796921Y76778D01*
X797005Y76803D01*
X797087Y76832D01*
X797168Y76865D01*
X797248Y76901D01*
X797326Y76940D01*
X797402Y76984D01*
X797476Y77030D01*
X797547Y77080D01*
X797617Y77133D01*
X797684Y77189D01*
X797748Y77248D01*
X797810Y77310D01*
X797869Y77374D01*
X797925Y77441D01*
X797978Y77511D01*
X798028Y77582D01*
X798074Y77656D01*
X798118Y77732D01*
X798157Y77810D01*
X798193Y77890D01*
X798226Y77971D01*
X798255Y78053D01*
X798280Y78137D01*
X798301Y78222D01*
X798319Y78307D01*
X798332Y78394D01*
X798342Y78480D01*
X798348Y78568D01*
X798350Y78655D01*
X798350Y81901D01*
X798348Y82002D01*
X798342Y82102D01*
X798332Y82202D01*
X798319Y82302D01*
X798301Y82401D01*
X798280Y82500D01*
X798255Y82597D01*
X798226Y82694D01*
X798193Y82789D01*
X798157Y82883D01*
X798117Y82975D01*
X798074Y83066D01*
X798027Y83155D01*
X797977Y83242D01*
X797923Y83328D01*
X797866Y83411D01*
X797806Y83491D01*
X797743Y83570D01*
X797676Y83646D01*
X797607Y83719D01*
X797535Y83789D01*
X797461Y83857D01*
X797384Y83922D01*
X797304Y83983D01*
X797222Y84042D01*
X797138Y84097D01*
X797052Y84149D01*
X796964Y84198D01*
X796874Y84243D01*
X796782Y84285D01*
X796689Y84323D01*
X796594Y84357D01*
X796499Y84388D01*
X796402Y84415D01*
X796304Y84438D01*
X796205Y84458D01*
X796105Y84473D01*
X796005Y84485D01*
X795905Y84493D01*
X795804Y84497D01*
X795704Y84497D01*
X795603Y84493D01*
X795503Y84485D01*
X795403Y84473D01*
X795303Y84458D01*
X795204Y84438D01*
X795106Y84415D01*
X795009Y84388D01*
X794914Y84357D01*
X794819Y84323D01*
X794726Y84285D01*
X794634Y84243D01*
X794544Y84198D01*
X794456Y84149D01*
X794370Y84097D01*
X794286Y84042D01*
X794204Y83983D01*
X794124Y83922D01*
X794047Y83857D01*
X793973Y83789D01*
X793901Y83719D01*
X793832Y83646D01*
X793765Y83570D01*
X793702Y83491D01*
X793642Y83411D01*
X793585Y83328D01*
X793531Y83242D01*
X793481Y83155D01*
X793434Y83066D01*
X793391Y82975D01*
X793351Y82883D01*
X793315Y82789D01*
X793282Y82694D01*
X793253Y82597D01*
X793228Y82500D01*
X793207Y82401D01*
X793189Y82302D01*
X793176Y82202D01*
X793166Y82102D01*
X793160Y82002D01*
X793158Y81901D01*
X793157Y81901D02*
X793157Y80603D01*
X798350Y80603D01*
X789412Y84497D02*
X785517Y84497D01*
X788113Y88392D02*
X788113Y78655D01*
X788111Y78568D01*
X788105Y78480D01*
X788095Y78394D01*
X788082Y78307D01*
X788064Y78222D01*
X788043Y78137D01*
X788018Y78053D01*
X787989Y77971D01*
X787956Y77890D01*
X787920Y77810D01*
X787881Y77732D01*
X787837Y77656D01*
X787791Y77582D01*
X787741Y77511D01*
X787688Y77441D01*
X787632Y77374D01*
X787573Y77310D01*
X787511Y77248D01*
X787447Y77189D01*
X787380Y77133D01*
X787310Y77080D01*
X787239Y77030D01*
X787165Y76984D01*
X787089Y76940D01*
X787011Y76901D01*
X786931Y76865D01*
X786850Y76832D01*
X786768Y76803D01*
X786684Y76778D01*
X786599Y76757D01*
X786514Y76739D01*
X786427Y76726D01*
X786341Y76716D01*
X786253Y76710D01*
X786166Y76708D01*
X785517Y76708D01*
X774446Y83199D02*
X771201Y83199D01*
X771201Y83200D02*
X771088Y83198D01*
X770975Y83192D01*
X770862Y83182D01*
X770749Y83168D01*
X770637Y83151D01*
X770526Y83129D01*
X770416Y83104D01*
X770306Y83074D01*
X770198Y83041D01*
X770091Y83004D01*
X769985Y82964D01*
X769881Y82919D01*
X769778Y82871D01*
X769677Y82820D01*
X769578Y82765D01*
X769481Y82707D01*
X769386Y82645D01*
X769293Y82580D01*
X769203Y82512D01*
X769115Y82441D01*
X769029Y82366D01*
X768946Y82289D01*
X768866Y82209D01*
X768789Y82126D01*
X768714Y82040D01*
X768643Y81952D01*
X768575Y81862D01*
X768510Y81769D01*
X768448Y81674D01*
X768390Y81577D01*
X768335Y81478D01*
X768284Y81377D01*
X768236Y81274D01*
X768191Y81170D01*
X768151Y81064D01*
X768114Y80957D01*
X768081Y80849D01*
X768051Y80739D01*
X768026Y80629D01*
X768004Y80518D01*
X767987Y80406D01*
X767973Y80293D01*
X767963Y80180D01*
X767957Y80067D01*
X767955Y79954D01*
X767957Y79841D01*
X767963Y79728D01*
X767973Y79615D01*
X767987Y79502D01*
X768004Y79390D01*
X768026Y79279D01*
X768051Y79169D01*
X768081Y79059D01*
X768114Y78951D01*
X768151Y78844D01*
X768191Y78738D01*
X768236Y78634D01*
X768284Y78531D01*
X768335Y78430D01*
X768390Y78331D01*
X768448Y78234D01*
X768510Y78139D01*
X768575Y78046D01*
X768643Y77956D01*
X768714Y77868D01*
X768789Y77782D01*
X768866Y77699D01*
X768946Y77619D01*
X769029Y77542D01*
X769115Y77467D01*
X769203Y77396D01*
X769293Y77328D01*
X769386Y77263D01*
X769481Y77201D01*
X769578Y77143D01*
X769677Y77088D01*
X769778Y77037D01*
X769881Y76989D01*
X769985Y76944D01*
X770091Y76904D01*
X770198Y76867D01*
X770306Y76834D01*
X770416Y76804D01*
X770526Y76779D01*
X770637Y76757D01*
X770749Y76740D01*
X770862Y76726D01*
X770975Y76716D01*
X771088Y76710D01*
X771201Y76708D01*
X774446Y76708D01*
X774446Y88392D01*
X771201Y88392D01*
X771100Y88390D01*
X771000Y88384D01*
X770900Y88374D01*
X770800Y88361D01*
X770701Y88343D01*
X770602Y88322D01*
X770505Y88297D01*
X770408Y88268D01*
X770313Y88235D01*
X770219Y88199D01*
X770127Y88159D01*
X770036Y88116D01*
X769947Y88069D01*
X769860Y88019D01*
X769774Y87965D01*
X769691Y87908D01*
X769611Y87848D01*
X769532Y87785D01*
X769456Y87718D01*
X769383Y87649D01*
X769313Y87577D01*
X769245Y87503D01*
X769180Y87426D01*
X769119Y87346D01*
X769060Y87264D01*
X769005Y87180D01*
X768953Y87094D01*
X768904Y87006D01*
X768859Y86916D01*
X768817Y86824D01*
X768779Y86731D01*
X768745Y86636D01*
X768714Y86541D01*
X768687Y86444D01*
X768664Y86346D01*
X768644Y86247D01*
X768629Y86147D01*
X768617Y86047D01*
X768609Y85947D01*
X768605Y85846D01*
X768605Y85746D01*
X768609Y85645D01*
X768617Y85545D01*
X768629Y85445D01*
X768644Y85345D01*
X768664Y85246D01*
X768687Y85148D01*
X768714Y85051D01*
X768745Y84956D01*
X768779Y84861D01*
X768817Y84768D01*
X768859Y84676D01*
X768904Y84586D01*
X768953Y84498D01*
X769005Y84412D01*
X769060Y84328D01*
X769119Y84246D01*
X769180Y84166D01*
X769245Y84089D01*
X769313Y84015D01*
X769383Y83943D01*
X769456Y83874D01*
X769532Y83807D01*
X769611Y83744D01*
X769691Y83684D01*
X769774Y83627D01*
X769860Y83573D01*
X769947Y83523D01*
X770036Y83476D01*
X770127Y83433D01*
X770219Y83393D01*
X770313Y83357D01*
X770408Y83324D01*
X770505Y83295D01*
X770602Y83270D01*
X770701Y83249D01*
X770800Y83231D01*
X770900Y83218D01*
X771000Y83208D01*
X771100Y83202D01*
X771201Y83200D01*
X761732Y76708D02*
X758486Y76708D01*
X761732Y76708D02*
X761819Y76710D01*
X761907Y76716D01*
X761993Y76726D01*
X762080Y76739D01*
X762165Y76757D01*
X762250Y76778D01*
X762334Y76803D01*
X762416Y76832D01*
X762497Y76865D01*
X762577Y76901D01*
X762655Y76940D01*
X762731Y76984D01*
X762805Y77030D01*
X762876Y77080D01*
X762946Y77133D01*
X763013Y77189D01*
X763077Y77248D01*
X763139Y77310D01*
X763198Y77374D01*
X763254Y77441D01*
X763307Y77511D01*
X763357Y77582D01*
X763403Y77656D01*
X763447Y77732D01*
X763486Y77810D01*
X763522Y77890D01*
X763555Y77971D01*
X763584Y78053D01*
X763609Y78137D01*
X763630Y78222D01*
X763648Y78307D01*
X763661Y78394D01*
X763671Y78480D01*
X763677Y78568D01*
X763679Y78655D01*
X763679Y81901D01*
X763677Y82002D01*
X763671Y82102D01*
X763661Y82202D01*
X763648Y82302D01*
X763630Y82401D01*
X763609Y82500D01*
X763584Y82597D01*
X763555Y82694D01*
X763522Y82789D01*
X763486Y82883D01*
X763446Y82975D01*
X763403Y83066D01*
X763356Y83155D01*
X763306Y83242D01*
X763252Y83328D01*
X763195Y83411D01*
X763135Y83491D01*
X763072Y83570D01*
X763005Y83646D01*
X762936Y83719D01*
X762864Y83789D01*
X762790Y83857D01*
X762713Y83922D01*
X762633Y83983D01*
X762551Y84042D01*
X762467Y84097D01*
X762381Y84149D01*
X762293Y84198D01*
X762203Y84243D01*
X762111Y84285D01*
X762018Y84323D01*
X761923Y84357D01*
X761828Y84388D01*
X761731Y84415D01*
X761633Y84438D01*
X761534Y84458D01*
X761434Y84473D01*
X761334Y84485D01*
X761234Y84493D01*
X761133Y84497D01*
X761033Y84497D01*
X760932Y84493D01*
X760832Y84485D01*
X760732Y84473D01*
X760632Y84458D01*
X760533Y84438D01*
X760435Y84415D01*
X760338Y84388D01*
X760243Y84357D01*
X760148Y84323D01*
X760055Y84285D01*
X759963Y84243D01*
X759873Y84198D01*
X759785Y84149D01*
X759699Y84097D01*
X759615Y84042D01*
X759533Y83983D01*
X759453Y83922D01*
X759376Y83857D01*
X759302Y83789D01*
X759230Y83719D01*
X759161Y83646D01*
X759094Y83570D01*
X759031Y83491D01*
X758971Y83411D01*
X758914Y83328D01*
X758860Y83242D01*
X758810Y83155D01*
X758763Y83066D01*
X758720Y82975D01*
X758680Y82883D01*
X758644Y82789D01*
X758611Y82694D01*
X758582Y82597D01*
X758557Y82500D01*
X758536Y82401D01*
X758518Y82302D01*
X758505Y82202D01*
X758495Y82102D01*
X758489Y82002D01*
X758487Y81901D01*
X758486Y81901D02*
X758486Y80603D01*
X763679Y80603D01*
X751560Y81252D02*
X748639Y81252D01*
X751560Y81252D02*
X751654Y81250D01*
X751748Y81244D01*
X751841Y81235D01*
X751934Y81221D01*
X752026Y81204D01*
X752118Y81182D01*
X752208Y81158D01*
X752298Y81129D01*
X752386Y81097D01*
X752473Y81061D01*
X752558Y81021D01*
X752641Y80978D01*
X752723Y80932D01*
X752803Y80882D01*
X752880Y80829D01*
X752955Y80773D01*
X753028Y80714D01*
X753099Y80652D01*
X753167Y80587D01*
X753232Y80519D01*
X753294Y80448D01*
X753353Y80375D01*
X753409Y80300D01*
X753462Y80223D01*
X753512Y80143D01*
X753558Y80061D01*
X753601Y79978D01*
X753641Y79893D01*
X753677Y79806D01*
X753709Y79718D01*
X753738Y79628D01*
X753762Y79538D01*
X753784Y79446D01*
X753801Y79354D01*
X753815Y79261D01*
X753824Y79168D01*
X753830Y79074D01*
X753832Y78980D01*
X753830Y78886D01*
X753824Y78792D01*
X753815Y78699D01*
X753801Y78606D01*
X753784Y78514D01*
X753762Y78422D01*
X753738Y78332D01*
X753709Y78242D01*
X753677Y78154D01*
X753641Y78067D01*
X753601Y77982D01*
X753558Y77899D01*
X753512Y77817D01*
X753462Y77737D01*
X753409Y77660D01*
X753353Y77585D01*
X753294Y77512D01*
X753232Y77441D01*
X753167Y77373D01*
X753099Y77308D01*
X753028Y77246D01*
X752955Y77187D01*
X752880Y77131D01*
X752803Y77078D01*
X752723Y77028D01*
X752641Y76982D01*
X752558Y76939D01*
X752473Y76899D01*
X752386Y76863D01*
X752298Y76831D01*
X752208Y76802D01*
X752118Y76778D01*
X752026Y76756D01*
X751934Y76739D01*
X751841Y76725D01*
X751748Y76716D01*
X751654Y76710D01*
X751560Y76708D01*
X748639Y76708D01*
X748639Y82550D01*
X748640Y82550D02*
X748642Y82637D01*
X748648Y82725D01*
X748658Y82811D01*
X748671Y82898D01*
X748689Y82983D01*
X748710Y83068D01*
X748735Y83152D01*
X748764Y83234D01*
X748797Y83315D01*
X748833Y83395D01*
X748872Y83473D01*
X748916Y83549D01*
X748962Y83623D01*
X749012Y83694D01*
X749065Y83764D01*
X749121Y83831D01*
X749180Y83896D01*
X749242Y83957D01*
X749306Y84016D01*
X749373Y84072D01*
X749443Y84125D01*
X749514Y84175D01*
X749588Y84221D01*
X749664Y84265D01*
X749742Y84304D01*
X749822Y84340D01*
X749903Y84373D01*
X749985Y84402D01*
X750069Y84427D01*
X750154Y84448D01*
X750239Y84466D01*
X750326Y84479D01*
X750413Y84489D01*
X750500Y84495D01*
X750587Y84497D01*
X753183Y84497D01*
X741598Y76708D02*
X738352Y76708D01*
X741598Y76708D02*
X741685Y76710D01*
X741773Y76716D01*
X741859Y76726D01*
X741946Y76739D01*
X742031Y76757D01*
X742116Y76778D01*
X742200Y76803D01*
X742282Y76832D01*
X742363Y76865D01*
X742443Y76901D01*
X742521Y76940D01*
X742597Y76984D01*
X742671Y77030D01*
X742742Y77080D01*
X742812Y77133D01*
X742879Y77189D01*
X742943Y77248D01*
X743005Y77310D01*
X743064Y77374D01*
X743120Y77441D01*
X743173Y77511D01*
X743223Y77582D01*
X743269Y77656D01*
X743313Y77732D01*
X743352Y77810D01*
X743388Y77890D01*
X743421Y77971D01*
X743450Y78053D01*
X743475Y78137D01*
X743496Y78222D01*
X743514Y78307D01*
X743527Y78394D01*
X743537Y78480D01*
X743543Y78568D01*
X743545Y78655D01*
X743545Y82550D01*
X743543Y82637D01*
X743537Y82725D01*
X743527Y82811D01*
X743514Y82898D01*
X743496Y82983D01*
X743475Y83068D01*
X743450Y83152D01*
X743421Y83234D01*
X743388Y83315D01*
X743352Y83395D01*
X743313Y83473D01*
X743269Y83549D01*
X743223Y83623D01*
X743173Y83694D01*
X743120Y83764D01*
X743064Y83831D01*
X743005Y83895D01*
X742943Y83957D01*
X742879Y84016D01*
X742812Y84072D01*
X742742Y84125D01*
X742671Y84175D01*
X742597Y84221D01*
X742521Y84265D01*
X742443Y84304D01*
X742363Y84340D01*
X742282Y84373D01*
X742200Y84402D01*
X742116Y84427D01*
X742031Y84448D01*
X741946Y84466D01*
X741859Y84479D01*
X741773Y84489D01*
X741685Y84495D01*
X741598Y84497D01*
X738352Y84497D01*
X738352Y74761D01*
X738353Y74761D02*
X738355Y74674D01*
X738361Y74586D01*
X738371Y74500D01*
X738384Y74413D01*
X738402Y74328D01*
X738423Y74243D01*
X738448Y74159D01*
X738477Y74077D01*
X738510Y73996D01*
X738546Y73916D01*
X738585Y73838D01*
X738629Y73762D01*
X738675Y73688D01*
X738725Y73617D01*
X738778Y73547D01*
X738834Y73480D01*
X738893Y73416D01*
X738955Y73354D01*
X739019Y73295D01*
X739086Y73239D01*
X739156Y73186D01*
X739227Y73136D01*
X739301Y73090D01*
X739377Y73046D01*
X739455Y73007D01*
X739535Y72971D01*
X739616Y72938D01*
X739698Y72909D01*
X739782Y72884D01*
X739867Y72863D01*
X739952Y72845D01*
X740039Y72832D01*
X740125Y72822D01*
X740213Y72816D01*
X740300Y72814D01*
X740300Y72813D02*
X742896Y72813D01*
X733050Y78655D02*
X733050Y88392D01*
X733050Y78655D02*
X733048Y78568D01*
X733042Y78480D01*
X733032Y78394D01*
X733019Y78307D01*
X733001Y78222D01*
X732980Y78137D01*
X732955Y78053D01*
X732926Y77971D01*
X732893Y77890D01*
X732857Y77810D01*
X732818Y77732D01*
X732774Y77656D01*
X732728Y77582D01*
X732678Y77511D01*
X732625Y77441D01*
X732569Y77374D01*
X732510Y77310D01*
X732448Y77248D01*
X732384Y77189D01*
X732317Y77133D01*
X732247Y77080D01*
X732176Y77030D01*
X732102Y76984D01*
X732026Y76940D01*
X731948Y76901D01*
X731868Y76865D01*
X731787Y76832D01*
X731705Y76803D01*
X731621Y76778D01*
X731536Y76757D01*
X731451Y76739D01*
X731364Y76726D01*
X731278Y76716D01*
X731190Y76710D01*
X731103Y76708D01*
X725156Y76708D02*
X721911Y76708D01*
X725156Y76708D02*
X725243Y76710D01*
X725331Y76716D01*
X725417Y76726D01*
X725504Y76739D01*
X725589Y76757D01*
X725674Y76778D01*
X725758Y76803D01*
X725840Y76832D01*
X725921Y76865D01*
X726001Y76901D01*
X726079Y76940D01*
X726155Y76984D01*
X726229Y77030D01*
X726300Y77080D01*
X726370Y77133D01*
X726437Y77189D01*
X726501Y77248D01*
X726563Y77310D01*
X726622Y77374D01*
X726678Y77441D01*
X726731Y77511D01*
X726781Y77582D01*
X726827Y77656D01*
X726871Y77732D01*
X726910Y77810D01*
X726946Y77890D01*
X726979Y77971D01*
X727008Y78053D01*
X727033Y78137D01*
X727054Y78222D01*
X727072Y78307D01*
X727085Y78394D01*
X727095Y78480D01*
X727101Y78568D01*
X727103Y78655D01*
X727103Y81901D01*
X727101Y82002D01*
X727095Y82102D01*
X727085Y82202D01*
X727072Y82302D01*
X727054Y82401D01*
X727033Y82500D01*
X727008Y82597D01*
X726979Y82694D01*
X726946Y82789D01*
X726910Y82883D01*
X726870Y82975D01*
X726827Y83066D01*
X726780Y83155D01*
X726730Y83242D01*
X726676Y83328D01*
X726619Y83411D01*
X726559Y83491D01*
X726496Y83570D01*
X726429Y83646D01*
X726360Y83719D01*
X726288Y83789D01*
X726214Y83857D01*
X726137Y83922D01*
X726057Y83983D01*
X725975Y84042D01*
X725891Y84097D01*
X725805Y84149D01*
X725717Y84198D01*
X725627Y84243D01*
X725535Y84285D01*
X725442Y84323D01*
X725347Y84357D01*
X725252Y84388D01*
X725155Y84415D01*
X725057Y84438D01*
X724958Y84458D01*
X724858Y84473D01*
X724758Y84485D01*
X724658Y84493D01*
X724557Y84497D01*
X724457Y84497D01*
X724356Y84493D01*
X724256Y84485D01*
X724156Y84473D01*
X724056Y84458D01*
X723957Y84438D01*
X723859Y84415D01*
X723762Y84388D01*
X723667Y84357D01*
X723572Y84323D01*
X723479Y84285D01*
X723387Y84243D01*
X723297Y84198D01*
X723209Y84149D01*
X723123Y84097D01*
X723039Y84042D01*
X722957Y83983D01*
X722877Y83922D01*
X722800Y83857D01*
X722726Y83789D01*
X722654Y83719D01*
X722585Y83646D01*
X722518Y83570D01*
X722455Y83491D01*
X722395Y83411D01*
X722338Y83328D01*
X722284Y83242D01*
X722234Y83155D01*
X722187Y83066D01*
X722144Y82975D01*
X722104Y82883D01*
X722068Y82789D01*
X722035Y82694D01*
X722006Y82597D01*
X721981Y82500D01*
X721960Y82401D01*
X721942Y82302D01*
X721929Y82202D01*
X721919Y82102D01*
X721913Y82002D01*
X721911Y81901D01*
X721911Y80603D01*
X727103Y80603D01*
D13*
X1041781Y38481D02*
X1048046Y38481D01*
X1048046Y43180D01*
X1048044Y43257D01*
X1048038Y43333D01*
X1048029Y43410D01*
X1048016Y43486D01*
X1047999Y43561D01*
X1047979Y43635D01*
X1047954Y43708D01*
X1047927Y43779D01*
X1047896Y43850D01*
X1047861Y43918D01*
X1047823Y43985D01*
X1047782Y44050D01*
X1047738Y44113D01*
X1047691Y44173D01*
X1047640Y44232D01*
X1047587Y44287D01*
X1047532Y44340D01*
X1047473Y44391D01*
X1047413Y44438D01*
X1047350Y44482D01*
X1047285Y44523D01*
X1047218Y44561D01*
X1047150Y44596D01*
X1047079Y44627D01*
X1047008Y44654D01*
X1046935Y44679D01*
X1046861Y44699D01*
X1046786Y44716D01*
X1046710Y44729D01*
X1046633Y44738D01*
X1046557Y44744D01*
X1046480Y44746D01*
X1041781Y44746D01*
X1041781Y41614D02*
X1048046Y41614D01*
X1048046Y48929D02*
X1041781Y48929D01*
X1050657Y48668D02*
X1051179Y48668D01*
X1051179Y49190D01*
X1050657Y49190D01*
X1050657Y48668D01*
X1041781Y54208D02*
X1041781Y56297D01*
X1041781Y54208D02*
X1041783Y54131D01*
X1041789Y54055D01*
X1041798Y53978D01*
X1041811Y53902D01*
X1041828Y53827D01*
X1041848Y53753D01*
X1041873Y53680D01*
X1041900Y53609D01*
X1041931Y53538D01*
X1041966Y53470D01*
X1042004Y53403D01*
X1042045Y53338D01*
X1042089Y53275D01*
X1042136Y53215D01*
X1042187Y53156D01*
X1042240Y53101D01*
X1042295Y53048D01*
X1042354Y52997D01*
X1042414Y52950D01*
X1042477Y52906D01*
X1042542Y52865D01*
X1042609Y52827D01*
X1042677Y52792D01*
X1042748Y52761D01*
X1042819Y52734D01*
X1042892Y52709D01*
X1042966Y52689D01*
X1043041Y52672D01*
X1043117Y52659D01*
X1043194Y52650D01*
X1043270Y52644D01*
X1043347Y52642D01*
X1046480Y52642D01*
X1046557Y52644D01*
X1046633Y52650D01*
X1046710Y52659D01*
X1046786Y52672D01*
X1046861Y52689D01*
X1046935Y52709D01*
X1047008Y52734D01*
X1047079Y52761D01*
X1047150Y52792D01*
X1047218Y52827D01*
X1047285Y52865D01*
X1047350Y52906D01*
X1047413Y52950D01*
X1047473Y52997D01*
X1047532Y53048D01*
X1047587Y53101D01*
X1047640Y53156D01*
X1047691Y53215D01*
X1047738Y53275D01*
X1047782Y53338D01*
X1047823Y53403D01*
X1047861Y53470D01*
X1047896Y53538D01*
X1047927Y53609D01*
X1047954Y53680D01*
X1047979Y53753D01*
X1047999Y53827D01*
X1048016Y53902D01*
X1048029Y53978D01*
X1048038Y54055D01*
X1048044Y54131D01*
X1048046Y54208D01*
X1048046Y56297D01*
X1048046Y59998D02*
X1041781Y59998D01*
X1048046Y59998D02*
X1048046Y63131D01*
X1047002Y63131D01*
X1045958Y66043D02*
X1043869Y66043D01*
X1045958Y66043D02*
X1046048Y66045D01*
X1046137Y66051D01*
X1046227Y66060D01*
X1046316Y66074D01*
X1046404Y66091D01*
X1046491Y66112D01*
X1046578Y66137D01*
X1046663Y66166D01*
X1046747Y66198D01*
X1046829Y66233D01*
X1046910Y66273D01*
X1046989Y66315D01*
X1047066Y66361D01*
X1047141Y66411D01*
X1047214Y66463D01*
X1047285Y66519D01*
X1047353Y66577D01*
X1047418Y66639D01*
X1047481Y66703D01*
X1047541Y66770D01*
X1047598Y66839D01*
X1047652Y66911D01*
X1047703Y66985D01*
X1047751Y67061D01*
X1047795Y67139D01*
X1047836Y67219D01*
X1047874Y67301D01*
X1047908Y67384D01*
X1047938Y67469D01*
X1047965Y67555D01*
X1047988Y67641D01*
X1048007Y67729D01*
X1048022Y67818D01*
X1048034Y67907D01*
X1048042Y67996D01*
X1048046Y68086D01*
X1048046Y68176D01*
X1048042Y68266D01*
X1048034Y68355D01*
X1048022Y68444D01*
X1048007Y68533D01*
X1047988Y68621D01*
X1047965Y68707D01*
X1047938Y68793D01*
X1047908Y68878D01*
X1047874Y68961D01*
X1047836Y69043D01*
X1047795Y69123D01*
X1047751Y69201D01*
X1047703Y69277D01*
X1047652Y69351D01*
X1047598Y69423D01*
X1047541Y69492D01*
X1047481Y69559D01*
X1047418Y69623D01*
X1047353Y69685D01*
X1047285Y69743D01*
X1047214Y69799D01*
X1047141Y69851D01*
X1047066Y69901D01*
X1046989Y69947D01*
X1046910Y69989D01*
X1046829Y70029D01*
X1046747Y70064D01*
X1046663Y70096D01*
X1046578Y70125D01*
X1046491Y70150D01*
X1046404Y70171D01*
X1046316Y70188D01*
X1046227Y70202D01*
X1046137Y70211D01*
X1046048Y70217D01*
X1045958Y70219D01*
X1045958Y70220D02*
X1043869Y70220D01*
X1043869Y70219D02*
X1043779Y70217D01*
X1043690Y70211D01*
X1043600Y70202D01*
X1043511Y70188D01*
X1043423Y70171D01*
X1043336Y70150D01*
X1043249Y70125D01*
X1043164Y70096D01*
X1043080Y70064D01*
X1042998Y70029D01*
X1042917Y69989D01*
X1042838Y69947D01*
X1042761Y69901D01*
X1042686Y69851D01*
X1042613Y69799D01*
X1042542Y69743D01*
X1042474Y69685D01*
X1042409Y69623D01*
X1042346Y69559D01*
X1042286Y69492D01*
X1042229Y69423D01*
X1042175Y69351D01*
X1042124Y69277D01*
X1042076Y69201D01*
X1042032Y69123D01*
X1041991Y69043D01*
X1041953Y68961D01*
X1041919Y68878D01*
X1041889Y68793D01*
X1041862Y68707D01*
X1041839Y68621D01*
X1041820Y68533D01*
X1041805Y68444D01*
X1041793Y68355D01*
X1041785Y68266D01*
X1041781Y68176D01*
X1041781Y68086D01*
X1041785Y67996D01*
X1041793Y67907D01*
X1041805Y67818D01*
X1041820Y67729D01*
X1041839Y67641D01*
X1041862Y67555D01*
X1041889Y67469D01*
X1041919Y67384D01*
X1041953Y67301D01*
X1041991Y67219D01*
X1042032Y67139D01*
X1042076Y67061D01*
X1042124Y66985D01*
X1042175Y66911D01*
X1042229Y66839D01*
X1042286Y66770D01*
X1042346Y66703D01*
X1042409Y66639D01*
X1042474Y66577D01*
X1042542Y66519D01*
X1042613Y66463D01*
X1042686Y66411D01*
X1042761Y66361D01*
X1042838Y66315D01*
X1042917Y66273D01*
X1042998Y66233D01*
X1043080Y66198D01*
X1043164Y66166D01*
X1043249Y66137D01*
X1043336Y66112D01*
X1043423Y66091D01*
X1043511Y66074D01*
X1043600Y66060D01*
X1043690Y66051D01*
X1043779Y66045D01*
X1043869Y66043D01*
X1044392Y74360D02*
X1051179Y74360D01*
X1044392Y74359D02*
X1044291Y74361D01*
X1044190Y74367D01*
X1044089Y74377D01*
X1043989Y74390D01*
X1043889Y74408D01*
X1043790Y74429D01*
X1043692Y74455D01*
X1043595Y74484D01*
X1043499Y74516D01*
X1043405Y74553D01*
X1043312Y74593D01*
X1043220Y74637D01*
X1043131Y74684D01*
X1043043Y74735D01*
X1042957Y74789D01*
X1042874Y74846D01*
X1042792Y74906D01*
X1042714Y74970D01*
X1042637Y75036D01*
X1042564Y75106D01*
X1042493Y75178D01*
X1042425Y75253D01*
X1042360Y75331D01*
X1042298Y75411D01*
X1042239Y75493D01*
X1042183Y75578D01*
X1042131Y75665D01*
X1042082Y75753D01*
X1042036Y75844D01*
X1041995Y75936D01*
X1041956Y76030D01*
X1041922Y76125D01*
X1041891Y76221D01*
X1041864Y76319D01*
X1041840Y76417D01*
X1041821Y76517D01*
X1041805Y76617D01*
X1041793Y76717D01*
X1041785Y76818D01*
X1041781Y76919D01*
X1041781Y77021D01*
X1041785Y77122D01*
X1041793Y77223D01*
X1041805Y77323D01*
X1041821Y77423D01*
X1041840Y77523D01*
X1041864Y77621D01*
X1041891Y77719D01*
X1041922Y77815D01*
X1041956Y77910D01*
X1041995Y78004D01*
X1042036Y78096D01*
X1042082Y78187D01*
X1042131Y78276D01*
X1042183Y78362D01*
X1042239Y78447D01*
X1042298Y78529D01*
X1042360Y78609D01*
X1042425Y78687D01*
X1042493Y78762D01*
X1042564Y78834D01*
X1042637Y78904D01*
X1042714Y78970D01*
X1042792Y79034D01*
X1042874Y79094D01*
X1042957Y79151D01*
X1043043Y79205D01*
X1043131Y79256D01*
X1043220Y79303D01*
X1043312Y79347D01*
X1043405Y79387D01*
X1043499Y79424D01*
X1043595Y79456D01*
X1043692Y79485D01*
X1043790Y79511D01*
X1043889Y79532D01*
X1043989Y79550D01*
X1044089Y79563D01*
X1044190Y79573D01*
X1044291Y79579D01*
X1044392Y79581D01*
X1051179Y79581D01*
X1043869Y88724D02*
X1043780Y88722D01*
X1043692Y88716D01*
X1043604Y88707D01*
X1043516Y88694D01*
X1043429Y88677D01*
X1043343Y88657D01*
X1043258Y88632D01*
X1043173Y88605D01*
X1043090Y88573D01*
X1043009Y88539D01*
X1042929Y88500D01*
X1042851Y88459D01*
X1042774Y88414D01*
X1042700Y88366D01*
X1042627Y88315D01*
X1042557Y88261D01*
X1042490Y88203D01*
X1042424Y88143D01*
X1042362Y88081D01*
X1042302Y88015D01*
X1042244Y87948D01*
X1042190Y87878D01*
X1042139Y87805D01*
X1042091Y87731D01*
X1042046Y87654D01*
X1042005Y87576D01*
X1041966Y87496D01*
X1041932Y87415D01*
X1041900Y87332D01*
X1041873Y87247D01*
X1041848Y87162D01*
X1041828Y87076D01*
X1041811Y86989D01*
X1041798Y86901D01*
X1041789Y86813D01*
X1041783Y86725D01*
X1041781Y86636D01*
X1041783Y86507D01*
X1041789Y86378D01*
X1041798Y86249D01*
X1041811Y86121D01*
X1041828Y85993D01*
X1041849Y85866D01*
X1041873Y85739D01*
X1041901Y85613D01*
X1041933Y85488D01*
X1041968Y85364D01*
X1042007Y85241D01*
X1042050Y85119D01*
X1042096Y84999D01*
X1042146Y84880D01*
X1042199Y84762D01*
X1042255Y84646D01*
X1042315Y84532D01*
X1042378Y84419D01*
X1042445Y84309D01*
X1042514Y84200D01*
X1042587Y84094D01*
X1042663Y83989D01*
X1042742Y83887D01*
X1042824Y83788D01*
X1042908Y83690D01*
X1042996Y83595D01*
X1043086Y83503D01*
X1049091Y83765D02*
X1049180Y83767D01*
X1049268Y83773D01*
X1049356Y83782D01*
X1049444Y83795D01*
X1049531Y83812D01*
X1049617Y83832D01*
X1049702Y83857D01*
X1049787Y83884D01*
X1049870Y83916D01*
X1049951Y83950D01*
X1050031Y83989D01*
X1050109Y84030D01*
X1050186Y84075D01*
X1050260Y84123D01*
X1050333Y84174D01*
X1050403Y84228D01*
X1050470Y84286D01*
X1050536Y84346D01*
X1050598Y84408D01*
X1050658Y84474D01*
X1050716Y84541D01*
X1050770Y84611D01*
X1050821Y84684D01*
X1050869Y84758D01*
X1050914Y84835D01*
X1050955Y84913D01*
X1050994Y84993D01*
X1051028Y85074D01*
X1051060Y85157D01*
X1051087Y85242D01*
X1051112Y85327D01*
X1051132Y85413D01*
X1051149Y85500D01*
X1051162Y85588D01*
X1051171Y85676D01*
X1051177Y85764D01*
X1051179Y85853D01*
X1051177Y85973D01*
X1051172Y86093D01*
X1051162Y86213D01*
X1051150Y86332D01*
X1051133Y86451D01*
X1051113Y86569D01*
X1051089Y86687D01*
X1051062Y86803D01*
X1051031Y86919D01*
X1050997Y87034D01*
X1050959Y87148D01*
X1050917Y87261D01*
X1050872Y87372D01*
X1050824Y87482D01*
X1050773Y87590D01*
X1050718Y87697D01*
X1050660Y87802D01*
X1050598Y87905D01*
X1050534Y88006D01*
X1050466Y88106D01*
X1050396Y88203D01*
X1047264Y84809D02*
X1047312Y84731D01*
X1047364Y84655D01*
X1047418Y84582D01*
X1047476Y84511D01*
X1047537Y84442D01*
X1047601Y84376D01*
X1047668Y84313D01*
X1047737Y84253D01*
X1047809Y84196D01*
X1047883Y84142D01*
X1047960Y84092D01*
X1048039Y84044D01*
X1048119Y84001D01*
X1048202Y83960D01*
X1048286Y83924D01*
X1048371Y83891D01*
X1048458Y83862D01*
X1048547Y83836D01*
X1048636Y83814D01*
X1048726Y83797D01*
X1048816Y83783D01*
X1048908Y83773D01*
X1048999Y83767D01*
X1049091Y83765D01*
X1045696Y87681D02*
X1045648Y87759D01*
X1045596Y87835D01*
X1045542Y87908D01*
X1045484Y87979D01*
X1045423Y88048D01*
X1045359Y88114D01*
X1045292Y88177D01*
X1045223Y88237D01*
X1045151Y88294D01*
X1045077Y88348D01*
X1045000Y88398D01*
X1044921Y88446D01*
X1044841Y88489D01*
X1044758Y88530D01*
X1044674Y88566D01*
X1044589Y88599D01*
X1044502Y88628D01*
X1044413Y88654D01*
X1044324Y88676D01*
X1044234Y88693D01*
X1044144Y88707D01*
X1044052Y88717D01*
X1043961Y88723D01*
X1043869Y88725D01*
X1045697Y87681D02*
X1047263Y84809D01*
X1047002Y92779D02*
X1047002Y95389D01*
X1047003Y95389D02*
X1047001Y95490D01*
X1046995Y95591D01*
X1046985Y95692D01*
X1046972Y95792D01*
X1046954Y95892D01*
X1046933Y95991D01*
X1046907Y96089D01*
X1046878Y96186D01*
X1046846Y96282D01*
X1046809Y96376D01*
X1046769Y96469D01*
X1046725Y96561D01*
X1046678Y96650D01*
X1046627Y96738D01*
X1046573Y96824D01*
X1046516Y96907D01*
X1046456Y96989D01*
X1046392Y97067D01*
X1046326Y97144D01*
X1046256Y97217D01*
X1046184Y97288D01*
X1046109Y97356D01*
X1046031Y97421D01*
X1045951Y97483D01*
X1045869Y97542D01*
X1045784Y97598D01*
X1045698Y97650D01*
X1045609Y97699D01*
X1045518Y97745D01*
X1045426Y97786D01*
X1045332Y97825D01*
X1045237Y97859D01*
X1045141Y97890D01*
X1045043Y97917D01*
X1044945Y97941D01*
X1044845Y97960D01*
X1044745Y97976D01*
X1044645Y97988D01*
X1044544Y97996D01*
X1044443Y98000D01*
X1044341Y98000D01*
X1044240Y97996D01*
X1044139Y97988D01*
X1044039Y97976D01*
X1043939Y97960D01*
X1043839Y97941D01*
X1043741Y97917D01*
X1043643Y97890D01*
X1043547Y97859D01*
X1043452Y97825D01*
X1043358Y97786D01*
X1043266Y97745D01*
X1043175Y97699D01*
X1043087Y97650D01*
X1043000Y97598D01*
X1042915Y97542D01*
X1042833Y97483D01*
X1042753Y97421D01*
X1042675Y97356D01*
X1042600Y97288D01*
X1042528Y97217D01*
X1042458Y97144D01*
X1042392Y97067D01*
X1042328Y96989D01*
X1042268Y96907D01*
X1042211Y96824D01*
X1042157Y96738D01*
X1042106Y96650D01*
X1042059Y96561D01*
X1042015Y96469D01*
X1041975Y96376D01*
X1041938Y96282D01*
X1041906Y96186D01*
X1041877Y96089D01*
X1041851Y95991D01*
X1041830Y95892D01*
X1041812Y95792D01*
X1041799Y95692D01*
X1041789Y95591D01*
X1041783Y95490D01*
X1041781Y95389D01*
X1041781Y92779D01*
X1051179Y92779D01*
X1051179Y95389D01*
X1051177Y95479D01*
X1051171Y95568D01*
X1051162Y95658D01*
X1051148Y95747D01*
X1051131Y95835D01*
X1051110Y95922D01*
X1051085Y96009D01*
X1051056Y96094D01*
X1051024Y96178D01*
X1050989Y96260D01*
X1050949Y96341D01*
X1050907Y96420D01*
X1050861Y96497D01*
X1050811Y96572D01*
X1050759Y96645D01*
X1050703Y96716D01*
X1050645Y96784D01*
X1050583Y96849D01*
X1050519Y96912D01*
X1050452Y96972D01*
X1050383Y97029D01*
X1050311Y97083D01*
X1050237Y97134D01*
X1050161Y97182D01*
X1050083Y97226D01*
X1050003Y97267D01*
X1049921Y97305D01*
X1049838Y97339D01*
X1049753Y97369D01*
X1049667Y97396D01*
X1049581Y97419D01*
X1049493Y97438D01*
X1049404Y97453D01*
X1049315Y97465D01*
X1049226Y97473D01*
X1049136Y97477D01*
X1049046Y97477D01*
X1048956Y97473D01*
X1048867Y97465D01*
X1048778Y97453D01*
X1048689Y97438D01*
X1048601Y97419D01*
X1048515Y97396D01*
X1048429Y97369D01*
X1048344Y97339D01*
X1048261Y97305D01*
X1048179Y97267D01*
X1048099Y97226D01*
X1048021Y97182D01*
X1047945Y97134D01*
X1047871Y97083D01*
X1047799Y97029D01*
X1047730Y96972D01*
X1047663Y96912D01*
X1047599Y96849D01*
X1047537Y96784D01*
X1047479Y96716D01*
X1047423Y96645D01*
X1047371Y96572D01*
X1047321Y96497D01*
X1047275Y96420D01*
X1047233Y96341D01*
X1047193Y96260D01*
X1047158Y96178D01*
X1047126Y96094D01*
X1047097Y96009D01*
X1047072Y95922D01*
X1047051Y95835D01*
X1047034Y95747D01*
X1047020Y95658D01*
X1047011Y95568D01*
X1047005Y95479D01*
X1047003Y95389D01*
X540046Y51181D02*
X533781Y51181D01*
X540046Y51181D02*
X540046Y55880D01*
X540044Y55957D01*
X540038Y56033D01*
X540029Y56110D01*
X540016Y56186D01*
X539999Y56261D01*
X539979Y56335D01*
X539954Y56408D01*
X539927Y56479D01*
X539896Y56550D01*
X539861Y56618D01*
X539823Y56685D01*
X539782Y56750D01*
X539738Y56813D01*
X539691Y56873D01*
X539640Y56932D01*
X539587Y56987D01*
X539532Y57040D01*
X539473Y57091D01*
X539413Y57138D01*
X539350Y57182D01*
X539285Y57223D01*
X539218Y57261D01*
X539150Y57296D01*
X539079Y57327D01*
X539008Y57354D01*
X538935Y57379D01*
X538861Y57399D01*
X538786Y57416D01*
X538710Y57429D01*
X538633Y57438D01*
X538557Y57444D01*
X538480Y57446D01*
X533781Y57446D01*
X533781Y54314D02*
X540046Y54314D01*
X540046Y61629D02*
X533781Y61629D01*
X542657Y61368D02*
X543179Y61368D01*
X543179Y61890D01*
X542657Y61890D01*
X542657Y61368D01*
X533781Y66908D02*
X533781Y68997D01*
X533781Y66908D02*
X533783Y66831D01*
X533789Y66755D01*
X533798Y66678D01*
X533811Y66602D01*
X533828Y66527D01*
X533848Y66453D01*
X533873Y66380D01*
X533900Y66309D01*
X533931Y66238D01*
X533966Y66170D01*
X534004Y66103D01*
X534045Y66038D01*
X534089Y65975D01*
X534136Y65915D01*
X534187Y65856D01*
X534240Y65801D01*
X534295Y65748D01*
X534354Y65697D01*
X534414Y65650D01*
X534477Y65606D01*
X534542Y65565D01*
X534609Y65527D01*
X534677Y65492D01*
X534748Y65461D01*
X534819Y65434D01*
X534892Y65409D01*
X534966Y65389D01*
X535041Y65372D01*
X535117Y65359D01*
X535194Y65350D01*
X535270Y65344D01*
X535347Y65342D01*
X538480Y65342D01*
X538557Y65344D01*
X538633Y65350D01*
X538710Y65359D01*
X538786Y65372D01*
X538861Y65389D01*
X538935Y65409D01*
X539008Y65434D01*
X539079Y65461D01*
X539150Y65492D01*
X539218Y65527D01*
X539285Y65565D01*
X539350Y65606D01*
X539413Y65650D01*
X539473Y65697D01*
X539532Y65748D01*
X539587Y65801D01*
X539640Y65856D01*
X539691Y65915D01*
X539738Y65975D01*
X539782Y66038D01*
X539823Y66103D01*
X539861Y66170D01*
X539896Y66238D01*
X539927Y66309D01*
X539954Y66380D01*
X539979Y66453D01*
X539999Y66527D01*
X540016Y66602D01*
X540029Y66678D01*
X540038Y66755D01*
X540044Y66831D01*
X540046Y66908D01*
X540046Y68997D01*
X540046Y72698D02*
X533781Y72698D01*
X540046Y72698D02*
X540046Y75831D01*
X539002Y75831D01*
X537958Y78743D02*
X535869Y78743D01*
X537958Y78743D02*
X538048Y78745D01*
X538137Y78751D01*
X538227Y78760D01*
X538316Y78774D01*
X538404Y78791D01*
X538491Y78812D01*
X538578Y78837D01*
X538663Y78866D01*
X538747Y78898D01*
X538829Y78933D01*
X538910Y78973D01*
X538989Y79015D01*
X539066Y79061D01*
X539141Y79111D01*
X539214Y79163D01*
X539285Y79219D01*
X539353Y79277D01*
X539418Y79339D01*
X539481Y79403D01*
X539541Y79470D01*
X539598Y79539D01*
X539652Y79611D01*
X539703Y79685D01*
X539751Y79761D01*
X539795Y79839D01*
X539836Y79919D01*
X539874Y80001D01*
X539908Y80084D01*
X539938Y80169D01*
X539965Y80255D01*
X539988Y80341D01*
X540007Y80429D01*
X540022Y80518D01*
X540034Y80607D01*
X540042Y80696D01*
X540046Y80786D01*
X540046Y80876D01*
X540042Y80966D01*
X540034Y81055D01*
X540022Y81144D01*
X540007Y81233D01*
X539988Y81321D01*
X539965Y81407D01*
X539938Y81493D01*
X539908Y81578D01*
X539874Y81661D01*
X539836Y81743D01*
X539795Y81823D01*
X539751Y81901D01*
X539703Y81977D01*
X539652Y82051D01*
X539598Y82123D01*
X539541Y82192D01*
X539481Y82259D01*
X539418Y82323D01*
X539353Y82385D01*
X539285Y82443D01*
X539214Y82499D01*
X539141Y82551D01*
X539066Y82601D01*
X538989Y82647D01*
X538910Y82689D01*
X538829Y82729D01*
X538747Y82764D01*
X538663Y82796D01*
X538578Y82825D01*
X538491Y82850D01*
X538404Y82871D01*
X538316Y82888D01*
X538227Y82902D01*
X538137Y82911D01*
X538048Y82917D01*
X537958Y82919D01*
X537958Y82920D02*
X535869Y82920D01*
X535869Y82919D02*
X535779Y82917D01*
X535690Y82911D01*
X535600Y82902D01*
X535511Y82888D01*
X535423Y82871D01*
X535336Y82850D01*
X535249Y82825D01*
X535164Y82796D01*
X535080Y82764D01*
X534998Y82729D01*
X534917Y82689D01*
X534838Y82647D01*
X534761Y82601D01*
X534686Y82551D01*
X534613Y82499D01*
X534542Y82443D01*
X534474Y82385D01*
X534409Y82323D01*
X534346Y82259D01*
X534286Y82192D01*
X534229Y82123D01*
X534175Y82051D01*
X534124Y81977D01*
X534076Y81901D01*
X534032Y81823D01*
X533991Y81743D01*
X533953Y81661D01*
X533919Y81578D01*
X533889Y81493D01*
X533862Y81407D01*
X533839Y81321D01*
X533820Y81233D01*
X533805Y81144D01*
X533793Y81055D01*
X533785Y80966D01*
X533781Y80876D01*
X533781Y80786D01*
X533785Y80696D01*
X533793Y80607D01*
X533805Y80518D01*
X533820Y80429D01*
X533839Y80341D01*
X533862Y80255D01*
X533889Y80169D01*
X533919Y80084D01*
X533953Y80001D01*
X533991Y79919D01*
X534032Y79839D01*
X534076Y79761D01*
X534124Y79685D01*
X534175Y79611D01*
X534229Y79539D01*
X534286Y79470D01*
X534346Y79403D01*
X534409Y79339D01*
X534474Y79277D01*
X534542Y79219D01*
X534613Y79163D01*
X534686Y79111D01*
X534761Y79061D01*
X534838Y79015D01*
X534917Y78973D01*
X534998Y78933D01*
X535080Y78898D01*
X535164Y78866D01*
X535249Y78837D01*
X535336Y78812D01*
X535423Y78791D01*
X535511Y78774D01*
X535600Y78760D01*
X535690Y78751D01*
X535779Y78745D01*
X535869Y78743D01*
X533781Y89583D02*
X533783Y89672D01*
X533789Y89760D01*
X533798Y89848D01*
X533811Y89936D01*
X533828Y90023D01*
X533848Y90109D01*
X533873Y90194D01*
X533900Y90279D01*
X533932Y90362D01*
X533966Y90443D01*
X534005Y90523D01*
X534046Y90601D01*
X534091Y90678D01*
X534139Y90752D01*
X534190Y90825D01*
X534244Y90895D01*
X534302Y90962D01*
X534362Y91028D01*
X534424Y91090D01*
X534490Y91150D01*
X534557Y91208D01*
X534627Y91262D01*
X534700Y91313D01*
X534774Y91361D01*
X534851Y91406D01*
X534929Y91447D01*
X535009Y91486D01*
X535090Y91520D01*
X535173Y91552D01*
X535258Y91579D01*
X535343Y91604D01*
X535429Y91624D01*
X535516Y91641D01*
X535604Y91654D01*
X535692Y91663D01*
X535780Y91669D01*
X535869Y91671D01*
X533781Y89583D02*
X533783Y89454D01*
X533789Y89325D01*
X533798Y89196D01*
X533811Y89068D01*
X533828Y88940D01*
X533849Y88813D01*
X533873Y88686D01*
X533901Y88560D01*
X533933Y88435D01*
X533968Y88311D01*
X534007Y88188D01*
X534050Y88066D01*
X534096Y87946D01*
X534146Y87827D01*
X534199Y87709D01*
X534255Y87593D01*
X534315Y87479D01*
X534378Y87366D01*
X534445Y87256D01*
X534514Y87147D01*
X534587Y87041D01*
X534663Y86936D01*
X534742Y86834D01*
X534824Y86735D01*
X534908Y86637D01*
X534996Y86542D01*
X535086Y86450D01*
X541091Y86712D02*
X541180Y86714D01*
X541268Y86720D01*
X541356Y86729D01*
X541444Y86742D01*
X541531Y86759D01*
X541617Y86779D01*
X541702Y86804D01*
X541787Y86831D01*
X541870Y86863D01*
X541951Y86897D01*
X542031Y86936D01*
X542109Y86977D01*
X542186Y87022D01*
X542260Y87070D01*
X542333Y87121D01*
X542403Y87175D01*
X542470Y87233D01*
X542536Y87293D01*
X542598Y87355D01*
X542658Y87421D01*
X542716Y87488D01*
X542770Y87558D01*
X542821Y87631D01*
X542869Y87705D01*
X542914Y87782D01*
X542955Y87860D01*
X542994Y87940D01*
X543028Y88021D01*
X543060Y88104D01*
X543087Y88189D01*
X543112Y88274D01*
X543132Y88360D01*
X543149Y88447D01*
X543162Y88535D01*
X543171Y88623D01*
X543177Y88711D01*
X543179Y88800D01*
X543177Y88920D01*
X543172Y89040D01*
X543162Y89160D01*
X543150Y89279D01*
X543133Y89398D01*
X543113Y89516D01*
X543089Y89634D01*
X543062Y89750D01*
X543031Y89866D01*
X542997Y89981D01*
X542959Y90095D01*
X542917Y90208D01*
X542872Y90319D01*
X542824Y90429D01*
X542773Y90537D01*
X542718Y90644D01*
X542660Y90749D01*
X542598Y90852D01*
X542534Y90953D01*
X542466Y91053D01*
X542396Y91150D01*
X539264Y87755D02*
X539312Y87677D01*
X539364Y87601D01*
X539418Y87528D01*
X539476Y87457D01*
X539537Y87388D01*
X539601Y87322D01*
X539668Y87259D01*
X539737Y87199D01*
X539809Y87142D01*
X539883Y87088D01*
X539960Y87038D01*
X540039Y86990D01*
X540119Y86947D01*
X540202Y86906D01*
X540286Y86870D01*
X540371Y86837D01*
X540458Y86808D01*
X540547Y86782D01*
X540636Y86760D01*
X540726Y86743D01*
X540816Y86729D01*
X540908Y86719D01*
X540999Y86713D01*
X541091Y86711D01*
X537696Y90627D02*
X537648Y90705D01*
X537596Y90781D01*
X537542Y90854D01*
X537484Y90925D01*
X537423Y90994D01*
X537359Y91060D01*
X537292Y91123D01*
X537223Y91183D01*
X537151Y91240D01*
X537077Y91294D01*
X537000Y91344D01*
X536921Y91392D01*
X536841Y91435D01*
X536758Y91476D01*
X536674Y91512D01*
X536589Y91545D01*
X536502Y91574D01*
X536413Y91600D01*
X536324Y91622D01*
X536234Y91639D01*
X536144Y91653D01*
X536052Y91663D01*
X535961Y91669D01*
X535869Y91671D01*
X537697Y90627D02*
X539263Y87755D01*
X543179Y95594D02*
X533781Y95594D01*
X543179Y95594D02*
X543179Y98205D01*
X543177Y98305D01*
X543171Y98405D01*
X543162Y98504D01*
X543148Y98604D01*
X543131Y98702D01*
X543110Y98800D01*
X543086Y98897D01*
X543057Y98993D01*
X543025Y99088D01*
X542990Y99181D01*
X542951Y99273D01*
X542908Y99364D01*
X542862Y99452D01*
X542812Y99539D01*
X542760Y99624D01*
X542704Y99707D01*
X542645Y99788D01*
X542582Y99866D01*
X542517Y99942D01*
X542449Y100016D01*
X542379Y100086D01*
X542305Y100154D01*
X542229Y100219D01*
X542151Y100282D01*
X542070Y100341D01*
X541987Y100397D01*
X541902Y100449D01*
X541815Y100499D01*
X541727Y100545D01*
X541636Y100588D01*
X541544Y100627D01*
X541451Y100662D01*
X541356Y100694D01*
X541260Y100723D01*
X541163Y100747D01*
X541065Y100768D01*
X540967Y100785D01*
X540867Y100799D01*
X540768Y100808D01*
X540668Y100814D01*
X540568Y100816D01*
X540568Y100815D02*
X536392Y100815D01*
X536392Y100816D02*
X536292Y100814D01*
X536192Y100808D01*
X536093Y100799D01*
X535993Y100785D01*
X535895Y100768D01*
X535797Y100747D01*
X535700Y100723D01*
X535604Y100694D01*
X535509Y100662D01*
X535416Y100627D01*
X535324Y100588D01*
X535233Y100545D01*
X535145Y100499D01*
X535058Y100449D01*
X534973Y100397D01*
X534890Y100341D01*
X534809Y100282D01*
X534731Y100219D01*
X534655Y100154D01*
X534581Y100086D01*
X534511Y100016D01*
X534443Y99942D01*
X534378Y99866D01*
X534315Y99788D01*
X534256Y99707D01*
X534200Y99624D01*
X534148Y99539D01*
X534098Y99452D01*
X534052Y99364D01*
X534009Y99273D01*
X533970Y99181D01*
X533935Y99088D01*
X533903Y98993D01*
X533874Y98897D01*
X533850Y98800D01*
X533829Y98702D01*
X533812Y98604D01*
X533798Y98504D01*
X533789Y98405D01*
X533783Y98305D01*
X533781Y98205D01*
X533781Y95594D01*
D12*
X1053592Y270454D02*
X1053592Y278892D01*
X1053592Y270454D02*
X1053590Y270341D01*
X1053584Y270228D01*
X1053574Y270115D01*
X1053560Y270002D01*
X1053543Y269890D01*
X1053521Y269779D01*
X1053496Y269669D01*
X1053466Y269559D01*
X1053433Y269451D01*
X1053396Y269344D01*
X1053356Y269238D01*
X1053311Y269134D01*
X1053263Y269031D01*
X1053212Y268930D01*
X1053157Y268831D01*
X1053099Y268734D01*
X1053037Y268639D01*
X1052972Y268546D01*
X1052904Y268456D01*
X1052833Y268368D01*
X1052758Y268282D01*
X1052681Y268199D01*
X1052601Y268119D01*
X1052518Y268042D01*
X1052432Y267967D01*
X1052344Y267896D01*
X1052254Y267828D01*
X1052161Y267763D01*
X1052066Y267701D01*
X1051969Y267643D01*
X1051870Y267588D01*
X1051769Y267537D01*
X1051666Y267489D01*
X1051562Y267444D01*
X1051456Y267404D01*
X1051349Y267367D01*
X1051241Y267334D01*
X1051131Y267304D01*
X1051021Y267279D01*
X1050910Y267257D01*
X1050798Y267240D01*
X1050685Y267226D01*
X1050572Y267216D01*
X1050459Y267210D01*
X1050346Y267208D01*
X1050233Y267210D01*
X1050120Y267216D01*
X1050007Y267226D01*
X1049894Y267240D01*
X1049782Y267257D01*
X1049671Y267279D01*
X1049561Y267304D01*
X1049451Y267334D01*
X1049343Y267367D01*
X1049236Y267404D01*
X1049130Y267444D01*
X1049026Y267489D01*
X1048923Y267537D01*
X1048822Y267588D01*
X1048723Y267643D01*
X1048626Y267701D01*
X1048531Y267763D01*
X1048438Y267828D01*
X1048348Y267896D01*
X1048260Y267967D01*
X1048174Y268042D01*
X1048091Y268119D01*
X1048011Y268199D01*
X1047934Y268282D01*
X1047859Y268368D01*
X1047788Y268456D01*
X1047720Y268546D01*
X1047655Y268639D01*
X1047593Y268734D01*
X1047535Y268831D01*
X1047480Y268930D01*
X1047429Y269031D01*
X1047381Y269134D01*
X1047336Y269238D01*
X1047296Y269344D01*
X1047259Y269451D01*
X1047226Y269559D01*
X1047196Y269669D01*
X1047171Y269779D01*
X1047149Y269890D01*
X1047132Y270002D01*
X1047118Y270115D01*
X1047108Y270228D01*
X1047102Y270341D01*
X1047100Y270454D01*
X1047101Y270454D02*
X1047101Y278892D01*
X1039297Y278892D02*
X1039297Y267208D01*
X1039297Y273050D02*
X1040920Y274024D01*
X1040921Y274023D02*
X1040994Y274070D01*
X1041065Y274119D01*
X1041135Y274172D01*
X1041201Y274228D01*
X1041265Y274287D01*
X1041327Y274348D01*
X1041385Y274412D01*
X1041441Y274479D01*
X1041493Y274548D01*
X1041543Y274620D01*
X1041589Y274694D01*
X1041632Y274769D01*
X1041671Y274847D01*
X1041707Y274926D01*
X1041739Y275007D01*
X1041768Y275089D01*
X1041793Y275172D01*
X1041814Y275256D01*
X1041831Y275341D01*
X1041845Y275427D01*
X1041854Y275513D01*
X1041860Y275600D01*
X1041862Y275687D01*
X1041860Y275774D01*
X1041854Y275861D01*
X1041844Y275947D01*
X1041831Y276033D01*
X1041813Y276118D01*
X1041792Y276202D01*
X1041767Y276285D01*
X1041738Y276368D01*
X1041706Y276448D01*
X1041670Y276527D01*
X1041631Y276605D01*
X1041588Y276680D01*
X1041541Y276754D01*
X1041492Y276825D01*
X1041439Y276895D01*
X1041384Y276961D01*
X1041325Y277025D01*
X1041264Y277087D01*
X1041199Y277146D01*
X1041133Y277201D01*
X1041064Y277254D01*
X1040992Y277304D01*
X1040919Y277350D01*
X1040843Y277393D01*
X1040766Y277432D01*
X1040687Y277468D01*
X1040606Y277501D01*
X1040524Y277529D01*
X1040441Y277555D01*
X1040357Y277576D01*
X1040271Y277593D01*
X1040271Y277594D02*
X1040131Y277618D01*
X1039989Y277638D01*
X1039848Y277654D01*
X1039706Y277665D01*
X1039563Y277673D01*
X1039421Y277677D01*
X1039278Y277678D01*
X1039135Y277674D01*
X1038993Y277666D01*
X1038851Y277654D01*
X1038709Y277638D01*
X1038568Y277619D01*
X1038427Y277595D01*
X1038287Y277568D01*
X1038148Y277536D01*
X1038010Y277501D01*
X1037872Y277462D01*
X1037736Y277419D01*
X1037602Y277373D01*
X1037468Y277322D01*
X1037336Y277269D01*
X1037206Y277211D01*
X1037077Y277150D01*
X1036950Y277085D01*
X1036824Y277017D01*
X1036701Y276945D01*
X1039297Y273050D02*
X1037675Y272076D01*
X1037674Y272077D02*
X1037601Y272030D01*
X1037530Y271981D01*
X1037460Y271928D01*
X1037394Y271872D01*
X1037330Y271813D01*
X1037268Y271752D01*
X1037210Y271688D01*
X1037154Y271621D01*
X1037102Y271552D01*
X1037052Y271480D01*
X1037006Y271406D01*
X1036963Y271331D01*
X1036924Y271253D01*
X1036888Y271174D01*
X1036856Y271093D01*
X1036827Y271011D01*
X1036802Y270928D01*
X1036781Y270844D01*
X1036764Y270759D01*
X1036750Y270673D01*
X1036741Y270587D01*
X1036735Y270500D01*
X1036733Y270413D01*
X1036735Y270326D01*
X1036741Y270239D01*
X1036751Y270153D01*
X1036764Y270067D01*
X1036782Y269982D01*
X1036803Y269898D01*
X1036828Y269815D01*
X1036857Y269732D01*
X1036889Y269652D01*
X1036925Y269573D01*
X1036964Y269495D01*
X1037007Y269420D01*
X1037054Y269346D01*
X1037103Y269275D01*
X1037156Y269205D01*
X1037211Y269139D01*
X1037270Y269075D01*
X1037331Y269013D01*
X1037396Y268954D01*
X1037462Y268899D01*
X1037531Y268846D01*
X1037603Y268796D01*
X1037676Y268750D01*
X1037752Y268707D01*
X1037829Y268668D01*
X1037908Y268632D01*
X1037989Y268599D01*
X1038071Y268571D01*
X1038154Y268545D01*
X1038238Y268524D01*
X1038323Y268507D01*
X1038324Y268506D02*
X1038464Y268482D01*
X1038606Y268462D01*
X1038747Y268446D01*
X1038889Y268435D01*
X1039032Y268427D01*
X1039174Y268423D01*
X1039317Y268422D01*
X1039460Y268426D01*
X1039602Y268434D01*
X1039744Y268446D01*
X1039886Y268462D01*
X1040027Y268481D01*
X1040168Y268505D01*
X1040308Y268532D01*
X1040447Y268564D01*
X1040585Y268599D01*
X1040723Y268638D01*
X1040859Y268681D01*
X1040993Y268727D01*
X1041127Y268778D01*
X1041259Y268831D01*
X1041390Y268889D01*
X1041518Y268950D01*
X1041645Y269015D01*
X1041771Y269083D01*
X1041894Y269155D01*
X1031875Y267208D02*
X1028630Y267208D01*
X1028517Y267210D01*
X1028404Y267216D01*
X1028291Y267226D01*
X1028178Y267240D01*
X1028066Y267257D01*
X1027955Y267279D01*
X1027845Y267304D01*
X1027735Y267334D01*
X1027627Y267367D01*
X1027520Y267404D01*
X1027414Y267444D01*
X1027310Y267489D01*
X1027207Y267537D01*
X1027106Y267588D01*
X1027007Y267643D01*
X1026910Y267701D01*
X1026815Y267763D01*
X1026722Y267828D01*
X1026632Y267896D01*
X1026544Y267967D01*
X1026458Y268042D01*
X1026375Y268119D01*
X1026295Y268199D01*
X1026218Y268282D01*
X1026143Y268368D01*
X1026072Y268456D01*
X1026004Y268546D01*
X1025939Y268639D01*
X1025877Y268734D01*
X1025819Y268831D01*
X1025764Y268930D01*
X1025713Y269031D01*
X1025665Y269134D01*
X1025620Y269238D01*
X1025580Y269344D01*
X1025543Y269451D01*
X1025510Y269559D01*
X1025480Y269669D01*
X1025455Y269779D01*
X1025433Y269890D01*
X1025416Y270002D01*
X1025402Y270115D01*
X1025392Y270228D01*
X1025386Y270341D01*
X1025384Y270454D01*
X1025386Y270567D01*
X1025392Y270680D01*
X1025402Y270793D01*
X1025416Y270906D01*
X1025433Y271018D01*
X1025455Y271129D01*
X1025480Y271239D01*
X1025510Y271349D01*
X1025543Y271457D01*
X1025580Y271564D01*
X1025620Y271670D01*
X1025665Y271774D01*
X1025713Y271877D01*
X1025764Y271978D01*
X1025819Y272077D01*
X1025877Y272174D01*
X1025939Y272269D01*
X1026004Y272362D01*
X1026072Y272452D01*
X1026143Y272540D01*
X1026218Y272626D01*
X1026295Y272709D01*
X1026375Y272789D01*
X1026458Y272866D01*
X1026544Y272941D01*
X1026632Y273012D01*
X1026722Y273080D01*
X1026815Y273145D01*
X1026910Y273207D01*
X1027007Y273265D01*
X1027106Y273320D01*
X1027207Y273371D01*
X1027310Y273419D01*
X1027414Y273464D01*
X1027520Y273504D01*
X1027627Y273541D01*
X1027735Y273574D01*
X1027845Y273604D01*
X1027955Y273629D01*
X1028066Y273651D01*
X1028178Y273668D01*
X1028291Y273682D01*
X1028404Y273692D01*
X1028517Y273698D01*
X1028630Y273700D01*
X1027980Y278892D02*
X1031875Y278892D01*
X1027980Y278892D02*
X1027879Y278890D01*
X1027779Y278884D01*
X1027679Y278874D01*
X1027579Y278861D01*
X1027480Y278843D01*
X1027381Y278822D01*
X1027284Y278797D01*
X1027187Y278768D01*
X1027092Y278735D01*
X1026998Y278699D01*
X1026906Y278659D01*
X1026815Y278616D01*
X1026726Y278569D01*
X1026639Y278519D01*
X1026553Y278465D01*
X1026470Y278408D01*
X1026390Y278348D01*
X1026311Y278285D01*
X1026235Y278218D01*
X1026162Y278149D01*
X1026092Y278077D01*
X1026024Y278003D01*
X1025959Y277926D01*
X1025898Y277846D01*
X1025839Y277764D01*
X1025784Y277680D01*
X1025732Y277594D01*
X1025683Y277506D01*
X1025638Y277416D01*
X1025596Y277324D01*
X1025558Y277231D01*
X1025524Y277136D01*
X1025493Y277041D01*
X1025466Y276944D01*
X1025443Y276846D01*
X1025423Y276747D01*
X1025408Y276647D01*
X1025396Y276547D01*
X1025388Y276447D01*
X1025384Y276346D01*
X1025384Y276246D01*
X1025388Y276145D01*
X1025396Y276045D01*
X1025408Y275945D01*
X1025423Y275845D01*
X1025443Y275746D01*
X1025466Y275648D01*
X1025493Y275551D01*
X1025524Y275456D01*
X1025558Y275361D01*
X1025596Y275268D01*
X1025638Y275176D01*
X1025683Y275086D01*
X1025732Y274998D01*
X1025784Y274912D01*
X1025839Y274828D01*
X1025898Y274746D01*
X1025959Y274666D01*
X1026024Y274589D01*
X1026092Y274515D01*
X1026162Y274443D01*
X1026235Y274374D01*
X1026311Y274307D01*
X1026390Y274244D01*
X1026470Y274184D01*
X1026553Y274127D01*
X1026639Y274073D01*
X1026726Y274023D01*
X1026815Y273976D01*
X1026906Y273933D01*
X1026998Y273893D01*
X1027092Y273857D01*
X1027187Y273824D01*
X1027284Y273795D01*
X1027381Y273770D01*
X1027480Y273749D01*
X1027579Y273731D01*
X1027679Y273718D01*
X1027779Y273708D01*
X1027879Y273702D01*
X1027980Y273700D01*
X1027980Y273699D02*
X1030577Y273699D01*
M02*
