G04 EAGLE Gerber RS-274X export*
G75*
%MOMM*%
%FSLAX34Y34*%
%LPD*%
%INSoldermask Top*%
%IPPOS*%
%AMOC8*
5,1,8,0,0,1.08239X$1,22.5*%
G01*
%ADD10C,2.112400*%
%ADD11C,4.597400*%
%ADD12C,1.552400*%
%ADD13C,2.652400*%
%ADD14R,1.930400X1.930400*%
%ADD15C,1.930400*%
%ADD16C,3.652400*%
%ADD17R,1.397000X1.397000*%
%ADD18R,1.676400X1.676400*%
%ADD19P,1.814519X8X202.500000*%
%ADD20C,0.609600*%
%ADD21C,1.168400*%


D10*
X964200Y-241700D03*
X964200Y-291700D03*
X839200Y-291700D03*
X839200Y-241700D03*
X1116600Y-241700D03*
X1116600Y-291700D03*
X991600Y-291700D03*
X991600Y-241700D03*
X1269000Y-241700D03*
X1269000Y-291700D03*
X1144000Y-291700D03*
X1144000Y-241700D03*
X1269000Y-76600D03*
X1269000Y-126600D03*
X1144000Y-126600D03*
X1144000Y-76600D03*
X1269000Y228200D03*
X1269000Y178200D03*
X1144000Y178200D03*
X1144000Y228200D03*
X1269000Y63100D03*
X1269000Y13100D03*
X1144000Y13100D03*
X1144000Y63100D03*
D11*
X1320800Y292100D03*
X1320800Y-342900D03*
X254000Y292100D03*
X254000Y-342900D03*
D10*
X405400Y-38500D03*
X405400Y-88500D03*
X280400Y-88500D03*
X280400Y-38500D03*
D12*
X317900Y-330200D03*
X342900Y-330200D03*
X367900Y-330200D03*
D13*
X292900Y-260200D03*
X392900Y-260200D03*
D12*
X457600Y-330200D03*
X482600Y-330200D03*
X507600Y-330200D03*
D13*
X432600Y-260200D03*
X532600Y-260200D03*
D12*
X597300Y-330200D03*
X622300Y-330200D03*
X647300Y-330200D03*
D13*
X572300Y-260200D03*
X672300Y-260200D03*
D12*
X737000Y-330200D03*
X762000Y-330200D03*
X787000Y-330200D03*
D13*
X712000Y-260200D03*
X812000Y-260200D03*
D14*
X470100Y190500D03*
D15*
X470100Y165100D03*
X470100Y139700D03*
X470100Y114300D03*
X470100Y88900D03*
X470100Y63500D03*
X470100Y38100D03*
X470100Y12700D03*
X470100Y-12700D03*
X470100Y-38100D03*
D16*
X469900Y254000D03*
X1079500Y-101600D03*
X1079500Y254000D03*
X469900Y-101600D03*
D17*
X342900Y254000D03*
X342900Y220980D03*
X342900Y187960D03*
X342900Y154940D03*
X342900Y121920D03*
X342900Y88900D03*
X342900Y55880D03*
D18*
X1007700Y-66300D03*
D19*
X1007700Y-40900D03*
X982300Y-66300D03*
X982300Y-40900D03*
X956900Y-66300D03*
X956900Y-40900D03*
X931500Y-66300D03*
X931500Y-40900D03*
X906100Y-66300D03*
X906100Y-40900D03*
X880700Y-66300D03*
X880700Y-40900D03*
X855300Y-66300D03*
X855300Y-40900D03*
X829900Y-66300D03*
X829900Y-40900D03*
X804500Y-66300D03*
X804500Y-40900D03*
X779100Y-66300D03*
X779100Y-40900D03*
X753700Y-66300D03*
X753700Y-40900D03*
X728300Y-66300D03*
X728300Y-40900D03*
X702900Y-66300D03*
X702900Y-40900D03*
X677500Y-66300D03*
X677500Y-40900D03*
X652100Y-66300D03*
X652100Y-40900D03*
X626700Y-66300D03*
X626700Y-40900D03*
X601300Y-66300D03*
X601300Y-40900D03*
X575900Y-66300D03*
X575900Y-40900D03*
D18*
X1007700Y187700D03*
D19*
X1007700Y213100D03*
X982300Y187700D03*
X982300Y213100D03*
X956900Y187700D03*
X956900Y213100D03*
X931500Y187700D03*
X931500Y213100D03*
X906100Y187700D03*
X906100Y213100D03*
X880700Y187700D03*
X880700Y213100D03*
X855300Y187700D03*
X855300Y213100D03*
X829900Y187700D03*
X829900Y213100D03*
X804500Y187700D03*
X804500Y213100D03*
X779100Y187700D03*
X779100Y213100D03*
X753700Y187700D03*
X753700Y213100D03*
X728300Y187700D03*
X728300Y213100D03*
X702900Y187700D03*
X702900Y213100D03*
X677500Y187700D03*
X677500Y213100D03*
X652100Y187700D03*
X652100Y213100D03*
X626700Y187700D03*
X626700Y213100D03*
X601300Y187700D03*
X601300Y213100D03*
X575900Y187700D03*
X575900Y213100D03*
D20*
X246380Y5080D02*
X246382Y5267D01*
X246389Y5454D01*
X246401Y5641D01*
X246417Y5827D01*
X246437Y6013D01*
X246462Y6198D01*
X246492Y6383D01*
X246526Y6567D01*
X246565Y6750D01*
X246608Y6932D01*
X246656Y7112D01*
X246708Y7292D01*
X246765Y7470D01*
X246825Y7647D01*
X246891Y7822D01*
X246960Y7996D01*
X247034Y8168D01*
X247112Y8338D01*
X247194Y8506D01*
X247280Y8672D01*
X247370Y8836D01*
X247464Y8997D01*
X247562Y9157D01*
X247664Y9313D01*
X247770Y9468D01*
X247880Y9619D01*
X247993Y9768D01*
X248110Y9914D01*
X248230Y10057D01*
X248354Y10197D01*
X248481Y10334D01*
X248612Y10468D01*
X248746Y10599D01*
X248883Y10726D01*
X249023Y10850D01*
X249166Y10970D01*
X249312Y11087D01*
X249461Y11200D01*
X249612Y11310D01*
X249767Y11416D01*
X249923Y11518D01*
X250083Y11616D01*
X250244Y11710D01*
X250408Y11800D01*
X250574Y11886D01*
X250742Y11968D01*
X250912Y12046D01*
X251084Y12120D01*
X251258Y12189D01*
X251433Y12255D01*
X251610Y12315D01*
X251788Y12372D01*
X251968Y12424D01*
X252148Y12472D01*
X252330Y12515D01*
X252513Y12554D01*
X252697Y12588D01*
X252882Y12618D01*
X253067Y12643D01*
X253253Y12663D01*
X253439Y12679D01*
X253626Y12691D01*
X253813Y12698D01*
X254000Y12700D01*
X254187Y12698D01*
X254374Y12691D01*
X254561Y12679D01*
X254747Y12663D01*
X254933Y12643D01*
X255118Y12618D01*
X255303Y12588D01*
X255487Y12554D01*
X255670Y12515D01*
X255852Y12472D01*
X256032Y12424D01*
X256212Y12372D01*
X256390Y12315D01*
X256567Y12255D01*
X256742Y12189D01*
X256916Y12120D01*
X257088Y12046D01*
X257258Y11968D01*
X257426Y11886D01*
X257592Y11800D01*
X257756Y11710D01*
X257917Y11616D01*
X258077Y11518D01*
X258233Y11416D01*
X258388Y11310D01*
X258539Y11200D01*
X258688Y11087D01*
X258834Y10970D01*
X258977Y10850D01*
X259117Y10726D01*
X259254Y10599D01*
X259388Y10468D01*
X259519Y10334D01*
X259646Y10197D01*
X259770Y10057D01*
X259890Y9914D01*
X260007Y9768D01*
X260120Y9619D01*
X260230Y9468D01*
X260336Y9313D01*
X260438Y9157D01*
X260536Y8997D01*
X260630Y8836D01*
X260720Y8672D01*
X260806Y8506D01*
X260888Y8338D01*
X260966Y8168D01*
X261040Y7996D01*
X261109Y7822D01*
X261175Y7647D01*
X261235Y7470D01*
X261292Y7292D01*
X261344Y7112D01*
X261392Y6932D01*
X261435Y6750D01*
X261474Y6567D01*
X261508Y6383D01*
X261538Y6198D01*
X261563Y6013D01*
X261583Y5827D01*
X261599Y5641D01*
X261611Y5454D01*
X261618Y5267D01*
X261620Y5080D01*
X261618Y4893D01*
X261611Y4706D01*
X261599Y4519D01*
X261583Y4333D01*
X261563Y4147D01*
X261538Y3962D01*
X261508Y3777D01*
X261474Y3593D01*
X261435Y3410D01*
X261392Y3228D01*
X261344Y3048D01*
X261292Y2868D01*
X261235Y2690D01*
X261175Y2513D01*
X261109Y2338D01*
X261040Y2164D01*
X260966Y1992D01*
X260888Y1822D01*
X260806Y1654D01*
X260720Y1488D01*
X260630Y1324D01*
X260536Y1163D01*
X260438Y1003D01*
X260336Y847D01*
X260230Y692D01*
X260120Y541D01*
X260007Y392D01*
X259890Y246D01*
X259770Y103D01*
X259646Y-37D01*
X259519Y-174D01*
X259388Y-308D01*
X259254Y-439D01*
X259117Y-566D01*
X258977Y-690D01*
X258834Y-810D01*
X258688Y-927D01*
X258539Y-1040D01*
X258388Y-1150D01*
X258233Y-1256D01*
X258077Y-1358D01*
X257917Y-1456D01*
X257756Y-1550D01*
X257592Y-1640D01*
X257426Y-1726D01*
X257258Y-1808D01*
X257088Y-1886D01*
X256916Y-1960D01*
X256742Y-2029D01*
X256567Y-2095D01*
X256390Y-2155D01*
X256212Y-2212D01*
X256032Y-2264D01*
X255852Y-2312D01*
X255670Y-2355D01*
X255487Y-2394D01*
X255303Y-2428D01*
X255118Y-2458D01*
X254933Y-2483D01*
X254747Y-2503D01*
X254561Y-2519D01*
X254374Y-2531D01*
X254187Y-2538D01*
X254000Y-2540D01*
X253813Y-2538D01*
X253626Y-2531D01*
X253439Y-2519D01*
X253253Y-2503D01*
X253067Y-2483D01*
X252882Y-2458D01*
X252697Y-2428D01*
X252513Y-2394D01*
X252330Y-2355D01*
X252148Y-2312D01*
X251968Y-2264D01*
X251788Y-2212D01*
X251610Y-2155D01*
X251433Y-2095D01*
X251258Y-2029D01*
X251084Y-1960D01*
X250912Y-1886D01*
X250742Y-1808D01*
X250574Y-1726D01*
X250408Y-1640D01*
X250244Y-1550D01*
X250083Y-1456D01*
X249923Y-1358D01*
X249767Y-1256D01*
X249612Y-1150D01*
X249461Y-1040D01*
X249312Y-927D01*
X249166Y-810D01*
X249023Y-690D01*
X248883Y-566D01*
X248746Y-439D01*
X248612Y-308D01*
X248481Y-174D01*
X248354Y-37D01*
X248230Y103D01*
X248110Y246D01*
X247993Y392D01*
X247880Y541D01*
X247770Y692D01*
X247664Y847D01*
X247562Y1003D01*
X247464Y1163D01*
X247370Y1324D01*
X247280Y1488D01*
X247194Y1654D01*
X247112Y1822D01*
X247034Y1992D01*
X246960Y2164D01*
X246891Y2338D01*
X246825Y2513D01*
X246765Y2690D01*
X246708Y2868D01*
X246656Y3048D01*
X246608Y3228D01*
X246565Y3410D01*
X246526Y3593D01*
X246492Y3777D01*
X246462Y3962D01*
X246437Y4147D01*
X246417Y4333D01*
X246401Y4519D01*
X246389Y4706D01*
X246382Y4893D01*
X246380Y5080D01*
D21*
X254000Y5080D03*
D20*
X765810Y307340D02*
X765812Y307527D01*
X765819Y307714D01*
X765831Y307901D01*
X765847Y308087D01*
X765867Y308273D01*
X765892Y308458D01*
X765922Y308643D01*
X765956Y308827D01*
X765995Y309010D01*
X766038Y309192D01*
X766086Y309372D01*
X766138Y309552D01*
X766195Y309730D01*
X766255Y309907D01*
X766321Y310082D01*
X766390Y310256D01*
X766464Y310428D01*
X766542Y310598D01*
X766624Y310766D01*
X766710Y310932D01*
X766800Y311096D01*
X766894Y311257D01*
X766992Y311417D01*
X767094Y311573D01*
X767200Y311728D01*
X767310Y311879D01*
X767423Y312028D01*
X767540Y312174D01*
X767660Y312317D01*
X767784Y312457D01*
X767911Y312594D01*
X768042Y312728D01*
X768176Y312859D01*
X768313Y312986D01*
X768453Y313110D01*
X768596Y313230D01*
X768742Y313347D01*
X768891Y313460D01*
X769042Y313570D01*
X769197Y313676D01*
X769353Y313778D01*
X769513Y313876D01*
X769674Y313970D01*
X769838Y314060D01*
X770004Y314146D01*
X770172Y314228D01*
X770342Y314306D01*
X770514Y314380D01*
X770688Y314449D01*
X770863Y314515D01*
X771040Y314575D01*
X771218Y314632D01*
X771398Y314684D01*
X771578Y314732D01*
X771760Y314775D01*
X771943Y314814D01*
X772127Y314848D01*
X772312Y314878D01*
X772497Y314903D01*
X772683Y314923D01*
X772869Y314939D01*
X773056Y314951D01*
X773243Y314958D01*
X773430Y314960D01*
X773617Y314958D01*
X773804Y314951D01*
X773991Y314939D01*
X774177Y314923D01*
X774363Y314903D01*
X774548Y314878D01*
X774733Y314848D01*
X774917Y314814D01*
X775100Y314775D01*
X775282Y314732D01*
X775462Y314684D01*
X775642Y314632D01*
X775820Y314575D01*
X775997Y314515D01*
X776172Y314449D01*
X776346Y314380D01*
X776518Y314306D01*
X776688Y314228D01*
X776856Y314146D01*
X777022Y314060D01*
X777186Y313970D01*
X777347Y313876D01*
X777507Y313778D01*
X777663Y313676D01*
X777818Y313570D01*
X777969Y313460D01*
X778118Y313347D01*
X778264Y313230D01*
X778407Y313110D01*
X778547Y312986D01*
X778684Y312859D01*
X778818Y312728D01*
X778949Y312594D01*
X779076Y312457D01*
X779200Y312317D01*
X779320Y312174D01*
X779437Y312028D01*
X779550Y311879D01*
X779660Y311728D01*
X779766Y311573D01*
X779868Y311417D01*
X779966Y311257D01*
X780060Y311096D01*
X780150Y310932D01*
X780236Y310766D01*
X780318Y310598D01*
X780396Y310428D01*
X780470Y310256D01*
X780539Y310082D01*
X780605Y309907D01*
X780665Y309730D01*
X780722Y309552D01*
X780774Y309372D01*
X780822Y309192D01*
X780865Y309010D01*
X780904Y308827D01*
X780938Y308643D01*
X780968Y308458D01*
X780993Y308273D01*
X781013Y308087D01*
X781029Y307901D01*
X781041Y307714D01*
X781048Y307527D01*
X781050Y307340D01*
X781048Y307153D01*
X781041Y306966D01*
X781029Y306779D01*
X781013Y306593D01*
X780993Y306407D01*
X780968Y306222D01*
X780938Y306037D01*
X780904Y305853D01*
X780865Y305670D01*
X780822Y305488D01*
X780774Y305308D01*
X780722Y305128D01*
X780665Y304950D01*
X780605Y304773D01*
X780539Y304598D01*
X780470Y304424D01*
X780396Y304252D01*
X780318Y304082D01*
X780236Y303914D01*
X780150Y303748D01*
X780060Y303584D01*
X779966Y303423D01*
X779868Y303263D01*
X779766Y303107D01*
X779660Y302952D01*
X779550Y302801D01*
X779437Y302652D01*
X779320Y302506D01*
X779200Y302363D01*
X779076Y302223D01*
X778949Y302086D01*
X778818Y301952D01*
X778684Y301821D01*
X778547Y301694D01*
X778407Y301570D01*
X778264Y301450D01*
X778118Y301333D01*
X777969Y301220D01*
X777818Y301110D01*
X777663Y301004D01*
X777507Y300902D01*
X777347Y300804D01*
X777186Y300710D01*
X777022Y300620D01*
X776856Y300534D01*
X776688Y300452D01*
X776518Y300374D01*
X776346Y300300D01*
X776172Y300231D01*
X775997Y300165D01*
X775820Y300105D01*
X775642Y300048D01*
X775462Y299996D01*
X775282Y299948D01*
X775100Y299905D01*
X774917Y299866D01*
X774733Y299832D01*
X774548Y299802D01*
X774363Y299777D01*
X774177Y299757D01*
X773991Y299741D01*
X773804Y299729D01*
X773617Y299722D01*
X773430Y299720D01*
X773243Y299722D01*
X773056Y299729D01*
X772869Y299741D01*
X772683Y299757D01*
X772497Y299777D01*
X772312Y299802D01*
X772127Y299832D01*
X771943Y299866D01*
X771760Y299905D01*
X771578Y299948D01*
X771398Y299996D01*
X771218Y300048D01*
X771040Y300105D01*
X770863Y300165D01*
X770688Y300231D01*
X770514Y300300D01*
X770342Y300374D01*
X770172Y300452D01*
X770004Y300534D01*
X769838Y300620D01*
X769674Y300710D01*
X769513Y300804D01*
X769353Y300902D01*
X769197Y301004D01*
X769042Y301110D01*
X768891Y301220D01*
X768742Y301333D01*
X768596Y301450D01*
X768453Y301570D01*
X768313Y301694D01*
X768176Y301821D01*
X768042Y301952D01*
X767911Y302086D01*
X767784Y302223D01*
X767660Y302363D01*
X767540Y302506D01*
X767423Y302652D01*
X767310Y302801D01*
X767200Y302952D01*
X767094Y303107D01*
X766992Y303263D01*
X766894Y303423D01*
X766800Y303584D01*
X766710Y303748D01*
X766624Y303914D01*
X766542Y304082D01*
X766464Y304252D01*
X766390Y304424D01*
X766321Y304598D01*
X766255Y304773D01*
X766195Y304950D01*
X766138Y305128D01*
X766086Y305308D01*
X766038Y305488D01*
X765995Y305670D01*
X765956Y305853D01*
X765922Y306037D01*
X765892Y306222D01*
X765867Y306407D01*
X765847Y306593D01*
X765831Y306779D01*
X765819Y306966D01*
X765812Y307153D01*
X765810Y307340D01*
D21*
X773430Y307340D03*
D20*
X1311910Y-7620D02*
X1311912Y-7433D01*
X1311919Y-7246D01*
X1311931Y-7059D01*
X1311947Y-6873D01*
X1311967Y-6687D01*
X1311992Y-6502D01*
X1312022Y-6317D01*
X1312056Y-6133D01*
X1312095Y-5950D01*
X1312138Y-5768D01*
X1312186Y-5588D01*
X1312238Y-5408D01*
X1312295Y-5230D01*
X1312355Y-5053D01*
X1312421Y-4878D01*
X1312490Y-4704D01*
X1312564Y-4532D01*
X1312642Y-4362D01*
X1312724Y-4194D01*
X1312810Y-4028D01*
X1312900Y-3864D01*
X1312994Y-3703D01*
X1313092Y-3543D01*
X1313194Y-3387D01*
X1313300Y-3232D01*
X1313410Y-3081D01*
X1313523Y-2932D01*
X1313640Y-2786D01*
X1313760Y-2643D01*
X1313884Y-2503D01*
X1314011Y-2366D01*
X1314142Y-2232D01*
X1314276Y-2101D01*
X1314413Y-1974D01*
X1314553Y-1850D01*
X1314696Y-1730D01*
X1314842Y-1613D01*
X1314991Y-1500D01*
X1315142Y-1390D01*
X1315297Y-1284D01*
X1315453Y-1182D01*
X1315613Y-1084D01*
X1315774Y-990D01*
X1315938Y-900D01*
X1316104Y-814D01*
X1316272Y-732D01*
X1316442Y-654D01*
X1316614Y-580D01*
X1316788Y-511D01*
X1316963Y-445D01*
X1317140Y-385D01*
X1317318Y-328D01*
X1317498Y-276D01*
X1317678Y-228D01*
X1317860Y-185D01*
X1318043Y-146D01*
X1318227Y-112D01*
X1318412Y-82D01*
X1318597Y-57D01*
X1318783Y-37D01*
X1318969Y-21D01*
X1319156Y-9D01*
X1319343Y-2D01*
X1319530Y0D01*
X1319717Y-2D01*
X1319904Y-9D01*
X1320091Y-21D01*
X1320277Y-37D01*
X1320463Y-57D01*
X1320648Y-82D01*
X1320833Y-112D01*
X1321017Y-146D01*
X1321200Y-185D01*
X1321382Y-228D01*
X1321562Y-276D01*
X1321742Y-328D01*
X1321920Y-385D01*
X1322097Y-445D01*
X1322272Y-511D01*
X1322446Y-580D01*
X1322618Y-654D01*
X1322788Y-732D01*
X1322956Y-814D01*
X1323122Y-900D01*
X1323286Y-990D01*
X1323447Y-1084D01*
X1323607Y-1182D01*
X1323763Y-1284D01*
X1323918Y-1390D01*
X1324069Y-1500D01*
X1324218Y-1613D01*
X1324364Y-1730D01*
X1324507Y-1850D01*
X1324647Y-1974D01*
X1324784Y-2101D01*
X1324918Y-2232D01*
X1325049Y-2366D01*
X1325176Y-2503D01*
X1325300Y-2643D01*
X1325420Y-2786D01*
X1325537Y-2932D01*
X1325650Y-3081D01*
X1325760Y-3232D01*
X1325866Y-3387D01*
X1325968Y-3543D01*
X1326066Y-3703D01*
X1326160Y-3864D01*
X1326250Y-4028D01*
X1326336Y-4194D01*
X1326418Y-4362D01*
X1326496Y-4532D01*
X1326570Y-4704D01*
X1326639Y-4878D01*
X1326705Y-5053D01*
X1326765Y-5230D01*
X1326822Y-5408D01*
X1326874Y-5588D01*
X1326922Y-5768D01*
X1326965Y-5950D01*
X1327004Y-6133D01*
X1327038Y-6317D01*
X1327068Y-6502D01*
X1327093Y-6687D01*
X1327113Y-6873D01*
X1327129Y-7059D01*
X1327141Y-7246D01*
X1327148Y-7433D01*
X1327150Y-7620D01*
X1327148Y-7807D01*
X1327141Y-7994D01*
X1327129Y-8181D01*
X1327113Y-8367D01*
X1327093Y-8553D01*
X1327068Y-8738D01*
X1327038Y-8923D01*
X1327004Y-9107D01*
X1326965Y-9290D01*
X1326922Y-9472D01*
X1326874Y-9652D01*
X1326822Y-9832D01*
X1326765Y-10010D01*
X1326705Y-10187D01*
X1326639Y-10362D01*
X1326570Y-10536D01*
X1326496Y-10708D01*
X1326418Y-10878D01*
X1326336Y-11046D01*
X1326250Y-11212D01*
X1326160Y-11376D01*
X1326066Y-11537D01*
X1325968Y-11697D01*
X1325866Y-11853D01*
X1325760Y-12008D01*
X1325650Y-12159D01*
X1325537Y-12308D01*
X1325420Y-12454D01*
X1325300Y-12597D01*
X1325176Y-12737D01*
X1325049Y-12874D01*
X1324918Y-13008D01*
X1324784Y-13139D01*
X1324647Y-13266D01*
X1324507Y-13390D01*
X1324364Y-13510D01*
X1324218Y-13627D01*
X1324069Y-13740D01*
X1323918Y-13850D01*
X1323763Y-13956D01*
X1323607Y-14058D01*
X1323447Y-14156D01*
X1323286Y-14250D01*
X1323122Y-14340D01*
X1322956Y-14426D01*
X1322788Y-14508D01*
X1322618Y-14586D01*
X1322446Y-14660D01*
X1322272Y-14729D01*
X1322097Y-14795D01*
X1321920Y-14855D01*
X1321742Y-14912D01*
X1321562Y-14964D01*
X1321382Y-15012D01*
X1321200Y-15055D01*
X1321017Y-15094D01*
X1320833Y-15128D01*
X1320648Y-15158D01*
X1320463Y-15183D01*
X1320277Y-15203D01*
X1320091Y-15219D01*
X1319904Y-15231D01*
X1319717Y-15238D01*
X1319530Y-15240D01*
X1319343Y-15238D01*
X1319156Y-15231D01*
X1318969Y-15219D01*
X1318783Y-15203D01*
X1318597Y-15183D01*
X1318412Y-15158D01*
X1318227Y-15128D01*
X1318043Y-15094D01*
X1317860Y-15055D01*
X1317678Y-15012D01*
X1317498Y-14964D01*
X1317318Y-14912D01*
X1317140Y-14855D01*
X1316963Y-14795D01*
X1316788Y-14729D01*
X1316614Y-14660D01*
X1316442Y-14586D01*
X1316272Y-14508D01*
X1316104Y-14426D01*
X1315938Y-14340D01*
X1315774Y-14250D01*
X1315613Y-14156D01*
X1315453Y-14058D01*
X1315297Y-13956D01*
X1315142Y-13850D01*
X1314991Y-13740D01*
X1314842Y-13627D01*
X1314696Y-13510D01*
X1314553Y-13390D01*
X1314413Y-13266D01*
X1314276Y-13139D01*
X1314142Y-13008D01*
X1314011Y-12874D01*
X1313884Y-12737D01*
X1313760Y-12597D01*
X1313640Y-12454D01*
X1313523Y-12308D01*
X1313410Y-12159D01*
X1313300Y-12008D01*
X1313194Y-11853D01*
X1313092Y-11697D01*
X1312994Y-11537D01*
X1312900Y-11376D01*
X1312810Y-11212D01*
X1312724Y-11046D01*
X1312642Y-10878D01*
X1312564Y-10708D01*
X1312490Y-10536D01*
X1312421Y-10362D01*
X1312355Y-10187D01*
X1312295Y-10010D01*
X1312238Y-9832D01*
X1312186Y-9652D01*
X1312138Y-9472D01*
X1312095Y-9290D01*
X1312056Y-9107D01*
X1312022Y-8923D01*
X1311992Y-8738D01*
X1311967Y-8553D01*
X1311947Y-8367D01*
X1311931Y-8181D01*
X1311919Y-7994D01*
X1311912Y-7807D01*
X1311910Y-7620D01*
D21*
X1319530Y-7620D03*
M02*
