M48
;GenerationSoftware,Autodesk,EAGLE,9.6.2*%
;CreationDate,2022-05-08T03:12:27Z*%
FMAT,2
ICI,OFF
METRIC,TZ,000.000
T5C0.889
T4C1.000
T3C1.400
T2C2.500
T1C3.175
%
G90
M71
T1
X132080Y29210
X132080Y-34290
X25400Y29210
X25400Y-34290
T2
X29290Y-26020
X39290Y-26020
X43260Y-26020
X53260Y-26020
X57230Y-26020
X67230Y-26020
X71200Y-26020
X81200Y-26020
X46990Y-10160
X46990Y25400
X107950Y-10160
X107950Y25400
T3
X99160Y-29170
X99160Y-24170
X126900Y-24170
X126900Y-29170
X114400Y-29170
X114400Y-24170
X126900Y-7660
X126900Y-12660
X114400Y-12660
X114400Y-7660
X126900Y22820
X114400Y17820
X114400Y22820
X126900Y6310
X126900Y1310
X114400Y1310
X114400Y6310
X126900Y17820
X96420Y-24170
X96420Y-29170
X40540Y-3850
X40540Y-8850
X28040Y-8850
X28040Y-3850
X83920Y-29170
X83920Y-24170
X111660Y-24170
X111660Y-29170
T4
X48260Y-33020
X50760Y-33020
X59730Y-33020
X62230Y-33020
X64730Y-33020
X31790Y-33020
X76200Y-33020
X78700Y-33020
X47010Y19050
X47010Y16510
X47010Y13970
X47010Y11430
X47010Y8890
X73700Y-33020
X47010Y3810
X47010Y1270
X47010Y-1270
X47010Y-3810
X34290Y-33020
X36790Y-33020
X45760Y-33020
X47010Y6350
T5
X34290Y25400
X34290Y22098
X34290Y18796
X34290Y15494
X34290Y12192
X34290Y8890
X34290Y5588
X100770Y-6630
X100770Y-4090
X98230Y-6630
X98230Y-4090
X95690Y-6630
X95690Y-4090
X93150Y-6630
X93150Y-4090
X90610Y-6630
X90610Y-4090
X88070Y-6630
X88070Y-4090
X85530Y-6630
X85530Y-4090
X82990Y-6630
X82990Y-4090
X80450Y-6630
X80450Y-4090
X77910Y-6630
X77910Y-4090
X75370Y-6630
X75370Y-4090
X72830Y-6630
X72830Y-4090
X70290Y-6630
X70290Y-4090
X67750Y-6630
X67750Y-4090
X65210Y-6630
X65210Y-4090
X62670Y-6630
X62670Y-4090
X60130Y-6630
X60130Y-4090
X57590Y-6630
X57590Y-4090
X100770Y18770
X100770Y21310
X98230Y18770
X98230Y21310
X95690Y18770
X95690Y21310
X93150Y18770
X93150Y21310
X90610Y18770
X90610Y21310
X88070Y18770
X88070Y21310
X85530Y18770
X85530Y21310
X82990Y18770
X82990Y21310
X80450Y18770
X80450Y21310
X77910Y18770
X77910Y21310
X75370Y18770
X75370Y21310
X72830Y18770
X72830Y21310
X70290Y18770
X70290Y21310
X67750Y18770
X67750Y21310
X65210Y18770
X65210Y21310
X62670Y18770
X62670Y21310
X60130Y18770
X60130Y21310
X57590Y18770
X57590Y21310
M30